<svg xmlns="http://www.w3.org/2000/svg" xmlns:xlink="http://www.w3.org/1999/xlink" width="78.128" height="75.903" viewBox="0 0 78.128 75.903">
  <defs>
    <clipPath id="clip-path">
      <rect id="Rectangle_127" data-name="Rectangle 127" width="42" height="33.579" transform="translate(0 0)" fill="none"/>
    </clipPath>
  </defs>
  <g id="chat" transform="translate(1 1)">
    <g id="CHAT_BUBBLE" data-name="CHAT BUBBLE" transform="translate(1293.433 118.583) rotate(180)">
      <path id="Path_3" data-name="Path 3" d="M613.461,118.583h-44.34a7.373,7.373,0,0,1-7.369-7.395V66.525a7.4,7.4,0,0,0-7.394-7.395h-9.517c-.052.033-.167-13.89,0-14.3-.2-.092,16.706.029,16.911,0v6.918a7.4,7.4,0,0,0,7.4,7.395h44.342a7.4,7.4,0,0,1,7.394,7.395v44.65A7.435,7.435,0,0,1,613.461,118.583Z" transform="translate(672.55 0)" fill="#fff" stroke="#00009f" stroke-width="2"/>
    </g>
    <g id="Group_195" data-name="Group 195" transform="translate(-1525 -824.373)">
      <g id="Group_194" data-name="Group 194" transform="translate(1534 838)">
        <g id="Group_193" data-name="Group 193" clip-path="url(#clip-path)">
          <path id="Ellipse_6" data-name="Ellipse 6" d="M2.64-1A3.64,3.64,0,1,1-1,2.64,3.644,3.644,0,0,1,2.64-1Z" transform="translate(10.16 13.789)" fill="#00009f"/>
          <path id="Ellipse_7" data-name="Ellipse 7" d="M2.64-1A3.64,3.64,0,1,1-1,2.64,3.644,3.644,0,0,1,2.64-1Z" transform="translate(18.44 13.789)" fill="#00009f"/>
          <path id="Ellipse_8" data-name="Ellipse 8" d="M2.64-1A3.64,3.64,0,1,1-1,2.64,3.644,3.644,0,0,1,2.64-1Z" transform="translate(26.72 13.789)" fill="#00009f"/>
          <path id="Path_276" data-name="Path 276" d="M21,33.578a23.83,23.83,0,0,1-14.761-4.84A17.11,17.11,0,0,1,1.69,23.407a13.8,13.8,0,0,1,0-13.236A17.111,17.111,0,0,1,6.238,4.839,23.829,23.829,0,0,1,21,0a23.827,23.827,0,0,1,14.761,4.84,17.11,17.11,0,0,1,4.548,5.332,13.787,13.787,0,0,1-.6,14.219,1.434,1.434,0,0,0-.131,1.231l1.371,4.112a2.218,2.218,0,0,1-.3,2.02,2.266,2.266,0,0,1-1.83.945h0a2.234,2.234,0,0,1-1.068-.273L34.361,30.6a1.545,1.545,0,0,0-.728-.186,1.338,1.338,0,0,0-.65.165A24.674,24.674,0,0,1,21,33.578ZM21,2C10.523,2,2,8.634,2,16.789s8.523,14.789,19,14.789A22.671,22.671,0,0,0,32.01,28.83a3.342,3.342,0,0,1,1.623-.417,3.552,3.552,0,0,1,1.676.425l3.39,1.826a.252.252,0,0,0,.12.034.269.269,0,0,0,.208-.115.227.227,0,0,0,.028-.218l-1.371-4.112a3.424,3.424,0,0,1,.343-2.939A11.99,11.99,0,0,0,40,16.789C40,8.634,31.476,2,21,2Z" fill="#00009f"/>
        </g>
      </g>
    </g>
  </g>
</svg>
