<svg xmlns="http://www.w3.org/2000/svg" xmlns:xlink="http://www.w3.org/1999/xlink" width="92.001" height="92" viewBox="0 0 92.001 92">
  <defs>
    <clipPath id="clip-path">
      <rect id="Rectangle_179" data-name="Rectangle 179" width="54.002" height="64.192" transform="translate(0 0)" fill="#fff"/>
    </clipPath>
  </defs>
  <g id="icon-antispam-bg" transform="translate(0.001 -44)">
    <g id="bg" transform="translate(0 44)" fill="none" stroke="#fff" stroke-width="2" opacity="0">
      <circle cx="46" cy="46" r="46" stroke="none"/>
      <circle cx="46" cy="46" r="45" fill="none"/>
    </g>
    <g id="icon-antispam" transform="translate(-0.001 57.903)">
      <g id="Group_311" data-name="Group 311" clip-path="url(#clip-path)">
        <path id="Path_335" data-name="Path 335" d="M53,6a5.006,5.006,0,0,1-5-5V0H6V1A5.007,5.007,0,0,1,1,6H0L.007,27.109C.247,42.5,9.479,56.205,24.1,62.87L27,64.192l2.9-1.322C44.543,56.2,54,41.92,54,26.5V6ZM52,26.5c0,14.639-9,28.2-22.927,34.55L27,61.995l-2.073-.945C11.02,54.708,2.235,41.69,2.007,27.093L2,7.929A7.016,7.016,0,0,0,7.931,2H46.073A7.016,7.016,0,0,0,52,7.929Z" fill="#fff"/>
        <path id="Path_336" data-name="Path 336" d="M42,14.333H12a3,3,0,0,0-3,3v17a3,3,0,0,0,3,3H42a3,3,0,0,0,3-3v-17a3,3,0,0,0-3-3m-30,21a1,1,0,0,1-.244-.049l8.6-8.6-.708-.708-8.6,8.6A1,1,0,0,1,11,34.333v-17a1,1,0,0,1,1-1H42a1,1,0,0,1,1,1v17a1,1,0,0,1-.049.244l-8.6-8.6-.708.708,8.6,8.6a1,1,0,0,1-.244.049Z" fill="#fff"/>
        <path id="Path_337" data-name="Path 337" d="M37.3,20.457l-9.482,6.136a1.5,1.5,0,0,1-1.63,0L16.7,20.457l-.543.84,9.483,6.136a2.505,2.505,0,0,0,2.716,0L37.842,21.3Z" fill="#fff"/>
      </g>
    </g>
  </g>
</svg>
