<svg xmlns="http://www.w3.org/2000/svg" width="17.5" height="10" viewBox="0 0 17.5 10">
  <g id="icon-dropdown" transform="translate(17.5) rotate(90)">
    <path id="Path_275" data-name="Path 275" d="M8.75,7.5A1.25,1.25,0,0,1,7.5,6.25,1.25,1.25,0,0,0,6.25,5,1.25,1.25,0,0,1,5,3.75,1.25,1.25,0,0,0,3.75,2.5,1.25,1.25,0,0,1,2.5,1.25,1.25,1.25,0,1,0,1.25,2.5,1.25,1.25,0,0,1,2.5,3.75,1.25,1.25,0,0,0,3.75,5,1.25,1.25,0,0,1,5,6.25V5.888a2.394,2.394,0,0,0,.781,1.887,1.248,1.248,0,0,1,0,1.95A2.394,2.394,0,0,0,5,11.613V11.25A1.25,1.25,0,0,1,3.75,12.5,1.25,1.25,0,0,0,2.5,13.75,1.25,1.25,0,0,1,1.25,15,1.25,1.25,0,1,0,2.5,16.25,1.25,1.25,0,0,1,3.75,15,1.25,1.25,0,0,0,5,13.75,1.25,1.25,0,0,1,6.25,12.5,1.25,1.25,0,0,0,7.5,11.25,1.25,1.25,0,0,1,8.75,10a1.25,1.25,0,1,0,0-2.5" fill="#00009f"/>
  </g>
</svg>
