<svg xmlns="http://www.w3.org/2000/svg" xmlns:xlink="http://www.w3.org/1999/xlink" width="80" height="68.34" viewBox="0 0 80 68.34">
  <defs>
    <clipPath id="clip-path">
      <rect id="Rectangle_5760" data-name="Rectangle 5760" width="80" height="68.34" fill="none" stroke="#d92a92" stroke-width="1"/>
    </clipPath>
  </defs>
  <g id="icon-domain-cost" transform="translate(0 0)">
    <g id="Group_15683" data-name="Group 15683" transform="translate(0 0)">
      <g id="Group_15696" data-name="Group 15696">
        <path id="Subtraction_45" data-name="Subtraction 45" d="M-2282.092-6607.188a33.692,33.692,0,0,1-13.2-2.666,33.784,33.784,0,0,1-10.778-7.265,33.778,33.778,0,0,1-7.265-10.777,33.685,33.685,0,0,1-2.665-13.2,33.671,33.671,0,0,1,2.665-13.2,33.8,33.8,0,0,1,7.265-10.778,33.811,33.811,0,0,1,10.778-7.265,33.692,33.692,0,0,1,13.2-2.666,33.676,33.676,0,0,1,13.2,2.666,33.8,33.8,0,0,1,10.778,7.265,33.8,33.8,0,0,1,7.265,10.778,33.7,33.7,0,0,1,2.665,13.2,33.714,33.714,0,0,1-2.665,13.2,33.783,33.783,0,0,1-7.265,10.777,33.768,33.768,0,0,1-10.778,7.265A33.676,33.676,0,0,1-2282.092-6607.188Zm.5-14.211v12.207c.447-.006.914-.023,1.387-.05a7.535,7.535,0,0,0,1.99-1.841,23.058,23.058,0,0,0,3.4-6.9c.353-1.056.687-2.206.993-3.416Zm-8.775,0h0c.307,1.21.641,2.359.993,3.416a23.058,23.058,0,0,0,3.4,6.9,7.544,7.544,0,0,0,1.99,1.841c.466.027.933.043,1.387.05V-6621.4Zm17.58,0h0c-.326,1.314-.688,2.57-1.075,3.731-1.272,3.816-2.8,6.6-4.53,8.271.427-.05.862-.109,1.292-.176,4.756-1.721,9.026-5.921,12.023-11.825Zm-26.319,0h0c3,5.9,7.267,10.1,12.023,11.825.417.065.851.125,1.291.176-1.734-1.671-3.258-4.455-4.531-8.271-.39-1.168-.751-2.423-1.074-3.731h-7.709Zm-8.093,0a32.568,32.568,0,0,0,2.546,2.866,31.788,31.788,0,0,0,10.142,6.838,31.563,31.563,0,0,0,3.424,1.223,24.551,24.551,0,0,1-6.934-7.076,33.76,33.76,0,0,1-2.208-3.852h-6.97Zm43.243,0h0a33.523,33.523,0,0,1-2.208,3.852,24.539,24.539,0,0,1-6.934,7.076,31.463,31.463,0,0,0,3.424-1.223,31.788,31.788,0,0,0,10.142-6.838,32.5,32.5,0,0,0,2.546-2.866Zm-7.346-8.227a72.042,72.042,0,0,1-1.248,7.227h7.959a39.881,39.881,0,0,0,2.55-7.227Zm-30.842,0a39.878,39.878,0,0,0,2.55,7.227h7.959a71.575,71.575,0,0,1-1.248-7.227Zm20.551,0v7.227h8.018a70.46,70.46,0,0,0,1.266-7.227Zm20.583,0h0c-.114.47-.245.967-.389,1.476a40.689,40.689,0,0,1-2.086,5.751h7.254a31.8,31.8,0,0,0,3.536-6.275c.126-.3.253-.608.385-.952Zm-30.867,0a70.429,70.429,0,0,0,1.266,7.227h8.018v-7.227Zm-20,0h0c.133.343.259.654.385.952a31.9,31.9,0,0,0,3.538,6.275h7.253a40.745,40.745,0,0,1-2.087-5.751c-.142-.5-.273-1-.389-1.476Zm50.081-1.018h1.025l0,.01,0,.01h8.833a31.81,31.81,0,0,0,1.757-10.47,31.8,31.8,0,0,0-1.757-10.468h-8.833l0,.014,0,.008h-1.025l0-.017v0h-9.383v.011l-1.007,0v-.014h-9.4v.006h-1v-.005h-7.1l-21.658-.017v.017h-.895a31.794,31.794,0,0,0-1.756,10.468,31.8,31.8,0,0,0,1.756,10.47h8.833l0-.013,0-.013h1.027v.007l0,.019H-2293v-.024H-2292c0,.007,0,.013,0,.019l9.4,0v-.023h1v.022h9.4l0-.021h1.007c0,.006,0,.012,0,.018l9.382,0,0-.019Zm-37.636-29.484h0a39.808,39.808,0,0,0-2.71,7.565h9.26a71.259,71.259,0,0,1,1.327-7.565Zm8.9,0h0a69.658,69.658,0,0,0-1.347,7.565h9.284v-7.565Zm8.937,0v7.565h9.284a69.638,69.638,0,0,0-1.347-7.565Zm17.951,0h0a40.351,40.351,0,0,1,2.243,6.089c.144.513.275,1.009.389,1.476h8.7c-.123-.319-.251-.639-.384-.95a31.857,31.857,0,0,0-3.786-6.615Zm-8.987,0a71.253,71.253,0,0,1,1.327,7.565h9.26a39.809,39.809,0,0,0-2.71-7.565Zm-35.077,0a31.916,31.916,0,0,0-3.788,6.615c-.127.3-.257.619-.384.95h8.7c.131-.531.259-1.014.389-1.476a40.583,40.583,0,0,1,2.245-6.089h-7.161Zm29.311-12.661c1.734,1.668,3.259,4.451,4.531,8.269.356,1.067.689,2.209.99,3.393h7.621a28.327,28.327,0,0,0-5.244-7.212,18.53,18.53,0,0,0-6.611-4.274C-2277.543-6672.684-2277.976-6672.742-2278.395-6672.789Zm-12.69,1.072a32.468,32.468,0,0,0-3.427,1.225,31.772,31.772,0,0,0-10.142,6.838,32.743,32.743,0,0,0-2.275,2.526h6.868a33.97,33.97,0,0,1,2.039-3.511,24.547,24.547,0,0,1,6.937-7.078Zm17.984,0h0a24.512,24.512,0,0,1,6.937,7.076,33.952,33.952,0,0,1,2.039,3.511h6.868a32.4,32.4,0,0,0-2.275-2.526,31.772,31.772,0,0,0-10.142-6.838A31.759,31.759,0,0,0-2273.1-6671.716Zm-8.492-1.279v11.867h7.688c-.273-1.052-.577-2.087-.906-3.076a23.062,23.062,0,0,0-3.4-6.9,7.453,7.453,0,0,0-1.993-1.841c-.457-.026-.922-.043-1.384-.05Zm-1,0c-.462.007-.927.024-1.384.05a7.456,7.456,0,0,0-1.993,1.841,23.062,23.062,0,0,0-3.4,6.9c-.327.982-.632,2.018-.906,3.076h7.688V-6673Zm-3.2.206c-.41.046-.843.1-1.285.174a18.538,18.538,0,0,0-6.612,4.274,28.313,28.313,0,0,0-5.245,7.212h7.621c.3-1.181.633-2.322.988-3.393C-2289.051-6668.337-2287.525-6671.12-2285.791-6672.789Z" transform="translate(2316.264 6675.263)" fill="#d92a92"/>
      </g>
    </g>
    <path id="Path_24427" data-name="Path 24427" d="M3.36,0h2.1L6.825-5.481a22.794,22.794,0,0,0,.651-3.024H7.56c.231,1.2.42,2.079.672,3.024L9.618,0h2.205l2.751-10.206H12.915L11.424-4.284c-.231.924-.4,1.806-.609,2.9h-.084c-.21-1.092-.441-1.974-.672-2.9L8.505-10.206H6.636L5.1-4.284c-.231.924-.42,1.806-.63,2.9H4.389c-.168-1.092-.378-1.974-.609-2.9L2.289-10.206H.5ZM18.438,0h2.1L21.9-5.481a22.794,22.794,0,0,0,.651-3.024h.084c.231,1.2.42,2.079.672,3.024L24.7,0H26.9l2.751-10.206H27.993L26.5-4.284c-.231.924-.4,1.806-.609,2.9h-.084c-.21-1.092-.441-1.974-.672-2.9l-1.554-5.922H21.714L20.181-4.284c-.231.924-.42,1.806-.63,2.9h-.084c-.168-1.092-.378-1.974-.609-2.9l-1.491-5.922H15.582ZM33.516,0h2.1l1.365-5.481a22.794,22.794,0,0,0,.651-3.024h.084c.231,1.2.42,2.079.672,3.024L39.774,0h2.2L44.73-10.206H43.071L41.58-4.284c-.231.924-.4,1.806-.609,2.9h-.084c-.21-1.092-.441-1.974-.672-2.9l-1.554-5.922H36.792L35.259-4.284c-.231.924-.42,1.806-.63,2.9h-.084c-.168-1.092-.378-1.974-.609-2.9l-1.491-5.922H30.66Z" transform="translate(8.598 39.23)" fill="#d92a92"/>
    <g id="Group_15685" data-name="Group 15685" transform="translate(0 0)">
      <g id="Group_15684" data-name="Group 15684" clip-path="url(#clip-path)">
        <path id="Path_24412" data-name="Path 24412" d="M53.714,39.611A19.045,19.045,0,0,1,42.248,22.6l0-9.8a2.926,2.926,0,0,0,2.927-2.926H64.684A2.926,2.926,0,0,0,67.61,12.8v9.512a19.235,19.235,0,0,1-11.469,17.3l-1.213.553Z" transform="translate(11.127 2.601)" fill="#fff"/>
        <path id="Path_24412_-_Outline" data-name="Path 24412 - Outline" d="M54.928,40.714l-1.422-.648A19.541,19.541,0,0,1,41.748,22.611V22.6l0-10.3h.5a2.429,2.429,0,0,0,2.427-2.426v-.5H65.184v.5A2.429,2.429,0,0,0,67.61,12.3h.5V22.314A19.736,19.736,0,0,1,56.348,40.066ZM42.748,22.6A18.55,18.55,0,0,0,53.921,39.156l1.007.459,1.005-.459A18.734,18.734,0,0,0,67.11,22.314V13.266a3.434,3.434,0,0,1-2.89-2.89H45.636a3.435,3.435,0,0,1-2.891,2.89Z" transform="translate(11.127 2.601)" fill="#d92a92"/>
        <path id="Path_24413" data-name="Path 24413" d="M54.928,41.263,53.3,40.521a20.037,20.037,0,0,1-12.052-17.9V22.6l0-10.8h1a1.929,1.929,0,0,0,1.927-1.926v-1H65.684v1A1.928,1.928,0,0,0,67.61,11.8h1V22.314A20.237,20.237,0,0,1,56.556,40.521ZM43.248,22.595A18.055,18.055,0,0,0,54.129,38.7l.8.364.8-.364A18.233,18.233,0,0,0,66.61,22.314V13.673a3.94,3.94,0,0,1-2.8-2.8H46.043a3.941,3.941,0,0,1-2.8,2.8Z" transform="translate(11.127 2.601)" fill="#d92a92"/>
        <path id="Path_24414" data-name="Path 24414" d="M59.5,17.078a6,6,0,1,0,0,8.482" transform="translate(12.974 4.036)" fill="#fff"/>
        <path id="Path_24414_-_Outline" data-name="Path 24414 - Outline" d="M55.254,27.817a6.5,6.5,0,1,1,4.595-11.092l-.707.707a5.5,5.5,0,1,0,0,7.775l.707.707A6.455,6.455,0,0,1,55.254,27.817Z" transform="translate(12.974 4.036)" fill="#d92a92"/>
        <path id="Path_24415" data-name="Path 24415" d="M55.254,27.817a6.5,6.5,0,1,1,4.595-11.092l-.707.707a5.5,5.5,0,1,0,0,7.775l.707.707A6.455,6.455,0,0,1,55.254,27.817Z" transform="translate(12.974 4.036)" fill="#d92a92"/>
        <path id="Line_815" data-name="Line 815" d="M9.214.5H0v-1H9.214Z" transform="translate(59.64 23.991)" fill="#d92a92"/>
        <path id="Line_816" data-name="Line 816" d="M9.214.5H0v-1H9.214Z" transform="translate(59.64 23.991)" fill="#d92a92"/>
        <path id="Line_817" data-name="Line 817" d="M9.214.5H0v-1H9.214Z" transform="translate(59.64 27.126)" fill="#d92a92"/>
        <path id="Line_818" data-name="Line 818" d="M9.214.5H0v-1H9.214Z" transform="translate(59.64 27.126)" fill="#d92a92"/>
      </g>
    </g>
  </g>
</svg>
