<svg xmlns="http://www.w3.org/2000/svg" width="24.792" height="22.468" viewBox="0 0 24.792 22.468">
  <g id="Group_15621" data-name="Group 15621" transform="translate(0.325 0.462)">
    <path id="Path_24180" data-name="Path 24180" d="M11.946,18.434,4.908,11.462,9.16,7.249l3.018,2.99L22.507.007l4.02,3.982Zm-4.2-6.973,4.2,4.158L23.685,3.989,22.507,2.822,12.178,13.054,9.16,10.064Z" transform="translate(-2.06 -0.469)" fill="#00009f"/>
    <path id="Path_24182" data-name="Path 24182" d="M10.444,23.145a10.356,10.356,0,1,1,0-20.711,10.452,10.452,0,0,1,7.105,2.78l.769.709-7.873,7.8-3.019-2.99-1.411,1.4,4.2,4.158,9.149-9.064.6,1.3a10.2,10.2,0,0,1,.931,4.26A10.412,10.412,0,0,1,10.444,23.145Zm0-18.711a8.356,8.356,0,1,0,8.444,8.355,8.16,8.16,0,0,0-.255-2.028L10.211,19.1,3.173,12.131,7.426,7.918l3.019,2.99L15.378,6.02A8.448,8.448,0,0,0,10.444,4.434Z" transform="translate(-0.325 -1.139)" fill="#00009f"/>
  </g>
</svg>
