<svg xmlns="http://www.w3.org/2000/svg" xmlns:xlink="http://www.w3.org/1999/xlink" width="92.001" height="92" viewBox="0 0 92.001 92">
  <defs>
    <clipPath id="clip-path">
      <rect id="Rectangle_125" data-name="Rectangle 125" width="54.002" height="64.192" transform="translate(0 0)" fill="#fff"/>
    </clipPath>
  </defs>
  <g id="icon-ssl-bg" transform="translate(0.001 -44)">
    <g id="bg" transform="translate(0 44)" fill="none" stroke="#fff" stroke-width="2" opacity="0">
      <circle cx="46" cy="46" r="46" stroke="none"/>
      <circle cx="46" cy="46" r="45" fill="none"/>
    </g>
    <g id="icon-ssl" transform="translate(-0.001 57.904)">
      <g id="Group_186" data-name="Group 186" clip-path="url(#clip-path)">
        <path id="Path_249" data-name="Path 249" d="M53,6a5.006,5.006,0,0,1-5-5V0H6V1A5.005,5.005,0,0,1,1,6H0L.008,27.109C.248,42.5,9.48,56.205,24.1,62.87L27,64.192l2.9-1.322C44.543,56.2,54,41.92,54,26.5V6ZM52,26.5c0,14.639-9,28.2-22.927,34.55L27,61.995l-2.073-.945C11.019,54.708,2.236,41.691,2.008,27.093L2,7.929A7.015,7.015,0,0,0,7.931,2H46.073A7.015,7.015,0,0,0,52,7.929Z" fill="#fff"/>
        <path id="Path_250" data-name="Path 250" d="M35,17.279a8,8,0,1,0-16,0v3.5H14v18.48A3.245,3.245,0,0,0,17.243,42.5H36.76A3.245,3.245,0,0,0,40,39.258V20.778H35Zm-14,0a6,6,0,1,1,12,0v3.5H21ZM27,35.5a1,1,0,0,1-1-1V31.346l-.427-.3a2.5,2.5,0,1,1,2.854,0l-.427.3V34.5a1,1,0,0,1-1,1m-9.759,5A1.243,1.243,0,0,1,16,39.258V22.778H26.5v1.773a4.478,4.478,0,0,0-2.5,7.8V34.5a3,3,0,0,0,2.5,2.95V40.5ZM38,39.258A1.244,1.244,0,0,1,36.76,40.5H27.5V37.45A3,3,0,0,0,30,34.5V32.348a4.478,4.478,0,0,0-2.5-7.8V22.778H38Z" fill="#fff"/>
      </g>
    </g>
  </g>
</svg>
