<svg xmlns="http://www.w3.org/2000/svg" width="67.74" height="67.74" viewBox="0 0 67.74 67.74">
  <g id="icon-crypto" transform="translate(-877.316 -746.316)">
    <g id="Group_15792" data-name="Group 15792" transform="translate(877 746)">
      <path id="Ellipse_94_-_Outline" data-name="Ellipse 94 - Outline" d="M32.87-1A33.879,33.879,0,0,1,46.054,64.078,33.878,33.878,0,0,1,19.686,1.662,33.659,33.659,0,0,1,32.87-1Zm0,65.74A31.879,31.879,0,0,0,45.275,3.5a31.878,31.878,0,0,0-24.81,58.732A31.67,31.67,0,0,0,32.87,64.74Z" transform="translate(1.316 1.316)" fill="#00009f"/>
      <path id="Ellipse_93" data-name="Ellipse 93" d="M26.325-.5A26.832,26.832,0,0,1,36.767,51.043,26.832,26.832,0,0,1,15.884,1.608,26.658,26.658,0,0,1,26.325-.5Zm0,52.651A25.832,25.832,0,0,0,36.378,2.529a25.832,25.832,0,0,0-20.1,47.592A25.663,25.663,0,0,0,26.325,52.151Z" transform="translate(7.861 7.861)" fill="#00009f"/>
      <path id="Line_839" data-name="Line 839" d="M6.581.5H0v-1H6.581Z" transform="translate(60.997 34.062)" fill="#00009f"/>
      <path id="Line_840" data-name="Line 840" d="M.5,6.581h-1V0h1Z" transform="translate(34.757 1.279)" fill="#00009f"/>
      <path id="Line_841" data-name="Line 841" d="M.5,6.581h-1V0h1Z" transform="translate(34.757 60.512)" fill="#00009f"/>
      <path id="Line_842" data-name="Line 842" d="M1.251,6.489-.482.132.482-.132,2.216,6.226Z" transform="translate(26.092 2.401)" fill="#00009f"/>
      <path id="Line_843" data-name="Line 843" d="M1.251,6.489-.482.132.482-.132,2.216,6.226Z" transform="translate(41.688 59.615)" fill="#00009f"/>
      <path id="Line_844" data-name="Line 844" d="M2.916,5.953-.431.253.431-.253l3.347,5.7Z" transform="translate(18.018 5.688)" fill="#00009f"/>
      <path id="Line_845" data-name="Line 845" d="M2.916,5.953-.431.253.431-.253l3.347,5.7Z" transform="translate(48.147 56.985)" fill="#00009f"/>
      <path id="Line_846" data-name="Line 846" d="M4.384,5.011-.351.357l.7-.713L5.085,4.3Z" transform="translate(11.085 10.918)" fill="#00009f"/>
      <path id="Line_847" data-name="Line 847" d="M4.384,5.011-.351.357l.7-.713L5.085,4.3Z" transform="translate(53.694 52.801)" fill="#00009f"/>
      <path id="Line_848" data-name="Line 848" d="M5.551,3.726-.247.435l.494-.87,5.8,3.291Z" transform="translate(5.764 17.733)" fill="#00009f"/>
      <path id="Line_849" data-name="Line 849" d="M5.551,3.726-.247.435l.494-.87,5.8,3.291Z" transform="translate(57.95 47.349)" fill="#00009f"/>
      <path id="Line_850" data-name="Line 850" d="M6.339,2.187-.127.484.127-.484l6.467,1.7Z" transform="translate(2.42 25.669)" fill="#00009f"/>
      <path id="Line_851" data-name="Line 851" d="M6.339,2.187-.127.484.127-.484l6.467,1.7Z" transform="translate(60.626 41)" fill="#00009f"/>
      <path id="Line_852" data-name="Line 852" d="M6.7.5H0v-1H6.7Z" transform="translate(1.279 34.186)" fill="#00009f"/>
      <path id="Line_853" data-name="Line 853" d="M.127,2.187-.127,1.22l6.467-1.7.255.967Z" transform="translate(2.42 41)" fill="#00009f"/>
      <path id="Line_854" data-name="Line 854" d="M.127,2.187-.127,1.22l6.467-1.7.255.967Z" transform="translate(60.626 25.669)" fill="#00009f"/>
      <path id="Line_855" data-name="Line 855" d="M.247,3.726l-.494-.87,5.8-3.291.494.87Z" transform="translate(5.764 47.349)" fill="#00009f"/>
      <path id="Line_856" data-name="Line 856" d="M.247,3.726l-.494-.87,5.8-3.291.494.87Z" transform="translate(57.95 17.733)" fill="#00009f"/>
      <path id="Line_857" data-name="Line 857" d="M.351,5.011l-.7-.713L4.384-.357l.7.713Z" transform="translate(11.085 52.8)" fill="#00009f"/>
      <path id="Line_858" data-name="Line 858" d="M.351,5.011l-.7-.713L4.384-.357l.7.713Z" transform="translate(53.694 10.917)" fill="#00009f"/>
      <path id="Line_859" data-name="Line 859" d="M.431,5.953l-.862-.506,3.347-5.7.862.506Z" transform="translate(18.018 56.985)" fill="#00009f"/>
      <path id="Line_860" data-name="Line 860" d="M.431,5.953l-.862-.506,3.347-5.7.862.506Z" transform="translate(48.147 5.688)" fill="#00009f"/>
      <path id="Line_861" data-name="Line 861" d="M.482,6.489l-.965-.263L1.251-.132l.965.263Z" transform="translate(26.092 59.614)" fill="#00009f"/>
      <path id="Line_862" data-name="Line 862" d="M.482,6.489l-.965-.263L1.251-.132l.965.263Z" transform="translate(41.688 2.4)" fill="#00009f"/>
    </g>
    <path id="Icon_metro-bitcoin" data-name="Icon metro-bitcoin" d="M18.049,8.814a2.72,2.72,0,0,1-1.5,2.961,3.446,3.446,0,0,1,2.008,1.182,3.4,3.4,0,0,1,.516,2.456,4.339,4.339,0,0,1-.373,1.435,3.167,3.167,0,0,1-.74,1.021,3.767,3.767,0,0,1-1.113.671,6.783,6.783,0,0,1-1.394.4,13.827,13.827,0,0,1-1.67.172v2.926H12.012V19.154q-.918,0-1.4-.011v2.892H8.845V19.108q-.207,0-.62-.006T7.594,19.1H5.3L5.654,17H6.928a.613.613,0,0,0,.666-.585V11.8h.184a1.167,1.167,0,0,0-.184-.011V8.493a.912.912,0,0,0-1.021-.78H5.3V5.83l2.433.011q.734,0,1.113-.011V2.938h1.767V5.773q.941-.023,1.4-.023V2.938H13.78V5.83a10.239,10.239,0,0,1,1.607.258,5.219,5.219,0,0,1,1.3.516,2.629,2.629,0,0,1,.947.9,2.929,2.929,0,0,1,.419,1.314Zm-2.467,6.255a1.531,1.531,0,0,0-.172-.734,1.721,1.721,0,0,0-.425-.528,2.179,2.179,0,0,0-.66-.35,5.571,5.571,0,0,0-.752-.212,6.786,6.786,0,0,0-.849-.1q-.5-.034-.792-.034t-.74.011q-.453.011-.545.011v3.879l.425.006q.333.006.551.006T12.23,17q.39-.017.671-.046t.654-.1a4.392,4.392,0,0,0,.637-.161,3.9,3.9,0,0,0,.545-.241,1.59,1.59,0,0,0,.453-.344,1.622,1.622,0,0,0,.281-.459,1.521,1.521,0,0,0,.109-.585Zm-.815-5.463a1.506,1.506,0,0,0-.143-.671,1.6,1.6,0,0,0-.35-.482,1.716,1.716,0,0,0-.551-.321,3.944,3.944,0,0,0-.631-.189,6.319,6.319,0,0,0-.706-.092q-.419-.034-.666-.029l-.62.011-.453.006v3.523l.4.006q.339.006.534,0t.574-.023a4.854,4.854,0,0,0,.631-.063q.253-.046.591-.126a1.946,1.946,0,0,0,.557-.212,3.151,3.151,0,0,0,.425-.31,1.1,1.1,0,0,0,.31-.442,1.592,1.592,0,0,0,.1-.585Z" transform="translate(898.701 768.063)" fill="#00009f"/>
  </g>
</svg>
