<svg id="icon-server" xmlns="http://www.w3.org/2000/svg" width="20" height="22.861" viewBox="0 0 20 22.861">
  <path id="Union_55" data-name="Union 55" d="M4.426,22.861A4.431,4.431,0,0,1,0,18.432v-6.5H.014C0,11.813,0,11.695,0,11.574v-6.5H.047A4.479,4.479,0,0,1,0,4.43,4.432,4.432,0,0,1,4.426,0H15.573a4.432,4.432,0,0,1,4.38,5.074H20v6.5c0,.12-.005.239-.015.358H20v6.5a4.434,4.434,0,0,1-4.427,4.429Zm0-1.429H15.573a3,3,0,0,0,3-3v-3.6a4.412,4.412,0,0,1-3,1.175H4.426a4.4,4.4,0,0,1-3-1.175v3.6A3,3,0,0,0,4.426,21.432Zm0-6.859H15.573a3,3,0,0,0,3-3V7.683a4.407,4.407,0,0,1-3,1.176H4.426a4.409,4.409,0,0,1-3-1.174v3.889A3,3,0,0,0,4.426,14.574Zm-3-10.143a3,3,0,0,0,3,3H15.573a3,3,0,1,0,0-6H4.426A3,3,0,0,0,1.427,4.43Zm14.823.5V4.217h.713v.713ZM4.1,4.929V4.217H14.821v.713Z" fill="#00009f"/>
</svg>
