<svg id="icon-kataxoritis-bg" xmlns="http://www.w3.org/2000/svg" width="92" height="92" viewBox="0 0 92 92">
  <path id="bg" d="M1,1H91V91H1ZM0,92H92V0H0Z" fill="#e6e6e6" opacity="0"/>
  <g id="icon-kataxoritis" transform="translate(17 8)">
    <g id="Group_15346" data-name="Group 15346">
      <path id="Path_17075" data-name="Path 17075" d="M35.312,34.472H22.1V29.206h3.927v-5.76H22.712V19.082l.846-.132a9.381,9.381,0,0,0,4.033-1.33l.241-.148H32.1V29.206h3.217Zm-11.214-2h9.214V31.206H30.095V19.472h-1.7a10.612,10.612,0,0,1-3.679,1.309v.665h3.313v9.76H24.1Z" fill="#5492ce"/>
      <path id="Path_17076" data-name="Path 17076" d="M28.705,7.1a18.821,18.821,0,1,1-7.348,1.484A18.757,18.757,0,0,1,28.705,7.1Zm0,35.75A16.875,16.875,0,1,0,16.772,37.9,16.764,16.764,0,0,0,28.705,42.847Z" fill="#5492ce"/>
      <path id="Ellipse_25" data-name="Ellipse 25" d="M24.972-1a25.979,25.979,0,0,1,10.11,49.9A25.978,25.978,0,0,1,14.862,1.041,25.81,25.81,0,0,1,24.972-1Zm0,49.944A23.979,23.979,0,0,0,34.3,2.883,23.978,23.978,0,0,0,15.641,47.061,23.821,23.821,0,0,0,24.972,48.944Z" transform="translate(3.733 1)" fill="#5492ce"/>
      <path id="Path_17077" data-name="Path 17077" d="M41.639,75.347l-13.8-23.9,1.732-1L40.956,70.165l2.756-10.287L54,62.634,43.985,45.287l1.732-1,12.43,21.529-13.02-3.488Z" fill="#5492ce"/>
      <path id="Path_17078" data-name="Path 17078" d="M16.508,75.347,13.02,62.327,0,65.815,12.43,44.287l1.732,1L4.146,62.634l10.288-2.756L17.19,70.165,28.576,50.444l1.732,1Z" fill="#5492ce"/>
      <path id="Line_99" data-name="Line 99" d="M5.4,12.077-.879.476.879-.476l6.278,11.6Z" transform="translate(38.142 49.501)" fill="#5492ce"/>
      <path id="Line_100" data-name="Line 100" d="M.89,12.266l-1.78-.912L5.158-.456l1.78.912Z" transform="translate(13.726 49.292)" fill="#5492ce"/>
    </g>
  </g>
</svg>
