<svg xmlns="http://www.w3.org/2000/svg" width="35.779" height="36.299" viewBox="0 0 35.779 36.299">
  <g id="icon-footer-support" transform="translate(0.002 0.003)">
    <path id="Union_15" data-name="Union 15" d="M19120.625,7591.591l0,0-4.82-4.893-4.041,2.373-3.971-4.862c-.34.029-.672.043-1.012.043-.111,0-.221,0-.332,0l-3.932,4.829-7.541-4.435,2.074-5.708c-.174-.269-.332-.538-.471-.8l-5.885-1.022v-8.837l5.885-1.022a9.243,9.243,0,0,1,.471-.8l-2.074-5.712,7.541-4.436,3.938,4.829c.109,0,.221,0,.326,0s.225,0,.33,0l3.941-4.829,7.547,4.436-2.08,5.708c.178.273.336.547.477.807l5.879,1.022v8.837l-5.879,1.022a.037.037,0,0,0-.008.011l8.488,8.615a3.425,3.425,0,0,1-4.848,4.838Zm-10.551-13.556,11.967,12.145a1.424,1.424,0,0,0,2.012-2.016v0l-12.039-12.221a.984.984,0,0,1-.221-1.061,5.8,5.8,0,0,0-5.42-7.748c-.2,0-.4.014-.6.033l1.637,1.642a.986.986,0,0,1,.293.686l.059,3.317a1,1,0,0,1-1.02,1.018l-3.316-.058a.979.979,0,0,1-.691-.293l-1.68-1.68a5.511,5.511,0,0,0,.053,1.743,5.793,5.793,0,0,0,1.607,3.029,5.72,5.72,0,0,0,4.066,1.7,5.455,5.455,0,0,0,2.184-.451,1,1,0,0,1,1.109.216Zm-.043,5.75,2.193,2.688,2.127-1.25-2.24-2.275A11.455,11.455,0,0,1,19110.031,7583.786Zm-12.605-.033,4.617,2.722,2.074-2.535a11.5,11.5,0,0,1-5.506-3.077c-.039-.034-.072-.067-.105-.1Zm-.207-11.069a9.561,9.561,0,0,0,13.4,8.755l-1.514-1.536a7.415,7.415,0,0,1-2.328.365,7.834,7.834,0,0,1-7.643-6.365,7.49,7.49,0,0,1,.506-4.421.979.979,0,0,1,.729-.581,1,1,0,0,1,.889.274l2.6,2.6,1.877.034-.029-1.882-2.578-2.578a1,1,0,0,1,.313-1.627,7.437,7.437,0,0,1,2.928-.59,7.8,7.8,0,0,1,7.494,9.84l1.627,1.652a9.563,9.563,0,1,0-18.275-3.941Zm21.127,0a11.407,11.407,0,0,1-.467,3.254l2.992-.519v-5.472l-2.992-.523A11.465,11.465,0,0,1,19118.346,7572.684Zm-25.652-2.736v5.472l2.99.519a11.63,11.63,0,0,1-.461-3.254,11.756,11.756,0,0,1,.461-3.254Zm16.758-8.52a11.568,11.568,0,0,1,5.506,3.077l.023.024.01.01c.023.024.043.048.063.067l1.09-2.991-4.629-2.722Zm-12.025.187,1.08,2.991a.94.94,0,0,1,.105-.1,11.471,11.471,0,0,1,5.5-3.077l-2.074-2.535Z" transform="translate(-19090.693 -7556.298)" fill="#fff"/>
  </g>
</svg>
