<svg xmlns="http://www.w3.org/2000/svg" xmlns:xlink="http://www.w3.org/1999/xlink" width="92" height="92" viewBox="0 0 92 92">
  <defs>
    <clipPath id="clip-path">
      <rect id="Rectangle_178" data-name="Rectangle 178" width="76.928" height="52" fill="#fff"/>
    </clipPath>
  </defs>
  <g id="icon-monitoring-bg" transform="translate(0 -44)">
    <g id="bg" transform="translate(0 44)" fill="none" stroke="#fff" stroke-width="2" opacity="0">
      <circle cx="46" cy="46" r="46" stroke="none"/>
      <circle cx="46" cy="46" r="45" fill="none"/>
    </g>
    <g id="icon-monitoring" transform="translate(0.001 64)">
      <rect id="Rectangle_171" data-name="Rectangle 171" width="1.191" height="1" transform="translate(55.87 4.521)" fill="#fff"/>
      <rect id="Rectangle_172" data-name="Rectangle 172" width="1.19" height="1" transform="translate(52.361 4.521)" fill="#fff"/>
      <rect id="Rectangle_173" data-name="Rectangle 173" width="1.191" height="1" transform="translate(48.851 4.521)" fill="#fff"/>
      <rect id="Rectangle_174" data-name="Rectangle 174" width="16.667" height="1" transform="translate(10.338 45.571)" fill="#fff"/>
      <rect id="Rectangle_175" data-name="Rectangle 175" width="16.667" height="1" transform="translate(46.052 45.571)" fill="#fff"/>
      <rect id="Rectangle_176" data-name="Rectangle 176" width="16.665" height="1" transform="translate(28.196 45.571)" fill="#fff"/>
      <rect id="Rectangle_177" data-name="Rectangle 177" width="7.159" height="1.001" transform="translate(16.275 27.714)" fill="#fff"/>
      <path id="Path_333" data-name="Path 333" d="M17.517,14.847H13.684L12.14,18.632,10.095,8.527,7.7,14.952H4.073v1h4.32l1.417-3.8,2.006,9.918,2.54-6.227h3.161Z" fill="#fff"/>
      <g id="Group_309" data-name="Group 309">
        <g id="Group_308" data-name="Group 308" clip-path="url(#clip-path)">
          <path id="Path_334" data-name="Path 334" d="M76.927,21.542l-.707-.707-4.678,4.679a10.771,10.771,0,0,0-8.511-4.29V5.762A5.769,5.769,0,0,0,57.269,0H16.793a5.762,5.762,0,0,0-5.626,4.571c-.125,0-.247-.019-.373-.019a10.795,10.795,0,0,0,0,21.589c.08,0,.158-.01.237-.012v7.986L4.944,47.385A3.257,3.257,0,0,0,7.9,52H66.158a3.257,3.257,0,0,0,2.961-4.615L66.7,42.12a10.752,10.752,0,0,0,5.413-15.768ZM52.15,32.015a10.818,10.818,0,0,0,.089,1.318H32.267V28.715H42.981V20.572H32.267V14.429h25.19v8.307a10.79,10.79,0,0,0-5.307,9.279M32.267,21.572h9.714v6.143H32.267Zm-1-8.143v7.143H26.5v8.143h4.762v4.618H13.031V25.905a10.714,10.714,0,0,0,3.244-1.275v.513h7.158v-1H17.028A10.85,10.85,0,0,0,19.6,21.572h3.836v-1h-3.2A10.764,10.764,0,0,0,21.245,18h2.188V17H21.448a10.74,10.74,0,0,0,.141-1.654c0-.31-.021-.615-.047-.918h1.891v-1H21.408a10.761,10.761,0,0,0-2.289-4.946H61.031V21.4a10.647,10.647,0,0,0-2.574.81V13.429Zm0,14.286H27.5V21.572h3.762ZM16.793,2H57.269a3.766,3.766,0,0,1,3.762,3.762V7.483H18.165a10.767,10.767,0,0,0-5-2.66A3.758,3.758,0,0,1,16.793,2m-6,22.141A8.795,8.795,0,1,1,13.031,6.852a8.664,8.664,0,0,1,1.677.631,8.817,8.817,0,0,1,4.664,5.946A8.557,8.557,0,0,1,19.427,17a8.6,8.6,0,0,1-.25,1,8.764,8.764,0,0,1-1.326,2.571,8.651,8.651,0,0,1-.852,1,8.764,8.764,0,0,1-6.205,2.569M67.3,48.219A1.257,1.257,0,0,1,66.158,50H7.9a1.256,1.256,0,0,1-1.142-1.781l5.911-12.886h40a10.752,10.752,0,0,0,1.606,3.1H15.1v1H55.12A10.813,10.813,0,0,0,58.859,42H12.719v1H60.338v-.523a10.243,10.243,0,0,0,4.407.169Zm4.438-16.2a8.822,8.822,0,1,1-1.624-5.074L62.958,34.1l-4.841-4.841-.707.707,5.548,5.548,7.706-7.706a8.748,8.748,0,0,1,1.075,4.209" fill="#fff"/>
        </g>
      </g>
    </g>
  </g>
</svg>
