<svg xmlns="http://www.w3.org/2000/svg" width="94" height="92" viewBox="0 0 94 92">
  <g id="icon-24h-monitoring-bg" transform="translate(0 0)">
    <g id="bg" transform="translate(0 0)" fill="none" stroke="#fff" stroke-width="2" opacity="0">
      <circle cx="46" cy="46" r="46" stroke="none"/>
      <circle cx="46" cy="46" r="45" fill="none"/>
    </g>
    <g id="icon-24h-monitoring" transform="translate(2 33.862)">
      <path id="Path_17213" data-name="Path 17213" d="M78.252,42.25H15.877V6.75A6.758,6.758,0,0,1,22.627,0H71.5a6.758,6.758,0,0,1,6.75,6.75Zm-60.375-2H76.252V6.75A4.755,4.755,0,0,0,71.5,2H22.627a4.755,4.755,0,0,0-4.75,4.75Z" transform="translate(7.384 0.438)" fill="#00b2a9"/>
      <path id="Line_214" data-name="Line 214" d="M1.438,1H0V-1H1.438Z" transform="translate(77.196 6.294)" fill="#00b2a9"/>
      <path id="Line_215" data-name="Line 215" d="M1.438,1H0V-1H1.438Z" transform="translate(72.958 6.294)" fill="#00b2a9"/>
      <path id="Line_216" data-name="Line 216" d="M1.438,1H0V-1H1.438Z" transform="translate(68.72 6.294)" fill="#00b2a9"/>
      <path id="Line_217" data-name="Line 217" d="M2.894,1H0V-1H2.894Z" transform="translate(29.919 6.294)" fill="#00b2a9"/>
      <path id="Line_218" data-name="Line 218" d="M8.644,1H0V-1H8.644Z" transform="translate(29.385 17.05)" fill="#00b2a9"/>
      <path id="Line_219" data-name="Line 219" d="M8.644,1H0V-1H8.644Z" transform="translate(29.385 21.362)" fill="#00b2a9"/>
      <path id="Line_220" data-name="Line 220" d="M8.644.5H0v-1H8.644Z" transform="translate(29.385 25.675)" fill="#00b2a9"/>
      <path id="Line_221" data-name="Line 221" d="M8.644.5H0v-1H8.644Z" transform="translate(29.385 29.987)" fill="#00b2a9"/>
      <path id="Line_222" data-name="Line 222" d="M8.644.5H0v-1H8.644Z" transform="translate(29.385 34.3)" fill="#00b2a9"/>
      <path id="Line_223" data-name="Line 223" d="M60.256,1H0V-1H60.256Z" transform="translate(24.734 9.869)" fill="#00b2a9"/>
      <path id="Path_17214" data-name="Path 17214" d="M65.579,36.3h-1V12.36H33.954V36.3h-1V11.36H65.579Z" transform="translate(14.636 5.189)" fill="#00b2a9"/>
      <path id="Rectangle_5460" data-name="Rectangle 5460" d="M-.5-.5H19.188V9.125H-.5ZM18.188.5H.5V8.125H18.188Z" transform="translate(42.34 25.675)" fill="#00b2a9"/>
      <path id="Line_224" data-name="Line 224" d="M74.75,1H0V-1H74.75Z" transform="translate(17.25 42.083)" fill="#00b2a9"/>
      <path id="Path_17215" data-name="Path 17215" d="M33.772,16.805A12.937,12.937,0,1,1,20.834,3.868,12.937,12.937,0,0,1,33.772,16.805" transform="translate(3.455 1.693)" fill="#fff"/>
      <path id="Path_17215_-_Outline" data-name="Path 17215 - Outline" d="M20.834,30.743A13.938,13.938,0,0,1,10.979,6.95,13.938,13.938,0,0,1,30.69,26.661,13.846,13.846,0,0,1,20.834,30.743Zm0-25.875a11.937,11.937,0,1,0,8.441,3.5A11.859,11.859,0,0,0,20.834,4.868Z" transform="translate(3.455 1.693)" fill="#00b2a9"/>
      <path id="Ellipse_31" data-name="Ellipse 31" d="M12.938-1A13.937,13.937,0,0,1,26.875,12.938,13.937,13.937,0,0,1,3.082,22.793a13.937,13.937,0,0,1,0-19.711A13.846,13.846,0,0,1,12.938-1Zm0,25.875A11.938,11.938,0,0,0,21.379,4.5,11.938,11.938,0,0,0,4.5,21.379,11.859,11.859,0,0,0,12.938,24.875Z" transform="translate(11.352 5.561)" fill="#00b2a9"/>
      <path id="Line_225" data-name="Line 225" d="M0,8.579a1,1,0,0,1-.707-.293,1,1,0,0,1,0-1.414L6.871-.707a1,1,0,0,1,1.414,0,1,1,0,0,1,0,1.414L.707,8.286A1,1,0,0,1,0,8.579Z" transform="translate(1.438 33.772)" fill="#00b2a9"/>
      <path id="Line_226" data-name="Line 226" d="M0,14.418a1,1,0,0,1-.707-.293,1,1,0,0,1,0-1.414L12.711-.707a1,1,0,0,1,1.414,0,1,1,0,0,1,0,1.414L.707,14.125A1,1,0,0,1,0,14.418Z" transform="translate(1.438 27.932)" fill="#00b2a9"/>
      <path id="Path_17216" data-name="Path 17216" d="M11.319,16.308a1,1,0,0,1-1-1A9.029,9.029,0,0,1,19.337,6.29a1,1,0,0,1,0,2,7.026,7.026,0,0,0-7.018,7.018A1,1,0,0,1,11.319,16.308Z" transform="translate(4.952 3.19)" fill="#00b2a9"/>
    </g>
  </g>
</svg>
