<svg xmlns="http://www.w3.org/2000/svg" width="59.498" height="37.306" viewBox="0 0 59.498 37.306">
  <g id="icon-domain-alert" transform="translate(-0.002 -0.002)">
    <path id="Union_66" data-name="Union 66" d="M18126,6845.1V6843.1h3.869V6819.82a5.006,5.006,0,0,1,5-5h31.971l3.2-5.531a3.008,3.008,0,0,1,5.207,0l9.854,17.069a3.01,3.01,0,0,1-2.6,4.514h-8.621V6843.1H18178v1.994Zm43.951-2.272h1.926v-11.949h-1.926Zm-22,0h21v-11.949h-6.164a3.007,3.007,0,0,1-2.93-3.692h-11.9v5h9v7.006h-9Zm-16.074,0h15.074v-3.638h-4v-7.006h4v-6h13.33l2.309-4h-30.713Zm16.074-4.642h8v-5h-8Zm-4,0h3v-5h-3Zm17.4-11.141a1.65,1.65,0,0,0,1.43,2.474h19.711a1.654,1.654,0,0,0,1.428-2.474l-9.857-17.069a1.649,1.649,0,0,0-2.857,0l-5.453,9.448v.282h-.164Zm-29.479-7.22v1.365h31.291l2.52-4.363h-30.816A3,3,0,0,0,18131.875,6819.82Zm8.576,19.365h-6.016v-1h6.02v1Zm0-3h-6.016v-1h6.02v1Zm0-3h-6.016v-1h6.02v1Zm0-2.994h-6.016v-1h6.02v1Zm0-3h-6.016v-1h6.02v1Zm30.107-.2v-12.222h4.158v12.222Zm1.361-1.36h1.438V6824.2h-1.437Zm0-2.812h1.438v-6.7h-1.437Zm-10.115-3.113v-1h1v1Zm-27,0v-1h2.018v1Z" transform="translate(-18126 -6807.788)" fill="#d92a92"/>
  </g>
</svg>
