<svg xmlns="http://www.w3.org/2000/svg" width="72" height="72" viewBox="0 0 72 72">
  <g id="icon-under-construction-bg" transform="translate(13.237 28)">
    <path id="bg" d="M.783.783H71.217V71.217H.783ZM0,72H72V0H0Z" transform="translate(-13.237 -28)" fill="#fff" opacity="0"/>
    <g id="icon-under-construction" transform="translate(4.564 -3.391)">
      <path id="Subtraction_13" data-name="Subtraction 13" d="M16763.975,16446.936a3.985,3.985,0,0,1-2.832-1.17l-11.264-11.264,1.414-1.414,11.268,11.26a2,2,0,1,0,2.822-2.824l-11.262-11.264.68-.678.367-1.1,11.629,11.631a4,4,0,0,1-2.822,6.826Zm-1.314-4.811a.5.5,0,0,1-.354-.146l-9.951-9.953.705-.705,9.953,9.951a.5.5,0,0,1-.354.854Zm-17.023-11.863v0l-1.918-1.916,1.42-1.41,1.912,1.912-1.414,1.414Zm2.488-2.49v0a.485.485,0,0,1,.084-.6.5.5,0,0,1,.35-.145.52.52,0,0,1,.246.064l-.68.676Zm1.756-1.754v0l-1.91-1.91,1.408-1.418,2.283,2.283-1.1.369-.678.676Z" transform="translate(-16731.578 -16410.547)" fill="#fff"/>
      <path id="Path_17210" data-name="Path 17210" d="M9.4,18.262a9.328,9.328,0,0,1-6.63-2.77A9.383,9.383,0,0,1,.17,10.632,9.05,9.05,0,0,1,.714,5.347a1,1,0,0,1,1.627-.316L5.6,8.29l2.665.044L8.221,5.67,4.934,2.384a1,1,0,0,1,.3-1.622A8.946,8.946,0,0,1,8.873,0a9.312,9.312,0,0,1,6.618,2.763,9.146,9.146,0,0,1,.189,12.916A8.823,8.823,0,0,1,9.4,18.262ZM2.109,7.627a7.157,7.157,0,0,0,.025,2.624A7.465,7.465,0,0,0,9.4,16.262a6.836,6.836,0,0,0,4.872-2,7.145,7.145,0,0,0-.189-10.088A7.325,7.325,0,0,0,8.873,2a7.1,7.1,0,0,0-1.364.131l2.411,2.41a1,1,0,0,1,.293.69l.069,4.1A1,1,0,0,1,9.267,10.35l-4.1-.067a1,1,0,0,1-.691-.293Z" fill="#fff"/>
      <path id="Path_17212" data-name="Path 17212" d="M23.927,8.429l5.657,5.657L28,15.667l-1.4.466a3.232,3.232,0,0,0-2.047,2.047l-.466,1.4L8.45,35.22a4,4,0,1,1-5.656-5.657L18.438,13.919l1.4-.466a3.232,3.232,0,0,0,2.047-2.047l.466-1.4ZM26.672,14l-2.662-2.662-.233.7a5.232,5.232,0,0,1-3.311,3.311l-.948.316L4.208,30.977a2,2,0,0,0,2.828,2.829L22.346,18.5l.316-.949a5.232,5.232,0,0,1,3.311-3.311Z" fill="#fff"/>
      <path id="Line_212" data-name="Line 212" d="M0,14.663a.5.5,0,0,1-.354-.146.5.5,0,0,1,0-.707L13.809-.354a.5.5,0,0,1,.707,0,.5.5,0,0,1,0,.707L.354,14.517A.5.5,0,0,1,0,14.663Z" transform="translate(6.936 16.914)" fill="#fff"/>
      <path id="Rectangle_5458" data-name="Rectangle 5458" d="M0-1H4A1,1,0,0,1,5,0V4A1,1,0,0,1,4,5H0A1,1,0,0,1-1,4V0A1,1,0,0,1,0-1ZM3,1H1V3H3Z" transform="translate(24.635 10.55) rotate(-45)" fill="#fff"/>
      <path id="Line_213" data-name="Line 213" d="M0,6.657a1,1,0,0,1-.707-.293,1,1,0,0,1,0-1.414L4.95-.707a1,1,0,0,1,1.414,0,1,1,0,0,1,0,1.414L.707,6.364A1,1,0,0,1,0,6.657Z" transform="translate(28.877 3.479)" fill="#fff"/>
    </g>
  </g>
</svg>
