<svg xmlns="http://www.w3.org/2000/svg" width="51.001" height="51.002" viewBox="0 0 51.001 51.002">
  <g id="icon-account" transform="translate(0 0.001)">
    <path id="Union_77" data-name="Union 77" d="M-12558.428,7539.012a25.429,25.429,0,0,1-8.1-5.465,25.451,25.451,0,0,1-5.466-8.1,25.384,25.384,0,0,1-2-9.928,25.357,25.357,0,0,1,2-9.924,25.42,25.42,0,0,1,5.466-8.107,25.42,25.42,0,0,1,8.1-5.462,25.33,25.33,0,0,1,9.928-2.007,25.3,25.3,0,0,1,9.925,2.007,25.394,25.394,0,0,1,8.107,5.462,25.449,25.449,0,0,1,5.465,8.107,25.34,25.34,0,0,1,2,9.924,25.367,25.367,0,0,1-2,9.928,25.48,25.48,0,0,1-5.465,8.1,25.4,25.4,0,0,1-8.107,5.465,25.348,25.348,0,0,1-9.925,2A25.38,25.38,0,0,1-12558.428,7539.012Zm-13.572-23.5a23.364,23.364,0,0,0,1.847,9.148,23.43,23.43,0,0,0,5.036,7.469,23.442,23.442,0,0,0,7.47,5.037,23.369,23.369,0,0,0,9.147,1.846,23.366,23.366,0,0,0,9.146-1.846,23.465,23.465,0,0,0,7.473-5.037,23.446,23.446,0,0,0,5.036-7.469,23.364,23.364,0,0,0,1.847-9.148,23.427,23.427,0,0,0-1.069-7.032l-15.833-1.652a15.138,15.138,0,0,1-9.69-4.929,15.18,15.18,0,0,1-2.619-4.051,15.208,15.208,0,0,1-2.578,4.834,15.218,15.218,0,0,1-8.464,5.333l-5.94,1.368A23.46,23.46,0,0,0-12572,7515.515Zm14.353-21.654a23.44,23.44,0,0,0-7.47,5.036,23.418,23.418,0,0,0-5.036,7.473q-.168.4-.32.8l4.772-1.1a13.19,13.19,0,0,0,7.347-4.629,13.2,13.2,0,0,0,2.865-8.2v-.172Q-12556.583,7493.411-12557.647,7493.861Zm7.542,6.7a13.129,13.129,0,0,0,8.413,4.279l14.855,1.548-.009-.021a23.434,23.434,0,0,0-5.036-7.473,23.463,23.463,0,0,0-7.473-5.036,23.358,23.358,0,0,0-9.146-1.846,23.55,23.55,0,0,0-4.965.524A13.119,13.119,0,0,0-12550.105,7500.564Zm-6.1,26.157,1.414-1.414a8.84,8.84,0,0,0,6.292,2.61,8.841,8.841,0,0,0,6.293-2.61l1.414,1.414a10.831,10.831,0,0,1-7.707,3.2A10.824,10.824,0,0,1-12556.206,7526.721Zm6.706-4.989v-4.023h2v4.023Zm3.9-9.073a3,3,0,0,1,3-3,3,3,0,0,1,3,3,3,3,0,0,1-3,3A3,3,0,0,1-12545.6,7512.659Zm-11.894,0a3,3,0,0,1,3-3,3,3,0,0,1,3,3,3,3,0,0,1-3,3A3,3,0,0,1-12557.49,7512.659Z" transform="translate(12574 -7490.016)" fill="#3b93d2"/>
  </g>
</svg>
