<svg xmlns="http://www.w3.org/2000/svg" width="54.73" height="59.66" viewBox="0 0 54.73 59.66">
  <g id="icon-support" transform="translate(0 0.002)">
    <path id="Union_80" data-name="Union 80" d="M-11905.1,7344.675a2.878,2.878,0,0,1-2.436-1.333,2.878,2.878,0,0,1-.2-2.771l5.1-11.109v-23.785a5.005,5.005,0,0,1,5-5h1.254a15.942,15.942,0,0,1,4.7-10.956,15.962,15.962,0,0,1,11.359-4.707,15.96,15.96,0,0,1,11.359,4.707,15.948,15.948,0,0,1,4.7,10.956h.627a5,5,0,0,1,5,5v23.772l5.1,11.122a2.887,2.887,0,0,1-.2,2.773,2.88,2.88,0,0,1-2.437,1.33Zm-.812-3.269a.879.879,0,0,0,.06.857.885.885,0,0,0,.753.413h48.935a.879.879,0,0,0,.754-.413.879.879,0,0,0,.06-.857l-4.922-10.729h-40.717Zm45.279-12.731v-23a3,3,0,0,0-3-3h-.7a15.979,15.979,0,0,1-.835,3.767,21.281,21.281,0,0,1-1.622,5.462,14.093,14.093,0,0,1-4.536,5.645,12.9,12.9,0,0,1-5.532,2.287,1.637,1.637,0,0,1-1.587,1.237h-3.748a1.634,1.634,0,0,1-1.635-1.631,1.635,1.635,0,0,1,1.635-1.635h3.748a1.635,1.635,0,0,1,1.516,1.022,12,12,0,0,0,5.063-2.122,13.179,13.179,0,0,0,4.187-5.257q.227-.494.428-1.018a16.2,16.2,0,0,1-1.707,2.007,15.962,15.962,0,0,1-11.359,4.707,15.964,15.964,0,0,1-11.359-4.707,15.935,15.935,0,0,1-4.629-9.764h-1.327a3,3,0,0,0-3,3v23Zm-22.2-9.231a.636.636,0,0,0,.636.633h3.748a.636.636,0,0,0,.46-.2V7319a.634.634,0,0,0-.46-.2h-3.748A.636.636,0,0,0-11882.832,7319.443Zm-2.286-26.013a9.748,9.748,0,0,1-5.419,3.416l-3.428.789a14.06,14.06,0,0,0-.424,3.446,13.974,13.974,0,0,0,4.121,9.946,13.97,13.97,0,0,0,9.945,4.118,13.974,13.974,0,0,0,9.946-4.118,13.975,13.975,0,0,0,4.118-9.946,14.058,14.058,0,0,0-.564-3.966l-9.483-.992a9.685,9.685,0,0,1-6.2-3.156,9.624,9.624,0,0,1-1.273-1.778A9.592,9.592,0,0,1-11885.118,7293.431Zm-5.149-2.295a14.021,14.021,0,0,0-2.932,4.273l2.214-.511a7.757,7.757,0,0,0,4.3-2.71,7.747,7.747,0,0,0,1.668-4.369A14.014,14.014,0,0,0-11890.268,7291.136Zm7.3-3.87a7.68,7.68,0,0,0,1.939,4.363,7.69,7.69,0,0,0,4.928,2.507l8.473.884a14.1,14.1,0,0,0-2.752-3.885,13.974,13.974,0,0,0-9.946-4.118A14.064,14.064,0,0,0-11882.964,7287.266Zm9.9,52.771v-1h14v1Zm-15,0v-1h14v1Zm-15,0v-1h14v1Zm2-3v-1h40v1Zm2-3v-1h36v1Zm1.378-8.879v-1h33.395v1Zm0-6.351v-1h9.62v1Zm12.346-10.562,1.414-1.414a5.1,5.1,0,0,0,7.193,0l1.416,1.414a7.072,7.072,0,0,1-5.012,2.071A7.063,7.063,0,0,1-11885.334,7308.245Zm4.011-3.341v-2.475h2v2.475Zm2.785-5.58a1.845,1.845,0,0,1,1.844-1.844,1.846,1.846,0,0,1,1.848,1.844,1.849,1.849,0,0,1-1.848,1.847A1.848,1.848,0,0,1-11878.538,7299.324Zm-7.312,0a1.844,1.844,0,0,1,1.844-1.844,1.846,1.846,0,0,1,1.847,1.844,1.848,1.848,0,0,1-1.847,1.847A1.847,1.847,0,0,1-11885.851,7299.324Z" transform="translate(11908.001 -7285.017)" fill="#3b93d2"/>
  </g>
</svg>
