<svg xmlns="http://www.w3.org/2000/svg" width="52" height="47.391" viewBox="0 0 52 47.391">
  <g id="icon-dns-sec" transform="translate(-12 -14)">
    <path id="Subtraction_7" data-name="Subtraction 7" d="M16239,16481.535h-44v-25a5.007,5.007,0,0,1,5-5h7.218v2H16200a3,3,0,0,0-3,3v23h40v-23a3,3,0,0,0-3-3h-6.78v-2h6.78a5,5,0,0,1,5,5v25Z" transform="translate(-16179.123 -16420.42)" fill="#d92a92"/>
    <path id="Line_368" data-name="Line 368" d="M52,1H0V-1H52Z" transform="translate(12 60.391)" fill="#d92a92"/>
    <path id="Subtraction_6" data-name="Subtraction 6" d="M16219.607,16480.537h0l-1.058,0a18.225,18.225,0,0,0,.972-2.754h-3.7c-.126.967-.283,1.893-.468,2.754h-1c.19-.85.354-1.775.484-2.754h-3.719v2.754h-.976v-2.754h-3.723c.136,1.021.294,1.922.483,2.754h-1c-.183-.85-.341-1.775-.472-2.754h-3.7a18.728,18.728,0,0,0,.977,2.754h-1.059a19.361,19.361,0,0,1-.927-2.754h-3.669a14.218,14.218,0,0,0,1.493,2.754h-1.171a15.623,15.623,0,0,1,2.205-19.34,16.18,16.18,0,0,1,1.322-1.184,1.859,1.859,0,0,0,.481.863,15.06,15.06,0,0,0-1.117,1.012,14.568,14.568,0,0,0-3.218,4.826h3.673a17.775,17.775,0,0,1,2.257-5.277h1.167a16.449,16.449,0,0,0-2.415,5.277h3.7a28.93,28.93,0,0,1,1.146-5.277h1.028c-.022.063-.045.127-.068.2l-.021.061a27.454,27.454,0,0,0-1.1,5.018h3.723v-5.277h.976v5.277h3.719a27.253,27.253,0,0,0-1.1-5.018c-.029-.088-.059-.174-.089-.26h1.027a28.99,28.99,0,0,1,1.146,5.277h3.7a16.421,16.421,0,0,0-2.417-5.277h1.178a17.858,17.858,0,0,1,2.249,5.277h3.677a14.525,14.525,0,0,0-3.222-4.826c-.285-.285-.584-.561-.889-.82a1.873,1.873,0,0,0,.6-.77c.356.3.684.607.975.9a15.624,15.624,0,0,1,2.2,19.338l-1.162,0a14.669,14.669,0,0,0,1.485-2.754h-3.669a19.594,19.594,0,0,1-.923,2.754Zm1.593-7.807h0a23.076,23.076,0,0,1-.446,4.074h3.8a14.655,14.655,0,0,0,.712-4.074Zm-5.042,0h0c-.013,1.379-.089,2.75-.228,4.074h3.826a21.559,21.559,0,0,0,.472-4.074Zm-5.042,0h0v4.074h3.834c.138-1.271.216-2.643.232-4.074Zm-5.046,0h0c.017,1.432.095,2.8.231,4.074h3.839v-4.074Zm-5.046,0h0a21.5,21.5,0,0,0,.472,4.074h3.825c-.139-1.344-.215-2.717-.227-4.074Zm-5.042,0h0a14.62,14.62,0,0,0,.712,4.074h3.8a22.706,22.706,0,0,1-.442-4.074Zm24.771-5.045h0a23,23,0,0,1,.446,4.074h4.07a14.7,14.7,0,0,0-.712-4.074Zm-4.823,0h0c.139,1.32.215,2.691.228,4.074h4.07a21.144,21.144,0,0,0-.472-4.074Zm-4.814,0h0v4.074h4.066c-.017-1.424-.095-2.8-.232-4.074Zm-4.814,0h0c-.137,1.271-.215,2.643-.231,4.074h4.07v-4.074Zm-4.806,0h0a21.424,21.424,0,0,0-.472,4.074h4.07c.012-1.369.088-2.74.227-4.074Zm-4.8,0h0a14.657,14.657,0,0,0-.712,4.074h4.074a22.641,22.641,0,0,1,.442-4.074Z" transform="translate(-16172.752 -16420.42)" fill="#d92a92"/>
    <path id="Path_17322" data-name="Path 17322" d="M32.932,10.351h-2V6.834a4.833,4.833,0,1,0-9.667,0v3.517h-2V6.834a6.833,6.833,0,1,1,13.667,0Z" transform="translate(12 14)" fill="#d92a92"/>
    <path id="Path_17324" data-name="Path 17324" d="M34.23,28.017H17.967A2.872,2.872,0,0,1,15.1,25.149V9.581h22V25.149A2.871,2.871,0,0,1,34.23,28.017ZM17.1,11.581V25.149a.869.869,0,0,0,.869.868H34.23a.869.869,0,0,0,.868-.868V11.581Z" transform="translate(12 14)" fill="#d92a92"/>
    <path id="Path_17325" data-name="Path 17325" d="M26.1,12.684a3.913,3.913,0,0,1,2.667,6.78v1.72a2.667,2.667,0,1,1-5.333,0v-1.72a3.913,3.913,0,0,1,2.666-6.78Zm0,9.167a.668.668,0,0,0,.667-.667V18.469l.427-.3a1.917,1.917,0,1,0-2.187,0l.427.3v2.715A.667.667,0,0,0,26.1,21.851Z" transform="translate(12 14)" fill="#d92a92"/>
  </g>
</svg>
