<svg xmlns="http://www.w3.org/2000/svg" width="32.002" height="47.998" viewBox="0 0 32.002 47.998">
  <g id="icon-gdpr" transform="translate(0.002 -0.001)">
    <path id="Path_24314" data-name="Path 24314" d="M20.209,29.682v-5.4a2.7,2.7,0,0,1,5.4,0v5.4" fill="#fff"/>
    <path id="Union_78" data-name="Union 78" d="M-12561.767,7312.491a2.352,2.352,0,0,1-2.352-2.348v-6.229l-8.8-8.8a3.7,3.7,0,0,1,0-5.229,3.7,3.7,0,0,1,5.229,0l2.108,2.108v-14.005a3.7,3.7,0,0,1,3.7-3.7,3.7,3.7,0,0,1,3.7,3.7v7.507a3.667,3.667,0,0,1,1.7-.413,3.688,3.688,0,0,1,2.7,1.172,3.689,3.689,0,0,1,2.7-1.172,3.706,3.706,0,0,1,3.577,2.759,3.678,3.678,0,0,1,1.816-.478,3.7,3.7,0,0,1,3.7,3.7v19.083a2.351,2.351,0,0,1-2.348,2.348Zm-9.738-21.194a1.7,1.7,0,0,0,0,2.4l9.388,9.388v7.057a.35.35,0,0,0,.351.35h17.42a.348.348,0,0,0,.347-.35v-19.083a1.7,1.7,0,0,0-1.7-1.7,1.7,1.7,0,0,0-1.7,1.6v3.217h-2v-3.115c0-.049,0-.1,0-.146v-2.136a1.7,1.7,0,0,0-1.7-1.7,1.7,1.7,0,0,0-1.7,1.7v5.4h-2v-5.4a1.7,1.7,0,0,0-1.7-1.7,1.7,1.7,0,0,0-1.7,1.7v5.4h-2v-16.189a1.7,1.7,0,0,0-1.7-1.7,1.7,1.7,0,0,0-1.7,1.7v18.833l-5.522-5.522a1.694,1.694,0,0,0-1.2-.5A1.691,1.691,0,0,0-12571.5,7291.3Z" transform="translate(12573.999 -7264.492)" fill="#3b93d2"/>
    <path id="Subtraction_42" data-name="Subtraction 42" d="M-12565.584,7295.985h0a10.935,10.935,0,0,1-5.193-2.918,10.934,10.934,0,0,1-3.222-7.779,10.931,10.931,0,0,1,3.222-7.776,10.919,10.919,0,0,1,7.779-3.222,10.925,10.925,0,0,1,7.778,3.222,10.923,10.923,0,0,1,3.219,7.776,10.926,10.926,0,0,1-3.219,7.779,10.984,10.984,0,0,1-4.967,2.862v-2.09a8.977,8.977,0,0,0,4.439-3.226,8.915,8.915,0,0,0,1.749-5.325,9.01,9.01,0,0,0-9-9,9.01,9.01,0,0,0-9,9,8.912,8.912,0,0,0,1.817,5.418,9.088,9.088,0,0,0,4.6,3.2v2.074Z" transform="translate(12575 -7274.289)" fill="#3b93d2"/>
  </g>
</svg>
