<svg xmlns="http://www.w3.org/2000/svg" width="46.8" height="50" viewBox="0 0 46.8 50">
  <g id="icon-easy" transform="translate(-465 -660.984)">
    <path id="Rectangle_5725" data-name="Rectangle 5725" d="M3-1H41.8a4,4,0,0,1,4,4V45a4,4,0,0,1-4,4H3a4,4,0,0,1-4-4V3A4,4,0,0,1,3-1ZM41.8,47a2,2,0,0,0,2-2V3a2,2,0,0,0-2-2H3A2,2,0,0,0,1,3V45a2,2,0,0,0,2,2Z" transform="translate(466 661.984)" fill="#3b93d2"/>
    <path id="Path_24259" data-name="Path 24259" d="M522.745,396h-4.5a.751.751,0,0,1-.75-.751v-4.5a.751.751,0,0,0-.75-.75H497.992a.751.751,0,0,0-.751.75v4.5a.751.751,0,0,1-.75.751h-4.5a.751.751,0,0,0-.75.751v16.5a.751.751,0,0,0,.75.751h4.5a.75.75,0,0,1,.75.75v4.5a.751.751,0,0,0,.751.75h18.753a.751.751,0,0,0,.75-.75v-4.5a.751.751,0,0,0-.75-.75H497.992a.751.751,0,0,1-.751-.751v-4.5a.751.751,0,0,1,.751-.751h24.752a.75.75,0,0,0,.75-.75v-10.5A.748.748,0,0,0,522.745,396Zm-5.251,5.251a.751.751,0,0,1-.75.75H497.992a.751.751,0,0,1-.751-.75v-4.5a.751.751,0,0,1,.751-.751h18.753a.751.751,0,0,1,.75.751Z" transform="translate(-18.84 283.579)" fill="#3b93d2"/>
  </g>
</svg>
