<svg xmlns="http://www.w3.org/2000/svg" width="111.122" height="29.612" viewBox="0 0 111.122 29.612">
  <path id="Icon_payment-paypal" data-name="Icon payment-paypal" d="M62.927,21.3h-4.16a1.2,1.2,0,0,0-.993.527l-5.739,8.452L49.6,22.154a1.2,1.2,0,0,0-1.151-.857H44.362a.721.721,0,0,0-.682.952L48.26,35.7l-4.308,6.079a.721.721,0,0,0,.589,1.137H48.7a1.207,1.207,0,0,0,.988-.516L63.519,22.429a.72.72,0,0,0-.592-1.131ZM35.115,29.354a4.615,4.615,0,0,1-4.672,3.953,3.207,3.207,0,0,1-3.428-4.025A4.631,4.631,0,0,1,31.654,25.3a3.485,3.485,0,0,1,2.759,1.128,3.564,3.564,0,0,1,.7,2.927ZM40.883,21.3H36.744a.721.721,0,0,0-.712.609l-.181,1.156-.289-.419c-.9-1.3-2.895-1.736-4.89-1.736a9.518,9.518,0,0,0-9.239,8.326,7.81,7.81,0,0,0,1.541,6.358,6.475,6.475,0,0,0,5.212,2.1,7.925,7.925,0,0,0,5.731-2.367l-.184,1.15a.721.721,0,0,0,.712.832h3.727A1.2,1.2,0,0,0,39.358,36.3L41.6,22.129a.721.721,0,0,0-.712-.831Zm-24.838.1c-.472,3.1-2.841,3.1-5.134,3.1h-1.3l.914-5.793a.719.719,0,0,1,.711-.608h.6c1.56,0,3.034,0,3.794.888a2.886,2.886,0,0,1,.42,2.41Zm-1-8.1H6.4a1.2,1.2,0,0,0-1.187,1.015L1.723,36.479a.72.72,0,0,0,.711.832H6.562A1.2,1.2,0,0,0,7.748,36.3l.943-5.98A1.2,1.2,0,0,1,9.877,29.3h2.735c5.694,0,8.98-2.755,9.838-8.216.387-2.387.016-4.264-1.1-5.577-1.228-1.445-3.407-2.209-6.3-2.209Zm92.363.609-3.547,22.569a.72.72,0,0,0,.711.832h3.568a1.2,1.2,0,0,0,1.186-1.015l3.5-22.163a.721.721,0,0,0-.712-.832h-3.992a.72.72,0,0,0-.712.609ZM96.765,29.354a4.615,4.615,0,0,1-4.672,3.953,3.207,3.207,0,0,1-3.428-4.025A4.631,4.631,0,0,1,93.3,25.3a3.485,3.485,0,0,1,2.759,1.128,3.564,3.564,0,0,1,.7,2.927Zm5.768-8.056H98.394a.721.721,0,0,0-.712.609L97.5,23.063l-.29-.419c-.9-1.3-2.894-1.736-4.889-1.736a9.518,9.518,0,0,0-9.239,8.326,7.81,7.81,0,0,0,1.541,6.358,6.475,6.475,0,0,0,5.212,2.1,7.925,7.925,0,0,0,5.731-2.367l-.184,1.15a.721.721,0,0,0,.712.832H99.82a1.2,1.2,0,0,0,1.187-1.013l2.238-14.169a.721.721,0,0,0-.712-.832Zm-24.838.1c-.472,3.1-2.841,3.1-5.134,3.1h-1.3l.914-5.793a.719.719,0,0,1,.711-.608h.6c1.56,0,3.034,0,3.794.888a2.891,2.891,0,0,1,.419,2.41Zm-1-8.1H68.054a1.2,1.2,0,0,0-1.187,1.015L63.372,36.479a.721.721,0,0,0,.711.832h4.435a.841.841,0,0,0,.83-.709l.992-6.284A1.2,1.2,0,0,1,71.526,29.3h2.735c5.694,0,8.98-2.755,9.838-8.216.387-2.387.016-4.264-1.1-5.577-1.228-1.445-3.407-2.209-6.3-2.209Z" transform="translate(-1.714 -13.301)" fill="#00009f"/>
</svg>
