<svg xmlns="http://www.w3.org/2000/svg" width="25.996" height="25.882" viewBox="0 0 25.996 25.882">
  <path id="icon-whois" d="M13796.673,6309.975a1,1,0,0,1,0-1.416l4.919-4.919a1,1,0,0,1,.966-.257l1.785-1.786a10.354,10.354,0,1,1,.7.713l-1.781,1.781a1,1,0,0,1-.257.965l-4.919,4.919a1.006,1.006,0,0,1-1.416,0Zm15.371-6.928a8.341,8.341,0,0,0,7.661-5.065,8.25,8.25,0,0,1-1.126.673,16.317,16.317,0,0,1-13.074,0,8.25,8.25,0,0,1-1.126-.673A8.344,8.344,0,0,0,13812.044,6303.047Zm-5.644-10.483c-1.253.624-1.971,1.408-1.971,2.15s.718,1.526,1.971,2.151a10.55,10.55,0,0,0,2.7.881,4.22,4.22,0,0,1,0-6.064A10.546,10.546,0,0,0,13806.4,6292.564Zm9.872,2.15a4.225,4.225,0,0,1-1.282,3.032,10.617,10.617,0,0,0,2.7-.881c1.248-.625,1.967-1.408,1.967-2.151s-.719-1.526-1.967-2.15a10.6,10.6,0,0,0-2.7-.882A4.216,4.216,0,0,1,13816.272,6294.715Zm-6.459,0a2.229,2.229,0,1,0,2.23-2.23A2.231,2.231,0,0,0,13809.813,6294.715Zm8.766-3.94a8.25,8.25,0,0,1,1.126.673,8.329,8.329,0,0,0-15.326,0,8.25,8.25,0,0,1,1.126-.673,16.317,16.317,0,0,1,13.074,0Z" transform="translate(-13796.379 -6284.384)" fill="#fff"/>
</svg>
