<svg xmlns="http://www.w3.org/2000/svg" width="20" height="22" viewBox="0 0 12.06 14.843">
  <path id="Icon_metro-bin" data-name="Icon metro-bin" d="M5.426,6.566v9.277a.93.93,0,0,0,.928.928H14.7a.93.93,0,0,0,.928-.928V6.566H5.426ZM8.21,14.916H7.282V8.422H8.21Zm1.855,0H9.137V8.422h.928Zm1.855,0h-.928V8.422h.928Zm1.855,0h-.928V8.422h.928ZM15.863,3.783H12.848V2.624a.7.7,0,0,0-.7-.7H8.905a.7.7,0,0,0-.7.7v1.16H5.195a.7.7,0,0,0-.7.7v1.16h12.06V4.479a.7.7,0,0,0-.7-.7Zm-3.943,0H9.137V2.867H11.92v.916Z" transform="translate(-4.499 -1.928)" fill="#3b93d2"/>
</svg>
