<svg id="icon-site-preview-bg" xmlns="http://www.w3.org/2000/svg" width="72" height="72" viewBox="0 0 72 72">
  <path id="bg" d="M.783.783H71.217V71.217H.783ZM0,72H72V0H0Z" fill="#fff" opacity="0"/>
  <g id="icon-site-preview" transform="translate(4 30.724)">
    <path id="Union_32" data-name="Union 32" d="M16699,16444.561h0Zm0,0h-52v-2h3.881v-5.457a9.958,9.958,0,0,1-5.691-2.537l-2.953,2.953a1,1,0,0,1-.262.969l-5.268,5.271a1,1,0,0,1-1.416-1.416l5.271-5.273a1,1,0,0,1,.965-.258l2.955-2.953a9.992,9.992,0,0,1,6.865-16.687,5,5,0,0,1,4.533-2.891h33.992a5.011,5.011,0,0,1,5,5v23.275H16699v2Zm-8.047-18.918v16.639h1.93v-20.637h-32.645a9.983,9.983,0,0,1,.588,10h.629v1h-1.207a10.083,10.083,0,0,1-1.734,2h2.941v1h-4.283a9.944,9.944,0,0,1-4.3,1.461v5.178h15.084v-3.639h-4.008v-7h4.008v-6Zm-22,16.639h21v-15.637h-21v5h8.992v7h-8.992Zm0-9.639v5h7.99v-5Zm-4,0v5h3.006v-5Zm-21.059-5.49a8,8,0,1,0,8-8A8.01,8.01,0,0,0,16643.9,16427.152Zm48.988-6.51v-1.361a3.007,3.007,0,0,0-3.01-3h-33.992a3.029,3.029,0,0,0-2.258,1.02,9.951,9.951,0,0,1,2.643.857h1.564v.949a10.163,10.163,0,0,1,1.65,1.535Zm-37.437,18v-1h6.01v1Zm-9.627-11.5a6.085,6.085,0,0,1,6.076-6.08.5.5,0,0,1,0,1,5.085,5.085,0,0,0-5.078,5.078.5.5,0,1,1-1,0Zm42.885-7.986v-1h1v1Zm-2.945,0v-1h1v1Zm-1.957,0h-.994v-1h1v1Z" transform="translate(-16635 -16414.279)" fill="#fff"/>
  </g>
</svg>
