<svg xmlns="http://www.w3.org/2000/svg" width="45.714" height="52.232" viewBox="0 0 45.714 52.232">
  <g id="icon-auto-ananeosi" transform="translate(0.154 0.115)">
    <path id="Path_17196" data-name="Path 17196" d="M18.027,15.009H31.217a5.4,5.4,0,1,1,0,10.793H18.027a5.4,5.4,0,1,1,0-10.793ZM31.217,23.8a3.4,3.4,0,0,0,0-6.793H18.027a3.4,3.4,0,1,0,0,6.793Z" transform="translate(-2.105 -2.473)" fill="#d92a92"/>
    <path id="Path_17197" data-name="Path 17197" d="M31.217,36.605H18.027a5.4,5.4,0,0,1-5.4-5.4h2a3.4,3.4,0,0,0,3.4,3.4H31.217a3.4,3.4,0,0,0,3.4-3.4h2A5.4,5.4,0,0,1,31.217,36.605Z" transform="translate(-2.105 -4.822)" fill="#d92a92"/>
    <path id="Line_163" data-name="Line 163" d="M1,7.694H-1V0H1Z" transform="translate(33.508 18.693)" fill="#d92a92"/>
    <path id="Line_164" data-name="Line 164" d="M1,7.694H-1V0H1Z" transform="translate(11.525 18.693)" fill="#d92a92"/>
    <path id="Path_17198" data-name="Path 17198" d="M31.217,46.205H18.027a5.4,5.4,0,0,1-5.4-5.4h2a3.4,3.4,0,0,0,3.4,3.4H31.217a3.4,3.4,0,0,0,3.4-3.4h2A5.4,5.4,0,0,1,31.217,46.205Z" transform="translate(-2.105 -6.305)" fill="#d92a92"/>
    <path id="Line_165" data-name="Line 165" d="M1,7.694H-1V0H1Z" transform="translate(33.508 26.809)" fill="#d92a92"/>
    <path id="Line_166" data-name="Line 166" d="M1,7.694H-1V0H1Z" transform="translate(11.525 26.809)" fill="#d92a92"/>
    <path id="Line_167" data-name="Line 167" d="M11.492,1H0V-1H11.492Z" transform="translate(15.539 18.102)" fill="#d92a92"/>
    <path id="Line_168" data-name="Line 168" d="M1.79,1H0V-1H1.79Z" transform="translate(28.082 18.102)" fill="#d92a92"/>
    <path id="Path_17199" data-name="Path 17199" d="M29.471,11.343,27.222,4.65,32.537,0l1.317,1.505L29.543,5.277l1.824,5.429Z" transform="translate(-4.385 -0.115)" fill="#d92a92"/>
    <path id="Path_17200" data-name="Path 17200" d="M28.405,48.334v-2a19.543,19.543,0,1,0,0-39.087v-2a21.543,21.543,0,1,1,0,43.087Z" transform="translate(-4.389 -0.965)" fill="#d92a92"/>
    <path id="Path_17201" data-name="Path 17201" d="M20.287,59.627l-1.317-1.505,4.311-3.771-1.824-5.429,1.9-.637L25.6,54.978Z" transform="translate(-3.033 -7.51)" fill="#d92a92"/>
    <path id="Path_17202" data-name="Path 17202" d="M21.544,48.748a21.543,21.543,0,1,1,0-43.087v2a19.543,19.543,0,1,0,0,39.087Z" transform="translate(-0.154 -1.027)" fill="#d92a92"/>
  </g>
</svg>
