<svg xmlns="http://www.w3.org/2000/svg" width="46.8" height="50" viewBox="0 0 46.8 50">
  <g id="icon-hosting" transform="translate(1 -660.984)">
    <path id="Rectangle_5702" data-name="Rectangle 5702" d="M3-1H41.8a4,4,0,0,1,4,4V45a4,4,0,0,1-4,4H3a4,4,0,0,1-4-4V3A4,4,0,0,1,3-1ZM41.8,47a2,2,0,0,0,2-2V3a2,2,0,0,0-2-2H3A2,2,0,0,0,1,3V45a2,2,0,0,0,2,2Z" transform="translate(0 661.984)" fill="#00b2a9"/>
    <path id="Path_24213" data-name="Path 24213" d="M681.1,236.2h-4.8a.792.792,0,0,1-.8-.8v-4.8a.792.792,0,0,0-.8-.8H657.1a.792.792,0,0,1-.8-.8V217.8a.792.792,0,0,0-.8-.8h-4.8a.792.792,0,0,0-.8.8v33.6a.792.792,0,0,0,.8.8h4.8a.792.792,0,0,0,.8-.8V237a.792.792,0,0,1,.8-.8h17.6a.792.792,0,0,1,.8.8v14.4a.792.792,0,0,0,.8.8h4.8a.792.792,0,0,0,.8-.8V237A.8.8,0,0,0,681.1,236.2Z" transform="translate(-643.5 451.385)" fill="#00b2a9"/>
  </g>
</svg>
