<svg xmlns="http://www.w3.org/2000/svg" width="190.507" height="141" viewBox="0 0 190.507 141">
  <g id="icon-marketplace" transform="translate(0 -2457)">
    <circle id="Ellipse_9" data-name="Ellipse 9" cx="70.5" cy="70.5" r="70.5" transform="translate(0 2457)" fill="#d92a92"/>
    <g id="icon-market" transform="translate(34 2504)">
      <path id="Subtraction_36" data-name="Subtraction 36" d="M17269.238,6228.837h-59.553v-29.308a5.016,5.016,0,0,0,2-.675v27.98h55.557v-28.2a5.1,5.1,0,0,0,2,.844v29.358Z" transform="translate(-17202.629 -6182.63)" fill="#fff"/>
      <path id="Path_17222" data-name="Path 17222" d="M53.1,39.145h-1v-22.8H22.954v22.8h-1v-23.8H53.1Z" transform="translate(8.316 5.87)" fill="#fff"/>
      <path id="Line_238" data-name="Line 238" d="M71.259,1H0V-1H71.259Z" transform="translate(1.371 45.583)" fill="#fff"/>
      <path id="Rectangle_5465" data-name="Rectangle 5465" d="M-.5-.5H10.093V15.574H-.5ZM9.093.5H.5V14.574H9.093Z" transform="translate(13.703 30.148)" fill="#fff"/>
      <path id="Path_17223" data-name="Path 17223" d="M18.608,8.643a5.09,5.09,0,0,1-10.18,0" transform="translate(3.121 3.201)" fill="#ec008c"/>
      <path id="Path_17223_-_Outline" data-name="Path 17223 - Outline" d="M13.519,14.233a5.6,5.6,0,0,1-5.591-5.59h1a4.59,4.59,0,0,0,9.18,0h1A5.6,5.6,0,0,1,13.519,14.233Z" transform="translate(3.121 3.201)" fill="#fff"/>
      <path id="Path_17224" data-name="Path 17224" d="M18.608,8.643a5.09,5.09,0,0,1-10.18,0" transform="translate(3.121 3.201)" fill="#d92a92"/>
      <path id="Union_68" data-name="Union 68" d="M17266.08,6198.813a16.325,16.325,0,0,0-15.273,2.752,6.081,6.081,0,0,0-10.176,0,6.089,6.089,0,0,0-10.182,0,6.085,6.085,0,0,0-10.182,0,6.083,6.083,0,0,0-10.176,0,6.1,6.1,0,0,1-6.07-5.6H17204v-5.919l6.516-6.044h59.881l6.863,6.37v5.1a6.087,6.087,0,0,1-11.18,3.34Zm1-3.34a4.091,4.091,0,0,0,8.182,0v-4.232l-5.65-5.242H17211.3l-5.3,4.921v4.553a4.091,4.091,0,0,0,8.18.138c0-.046,0-.092,0-.138a1,1,0,0,1,2,0,4.091,4.091,0,0,0,8.182,0,1,1,0,0,1,2,0,4.089,4.089,0,1,0,8.178,0,1,1,0,0,1,2,0,4.089,4.089,0,1,0,8.178,0,1,1,0,0,1,2,0,4.092,4.092,0,0,0,8.184,0,1,1,0,0,1,2,0,4.089,4.089,0,1,0,8.178,0,1,1,0,0,1,2,0Z" transform="translate(-17203.629 -6183.63)" fill="#fff"/>
      <path id="Path_17225_-_Outline" data-name="Path 17225 - Outline" d="M20.948,14.233a5.6,5.6,0,0,1-5.591-5.59h1a4.59,4.59,0,0,0,9.18,0h1A5.6,5.6,0,0,1,20.948,14.233Z" transform="translate(5.873 3.201)" fill="#fff"/>
      <path id="Path_17227_-_Outline" data-name="Path 17227 - Outline" d="M28.376,14.233a5.6,5.6,0,0,1-5.591-5.59h1a4.59,4.59,0,0,0,9.18,0h1A5.6,5.6,0,0,1,28.376,14.233Z" transform="translate(8.625 3.201)" fill="#fff"/>
      <path id="Path_17229_-_Outline" data-name="Path 17229 - Outline" d="M35.8,14.233a5.6,5.6,0,0,1-5.591-5.59h1a4.59,4.59,0,0,0,9.18,0h1A5.6,5.6,0,0,1,35.8,14.233Z" transform="translate(11.375 3.201)" fill="#fff"/>
      <path id="Path_17231_-_Outline" data-name="Path 17231 - Outline" d="M43.233,14.233a5.6,5.6,0,0,1-5.591-5.59h1a4.59,4.59,0,0,0,9.18,0h1A5.6,5.6,0,0,1,43.233,14.233Z" transform="translate(14.127 3.201)" fill="#fff"/>
      <path id="Path_17233_-_Outline" data-name="Path 17233 - Outline" d="M67.17,17.063a5.6,5.6,0,0,1-5.59-5.59h1a4.59,4.59,0,1,0,9.179,0V7.022L65.807,1.5H7.107L1.5,6.7v4.774a4.59,4.59,0,0,0,9.18,0h1a5.59,5.59,0,0,1-11.159.489H.5v-5.7L6.714.5H66.2l6.56,6.085v4.888A5.6,5.6,0,0,1,67.17,17.063Z" transform="translate(0.371 0.37)" fill="#fff"/>
    </g>
    <g id="icon_free" data-name="icon free" transform="translate(-167.496 2487.003)">
      <path id="Union_10" data-name="Union 10" d="M57.052,0c-3.169,6.286-4.76,9.646-7.929,16.646a119.332,119.332,0,0,1,8,10.07C34.312,32.748,22.9,53.584.081,59.671.045,48.987.037,43.649,0,32.965,22.823,26.932,34.238,6.1,57.052,0" transform="translate(299.213 -0.002)" fill="#00009f" stroke="#fff" stroke-width="2"/>
      <path id="Path_21426" data-name="Path 21426" d="M28.227,7.623c.063.632.117,1.264.2,2.1.659-.406.993-.614,1.653-1,.072-.939.135-1.644.19-2.348s.117-1.409.19-2.348c.009-.515.027-.9.036-1.292s.018-.768.036-1.282c-.524.307-.912.542-1.3.777s-.777.479-1.292.813l.09,2.475c.081.84.135,1.472.2,2.1" transform="translate(313.047 11.675)" fill="#fff"/>
      <path id="Path_21427" data-name="Path 21427" d="M28.52,14.271c0-.813,0-1.219-.009-2.032,1.382-1,2.077-1.517,3.459-2.529-.009-.993-.009-1.481-.009-2.475-1.382,1.012-2.077,1.517-3.45,2.529-.009-.352-.009-.614-.009-.876V8c1.617-1.174,2.42-1.779,4.037-2.953V2.566C29.884,4.508,28.556,5.5,25.91,7.407c0,2.24.009,3.929.009,5.609.009.84.009,1.68.009,2.592s.009,1.9.009,3.017c2.718-1.951,4.073-2.962,6.792-4.949-.009-.993-.009-1.49-.009-2.484-1.68,1.228-2.52,1.851-4.2,3.08" transform="translate(296.759 20.607)" fill="#fff"/>
      <path id="Path_21428" data-name="Path 21428" d="M29.519,13.4l-.009-2.032c1.382-.975,2.077-1.463,3.459-2.393-.009-.993-.009-1.49-.009-2.484-1.382.939-2.068,1.418-3.45,2.4-.009-.7-.009-1.057-.009-1.761,1.617-1.147,2.429-1.707,4.037-2.791V1.857c-1.328.894-2.321,1.571-3.315,2.276s-2,1.418-3.315,2.384c.009,4.489.018,6.729.027,11.217,2.718-1.969,4.073-2.944,6.792-4.76-.009-.984-.009-1.481-.009-2.475-1.68,1.12-2.52,1.707-4.2,2.9" transform="translate(304.782 14.912)" fill="#fff"/>
      <path id="Path_21429" data-name="Path 21429" d="M30.606,3.921a51.162,51.162,0,0,1-6.674,3.4c.018,4.489.027,6.738.036,11.226,1.021-.443,1.526-.677,2.547-1.183,0-1.644,0-2.457-.009-4.1,1.409-.7,2.122-1.075,3.531-1.888,0-.984,0-1.49-.009-2.475-1.409.8-2.113,1.183-3.531,1.879V8.626C28.141,7.8,28.963,7.362,30.615,6.4c-.009-.993-.009-1.49-.009-2.484" transform="translate(280.872 31.489)" fill="#fff"/>
      <path id="Path_21430" data-name="Path 21430" d="M29.546,2.661A3.565,3.565,0,0,0,27.9,5.587a1.111,1.111,0,0,0,.461,1.057,1.228,1.228,0,0,0,1.192-.2A3.639,3.639,0,0,0,31.2,3.564c0-1.12-.713-1.481-1.653-.9" transform="translate(312.758 19.184)" fill="#fff"/>
      <path id="Path_21431" data-name="Path 21431" d="M32.408,5.457c0-2.746-1.77-2.348-3.893-.93-1.454.966-2.186,1.436-3.649,2.33.018,4.489.018,6.738.036,11.226,1.03-.632,1.553-.966,2.583-1.635,0-1.517,0-2.276-.009-3.793.379-.244.569-.37.939-.614.686,1.066,1.021,1.59,1.7,2.646,1.147-.786,1.725-1.183,2.872-2-.858-1.156-1.282-1.725-2.131-2.89a7.122,7.122,0,0,0,1.553-4.344m-4.073,4.29c-.343.226-.515.343-.867.569V7.561L28.326,7c1.021-.677,1.571-.741,1.571.2a3.038,3.038,0,0,1-1.562,2.547" transform="translate(288.382 27.497)" fill="#fff"/>
    </g>
  </g>
</svg>
