<svg xmlns="http://www.w3.org/2000/svg" width="72" height="72" viewBox="0 0 72 72">
  <g id="icon-domain-forwarding-bg" transform="translate(13.237 28)">
    <path id="bg" d="M.783.783H71.217V71.217H.783ZM0,72H72V0H0Z" transform="translate(-13.237 -28)" fill="#fff" opacity="0"/>
    <g id="icon-domain-forwarding" transform="translate(-9.655 2.725)">
      <path id="Line_239" data-name="Line 239" d="M10.147,1H0V-1H10.147Z" transform="translate(53.486 17.86)" fill="#fff"/>
      <path id="Path_17235" data-name="Path 17235" d="M61.465,22.915,59.8,21.806l2.63-3.945L59.8,13.915l1.664-1.109,3.37,5.055Z" fill="#fff"/>
      <path id="Subtraction_3" data-name="Subtraction 3" d="M16356.9,16444.277h-44v-4.639h2v2.637h40v-23a3,3,0,0,0-3-3h-34a3,3,0,0,0-3,3v2.5h-2v-2.5a5.008,5.008,0,0,1,5-5h34a5.008,5.008,0,0,1,5,5v25Zm-42-5.643h-2v-5h2v5Zm0-6h-2v-9.863h2v9.863Z" transform="translate(-16302.418 -16414.275)" fill="#fff"/>
      <path id="Line_240" data-name="Line 240" d="M1,.5H0v-1H1Z" transform="translate(48.311 4.378)" fill="#fff"/>
      <path id="Line_241" data-name="Line 241" d="M1,.5H0v-1H1Z" transform="translate(45.363 4.378)" fill="#fff"/>
      <path id="Line_242" data-name="Line 242" d="M1,.5H0v-1H1Z" transform="translate(42.415 4.378)" fill="#fff"/>
      <path id="Line_243" data-name="Line 243" d="M2.013.5H0v-1H2.013Z" transform="translate(15.422 4.378)" fill="#fff"/>
      <path id="Line_244" data-name="Line 244" d="M6.013.5H0v-1H6.013Z" transform="translate(15.051 11.86)" fill="#fff"/>
      <path id="Line_245" data-name="Line 245" d="M6.013.5H0v-1H6.013Z" transform="translate(15.051 14.86)" fill="#fff"/>
      <path id="Line_246" data-name="Line 246" d="M6.013.5H0v-1H6.013Z" transform="translate(15.051 20.86)" fill="#fff"/>
      <path id="Line_247" data-name="Line 247" d="M6.013.5H0v-1H6.013Z" transform="translate(15.051 23.86)" fill="#fff"/>
      <path id="Line_248" data-name="Line 248" d="M47.123.5H0v-1H47.123Z" transform="translate(6.61 7)" fill="#fff"/>
      <path id="Path_17237" data-name="Path 17237" d="M50.564,28.86h-1V12.36h-21v16.5h-1V11.36h23Z" fill="#fff"/>
      <path id="Rectangle_5467" data-name="Rectangle 5467" d="M-.5-.5h14v7H-.5Zm13,1H.5v5h12Z" transform="translate(24.064 17.861)" fill="#fff"/>
      <path id="Line_249" data-name="Line 249" d="M52,1H0V-1H52Z" transform="translate(6.609 29.275)" fill="#fff"/>
      <path id="Line_250" data-name="Line 250" d="M12,.5H0v-1H12Z" transform="translate(2 23.86)" fill="#fff"/>
      <path id="Line_252" data-name="Line 252" d="M1,.5H0v-1H1Z" transform="translate(0 23.86)" fill="#fff"/>
      <path id="Line_253" data-name="Line 253" d="M15.839.5H0v-1H15.839Z" transform="translate(5.225 17.86)" fill="#fff"/>
      <path id="Line_255" data-name="Line 255" d="M1,.5H0v-1H1Z" transform="translate(3.225 17.86)" fill="#fff"/>
      <path id="Line_257" data-name="Line 257" d="M1,.5H0v-1H1Z" transform="translate(4.61 7)" fill="#fff"/>
    </g>
  </g>
</svg>
