<svg id="icon-header-cart" xmlns="http://www.w3.org/2000/svg" width="36" height="36" viewBox="0 0 36 36">
  <rect id="Rectangle_80" data-name="Rectangle 80" width="36" height="36" fill="#00009f" opacity="0"/>
  <g id="icon-user">
    <path id="Path_214" data-name="Path 214" d="M29.545,10.921H13.532a1.563,1.563,0,0,1-1.159-.5L10.25,8.081a1.565,1.565,0,0,0-1.159-.5H5.7a.732.732,0,0,0-.757.7v.5a.732.732,0,0,0,.757.7H7.329a1.563,1.563,0,0,1,1.159.5L9.695,11.32a1.347,1.347,0,0,1,.357.906v9.948a1.463,1.463,0,0,0,1.515,1.406H23.426a1.54,1.54,0,0,0,1.312-.7l6.119-9.846a1.41,1.41,0,0,0-1.312-2.11" fill="#fff"/>
    <path id="Path_215" data-name="Path 215" d="M13.78,26.42a2,2,0,1,1-2-2,2,2,0,0,1,2,2" fill="#fff"/>
    <path id="Path_216" data-name="Path 216" d="M23.094,26.42a2,2,0,1,1-2-2,2,2,0,0,1,2,2" fill="#fff"/>
  </g>
</svg>
