<svg xmlns="http://www.w3.org/2000/svg" width="26.367" height="23.728" viewBox="0 0 26.367 23.728">
  <path id="icon-domain-alert" d="M13456.329,6321.728a3.326,3.326,0,0,1-2.883-4.993l9.854-17.07a3.329,3.329,0,0,1,5.765,0l9.854,17.073a3.329,3.329,0,0,1-2.882,4.993Zm8.7-21.062-9.858,17.07a1.326,1.326,0,0,0,1.154,1.989h19.709a1.326,1.326,0,0,0,1.149-1.989l-9.854-17.074a1.327,1.327,0,0,0-2.3,0Zm-.748,16.671v-11.86h3.8v11.86Zm1-1h1.793v-1.78h-1.793Zm0-2.812h1.793v-7.053h-1.793Z" transform="translate(-13453 -6298)" fill="#00009f"/>
</svg>
