<svg xmlns="http://www.w3.org/2000/svg" width="161.7" height="41.388" viewBox="0 0 161.7 41.388">
  <path id="Icon_payment-paysafecard" data-name="Icon payment-paysafecard" d="M17.586,31.057a2.745,2.745,0,0,0-2.152-2.138,5.487,5.487,0,0,0-1.182-.128c-2.759-.011-5.519,0-8.277-.008a3.778,3.778,0,0,0-2.338.8,1.679,1.679,0,0,0-.315.319,3.447,3.447,0,0,0-.6,1.4,7.225,7.225,0,0,0-.144,1.527c-.008,1.69,0,3.378,0,5.068,0,.635.018,1.273.039,1.908a4.542,4.542,0,0,0,.275,1.4,2.313,2.313,0,0,0,.631,1.03,3.526,3.526,0,0,0,2.3.886q2.149,0,4.3,0c1.054,0,2.109,0,3.165,0,.351,0,.7,0,1.054-.006A5.219,5.219,0,0,0,15.389,43a2.708,2.708,0,0,0,2.1-1.829,5.3,5.3,0,0,0,.273-1.826q0-3.4,0-6.791a5.778,5.778,0,0,0-.171-1.5Zm46.424-2a1.485,1.485,0,0,0-.023-.2c-.471-.052-3.243-.031-3.452.029v9.542a.9.9,0,0,1,0,.238,1.02,1.02,0,0,1-.141.359,1.227,1.227,0,0,1-1.014.484c-.407,0-.814,0-1.221,0s-.8,0-1.193,0a.872.872,0,0,1-.914-.784c-.016-.149-.042-.3-.044-.446q0-4.538,0-9.075c0-.112-.006-.225-.01-.33a31.6,31.6,0,0,0-3.47.019v.231q0,5.215,0,10.428a3.869,3.869,0,0,0,.063.71,3.423,3.423,0,0,0,1.264,2.139,2.818,2.818,0,0,0,1.756.648c1.522.006,3.043,0,4.565.006h.356c0,.388,0,.733,0,1.075a.329.329,0,0,1-.066.171,1.109,1.109,0,0,1-.713.511,3.5,3.5,0,0,1-.551.052q-3.17,0-6.342,0c-.1,0-.205.008-.3.011-.052.353-.039,3.326.018,3.533h.309q3.9,0,7.8,0a4.081,4.081,0,0,0,.658-.052,2.847,2.847,0,0,0,2.079-1.444,4.626,4.626,0,0,0,.59-2.362q.015-7.23,0-14.463c0-.346,0-.692,0-1.037Zm-29.09,1.625a2.7,2.7,0,0,0-.682-1.059,3.032,3.032,0,0,0-2.089-.771c-1.724-.018-3.449,0-5.173-.016a3.654,3.654,0,0,0-1.8.461,2.345,2.345,0,0,0-1.1,1.176A5.048,5.048,0,0,0,23.7,32.38c0,.283,0,.566,0,.849V48.056c0,.112.006.223.011.346h3.481V43.078c.128-.006.231-.016.335-.016q2.229,0,4.456,0a2.873,2.873,0,0,0,1.693-.522,3.965,3.965,0,0,0,.873-.8,2.813,2.813,0,0,0,.656-1.751q0-3.927,0-7.852a4.143,4.143,0,0,0-.278-1.449Zm-3.163,7.655c0,.105-.021.21-.021.315a1.034,1.034,0,0,1-1.012.863c-.8-.016-1.591,0-2.387-.008a1.988,1.988,0,0,1-.495-.078.893.893,0,0,1-.664-.886c-.008-.477,0-.954,0-1.433V35.945c0-.821,0-1.644,0-2.466a1.278,1.278,0,0,1,.026-.315A.921.921,0,0,1,28.21,32.4c.891-.032,1.785-.016,2.678,0a.761.761,0,0,1,.828.75c.018.2.04.4.04.606q0,2.294,0,4.587Zm59.231,3.438a3.618,3.618,0,0,0,.618-2.126c.011-2.088.006-4.175,0-6.261,0-.538-.031-1.075-.042-1.614a3.224,3.224,0,0,0-.228-1.083,2.547,2.547,0,0,0-1.294-1.444,3.746,3.746,0,0,0-1.633-.395c-2.689-.01-5.377-.006-8.066-.006a1.929,1.929,0,0,0-.2.019c-.05.309-.04,3.31.016,3.528h.306q3.316,0,6.633,0a2.483,2.483,0,0,1,.524.057.6.6,0,0,1,.5.521,4.863,4.863,0,0,1,0,.6H83.584a5.455,5.455,0,0,0-1.463.2,2.563,2.563,0,0,0-1.832,1.717,4.246,4.246,0,0,0-.225,1.378c0,.946,0,1.892,0,2.84a4.992,4.992,0,0,0,.111,1.13,2.593,2.593,0,0,0,1.1,1.657,3.383,3.383,0,0,0,1.879.558c1.83.021,3.661.019,5.491.006a2.8,2.8,0,0,0,2.346-1.282Zm-2.855-2.959a.631.631,0,0,1-.5.632,1.959,1.959,0,0,1-.445.063c-.884.006-1.767,0-2.652,0a1.131,1.131,0,0,1-.773-.3.576.576,0,0,1-.217-.462c.006-.362,0-.724.006-1.087a1.391,1.391,0,0,1,.079-.386.463.463,0,0,1,.361-.318,2.732,2.732,0,0,1,.5-.061c.441-.008.884,0,1.326,0s.9-.01,1.352,0a1.76,1.76,0,0,1,.54.108.632.632,0,0,1,.428.637c0,.39,0,.779,0,1.168ZM49.52,31.2a2.687,2.687,0,0,0-1.185-1.811,3.425,3.425,0,0,0-1.858-.538c-2.707-.016-5.412-.01-8.119-.01a1.484,1.484,0,0,0-.2.023c-.052.411-.034,3.323.024,3.527h.31q3.342,0,6.686,0a1.922,1.922,0,0,1,.471.058.606.606,0,0,1,.437.317,1.185,1.185,0,0,1,.068.8h-.314c-1.15,0-2.3,0-3.449,0-.511,0-1.024.018-1.535.053a3.181,3.181,0,0,0-1.337.395,2.613,2.613,0,0,0-1.276,1.685,4.912,4.912,0,0,0-.16,1.256c0,.928,0,1.858,0,2.786a4.558,4.558,0,0,0,.166,1.255A2.481,2.481,0,0,0,39.477,42.6a3.6,3.6,0,0,0,1.7.453c1.84.016,3.679.008,5.519.008a2.181,2.181,0,0,0,.37-.021,2.946,2.946,0,0,0,2.028-1.363,3.483,3.483,0,0,0,.54-1.911c.008-2.476,0-4.953,0-7.429A5.87,5.87,0,0,0,49.52,31.2Zm-3.333,7.553a.688.688,0,0,1-.65.71,2.879,2.879,0,0,1-.472.045c-.812,0-1.625,0-2.437,0a1.175,1.175,0,0,1-.807-.272.64.64,0,0,1-.254-.5c0-.352-.008-.707,0-1.059a1.509,1.509,0,0,1,.076-.386.464.464,0,0,1,.375-.336,3,3,0,0,1,.524-.06c.432-.008.865,0,1.3,0s.865,0,1.3,0a2.792,2.792,0,0,1,.365.042.757.757,0,0,1,.682.783,8.751,8.751,0,0,1,0,1.032Zm61.084,4.3h6.42c.1,0,.2-.01.31-.015v-3.53h-4.065c-.99,0-1.981,0-2.97,0a.668.668,0,0,1-.582-.3,1.389,1.389,0,0,1-.265-.681c-.031-.285.024-.3.217-.378,1.145-.443,2.283-.9,3.425-1.35.936-.369,1.876-.731,2.812-1.1.492-.194.982-.395,1.491-.6v-.288c0-.849,0-1.7,0-2.547a4.885,4.885,0,0,0-.17-1.308,2.688,2.688,0,0,0-.93-1.476,3.087,3.087,0,0,0-1.9-.637c-1.759-.018-3.519-.006-5.279-.006a3.843,3.843,0,0,0-1.421.275,2.533,2.533,0,0,0-1.46,1.416,3.988,3.988,0,0,0-.291,1.6c.006,2.414,0,4.828.013,7.243a9.477,9.477,0,0,0,.1,1.13,2.862,2.862,0,0,0,1.313,2.023,3.065,3.065,0,0,0,1.7.516c.514.016,1.028.008,1.541.008Zm-1.214-8.543c0-.336.018-.673,0-1.007a1.058,1.058,0,0,1,.823-1.061,1.506,1.506,0,0,1,.417-.055c.76,0,1.52-.006,2.278,0a1.186,1.186,0,0,1,.682.166.61.61,0,0,1,.238.307c.071.192.04.27-.152.344q-1.111.427-2.225.846-.866.327-1.733.65c-.087.032-.179.057-.3.1-.008-.12-.019-.2-.019-.288ZM74.091,43.06c.2,0,.407,0,.61-.008a2.325,2.325,0,0,0,1.431-.547,4.672,4.672,0,0,0,.815-.935,3.026,3.026,0,0,0,.561-1.814c-.021-.8-.011-1.609,0-2.414a3.212,3.212,0,0,0-.2-1.166,3.1,3.1,0,0,0-2.864-2.026c-1.017.023-2.034.01-3.051,0a2.449,2.449,0,0,1-.648-.105.591.591,0,0,1-.459-.631c0-.089,0-.176,0-.265a.591.591,0,0,1,.492-.658,2.671,2.671,0,0,1,.678-.094c1.91-.006,3.821,0,5.732,0,.1,0,.2-.01.309-.016V28.858c-.087-.006-.141-.015-.192-.015q-3.609,0-7.216,0a4.078,4.078,0,0,0-1.451.265A2.516,2.516,0,0,0,67.3,30.194a3.552,3.552,0,0,0-.445,1.751c-.026.918-.016,1.84,0,2.76a2.645,2.645,0,0,0,.257,1.1,3.4,3.4,0,0,0,1.195,1.321,3.53,3.53,0,0,0,2.049.613c.973.013,1.945.006,2.919,0a.6.6,0,0,1,.534.281,1.331,1.331,0,0,1,.162.736.687.687,0,0,1-.538.692,2.49,2.49,0,0,1-.524.063q-2.891.007-5.784,0c-.1,0-.2.008-.3.011v3.533h.325q3.466,0,6.945,0Zm26.372-14.217h-.851c-.265,0-.53,0-.8,0a4.752,4.752,0,0,1-.826-.027c0-.33-.015-.639.006-.946a1.035,1.035,0,0,1,.142-.422.981.981,0,0,1,.894-.472c.4-.015.8,0,1.193,0,.076,0,.152-.011.236-.018V23.5c-.1,0-.186-.015-.273-.013-.733.013-1.465.023-2.2.044A3.823,3.823,0,0,0,95.6,24.4a2.845,2.845,0,0,0-1.091,2.262q-.022,8.065-.006,16.131c0,.078.01.154.014.226A32.009,32.009,0,0,0,97.982,43V34.734q0-1.021,0-2.042c0-.092.013-.186.021-.3h.846c.265,0,.531,0,.8,0s.542.011.817-.01V28.843Zm-97.193-.07a4.185,4.185,0,0,1,1.444-.7.366.366,0,0,0,.3-.306,5.324,5.324,0,0,1,7.042-3.654,5.244,5.244,0,0,1,3.279,3.666.338.338,0,0,0,.288.285,3.967,3.967,0,0,1,.821.291c.314.157.6.361.914.55a7.3,7.3,0,0,0-3.868-7.037A7.183,7.183,0,0,0,3.159,26.639a7.9,7.9,0,0,0-.166,2.33c.121-.084.2-.137.277-.2ZM163.782,41.165a4.884,4.884,0,0,0,.432-2.084q.012-7.376,0-14.752c0-.076-.011-.154-.016-.226a1.916,1.916,0,0,0-.816.024v4.6c-.12.006-.2.013-.277.013q-3.158,0-6.314,0a5.544,5.544,0,0,0-2.028.317,3.024,3.024,0,0,0-1.559,1.3,4.352,4.352,0,0,0-.584,2.228c-.021,2.139-.011,4.28-.008,6.421,0,.325.019.653.051.977a3.331,3.331,0,0,0,1.125,2.267,2.946,2.946,0,0,0,1.4.707,9.942,9.942,0,0,0,1.764.141c1.192.008,2.385.045,3.578-.029a5.239,5.239,0,0,0,1.449-.278,3.03,3.03,0,0,0,1.8-1.622Zm-1.837.6a3.822,3.822,0,0,1-1.51.456q-.514.048-1.03.052c-.982.006-1.963.016-2.945-.006a4.468,4.468,0,0,1-1.839-.445,1.963,1.963,0,0,1-1.111-1.462,5.473,5.473,0,0,1-.107-1.077q-.016-3.316,0-6.633a3.084,3.084,0,0,1,.467-1.74,3.435,3.435,0,0,1,.9-.925,2.647,2.647,0,0,1,1.3-.409c.464-.044.935-.052,1.4-.053q2.786-.006,5.572,0c.1,0,.207.008.349.014v.33q0,4.6,0,9.207a4,4,0,0,1-.186,1.252,2.533,2.533,0,0,1-1.268,1.441ZM141.1,40.61a7.438,7.438,0,0,0,.126-1.446c.013-2.122.008-4.245,0-6.366a6.285,6.285,0,0,0-.057-.818A4.475,4.475,0,0,0,140.392,30a2.471,2.471,0,0,0-1.6-1.132,6.931,6.931,0,0,0-1.182-.123c-2.521-.011-5.04-.008-7.561-.008-.076,0-.154.011-.239.018a4.039,4.039,0,0,0,0,.766h.34c1.716,0,3.431-.006,5.147,0,.909,0,1.819-.039,2.728.04a2.2,2.2,0,0,1,1.572.71,3.444,3.444,0,0,1,.639,1.061,5.042,5.042,0,0,1,.2,2.117c0,.006-.01.013-.05.063h-.3q-3.17,0-6.34,0c-.291,0-.581.027-.872.045a3.711,3.711,0,0,0-1.18.277,2.714,2.714,0,0,0-1.1.766,3.608,3.608,0,0,0-.8,2.256c-.031.954-.023,1.91,0,2.865a3.2,3.2,0,0,0,1.054,2.4,3.321,3.321,0,0,0,2.228.915c1.591.026,3.184.006,4.775.013a3.341,3.341,0,0,0,2.01-.637,2.931,2.931,0,0,0,1.24-1.814Zm-2.78,1.607a7.529,7.529,0,0,1-1.028.055c-1.282.006-2.564,0-3.847,0a3.21,3.21,0,0,1-2.186-.872,1.916,1.916,0,0,1-.634-1.326q-.047-.553-.052-1.109c-.008-.619-.015-1.239,0-1.858a3.009,3.009,0,0,1,.511-1.7,2.387,2.387,0,0,1,1.512-1,5.3,5.3,0,0,1,1.049-.107c2.131-.01,4.262,0,6.4,0h.352c.006.129.015.215.015.3v5.042a3.181,3.181,0,0,1-.238,1.214,2.178,2.178,0,0,1-1.851,1.357Zm-.93,11.279h-1.6v.3c0,1.344-.006,2.689.006,4.033a.5.5,0,0,1-.482.522q-.623.017-1.247,0a.409.409,0,0,1-.417-.4,2.39,2.39,0,0,1-.006-.265v-4.2h-1.624v.319q0,2.241,0,4.484a2,2,0,0,0,.057.55,1.446,1.446,0,0,0,1.062,1.075,2.454,2.454,0,0,0,.577.06c.584.006,1.168,0,1.751,0,.1,0,.189.008.32.015,0,.141.008.262,0,.383a.382.382,0,0,1-.309.382,1.453,1.453,0,0,1-.314.037c-.946,0-1.893,0-2.839,0h-.277c-.013.081-.021.2-.027.325,0,.019,0,.039,0,.058,0,.037,0,.076,0,.115,0,.061,0,.124,0,.188a5.043,5.043,0,0,0,.052.922.3.3,0,0,0,.052.011c1.274,0,2.548.019,3.821-.006a1.39,1.39,0,0,0,1.265-.789,1.962,1.962,0,0,0,.205-.9q.007-3.517,0-7.032c0-.066-.015-.134-.023-.2Zm-51.9.011a7.6,7.6,0,0,0-1.56.019v.283c0,1.31-.007,2.618,0,3.928a.573.573,0,0,1-.621.626c-.362-.008-.726,0-1.088,0a.437.437,0,0,1-.477-.432,1.907,1.907,0,0,1-.005-.239V53.512a7.994,7.994,0,0,0-1.611.011.586.586,0,0,0-.011.076c0,1.6-.008,3.2,0,4.8a1.568,1.568,0,0,0,.737,1.361,1.491,1.491,0,0,0,.834.217c.637.006,1.274,0,1.91,0h.317a2.771,2.771,0,0,1,0,.37.484.484,0,0,1-.5.446c-.061,0-.124,0-.186,0H80.416c-.094,0-.188.008-.286.013,0,.081-.011.133-.011.184v1.394a.5.5,0,0,0,.1.029c1.274,0,2.547.016,3.821,0a1.375,1.375,0,0,0,1.184-.645,1.783,1.783,0,0,0,.281-.98q0-3.556,0-7.111a1.186,1.186,0,0,0-.018-.171Zm38.759,1.509a2.26,2.26,0,0,0-.113-.647,1.082,1.082,0,0,0-.571-.665,2.09,2.09,0,0,0-.944-.223c-.708-.006-1.415,0-2.123,0a2.314,2.314,0,0,0-.852.163,1,1,0,0,0-.508.407,2.138,2.138,0,0,0-.279,1.142c-.007,2.325,0,4.652,0,6.977,0,.076.011.154.019.247l1.611-.045V59.98h.328c.6,0,1.2,0,1.8,0a2.138,2.138,0,0,0,.5-.063,1.6,1.6,0,0,0,1.15-1.478C124.229,57.3,124.263,56.158,124.252,55.016Zm-1.58,2.8c0,.365-.2.538-.571.542-.335,0-.671,0-1.006,0a1,1,0,0,1-.184-.008.443.443,0,0,1-.425-.485c-.006-.38,0-.758,0-1.138h0c0-.352,0-.707,0-1.059a.51.51,0,0,1,.576-.566c.352,0,.707,0,1.059,0,.391,0,.548.145.553.543q.015,1.087,0,2.172ZM72.354,55.427a5.94,5.94,0,0,0-.008-.61,1.271,1.271,0,0,0-.76-1.151,2.2,2.2,0,0,0-.847-.184c-.716-.006-1.433-.011-2.149,0a2.7,2.7,0,0,0-.726.12,1.121,1.121,0,0,0-.762.752,2.775,2.775,0,0,0-.147.91q0,3.435,0,6.871c0,.086.008.171.013.283l1.611-.045v-2.39H68.9c.592,0,1.185,0,1.777,0a2.737,2.737,0,0,0,.472-.048,1.575,1.575,0,0,0,1.206-1.455c-.028-1.017-.005-2.036-.005-3.053Zm-1.585,2.39a.5.5,0,0,1-.168.425.577.577,0,0,1-.312.112c-.388.013-.776.01-1.166,0a.493.493,0,0,1-.543-.543q-.007-1.06,0-2.118c0-.406.2-.59.61-.59.353,0,.707,0,1.059,0,.369,0,.511.142.517.514s0,.742,0,1.112,0,.723,0,1.085Zm28.213-3.394a1.08,1.08,0,0,0-.8-.8,3.25,3.25,0,0,0-.8-.133c-1.14-.015-2.28-.006-3.422,0-.077,0-.154.01-.243.016V55h.32c.946,0,1.892,0,2.838,0a1.863,1.863,0,0,1,.438.078.21.21,0,0,1,.159.22c0,.11-.01.222-.016.353h-.32c-.574,0-1.15,0-1.724,0a3.172,3.172,0,0,0-.631.057,1.294,1.294,0,0,0-.953.728,2.195,2.195,0,0,0-.166.93c-.006.467.018.935.045,1.4a1.179,1.179,0,0,0,.325.736,1.543,1.543,0,0,0,1.171.469c.813.018,1.627.023,2.44,0a1.352,1.352,0,0,0,1.307-.87,2.026,2.026,0,0,0,.139-.72c.015-1.1.011-2.193,0-3.289a2.682,2.682,0,0,0-.1-.679Zm-1.514,3.586a.39.39,0,0,1-.383.395c-.458.013-.917.015-1.374,0a.441.441,0,0,1-.43-.424,2.6,2.6,0,0,1,0-.475.325.325,0,0,1,.364-.333c.238-.006.475,0,.713,0,.22,0,.441,0,.661,0a.817.817,0,0,1,.255.052.28.28,0,0,1,.194.285c0,.166.006.335,0,.5Zm54.118-3.02a1.974,1.974,0,0,0-.063-.5,1.13,1.13,0,0,0-.828-.88,3.42,3.42,0,0,0-.807-.126c-1.158-.013-2.315-.006-3.473,0a1.78,1.78,0,0,0-.2.021V55h.3c.946,0,1.892,0,2.838,0a2.329,2.329,0,0,1,.419.052.225.225,0,0,1,.194.192c.018.12.023.241.036.39-.11.006-.2.015-.3.016-.619,0-1.237-.006-1.856,0a2.925,2.925,0,0,0-.627.079,1.256,1.256,0,0,0-1.014,1.232,16.676,16.676,0,0,0,0,1.75,1.211,1.211,0,0,0,.762,1.093,2,2,0,0,0,.8.166c.786.008,1.573.013,2.361,0a1.454,1.454,0,0,0,1.467-1.491c0-1.168,0-2.333,0-3.5Zm-1.622,2.975c-.007.32-.128.44-.455.445-.2,0-.406,0-.608,0s-.406,0-.608,0a.43.43,0,0,1-.478-.492c0-.141-.007-.283,0-.424.011-.212.1-.315.309-.32.493-.01.986-.011,1.48,0,.249.006.354.141.359.393,0,.134,0,.267,0,.4Zm-39.225-4.3a1.891,1.891,0,0,0-.846-.181c-.61,0-1.221,0-1.83,0-.094,0-.189-.01-.314-.016v-2.39a8.012,8.012,0,0,0-1.606.006v8.89h1.6V55.616c0-.365.144-.509.513-.511.344,0,.69,0,1.035,0,.548,0,.6.052.6.611v4.232a7.577,7.577,0,0,0,1.607-.008c0-.04.01-.084.01-.128,0-1.644.015-3.291-.008-4.935a1.311,1.311,0,0,0-.765-1.214Zm20.093,1.2a1.217,1.217,0,0,0-1.025-1.292,4.83,4.83,0,0,0-.758-.092c-1.079-.01-2.157,0-3.236,0h-.307V55h.3c.928,0,1.856,0,2.785,0a1.946,1.946,0,0,1,.419.052.288.288,0,0,1,.241.28c.006.094,0,.189,0,.306-.124.006-.22.015-.314.015-.592,0-1.185,0-1.777,0a3.3,3.3,0,0,0-.551.048,1.278,1.278,0,0,0-1.156,1.308,8.456,8.456,0,0,0,.032,1.8,1.2,1.2,0,0,0,.8,1.025,2.339,2.339,0,0,0,.829.145c.7,0,1.4,0,2.1,0a3.909,3.909,0,0,0,.472-.045,1.4,1.4,0,0,0,1.153-1.383c-.008-.283,0-.566,0-.849,0-.946.013-1.892-.006-2.838Zm-1.58,3.08a.448.448,0,0,1-.493.464c-.2-.013-.4,0-.608,0s-.406,0-.608,0a.431.431,0,0,1-.478-.493c0-.141-.007-.283,0-.422.011-.21.1-.315.309-.318.493-.01.986-.013,1.48,0a.391.391,0,0,1,.4.43,2.728,2.728,0,0,1,0,.343ZM78.93,54.816a1.212,1.212,0,0,0-1-1.236,3.486,3.486,0,0,0-.652-.1c-1.158-.01-2.317,0-3.475,0a1.929,1.929,0,0,0-.2.019,5.948,5.948,0,0,0,.029,1.5h2.99c.089,0,.178,0,.265,0,.378.029.482.149.458.526a.934.934,0,0,1-.031.126h-.293c-.645,0-1.292,0-1.937,0a1.752,1.752,0,0,0-.863.215,1.362,1.362,0,0,0-.682,1.265c0,.555.013,1.112.047,1.665a1.135,1.135,0,0,0,.606.938,1.835,1.835,0,0,0,.914.236c.805.011,1.611.023,2.414,0a1.409,1.409,0,0,0,1.413-1.449c0-.946,0-1.892,0-2.839,0-.288.016-.58-.006-.872ZM77.356,57.64c-.011.1,0,.194,0,.291a.429.429,0,0,1-.475.477c-.107,0-.212,0-.319,0h-.821c-.443,0-.577-.139-.577-.592,0-.1,0-.2,0-.291.021-.243.131-.354.37-.356.451,0,.9,0,1.353,0,.27,0,.508.146.469.472Zm80.564.019,2.157-.809,1.329-.5c0-.556.029-1.088-.008-1.615a1.217,1.217,0,0,0-.742-1.08,2.177,2.177,0,0,0-.876-.17c-.671,0-1.344-.006-2.015,0a3.161,3.161,0,0,0-.631.057,1.249,1.249,0,0,0-.967.817,2.337,2.337,0,0,0-.15.828c0,.982,0,1.963,0,2.943a4.17,4.17,0,0,0,.057.684,1.349,1.349,0,0,0,.571.888,1.64,1.64,0,0,0,.975.281c1.2.008,2.4,0,3.606,0a1.406,1.406,0,0,0,.147-.015,7.359,7.359,0,0,0-.016-1.607h-3.145a1.3,1.3,0,0,1-.238-.01.359.359,0,0,1-.286-.365c-.016-.207.011-.244.23-.327Zm-.27-1.366c0-.259-.018-.479,0-.7a.455.455,0,0,1,.446-.386c.441-.015.884-.01,1.326,0a.385.385,0,0,1,.218.081.3.3,0,0,1,.115.189c0,.037-.086.1-.144.121-.6.222-1.193.437-1.792.653-.04.015-.084.019-.175.04Zm-54.1-.377c-.424.011-.849,0-1.273,0a1.3,1.3,0,0,1-.238-.013.412.412,0,0,1-.338-.39.427.427,0,0,1,.354-.4,1.313,1.313,0,0,1,.212-.006h2.468c.094,0,.188-.008.289-.013V53.481H104.7c-.956,0-1.91,0-2.865,0a3.162,3.162,0,0,0-.551.05,1.308,1.308,0,0,0-1.151,1.345c-.033.448-.012.9,0,1.352a1.1,1.1,0,0,0,.4.838,1.809,1.809,0,0,0,1.282.479c.4-.015.8,0,1.193,0a.336.336,0,0,1,.34.205.41.41,0,0,1-.385.613c-.061,0-.124,0-.186,0h-2.665q-.021.163-.026.328c0,.037,0,.076,0,.117,0,.019,0,.04,0,.06s0,.04,0,.061a5.969,5.969,0,0,0,.048,1.043.3.3,0,0,0,.052.011c1.15,0,2.3.006,3.449,0a1.211,1.211,0,0,0,.534-.128,1.438,1.438,0,0,0,.839-1.284c.008-.255.024-.511.039-.765a1.905,1.905,0,0,0-.213-1.125,1.358,1.358,0,0,0-1.269-.758Zm38.575-.807a1.314,1.314,0,0,1,.212-.006h2.468c.094,0,.189-.008.3-.011-.016-.183-.037-.338-.04-.495-.006-.3,0-.6,0-.9a1.7,1.7,0,0,0-.027-.215h-.309c-.956,0-1.911-.006-2.865,0a3.473,3.473,0,0,0-.705.094,1.252,1.252,0,0,0-.959,1.193c-.026.511-.01,1.025,0,1.538a.915.915,0,0,0,.257.622,1.77,1.77,0,0,0,1.358.61c.415,0,.831,0,1.247,0a.337.337,0,0,1,.37.331.387.387,0,0,1-.414.485c-.062,0-.125,0-.186,0h-2.388c-.094,0-.188.008-.288.013v1.58a.524.524,0,0,0,.1.026c1.132,0,2.264.019,3.4,0a1.447,1.447,0,0,0,1.41-1.489c0-.372-.007-.744.01-1.114a1.482,1.482,0,0,0-1.449-1.455c-.362.018-.724,0-1.088,0a3.628,3.628,0,0,1-.4-.008.355.355,0,0,1-.362-.322.423.423,0,0,1,.357-.479ZM120.948,43.049c1.813.021,3.625.01,5.438.011a1.753,1.753,0,0,0,.188-.021,3.1,3.1,0,0,0-.011-.763h-.3c-1.547,0-3.1,0-4.642,0a6.182,6.182,0,0,1-1.184-.112,2.489,2.489,0,0,1-1.729-1.159,3.568,3.568,0,0,1-.5-1.9c-.016-2.307-.01-4.615,0-6.924a4.118,4.118,0,0,1,.113-.889,2.014,2.014,0,0,1,1.4-1.526,4.669,4.669,0,0,1,1.509-.239c1.644-.011,3.289,0,4.933,0,.1,0,.2-.01.307-.016v-.75c-.084-.006-.154-.018-.222-.018-1.848,0-3.7,0-5.543.006a3.425,3.425,0,0,0-1.171.186,3.158,3.158,0,0,0-2.11,2.956c-.01,2.458,0,4.916,0,7.374A4.727,4.727,0,0,0,117.7,40.9a3.232,3.232,0,0,0,1.2,1.544,3.493,3.493,0,0,0,2.055.6ZM92.339,58.36c-.627,0-1.256,0-1.884,0a.44.44,0,0,1-.49-.493c0-.416,0-.831,0-1.247,0-.38,0-.76,0-1.14,0-.26.11-.362.373-.373.053,0,.107,0,.159,0h1.884c.092,0,.186-.01.283-.015V53.507a.518.518,0,0,0-.1-.023c-.972,0-1.945-.013-2.917,0a1.293,1.293,0,0,0-.9.335,1.35,1.35,0,0,0-.4,1.03c-.006,1.211,0,2.422,0,3.634a1.839,1.839,0,0,0,.17.742,1.044,1.044,0,0,0,.692.611,2.979,2.979,0,0,0,.75.136c.849.016,1.7.006,2.547.006a1.077,1.077,0,0,0,.147-.018,7.583,7.583,0,0,0-.021-1.606c-.094,0-.191,0-.288,0Zm61.95-7.276a1.56,1.56,0,0,0-.736.2,1.379,1.379,0,0,0-.778,1.287q0,3.553,0,7.108v.276a7.3,7.3,0,0,0,1.62-.018V58.323c0-.53,0-1.061,0-1.591s-.027-1.07.024-1.636h1.127V53.48c-.2,0-.382.006-.566,0a1.516,1.516,0,0,1-.585-.047c0-.12,0-.235,0-.348a.418.418,0,0,1,.3-.419,1.176,1.176,0,0,1,.336-.057c.165-.01.332,0,.511,0V51.1a1.232,1.232,0,0,0-.147-.018c-.37,0-.742,0-1.112,0Zm-8.059-8.392q0-4.96,0-9.922a5.407,5.407,0,0,1,.1-1.13,2.442,2.442,0,0,1,2.307-2.058c.427-.052.863-.037,1.3-.053.084,0,.168-.011.252-.018v-.768c-.373,0-.734,0-1.095,0a4.9,4.9,0,0,0-1.255.168,2.884,2.884,0,0,0-2.021,1.649,4.066,4.066,0,0,0-.367,1.669c-.006,2.06,0,4.122-.006,6.182v4.324c0,.1.01.2.016.327.215,0,.4,0,.584,0,.05,0,.1-.011.184-.021,0-.136,0-.241,0-.346Zm-32.8,15.26a1.012,1.012,0,0,0,0,2.025,1,1,0,0,0,1.009-1.009.985.985,0,0,0-1.006-1.016Zm49.826,0a1.01,1.01,0,0,0-.008,2.02,1,1,0,0,0,1.024-1.019.984.984,0,0,0-1.015-1Z" transform="translate(-2.571 -21.039)" fill="#00009f"/>
</svg>
