<svg xmlns="http://www.w3.org/2000/svg" width="72" height="72" viewBox="0 0 72 72">
  <g id="icon-marketplace-bg" transform="translate(14.152 13.25)">
    <rect id="bg" width="72" height="72" transform="translate(-14.152 -13.25)" fill="#fff" opacity="0"/>
    <g id="icon-marketplace" transform="translate(-5.152 13.488)">
      <path id="Union_27" data-name="Union 27" d="M16409,16452.523v-2h3.875v-18.908c-.055,0-.107,0-.162,0a4.725,4.725,0,0,1-4.7-4.359H16408v-4.434l4.92-4.564h43.908l5.174,4.8v3.842a4.721,4.721,0,0,1-4.719,4.715q-.205,0-.4-.018v18.922H16461v2Zm45.879-2.271v-19.3a4.774,4.774,0,0,1-1.309-1.154,12.878,12.878,0,0,0-11.145,1.818,4.708,4.708,0,0,0-7.428,0,4.7,4.7,0,0,0-7.424,0,4.712,4.712,0,0,0-7.432,0,4.7,4.7,0,0,1-3.713-1.812,4.768,4.768,0,0,1-1.551,1.285v19.16h2.623v-10.49h8v10.49h4.453v-16.643h23v16.643Zm-2.926,0v-15.643h-21v15.643Zm-27.453,0v-9.49h-6v9.49Zm30.072-23.348a2.715,2.715,0,1,0,5.43,0v-2.971l-3.959-3.672h-42.338l-3.707,3.438v3.205a2.715,2.715,0,0,0,5.43,0,1,1,0,0,1,2,0h0c0,.039,0,.078,0,.117a2.714,2.714,0,0,0,5.426-.117,1,1,0,0,1,2,0,2.715,2.715,0,0,0,5.43.055v-.055a1,1,0,1,1,2,0v.055a2.717,2.717,0,0,0,5.434-.055,1,1,0,0,1,2,0,2.712,2.712,0,0,0,5.424.055v-.055a1,1,0,0,1,2,0v.055a2.712,2.712,0,0,0,5.424-.055,1,1,0,0,1,2,0Z" transform="translate(-16408 -16418.262)" fill="#fff"/>
    </g>
  </g>
</svg>
