<svg xmlns="http://www.w3.org/2000/svg" width="92.625" height="92" viewBox="0 0 92.625 92">
  <g id="icon-1min-design-bg" transform="translate(0 0)">
    <g id="bg" transform="translate(0 0)" fill="none" stroke="#fff" stroke-width="2" opacity="0">
      <circle cx="46" cy="46" r="46" stroke="none"/>
      <circle cx="46" cy="46" r="45" fill="none"/>
    </g>
    <g id="icon-1min-design" transform="translate(1.177 22.275)">
      <path id="Path_17217" data-name="Path 17217" d="M63.566,51.448H3.877V17.482a6.5,6.5,0,0,1,6.494-6.494h46.7a6.5,6.5,0,0,1,6.494,6.494Zm-57.689-2H61.566V17.482a4.5,4.5,0,0,0-4.494-4.494h-46.7a4.5,4.5,0,0,0-4.494,4.494Z" transform="translate(1.822 4.478)" fill="#00b2a9"/>
      <path id="Line_227" data-name="Line 227" d="M1.374.5H0v-1H1.374Z" transform="translate(57.279 21.106)" fill="#00b2a9"/>
      <path id="Line_228" data-name="Line 228" d="M1.374.5H0v-1H1.374Z" transform="translate(53.23 21.106)" fill="#00b2a9"/>
      <path id="Line_229" data-name="Line 229" d="M1.374.5H0v-1H1.374Z" transform="translate(49.181 21.106)" fill="#00b2a9"/>
      <path id="Line_230" data-name="Line 230" d="M2.765.5H0v-1H2.765Z" transform="translate(12.105 21.106)" fill="#00b2a9"/>
      <path id="Line_231" data-name="Line 231" d="M8.259.5H0v-1H8.259Z" transform="translate(11.595 31.384)" fill="#00b2a9"/>
      <path id="Line_232" data-name="Line 232" d="M8.259.5H0v-1H8.259Z" transform="translate(11.595 35.505)" fill="#00b2a9"/>
      <path id="Line_233" data-name="Line 233" d="M8.259.5H0v-1H8.259Z" transform="translate(11.595 39.625)" fill="#00b2a9"/>
      <path id="Line_234" data-name="Line 234" d="M8.259.5H0v-1H8.259Z" transform="translate(11.595 43.746)" fill="#00b2a9"/>
      <path id="Line_235" data-name="Line 235" d="M8.259.5H0v-1H8.259Z" transform="translate(11.595 47.867)" fill="#00b2a9"/>
      <path id="Line_236" data-name="Line 236" d="M57.575.5H0v-1H57.575Z" transform="translate(7.152 24.523)" fill="#00b2a9"/>
      <path id="Path_17218" data-name="Path 17218" d="M52.173,46.2h-1V23.349H21.954V46.2h-1V22.349H52.173Z" transform="translate(8.014 8.535)" fill="#00b2a9"/>
      <path id="Rectangle_5462" data-name="Rectangle 5462" d="M-.5-.5H18.356V8.741H-.5ZM17.356.5H.5V7.741H17.356Z" transform="translate(23.974 39.626)" fill="#00b2a9"/>
      <path id="Line_237" data-name="Line 237" d="M71.425,1H0V-1H71.425Z" transform="translate(0 55.304)" fill="#00b2a9"/>
      <path id="Path_17219" data-name="Path 17219" d="M68.354,17.483A16.483,16.483,0,1,0,51.872,33.965,16.483,16.483,0,0,0,68.354,17.483" transform="translate(13.22 0.374)" fill="#fff"/>
      <path id="Path_17219_-_Outline" data-name="Path 17219 - Outline" d="M51.872,34.465A16.982,16.982,0,0,1,39.863,5.474,16.982,16.982,0,1,1,63.88,29.491,16.871,16.871,0,0,1,51.872,34.465Zm0-32.965a15.982,15.982,0,0,0-11.3,27.284,15.982,15.982,0,1,0,22.6-22.6A15.878,15.878,0,0,0,51.872,1.5Z" transform="translate(13.22 0.374)" fill="#00b2a9"/>
      <path id="Ellipse_32" data-name="Ellipse 32" d="M16.483-1A17.478,17.478,0,0,1,28.845,28.845,17.483,17.483,0,1,1,9.677.374,17.374,17.374,0,0,1,16.483-1Zm0,32.965A15.483,15.483,0,0,0,27.431,5.535a15.483,15.483,0,1,0-21.9,21.9A15.381,15.381,0,0,0,16.483,31.965Z" transform="translate(48.609 1.374)" fill="#00b2a9"/>
      <path id="Path_17220" data-name="Path 17220" d="M74.387,35.29,57.852,18.507a9.289,9.289,0,0,0-12.2-11.8l2.411,2.411,1.525,1.525.076,4.555-4.553-.076L41.14,11.153a9.274,9.274,0,0,0,12.1,12.161L69.677,40a3.33,3.33,0,1,0,4.71-4.71" transform="translate(15.088 2.242)" fill="#fff"/>
      <path id="Path_17220_-_Outline" data-name="Path 17220 - Outline" d="M72.032,41.475a3.805,3.805,0,0,1-2.709-1.122L53.118,23.905a9.338,9.338,0,0,1-3.425.641,9.882,9.882,0,0,1-9.64-8.031,9.425,9.425,0,0,1,.629-5.564l.295-.668,4.339,4.339,3.834.064-.064-3.836L44.771,6.534l.682-.29A9.338,9.338,0,0,1,49.128,5.5a9.832,9.832,0,0,1,9.3,12.881L74.743,34.939a3.831,3.831,0,0,1-2.711,6.536ZM53.354,22.719l16.68,16.929a2.83,2.83,0,0,0,4-4.005L57.27,18.629l.116-.3A8.826,8.826,0,0,0,49.128,6.5a8.384,8.384,0,0,0-2.577.4l3.528,3.528.087,5.274L44.9,15.615l-3.567-3.567a8.464,8.464,0,0,0-.291,4.284,8.882,8.882,0,0,0,8.657,7.215,8.332,8.332,0,0,0,3.345-.69Z" transform="translate(15.088 2.242)" fill="#00b2a9"/>
      <path id="Path_17221" data-name="Path 17221" d="M72.032,41.975a4.3,4.3,0,0,1-3.062-1.268l-.005-.005L52.99,24.487a9.851,9.851,0,0,1-3.3.56,10.382,10.382,0,0,1-10.131-8.439,9.923,9.923,0,0,1,.663-5.858,1,1,0,0,1,1.622-.3l3.679,3.679,3.115.052-.052-3.117L44.941,7.412a1,1,0,0,1,.316-1.627A9.835,9.835,0,0,1,49.128,5,10.338,10.338,0,0,1,59,18.248L75.1,34.585a4.331,4.331,0,0,1-3.065,7.39ZM70.387,39.3A2.33,2.33,0,0,0,73.68,36l-.005-.005L57.14,19.209a1,1,0,0,1-.221-1.061A8.327,8.327,0,0,0,49.128,7a7.978,7.978,0,0,0-1.608.162l2.77,2.77a1,1,0,0,1,.293.691l.076,4.555a1,1,0,0,1-1.016,1.016l-4.553-.076a1,1,0,0,1-.691-.293l-2.82-2.82a8.023,8.023,0,0,0-.05,3.234,8.382,8.382,0,0,0,8.165,6.807A7.835,7.835,0,0,0,52.84,22.4a1,1,0,0,1,1.111.215Z" transform="translate(15.088 2.242)" fill="#00b2a9"/>
    </g>
  </g>
</svg>
