<svg xmlns="http://www.w3.org/2000/svg" width="44.996" height="50.659" viewBox="0 0 44.996 50.659">
  <g id="icon-two-factor" transform="translate(0.084 0.08)">
    <g id="Group_15622" data-name="Group 15622">
      <path id="Subtraction_41" data-name="Subtraction 41" d="M-12211.7,7540.675h-26.3a3.005,3.005,0,0,1-3-3v-44.659a3,3,0,0,1,3-3h26.3a3,3,0,0,1,3,3v9.345h-2v-9.345a1,1,0,0,0-1-1h-26.3a1,1,0,0,0-1,1v44.659a1,1,0,0,0,1,1h26.3a1,1,0,0,0,1-1v-16.033h2v16.033A3,3,0,0,1-12211.7,7540.675Zm-7.64-3.253h-11.017a1.886,1.886,0,0,1-1.81-1.379h-4.66V7497.86h23.953v4.5h-1v-3.5h-21.953v36.183h3.656a1.9,1.9,0,0,1,1.478-1.349h.006a.19.19,0,0,1,.043-.006c.033-.006.065-.009.093-.012h.009a.147.147,0,0,1,.034,0l.01,0h.043l.009,0h11.16a1.854,1.854,0,0,1,1.272.55l0,0a.114.114,0,0,0,.016.015l.011.01.014.015a1.843,1.843,0,0,1,.439.783h3.658v-13.4h1v14.4h-4.657A1.882,1.882,0,0,1-12219.343,7537.422Zm-11.017-2.756a.878.878,0,0,0-.879.875.88.88,0,0,0,.879.878h11.017a.884.884,0,0,0,.875-.808v-.068a.874.874,0,0,0-.258-.621.862.862,0,0,0-.445-.243l-.021,0h-.007l-.012,0h0l-.01,0h-.033a.084.084,0,0,1-.027,0h-11.078Zm10.559-39.381h-10.1v-1h10.1v1Z" transform="translate(12240.917 -7490.097)" fill="#3b93d2"/>
      <path id="Subtraction_40" data-name="Subtraction 40" d="M-12224.016,7528.576h-11.018a1.381,1.381,0,0,1-1.377-1.377,1.381,1.381,0,0,1,1.377-1.377h11.018a1.381,1.381,0,0,1,1.377,1.377,1.381,1.381,0,0,1-1.377,1.377" transform="translate(12245.591 -7481.753)" fill="rgba(0,0,0,0)"/>
      <path id="Path_24297" data-name="Path 24297" d="M43.208,13.358H15.665a1.836,1.836,0,0,0-1.836,1.836V30.8a1.836,1.836,0,0,0,1.836,1.836H19.3l.037,5.891,6.8-5.891H43.208A1.837,1.837,0,0,0,45.044,30.8V15.194A1.837,1.837,0,0,0,43.208,13.358Z" transform="translate(-1.133 -1.094)" fill="#fff"/>
      <path id="Path_24297_-_Outline" data-name="Path 24297 - Outline" d="M15.665,12.358H43.208a2.839,2.839,0,0,1,2.836,2.836V30.8a2.839,2.839,0,0,1-2.836,2.836h-16.7l-8.162,7.067-.044-7.067h-2.64A2.839,2.839,0,0,1,12.829,30.8V15.194A2.839,2.839,0,0,1,15.665,12.358Zm27.543,19.28a.837.837,0,0,0,.836-.836V15.194a.837.837,0,0,0-.836-.836H15.665a.837.837,0,0,0-.836.836V30.8a.837.837,0,0,0,.836.836h4.628l.029,4.714,5.444-4.714Z" transform="translate(-1.133 -1.094)" fill="#3b93d2"/>
      <ellipse id="Ellipse_79" data-name="Ellipse 79" cx="2.195" cy="2.195" rx="2.195" ry="2.195" transform="translate(19.427 19.632)" fill="#3b93d2"/>
      <path id="Path_24299" data-name="Path 24299" d="M32.114,22.969a2.2,2.2,0,1,1-2.2-2.2,2.2,2.2,0,0,1,2.2,2.2" transform="translate(-1.712 -1.142)" fill="#3b93d2"/>
      <path id="Path_24300" data-name="Path 24300" d="M41.114,22.969a2.2,2.2,0,1,1-2.2-2.2,2.2,2.2,0,0,1,2.2,2.2" transform="translate(-4.126 -1.142)" fill="#3b93d2"/>
    </g>
  </g>
</svg>
