<svg xmlns="http://www.w3.org/2000/svg" xmlns:xlink="http://www.w3.org/1999/xlink" width="71" height="71" viewBox="0 0 71 71">
  <defs>
    <clipPath id="clip-path">
      <rect id="Rectangle_5782" data-name="Rectangle 5782" width="71" height="71" transform="translate(-0.331)" fill="none"/>
    </clipPath>
  </defs>
  <g id="icon-credits" transform="translate(-654 -746)">
    <g id="Group_15782" data-name="Group 15782" transform="translate(654.331 746)">
      <g id="Group_15781" data-name="Group 15781" clip-path="url(#clip-path)">
        <path id="Line_865" data-name="Line 865" d="M1,9.353H-1V0H1Z" transform="translate(35.334 0)" fill="#00009f"/>
        <path id="Line_866" data-name="Line 866" d="M1,9.353H-1V0H1Z" transform="translate(35.334 61.316)" fill="#00009f"/>
        <path id="Line_867" data-name="Line 867" d="M1.455,9.294-.966.259.966-.259,3.387,8.776Z" transform="translate(26.189 1.204)" fill="#00009f"/>
        <path id="Line_868" data-name="Line 868" d="M1.455,9.294-.966.259.966-.259,3.387,8.776Z" transform="translate(42.058 60.43)" fill="#00009f"/>
        <path id="Line_869" data-name="Line 869" d="M3.81,8.6-.866.5.866-.5,5.542,7.6Z" transform="translate(17.667 4.733)" fill="#00009f"/>
        <path id="Line_870" data-name="Line 870" d="M3.81,8.6-.866.5.866-.5,5.542,7.6Z" transform="translate(48.325 57.834)" fill="#00009f"/>
      </g>
    </g>
    <path id="Line_871" data-name="Line 871" d="M5.907,7.321-.707.707.707-.707,7.321,5.907Z" transform="translate(664.68 756.35)" fill="#00009f"/>
    <path id="Line_872" data-name="Line 872" d="M5.907,7.321-.707.707.707-.707,7.321,5.907Z" transform="translate(708.037 799.706)" fill="#00009f"/>
    <g id="Group_15784" data-name="Group 15784" transform="translate(654.331 746)">
      <path id="Line_873" data-name="Line 873" d="M7.6,5.542-.5.866.5-.866,8.6,3.81Z" transform="translate(4.733 17.667)" fill="#00009f"/>
      <path id="Line_874" data-name="Line 874" d="M7.6,5.542-.5.866.5-.866,8.6,3.81Z" transform="translate(57.834 48.325)" fill="#00009f"/>
      <path id="Line_875" data-name="Line 875" d="M8.776,3.387-.259.966.259-.966,9.294,1.455Z" transform="translate(1.204 26.188)" fill="#00009f"/>
      <path id="Line_876" data-name="Line 876" d="M8.776,3.387-.259.966.259-.966,9.294,1.455Z" transform="translate(60.43 42.059)" fill="#00009f"/>
      <path id="Line_877" data-name="Line 877" d="M9.353,1H0V-1H9.353Z" transform="translate(0 35.334)" fill="#00009f"/>
      <path id="Line_878" data-name="Line 878" d="M9.353,1H0V-1H9.353Z" transform="translate(61.316 35.334)" fill="#00009f"/>
      <path id="Line_879" data-name="Line 879" d="M.259,3.387-.259,1.455,8.776-.966,9.294.966Z" transform="translate(1.204 42.059)" fill="#00009f"/>
      <path id="Line_880" data-name="Line 880" d="M.259,3.387-.259,1.455,8.776-.966,9.294.966Z" transform="translate(60.43 26.189)" fill="#00009f"/>
      <path id="Line_881" data-name="Line 881" d="M.5,5.542-.5,3.81,7.6-.866,8.6.866Z" transform="translate(4.733 48.325)" fill="#00009f"/>
      <path id="Line_882" data-name="Line 882" d="M.5,5.542-.5,3.81,7.6-.866,8.6.866Z" transform="translate(57.834 17.667)" fill="#00009f"/>
    </g>
    <path id="Line_883" data-name="Line 883" d="M.707,7.321-.707,5.907,5.907-.707,7.321.707Z" transform="translate(664.68 799.706)" fill="#00009f"/>
    <path id="Line_884" data-name="Line 884" d="M.707,7.321-.707,5.907,5.907-.707,7.321.707Z" transform="translate(708.037 756.35)" fill="#00009f"/>
    <g id="Group_15786" data-name="Group 15786" transform="translate(654.331 746)">
      <path id="Line_885" data-name="Line 885" d="M.866,8.6l-1.732-1L3.81-.5,5.542.5Z" transform="translate(17.667 57.835)" fill="#00009f"/>
      <path id="Line_886" data-name="Line 886" d="M.866,8.6l-1.732-1L3.81-.5,5.542.5Z" transform="translate(48.325 4.734)" fill="#00009f"/>
      <path id="Line_887" data-name="Line 887" d="M.966,9.294-.966,8.776,1.455-.259,3.387.259Z" transform="translate(26.189 60.431)" fill="#00009f"/>
      <path id="Line_888" data-name="Line 888" d="M.966,9.294-.966,8.776,1.455-.259,3.387.259Z" transform="translate(42.059 1.204)" fill="#00009f"/>
      <path id="Ellipse_99" data-name="Ellipse 99" d="M25.982-1a26.988,26.988,0,0,1,10.5,51.842A26.988,26.988,0,0,1,15.479,1.121,26.814,26.814,0,0,1,25.982-1Zm0,51.963a24.988,24.988,0,0,0,9.724-48A24.988,24.988,0,0,0,16.258,49,24.824,24.824,0,0,0,25.982,50.963Z" transform="translate(9.353 9.353)" fill="#00009f"/>
      <path id="Path_24459" data-name="Path 24459" d="M27.685,37.915a11.314,11.314,0,1,1,8-19.314L34.27,20.014a9.315,9.315,0,1,0,0,13.171L35.684,34.6A11.24,11.24,0,0,1,27.685,37.915Z" transform="translate(9.315 8.734)" fill="#00009f"/>
      <path id="Line_890" data-name="Line 890" d="M15.845,1H0V-1H15.845Z" transform="translate(22.232 32.99)" fill="#00009f"/>
      <path id="Line_892" data-name="Line 892" d="M15.845,1H0V-1H15.845Z" transform="translate(22.232 38.382)" fill="#00009f"/>
    </g>
  </g>
</svg>
