<svg xmlns="http://www.w3.org/2000/svg" width="46.8" height="50" viewBox="0 0 46.8 50">
  <g id="icon-domain" transform="translate(1 -660.984)">
    <path id="Rectangle_5701" data-name="Rectangle 5701" d="M3-1H41.8a4,4,0,0,1,4,4V45a4,4,0,0,1-4,4H3a4,4,0,0,1-4-4V3A4,4,0,0,1,3-1ZM41.8,47a2,2,0,0,0,2-2V3a2,2,0,0,0-2-2H3A2,2,0,0,0,1,3V45a2,2,0,0,0,2,2Z" transform="translate(0 661.984)" fill="#d92a92"/>
    <path id="Path_24214" data-name="Path 24214" d="M281.1,217h-4.8a.792.792,0,0,0-.8.8V229a.792.792,0,0,1-.8.8h-24a.792.792,0,0,0-.8.8V245a.792.792,0,0,0,.8.8h4.8a.792.792,0,0,1,.8.8v4.8a.792.792,0,0,0,.8.8h24a.792.792,0,0,0,.8-.8V217.8A.8.8,0,0,0,281.1,217Zm-24,28.8a.792.792,0,0,1-.8-.8v-8a.792.792,0,0,1,.8-.8h17.6a.792.792,0,0,1,.8.8v8a.792.792,0,0,1-.8.8Z" transform="translate(-243.5 451.385)" fill="#d92a92"/>
  </g>
</svg>
