<svg xmlns="http://www.w3.org/2000/svg" width="160.437" height="24" viewBox="0 0 160.437 24">
  <g id="icon-vw-logo" transform="translate(0 -0.466)">
    <g id="Group_63" data-name="Group 63" transform="translate(0 0.466)">
      <path id="Path_125" data-name="Path 125" d="M10.1,19.659a2.6,2.6,0,0,0,2.184,1.705h.012a2.594,2.594,0,0,0,2.188-1.658l.7-1.5L8.378,3.787l-4.7,2.195Zm8.84.045a2.59,2.59,0,0,0,2.186,1.66h.009a2.59,2.59,0,0,0,2.184-1.7L29.659,5.984l-4.7-2.194L18.229,18.2l.71,1.5Zm2.186,4.42a5.18,5.18,0,0,1-4.414-2.746,5.184,5.184,0,0,1-4.416,2.746h-.029a5.31,5.31,0,0,1-4.655-3.27l0-.014L0,4.65,9.7.127l7,14.83L23.619.124l9.7,4.521L25.81,20.854a5.308,5.308,0,0,1-4.654,3.27h-.031Z" transform="translate(0 -0.124)" fill="#00009f" fill-rule="evenodd"/>
    </g>
    <path id="Path_126" data-name="Path 126" d="M49.765,22.05a2.867,2.867,0,0,0,2.53-1.991l3.561-9.03L53.022,10l-3.256,9.036L46.507,10l-2.833,1.025,3.56,9.03a2.871,2.871,0,0,0,2.531,1.991m19.715,0a2.867,2.867,0,0,0,2.53-1.991l3.56-9.03L72.737,10,69.48,19.039,66.222,10l-2.834,1.025,3.561,9.03A2.871,2.871,0,0,0,69.48,22.05m9.75-6.224a3.225,3.225,0,1,0,6.436,0,3.225,3.225,0,1,0-6.435,0ZM88.5,21.745H85.571V20.438a4.339,4.339,0,0,1-3.539,1.612c-3.26,0-5.727-2.673-5.727-6.224S78.772,9.6,82.032,9.6a4.331,4.331,0,0,1,3.539,1.622V9.919H88.5V21.746Zm56.064-6.935H150.2a2.755,2.755,0,0,0-2.761-2.63,2.82,2.82,0,0,0-2.878,2.63m8.651,1a9.3,9.3,0,0,1-.062,1.074h-8.559A3.092,3.092,0,0,0,147.8,19.42a4.339,4.339,0,0,0,3.019-1.1l1.836,1.941a7.171,7.171,0,0,1-5.041,1.794,5.85,5.85,0,0,1-6.14-6.187c0-3.724,2.443-6.262,5.982-6.262,3.407,0,5.735,2.526,5.751,6.213M164.3,12.75h-4.569v4.321c0,1.477.528,2.156,2.023,2.156a5.071,5.071,0,0,0,2.3-.865l1.125,2.443a6.6,6.6,0,0,1-3.919,1.244c-2.928,0-4.43-1.659-4.43-4.724V12.75h-2.284V10h2.284V6.4h2.9V10H164.3ZM110.854,10,107.6,19.039l-2.919-8.1a1.845,1.845,0,0,0-3.548,0l-2.921,8.1L94.949,10l-2.833,1.025,3.577,9.03a2.6,2.6,0,0,0,5.06,0L102.9,14.6l2.148,5.456a2.6,2.6,0,0,0,5.06,0l3.576-9.029L110.854,10Zm6.4,5.823a3.225,3.225,0,1,0,6.435,0,3.225,3.225,0,1,0-6.435,0Zm9.265,5.919h-2.923V20.438a4.344,4.344,0,0,1-3.539,1.612c-3.261,0-5.727-2.673-5.727-6.224S116.795,9.6,120.054,9.6a4.334,4.334,0,0,1,3.54,1.622V9.919h2.924V21.746Z" transform="translate(-4.742 -0.644)" fill="#00009f" fill-rule="evenodd"/>
    <path id="Path_127" data-name="Path 127" d="M131.354,21.478h2.888V3.885h-2.888Zm6.278,0h2.888V3.885h-2.888Zm-77.763,0h2.888V9.645H59.87ZM63.164,5.645a1.85,1.85,0,1,1-1.856-1.867,1.848,1.848,0,0,1,1.856,1.867" transform="translate(-6.456 -0.36)" fill="#00009f" fill-rule="evenodd"/>
  </g>
</svg>
