<svg xmlns="http://www.w3.org/2000/svg" width="34.742" height="22.315" viewBox="0 0 34.742 22.315">
  <g id="icon-market" transform="translate(-3.628 -7.062)">
    <path id="Union_72" data-name="Union 72" d="M13581,6310.314v-2h2.071v-11.174a3.345,3.345,0,0,1-3.059-3.1h-.01v-2.956l3.324-3.082h27.937l3.481,3.232v2.583a3.343,3.343,0,0,1-3.229,3.336v11.165h2.228v2Zm27.861-12.464v10.292h.656v-11.577a1.615,1.615,0,0,0-2.788.588,3.333,3.333,0,0,0-4.678,0,3.33,3.33,0,0,0-4.678,0,3.33,3.33,0,0,0-4.678,0,3.33,3.33,0,0,0-4.678,0,3.325,3.325,0,0,1-2.337-.959,3.372,3.372,0,0,1-.608.474v11.474h1.094v-6.417h5.408v6.417h2.437V6297.85Zm-13.849,10.292h12.851v-9.291h-12.851Zm-7.845,0h3.406v-5.419h-3.406Zm22.9-14.327a1.339,1.339,0,0,0,2.679,0V6292.1l-2.269-2.1h-26.364l-2.108,1.955v1.858a1.338,1.338,0,0,0,2.676,0,1,1,0,1,1,2,0h0c0,.027,0,.053,0,.079a1.34,1.34,0,0,0,2.677-.079,1,1,0,1,1,2,0,1.34,1.34,0,0,0,2.68,0,1,1,0,1,1,2,0,1.339,1.339,0,0,0,2.679,0,.982.982,0,0,1,.012-.152,1,1,0,0,1,.986-.849h0a1,1,0,0,1,1,1,1.34,1.34,0,0,0,2.677.08c0-.026,0-.053,0-.08a1,1,0,0,1,2,0,1.338,1.338,0,0,0,2.676,0,1,1,0,0,1,2,0Z" transform="translate(-13576.37 -6280.937)" fill="#00009f"/>
  </g>
</svg>
