<svg xmlns="http://www.w3.org/2000/svg" width="72" height="72" viewBox="0 0 72 72">
  <g id="icon-sms-alert-bg" transform="translate(17.499 3.904)">
    <path id="bg" d="M.783.783H71.217V71.217H.783ZM0,72H72V0H0Z" transform="translate(-17.499 -3.904)" fill="#fff" opacity="0"/>
    <g id="icon-sms-alert" transform="translate(-3.499 11.596)">
      <path id="Path_17245_-_Outline" data-name="Path 17245 - Outline" d="M16.787,49.265a3.708,3.708,0,1,1,3.708-3.708A3.713,3.713,0,0,1,16.787,49.265Zm0-6.416a2.708,2.708,0,1,0,2.708,2.708A2.712,2.712,0,0,0,16.787,42.849Z" transform="translate(-2.469 -7.7)" fill="#fff"/>
      <path id="Union_23" data-name="Union 23" d="M16073,16474.865a3,3,0,0,1-3-3V16432.5a3.005,3.005,0,0,1,3-3h23a3.008,3.008,0,0,1,3,3v7.1h11.846a2.643,2.643,0,0,1,2.638,2.639v13.908a2.641,2.641,0,0,1-2.638,2.639H16099v13.074a3.006,3.006,0,0,1-3,3Zm-1-42.363v39.363a1,1,0,0,0,1,1h23a1,1,0,0,0,1-1v-12.016l-6.2,5.367-.037-6.426h-2.245a2.64,2.64,0,0,1-2.638-2.639v-.227l-2.94,2.939h0l-.7-.707,3.647-3.646v-3l-9.576,9.58-.707-.707,10.283-10.287v-2.543l-7.124,7.125-.707-.707,7.831-7.832v-3.9a2.643,2.643,0,0,1,2.638-2.639H16097v-7.1a1,1,0,0,0-1-1h-23A1,1,0,0,0,16072,16432.5Zm15.877,9.742v13.908a.637.637,0,0,0,.637.637h4.233l.025,4.072,4.7-4.072h13.371a.637.637,0,0,0,.637-.637v-13.908a.637.637,0,0,0-.637-.637h-22.331A.637.637,0,0,0,16087.88,16442.244Zm-7.087,25.295a3.708,3.708,0,1,1,3.709,3.709A3.71,3.71,0,0,1,16080.793,16467.539Zm1,0a2.708,2.708,0,1,0,2.708-2.7A2.712,2.712,0,0,0,16081.794,16467.539Zm24.782-12.9V16453h2v1.637Zm-15.228-.422v-1h11.809v1Zm15.228-2.852V16444h2v7.365Zm-15.228-1.521v-1h11.809v1Zm0-4.371v-1h11.809v1Zm-2.353-11.105H16080v-1h9v1Z" transform="translate(-16070.183 -16429.68)" fill="#fff"/>
    </g>
  </g>
</svg>
