<svg xmlns="http://www.w3.org/2000/svg" width="71.584" height="71.589" viewBox="0 0 71.584 71.589">
  <g id="icon-coupon-price" transform="translate(-0.576 -0.499)">
    <path id="Union_69" data-name="Union 69" d="M18017.938,4275.772a35.871,35.871,0,1,1,13.93,2.816A35.5,35.5,0,0,1,18017.938,4275.772Zm13.775.816v-5.537h-.109a28.407,28.407,0,0,1-6.41-.726l-1.439,5.284A33.791,33.791,0,0,0,18031.713,4276.588Zm1-.01a33.668,33.668,0,0,0,7.912-1.133l-1.475-5.4a28.234,28.234,0,0,1-6.437.99Zm-13.992-2.647a33.459,33.459,0,0,0,4.07,1.424l1.438-5.271a28.1,28.1,0,0,1-3.658-1.26q-1.251-.531-2.439-1.173l-2.732,4.656A33.6,33.6,0,0,0,18018.717,4273.931Zm22.867,1.24a33.974,33.974,0,0,0,7.271-3.156l-2.861-4.876a28.419,28.419,0,0,1-3.35,1.686q-1.251.529-2.537.933Zm-27.059-3.365,2.73-4.645a28.3,28.3,0,0,1-5.223-3.943l-3.795,3.732A33.707,33.707,0,0,0,18014.525,4271.806Zm35.188-.306a33.93,33.93,0,0,0,6.049-4.81l.076-.077-3.93-3.863.7-.716,3.924,3.861a33.645,33.645,0,0,0,4.615-6.211l-4.631-2.628.494-.871,4.623,2.625q.75-1.393,1.371-2.86a33.741,33.741,0,0,0,1.461-4.2l-5.555-1.338a28.473,28.473,0,0,1-12.064,16.21Zm-28.756-54.026a27.414,27.414,0,1,0,10.646-2.154A27.3,27.3,0,0,0,18020.957,4217.473Zm-13.422,48.769,3.787-3.725a28.5,28.5,0,0,1-3.986-5.139l-4.576,2.6A33.793,33.793,0,0,0,18007.535,4266.242Zm-6.807-10.294a33.774,33.774,0,0,0,1.535,3.158l4.568-2.592a28.08,28.08,0,0,1-2.49-5.968l-5.037,1.324A33.519,33.519,0,0,0,18000.729,4255.948Zm-1.678-5.045,5.029-1.326a28.392,28.392,0,0,1-.834-6.389h-5.168A33.826,33.826,0,0,0,17999.051,4250.9Zm65.664-.132a33.7,33.7,0,0,0,.945-7.715h-5.672v-1h5.664a33.7,33.7,0,0,0-.988-7.45l-5.506,1.3a28.61,28.61,0,0,1,.01,13.532Zm-61.469-8.585a28.414,28.414,0,0,1,.834-6.389l-4.98-1.312a33.742,33.742,0,0,0-1.018,7.7Zm54.5-10.542a28.524,28.524,0,0,1,1.154,3.28l5.506-1.293a33.593,33.593,0,0,0-1.4-3.991q-.521-1.234-1.135-2.416l-4.885,2.773Q18057.389,4230.806,18057.744,4231.644Zm-53.4,3.185a28.183,28.183,0,0,1,1.127-3.185,28.964,28.964,0,0,1,1.363-2.784l-4.477-2.541a34.186,34.186,0,0,0-1.625,3.32,33.68,33.68,0,0,0-1.369,3.879Zm47.324-12.2a28.416,28.416,0,0,1,4.855,6.48l4.875-2.767a33.594,33.594,0,0,0-4.967-6.76l-3.82,3.759-.7-.716,3.824-3.758a33.963,33.963,0,0,0-6.111-4.836l-2.775,4.725A28.22,28.22,0,0,1,18051.664,4222.629Zm-44.33,5.366a28.42,28.42,0,0,1,3.988-5.139l-3.682-3.621a33.861,33.861,0,0,0-4.787,6.219Zm4.7-5.842a28.246,28.246,0,0,1,5.223-3.942l-2.637-4.486a33.734,33.734,0,0,0-6.271,4.8Zm30.611-5.6a28.711,28.711,0,0,1,3.35,1.684l2.768-4.715a33.983,33.983,0,0,0-7.232-3.118l-1.424,5.216Q18041.392,4216.019,18042.645,4216.548Zm-24.518,1.172q1.189-.641,2.439-1.172a28.1,28.1,0,0,1,3.66-1.26l-1.385-5.073a34.078,34.078,0,0,0-7.354,3.01Zm21.018-2.388,1.422-5.205a33.672,33.672,0,0,0-7.857-1.119v5.334A28.217,28.217,0,0,1,18039.145,4215.333Zm-13.951-.286a28.448,28.448,0,0,1,6.41-.725h.109V4209a33.755,33.755,0,0,0-7.9.964Z" transform="translate(-17995.5 -4206.5)" fill="#d92a92"/>
  </g>
</svg>
