<svg xmlns="http://www.w3.org/2000/svg" width="92" height="92" viewBox="0 0 92 92">
  <g id="icon-safe-mail-bg" transform="translate(0 0)">
    <g id="bg" transform="translate(0 0)" fill="none" stroke="#fff" stroke-width="2" opacity="0">
      <circle cx="46" cy="46" r="46" stroke="none"/>
      <circle cx="46" cy="46" r="45" fill="none"/>
    </g>
    <g id="icon-safe-mail" transform="translate(0 15)">
      <path id="Path_21654" data-name="Path 21654" d="M51.286,50H4.144A3.142,3.142,0,0,1,1,46.858V20.142A3.142,3.142,0,0,1,4.144,17H51.286a3.142,3.142,0,0,1,3.142,3.142V46.858A3.142,3.142,0,0,1,51.286,50" transform="translate(0.222 3.778)" fill="#fff"/>
      <path id="Path_21654_-_Outline" data-name="Path 21654 - Outline" d="M51.286,50.5H4.144A3.647,3.647,0,0,1,.5,46.858V20.142A3.647,3.647,0,0,1,4.144,16.5H51.286a3.646,3.646,0,0,1,3.642,3.642V46.858A3.646,3.646,0,0,1,51.286,50.5ZM4.144,17.5A2.646,2.646,0,0,0,1.5,20.142V46.858A2.646,2.646,0,0,0,4.144,49.5H51.286a2.645,2.645,0,0,0,2.642-2.642V20.142A2.645,2.645,0,0,0,51.286,17.5Z" transform="translate(0.222 3.778)" fill="#00b2a9"/>
      <path id="Rectangle_5661" data-name="Rectangle 5661" d="M2.571,0H50.856a2.572,2.572,0,0,1,2.572,2.572V30.428A2.572,2.572,0,0,1,50.856,33H2.571A2.571,2.571,0,0,1,0,30.429V2.571A2.571,2.571,0,0,1,2.571,0Z" transform="translate(1.222 20.778)" fill="#fff"/>
      <path id="Rectangle_5661_-_Outline" data-name="Rectangle 5661 - Outline" d="M2.571-1H50.856a3.576,3.576,0,0,1,3.572,3.572V30.428A3.576,3.576,0,0,1,50.856,34H2.571A3.575,3.575,0,0,1-1,30.429V2.571A3.575,3.575,0,0,1,2.571-1ZM50.856,32a1.574,1.574,0,0,0,1.572-1.572V2.572A1.574,1.574,0,0,0,50.856,1H2.571A1.573,1.573,0,0,0,1,2.571V30.429A1.573,1.573,0,0,0,2.571,32Z" transform="translate(1.222 20.778)" fill="#00b2a9"/>
      <path id="Path_21655" data-name="Path 21655" d="M42.484,24.128l-14.9,9.642a3.143,3.143,0,0,1-3.415,0l-14.9-9.642" transform="translate(2.06 5.362)" fill="#fff"/>
      <path id="Path_21655_-_Outline" data-name="Path 21655 - Outline" d="M25.877,34.773A3.64,3.64,0,0,1,23.9,34.19L9,24.548l.543-.84,14.9,9.642a2.647,2.647,0,0,0,2.872,0l14.9-9.642.543.84-14.9,9.642A3.64,3.64,0,0,1,25.877,34.773Z" transform="translate(2.06 5.362)" fill="#00b2a9"/>
      <path id="Line_534" data-name="Line 534" d="M13.789,14.5-.354.354.354-.354,14.5,13.789Z" transform="translate(38.937 38.064)" fill="#00b2a9"/>
      <path id="Line_535" data-name="Line 535" d="M.354,14.5l-.707-.707L13.789-.354,14.5.354Z" transform="translate(2.794 38.064)" fill="#00b2a9"/>
      <path id="Path_21656" data-name="Path 21656" d="M17.133,11.1V7.3a6.3,6.3,0,0,1,12.606,0v3.8" transform="translate(3.807 0.222)" fill="#fff"/>
      <path id="Path_21656_-_Outline" data-name="Path 21656 - Outline" d="M30.739,11.1h-2V7.3a5.3,5.3,0,1,0-10.606,0v3.8h-2V7.3a7.3,7.3,0,1,1,14.606,0Z" transform="translate(3.807 0.222)" fill="#00b2a9"/>
      <path id="Path_21657" data-name="Path 21657" d="M33.041,27.229H15.469A2.019,2.019,0,0,1,13.45,25.21V9.47H35.06V25.21a2.019,2.019,0,0,1-2.019,2.019" transform="translate(2.989 2.104)" fill="#fff"/>
      <path id="Path_21657_-_Outline" data-name="Path 21657 - Outline" d="M33.041,27.729H15.469A2.522,2.522,0,0,1,12.95,25.21V8.97H35.56V25.21A2.522,2.522,0,0,1,33.041,27.729ZM13.95,9.97V25.21a1.521,1.521,0,0,0,1.519,1.519H33.041A1.521,1.521,0,0,0,34.56,25.21V9.97Z" transform="translate(2.989 2.104)" fill="#00b2a9"/>
      <path id="Path_21658" data-name="Path 21658" d="M33.041,28.229H15.469A3.023,3.023,0,0,1,12.45,25.21V8.47H36.06V25.21A3.023,3.023,0,0,1,33.041,28.229ZM14.45,10.47V25.21a1.02,1.02,0,0,0,1.019,1.019H33.041A1.02,1.02,0,0,0,34.06,25.21V10.47Z" transform="translate(2.989 2.104)" fill="#00b2a9"/>
      <path id="Path_21659" data-name="Path 21659" d="M22.863,11.213a4.147,4.147,0,0,1,2.8,7.21v1.894a2.8,2.8,0,0,1-5.6,0V18.422a4.147,4.147,0,0,1,2.8-7.209Zm0,9.9a.8.8,0,0,0,.8-.8V17.424l.427-.3a2.152,2.152,0,1,0-2.456,0l.427.3v2.892A.8.8,0,0,0,22.863,21.117Z" transform="translate(4.38 2.714)" fill="#00b2a9"/>
    </g>
  </g>
</svg>
