<svg xmlns="http://www.w3.org/2000/svg" width="46.8" height="50" viewBox="0 0 46.8 50">
  <g id="icon-website" transform="translate(1 -660.984)">
    <path id="Rectangle_5703" data-name="Rectangle 5703" d="M3-1H41.8a4,4,0,0,1,4,4V45a4,4,0,0,1-4,4H3a4,4,0,0,1-4-4V3A4,4,0,0,1,3-1ZM41.8,47a2,2,0,0,0,2-2V3a2,2,0,0,0-2-2H3A2,2,0,0,0,1,3V45a2,2,0,0,0,2,2Z" transform="translate(0 661.984)" fill="#f44044"/>
    <path id="Path_24216" data-name="Path 24216" d="M1081.1,277h-4.8a.792.792,0,0,0-.8.8v17.6a.792.792,0,0,1-.8.8h-4.8a.792.792,0,0,1-.8-.8v-4.8a.792.792,0,0,0-.8-.8h-4.8a.792.792,0,0,0-.8.8v4.8a.792.792,0,0,1-.8.8h-4.8a.792.792,0,0,1-.8-.8V277.8a.792.792,0,0,0-.8-.8h-4.8a.792.792,0,0,0-.8.8v17.6a.792.792,0,0,0,.8.8h4.8a.792.792,0,0,1,.8.8v-.8h0v5.6a.792.792,0,0,0,.8.8h4.8a.792.792,0,0,0,.8-.8V297a.792.792,0,0,1,.8-.8h4.8a.792.792,0,0,1,.8.8v4.8a.792.792,0,0,0,.8.8h4.8a.792.792,0,0,0,.8-.8V297a.792.792,0,0,1,.8-.8h4.8a.792.792,0,0,0,.8-.8V277.8A.8.8,0,0,0,1081.1,277Z" transform="translate(-1043.5 400.985)" fill="#f44044"/>
  </g>
</svg>
