<svg xmlns="http://www.w3.org/2000/svg" xmlns:xlink="http://www.w3.org/1999/xlink" width="110.438" height="191.025" viewBox="0 0 110.438 191.025">
  <defs>
    <clipPath id="clip-path">
      <path id="Path_21422" data-name="Path 21422" d="M22.944,133.022a2.478,2.478,0,0,0,1.463,2.041,7.736,7.736,0,0,0,7.021.013,2.486,2.486,0,0,0,1.45-2.028L32.9,2.879a2.486,2.486,0,0,1-1.45,2.028,7.736,7.736,0,0,1-7.021-.013,2.47,2.47,0,0,1-1.476-2.041Z" transform="translate(-22.944 -2.853)" fill="none"/>
    </clipPath>
    <linearGradient id="linear-gradient" y1="0.585" x2="1" y2="0.584" gradientUnits="objectBoundingBox">
      <stop offset="0" stop-color="#007"/>
      <stop offset="0.994" stop-color="#3b93d2"/>
      <stop offset="1" stop-color="#3b93d2"/>
    </linearGradient>
  </defs>
  <g id="icon-free-flag" transform="translate(-899.8 -2134.227)">
    <path id="Path_21333" data-name="Path 21333" d="M78.406,28.386l-28.557,16.6L21.1,28.386l28.557-16.6Z" transform="translate(878.701 2274.533)" fill="#d92a92"/>
    <path id="Path_21334" data-name="Path 21334" d="M21.1,13.083v5.8L49.733,35.416l.116-5.737Z" transform="translate(878.703 2289.836)" fill="#007"/>
    <path id="Path_21442" data-name="Path 21442" d="M49.848,13.083v5.8L21.215,35.416,21.1,29.679Z" transform="translate(906.578 2289.836)" fill="#3b93d2"/>
    <g id="Group_15277" data-name="Group 15277" transform="translate(923.479 2171.613)">
      <g id="Group_15276" data-name="Group 15276" clip-path="url(#clip-path)">
        <rect id="Rectangle_5645" data-name="Rectangle 5645" width="9.96" height="133.339" transform="translate(0 0.003)" fill="url(#linear-gradient)"/>
      </g>
    </g>
    <g id="Group_15341" data-name="Group 15341" transform="translate(629 2135)">
      <path id="Path_21423" data-name="Path 21423" d="M24.417,7.545c-1.951-1.129-1.964-2.952-.026-4.069a7.723,7.723,0,0,1,7.033,0c1.938,1.117,1.951,2.939.013,4.069a7.776,7.776,0,0,1-7.021,0" transform="translate(271.55 31.111)" fill="#89bee4"/>
      <path id="Path_21424" data-name="Path 21424" d="M23.76,4.693A.839.839,0,0,1,23.747,3.1a2.994,2.994,0,0,1,2.759,0,.841.841,0,0,1,0,1.591,3.045,3.045,0,0,1-2.747,0" transform="translate(274.338 32.717)" fill="#007"/>
      <path id="Union_10" data-name="Union 10" d="M19457,7443.158v-36.643s.922,3.389,4.723,1.928v.006c32.426-8.577,48.648-38.18,81.063-46.84-4.5,8.932-6.762,13.708-11.27,23.655a167.422,167.422,0,0,1,11.373,14.312c-32.42,8.573-48.645,38.183-81.062,46.83v0a6.172,6.172,0,0,1-1.467.177C19458.939,7446.586,19457,7446.056,19457,7443.158Z" transform="translate(-19162.496 -7361.611)" fill="#d92a92" stroke="rgba(0,0,0,0)" stroke-width="1"/>
      <path id="Path_21426" data-name="Path 21426" d="M28.349,10.22c.09.9.167,1.8.282,2.99.937-.578,1.412-.873,2.349-1.425.1-1.335.193-2.336.269-3.337s.167-2,.27-3.337c.013-.732.039-1.283.051-1.835s.026-1.091.051-1.823c-.744.436-1.3.77-1.848,1.1s-1.1.68-1.835,1.155l.128,3.517c.116,1.194.193,2.092.282,2.99" transform="translate(330.636 17.205)" fill="#fff"/>
      <path id="Path_21427" data-name="Path 21427" d="M29.619,19.2c0-1.155,0-1.733-.013-2.888,1.964-1.425,2.952-2.156,4.916-3.594-.013-1.412-.013-2.1-.013-3.517-1.964,1.437-2.952,2.156-4.9,3.594-.013-.5-.013-.873-.013-1.245V10.292c2.3-1.669,3.44-2.528,5.737-4.2V2.566c-3.773,2.759-5.66,4.171-9.421,6.879,0,3.183.013,5.583.013,7.97.013,1.194.013,2.387.013,3.684s.013,2.7.013,4.287c3.863-2.772,5.788-4.21,9.652-7.033-.013-1.412-.013-2.118-.013-3.53-2.387,1.746-3.581,2.631-5.968,4.377" transform="translate(306.636 30.365)" fill="#fff"/>
      <path id="Path_21428" data-name="Path 21428" d="M30.618,18.26l-.013-2.888c1.964-1.386,2.952-2.079,4.916-3.4-.013-1.412-.013-2.118-.013-3.53-1.964,1.335-2.939,2.015-4.9,3.414-.013-1-.013-1.5-.013-2.5,2.3-1.63,3.453-2.426,5.737-3.966V1.857c-1.887,1.271-3.3,2.233-4.71,3.234s-2.836,2.015-4.71,3.388c.013,6.379.026,9.562.039,15.941,3.863-2.8,5.788-4.184,9.652-6.764-.013-1.4-.013-2.1-.013-3.517-2.387,1.591-3.581,2.426-5.968,4.12" transform="translate(318.459 21.974)" fill="#fff"/>
      <path id="Path_21429" data-name="Path 21429" d="M33.417,3.921A72.706,72.706,0,0,1,23.932,8.76c.026,6.379.038,9.575.051,15.953,1.45-.629,2.169-.963,3.619-1.681,0-2.336,0-3.491-.013-5.827,2-.988,3.016-1.527,5.018-2.682,0-1.4,0-2.118-.013-3.517-2,1.142-3,1.681-5.018,2.67V10.608c2.336-1.168,3.5-1.8,5.853-3.157-.013-1.412-.013-2.118-.013-3.53" transform="translate(283.227 46.401)" fill="#fff"/>
      <path id="Path_21430" data-name="Path 21430" d="M30.238,2.776A5.066,5.066,0,0,0,27.9,6.934a1.579,1.579,0,0,0,.655,1.5,1.745,1.745,0,0,0,1.694-.282,5.171,5.171,0,0,0,2.336-4.094c0-1.591-1.014-2.1-2.349-1.283" transform="translate(330.21 28.269)" fill="#fff"/>
      <path id="Path_21431" data-name="Path 21431" d="M35.584,6.313c0-3.9-2.516-3.337-5.532-1.322C27.986,6.364,26.946,7.032,24.867,8.3c.026,6.379.026,9.575.051,15.953,1.463-.9,2.208-1.373,3.671-2.323,0-2.156,0-3.234-.013-5.391.539-.347.809-.526,1.335-.873.975,1.514,1.45,2.259,2.413,3.761,1.63-1.117,2.451-1.681,4.081-2.836-1.219-1.643-1.822-2.451-3.029-4.107a10.121,10.121,0,0,0,2.208-6.173m-5.788,6.1c-.488.321-.732.488-1.232.809V9.3l1.219-.8c1.45-.963,2.233-1.052,2.233.282a4.317,4.317,0,0,1-2.22,3.619" transform="translate(294.292 40.518)" fill="#fff"/>
    </g>
  </g>
</svg>
