<svg xmlns="http://www.w3.org/2000/svg" width="46.8" height="50" viewBox="0 0 46.8 50">
  <g id="icon-telephony" transform="translate(1 -660.984)">
    <path id="Rectangle_5704" data-name="Rectangle 5704" d="M3-1H41.8a4,4,0,0,1,4,4V45a4,4,0,0,1-4,4H3a4,4,0,0,1-4-4V3A4,4,0,0,1,3-1ZM41.8,47a2,2,0,0,0,2-2V3a2,2,0,0,0-2-2H3A2,2,0,0,0,1,3V45a2,2,0,0,0,2,2Z" transform="translate(0 661.984)" fill="#f28c14"/>
    <path id="Path_24215" data-name="Path 24215" d="M1463.5,236.116h14.56a.642.642,0,0,0,.64-.64V230.34a.642.642,0,0,0-.64-.64H1463.5a.792.792,0,0,1-.8-.8V217.7a.792.792,0,0,0-.8-.8h-4.8a.792.792,0,0,0-.8.8v11.2a.792.792,0,0,1-.8.8h-4.96a.642.642,0,0,0-.64.64v5.136a.642.642,0,0,0,.64.64h4.96a.792.792,0,0,1,.8.8v8a.792.792,0,0,0,.8.8h4.8a.792.792,0,0,1,.8.8v4.8a.792.792,0,0,0,.8.8h14.4a.792.792,0,0,0,.8-.8v-4.8a.792.792,0,0,0-.8-.8h-14.4a.792.792,0,0,1-.8-.8v-8A.792.792,0,0,1,1463.5,236.116Z" transform="translate(-1443.5 451.469)" fill="#f48c14"/>
  </g>
</svg>
