<svg xmlns="http://www.w3.org/2000/svg" width="49.781" height="49.781" viewBox="0 0 49.781 49.781">
  <path id="icon-national" d="M17142.205,7204.614l.389-.922a23.725,23.725,0,0,0,9.3,1.875v1A24.714,24.714,0,0,1,17142.205,7204.614Zm18.984-.922a23.863,23.863,0,0,0,7.6-5.121l.707.707a24.908,24.908,0,0,1-7.91,5.336Zm-9.057-1.431a19.451,19.451,0,0,0,7.621-1.539l.389.922a20.439,20.439,0,0,1-8.01,1.617Zm-15.8-5.031.707-.707a19.547,19.547,0,0,0,6.229,4.2l-.393.922A20.52,20.52,0,0,1,17136.334,7197.229Zm15.555,2.4h0a17.952,17.952,0,1,1,0-35.9h.006a17.952,17.952,0,1,1,0,35.9Zm-3.045-6.281a9.209,9.209,0,0,0,2.047,3.789v-4.573h-2.293C17148.678,7192.833,17148.758,7193.1,17148.844,7193.35Zm4.047,3.784a9.21,9.21,0,0,0,2.045-3.784c.084-.254.166-.516.244-.784h-2.289Zm3.945-3.154a17.155,17.155,0,0,1-1,2.426,11.405,11.405,0,0,0,3.213-3.3q.179-.267.346-.543h-2.133Q17157.061,7193.3,17156.836,7193.979Zm-12.105-.871a11.445,11.445,0,0,0,3.219,3.3,16.928,16.928,0,0,1-1-2.426c-.15-.452-.293-.924-.424-1.414h-2.139Q17144.555,7192.842,17144.73,7193.108Zm-4.121-.151a16.066,16.066,0,0,0,3.5,2.653,15.773,15.773,0,0,1-1.041-1.39,18.289,18.289,0,0,1-.977-1.655h-1.859C17140.355,7192.7,17140.48,7192.829,17140.609,7192.958Zm20.1,1.263a15.624,15.624,0,0,1-1.035,1.388,16.024,16.024,0,0,0,3.492-2.651c.129-.129.256-.26.379-.392h-1.857A17.859,17.859,0,0,1,17160.711,7194.221Zm4.43-3.656a15.951,15.951,0,0,0,1.258-2.237h-3.07a22.087,22.087,0,0,1-.734,2.237Zm-4.709,0a19.618,19.618,0,0,0,.818-2.237h-3.148c-.107.77-.232,1.518-.377,2.237Zm-4.75,0c.152-.715.287-1.463.4-2.237h-3.189v2.237Zm-4.791,0v-2.237h-3.191c.113.774.246,1.522.4,2.237Zm-4.834,0c-.143-.72-.27-1.467-.375-2.237h-3.152a19.618,19.618,0,0,0,.818,2.237Zm-4.871,0a22.087,22.087,0,0,1-.734-2.237h-3.068a16.137,16.137,0,0,0,1.256,2.237Zm25.971-4.237a15.875,15.875,0,0,0,.654-3.651h-3.639a26.222,26.222,0,0,1-.393,3.651Zm-5.412,0a23.858,23.858,0,0,0,.426-3.651h-3.637c-.023,1.246-.092,2.469-.2,3.651Zm-5.422,0c.115-1.178.186-2.4.211-3.651h-3.643v3.651Zm-5.432,0v-3.651h-3.641c.023,1.25.094,2.473.209,3.651Zm-5.439,0c-.111-1.183-.178-2.405-.2-3.651h-3.643a23.857,23.857,0,0,0,.428,3.651Zm-5.451,0a25.643,25.643,0,0,1-.393-3.651h-3.635a15.977,15.977,0,0,0,.652,3.651Zm27.811-5.652a15.976,15.976,0,0,0-.654-3.651h-3.379a25.922,25.922,0,0,1,.395,3.651Zm-5.641,0a23.844,23.844,0,0,0-.426-3.651h-3.412c.109,1.183.178,2.405.2,3.651Zm-5.637,0c-.025-1.25-.1-2.473-.211-3.651h-3.432v3.651Zm-5.643,0v-3.651h-3.432c-.115,1.178-.186,2.4-.209,3.651Zm-5.641,0c.023-1.246.09-2.468.2-3.651h-3.416a23.843,23.843,0,0,0-.428,3.651Zm-5.643,0a25.922,25.922,0,0,1,.395-3.651h-3.375a15.87,15.87,0,0,0-.654,3.651Zm26.791-5.647a15.889,15.889,0,0,0-2.328-3.651h-2.088a21.378,21.378,0,0,1,1.346,3.651Zm-5.146,0a18.617,18.617,0,0,0-1.516-3.651h-2.324a36.015,36.015,0,0,1,.689,3.651Zm-5.17,0a32.474,32.474,0,0,0-.738-3.651h-2.453v3.651Zm-5.191,0v-3.651h-2.457a32.5,32.5,0,0,0-.734,3.651Zm-5.209,0a36.015,36.015,0,0,1,.689-3.651h-2.328a18.732,18.732,0,0,0-1.514,3.651Zm-5.23,0a21.348,21.348,0,0,1,1.346-3.651h-2.088a15.946,15.946,0,0,0-2.326,3.651Zm21.6-5.651a15.941,15.941,0,0,0-2.371-1.629,15.624,15.624,0,0,1,1.035,1.388l.158.242Zm-3.625,0a10.73,10.73,0,0,0-2.588-2.428,17.149,17.149,0,0,1,1,2.424,0,0,0,0,0,0,0Zm-3.709,0a8.276,8.276,0,0,0-1.822-3.154v3.154Zm-3.822,0v-3.16a8.306,8.306,0,0,0-1.826,3.16Zm-3.945,0a0,0,0,0,1,0,0,16.914,16.914,0,0,1,1-2.423,10.731,10.731,0,0,0-2.592,2.428Zm-4.035,0c.051-.081.1-.162.156-.242a15.773,15.773,0,0,1,1.041-1.39,15.925,15.925,0,0,0-2.375,1.631Zm-13.953,21.989.924-.392a23.692,23.692,0,0,0,5.117,7.6l-.707.707A24.87,24.87,0,0,1,17128.957,7191.367Zm37.781,5.156a19.532,19.532,0,0,0,4.2-6.225l.92.388a20.5,20.5,0,0,1-4.41,6.544Zm7.164-5.548a23.732,23.732,0,0,0,1.879-9.3h1a24.724,24.724,0,0,1-1.957,9.69Zm-43.6-9.057h1a19.453,19.453,0,0,0,1.539,7.622l-.918.392A20.45,20.45,0,0,1,17130.3,7181.917Zm-3.3-.241a24.754,24.754,0,0,1,1.957-9.687l.918.388a23.846,23.846,0,0,0-1.875,9.3Zm45.475-.242a19.418,19.418,0,0,0-1.539-7.622l.924-.392a20.565,20.565,0,0,1,1.615,8.014Zm-40.551-8.768a20.542,20.542,0,0,1,4.41-6.544l.707.707a19.507,19.507,0,0,0-4.2,6.225Zm36.861-7.88.707-.707a24.777,24.777,0,0,1,5.332,7.91l-.922.388A23.866,23.866,0,0,0,17168.785,7164.786Zm-8.277-2.155.393-.922a20.455,20.455,0,0,1,6.539,4.414l-.707.707A19.474,19.474,0,0,0,17160.508,7162.631Zm-26.217,1.449a24.789,24.789,0,0,1,7.914-5.337l.389.922a23.8,23.8,0,0,0-7.6,5.121Zm9.346-2.371a20.46,20.46,0,0,1,8.014-1.617v1a19.465,19.465,0,0,0-7.627,1.539Zm8.254-3.923v-1a24.774,24.774,0,0,1,9.691,1.957l-.393.922A23.739,23.739,0,0,0,17151.891,7157.786Z" transform="translate(-17127 -7156.786)" fill="#d92a92"/>
</svg>
