<svg xmlns="http://www.w3.org/2000/svg" width="72" height="72" viewBox="0 0 72 72">
  <g id="icon-site-builder-bg" transform="translate(17.499 3.904)">
    <path id="bg" d="M.783.783H71.217V71.217H.783ZM0,72H72V0H0Z" transform="translate(-17.499 -3.904)" fill="#fff" opacity="0"/>
    <g id="icon-site-builder" transform="translate(-15.352 15.832)">
      <path id="Union_29" data-name="Union 29" d="M16577.852,16466.523h.006Zm.006,0h-52v-1.994h3.877v-23.279a5.006,5.006,0,0,1,5-5h25.67a13,13,0,1,1,24.178,8.395l7.129,7.238a3.426,3.426,0,0,1-4.848,4.842s0,0,0-.008l-7.092-7.2a12.916,12.916,0,0,1-6.029,1.732v13.275h4.127Zm-8.055-2.273h1.928v-13.074a13.024,13.024,0,0,1-1.928-.371Zm-22,0h21.006v-13.758a12.765,12.765,0,0,1-3.443-1.879h-17.562v5h9v7h-9Zm-16.074,0h15.076v-3.635h-4v-7h4v-6h17.4c-.051-.049-.1-.1-.152-.15a13.019,13.019,0,0,1-2.662-3.838h-29.658Zm16.074-9.637v5h8v-5Zm-4,0v5h3v-5Zm32.5-11.447,11.965,12.148a1.427,1.427,0,0,0,2.016-2.02s0-.006-.008-.006l-12.035-12.217a.992.992,0,0,1-.221-1.062,5.792,5.792,0,0,0-5.418-7.746c-.2,0-.4.014-.6.033l1.637,1.637a1,1,0,0,1,.291.691l.059,3.314a1.022,1.022,0,0,1-.295.725.992.992,0,0,1-.725.293l-3.316-.055a1,1,0,0,1-.689-.291l-1.684-1.687a5.707,5.707,0,0,0,.055,1.746,5.829,5.829,0,0,0,5.676,4.734,5.4,5.4,0,0,0,2.182-.451,1.009,1.009,0,0,1,1.111.213Zm-10.844-12.676a11,11,0,0,0,12.836,17.547l-2.957-3a7.586,7.586,0,0,1-2.328.365,7.826,7.826,0,0,1-7.641-6.367,7.476,7.476,0,0,1,.5-4.422,1,1,0,0,1,1.625-.3l2.6,2.6,1.879.029-.029-1.879-2.582-2.578a1.014,1.014,0,0,1-.275-.9,1,1,0,0,1,.592-.729,7.373,7.373,0,0,1,2.928-.592,7.8,7.8,0,0,1,7.492,9.836l3,3.051a11,11,0,0,0-17.639-12.662Zm-33.73,10.76v1.367h29.254a13,13,0,0,1-.744-4.355v-.01h-25.516A3,3,0,0,0,16531.732,16441.25Zm8.574,19.361h-6.014v-1h6.018v1Zm0-3h-6.014v-.994h6.018v.994Zm0-3h-6.014v-1h6.018v1Zm0-3h-6.014v-1h6.018v1Zm0-3h-6.014v-1h6.018v1Zm-5.643-7.482v-1h2.016v1Z" transform="translate(-16525.852 -16425.264)" fill="#fff"/>
    </g>
  </g>
</svg>
