<svg xmlns="http://www.w3.org/2000/svg" width="69.939" height="67.676" viewBox="0 0 69.939 67.676">
  <g id="icon-bank" transform="translate(-429.5 -745.993)">
    <path id="Path_24453" data-name="Path 24453" d="M2993.706-12315.325h-15.141a1,1,0,0,1-1-1,1,1,0,0,1,1-1h14.141v-16.682h-65.939v16.682h13.926a1,1,0,0,1,1,1,1,1,0,0,1-1,1h-14.926a1,1,0,0,1-1-1v-18.682a1,1,0,0,1,1-1h67.939a1,1,0,0,1,1,1v18.682A1,1,0,0,1,2993.706-12315.325Z" transform="translate(-2495.267 13082)" fill="#00009f"/>
    <path id="Path_24454" data-name="Path 24454" d="M2986.552-12324.666h-53.176v-2h53.176Z" transform="translate(-2495.375 13082.666)" fill="#00009f"/>
    <path id="Path_24455" data-name="Path 24455" d="M2978.361-12268.331h-37.231a1,1,0,0,1-1-1v-55.339h2v54.339h35.231v-54.339h2v55.339A1,1,0,0,1,2978.361-12268.331Z" transform="translate(-2495.629 13082)" fill="#00009f"/>
    <path id="Path_24456" data-name="Path 24456" d="M2956.743-12275.714q-.772,0-1.385,0c-.7,0-1.247-.01-1.626-.02-.7-.018-1.019-.025-1.328-.338a1,1,0,0,1-.291-.679h0a3.534,3.534,0,0,0-1.964-3.2,6.028,6.028,0,0,0-2.006-.669,1,1,0,0,1-.9-1v-44a1,1,0,0,1,1-1,1,1,0,0,1,1,1v43.174a8.042,8.042,0,0,1,1.873.736,5.5,5.5,0,0,1,2.9,3.975c2.116.039,8.1,0,12.348-.043.464-1.369,1.685-4.144,4.1-4.734.011-4.889,0-29.393-.005-42.854a1,1,0,0,1,1-1h0a1,1,0,0,1,1,1s.006,10.917.009,21.843c0,6.344,0,11.4,0,15.033,0,2.053,0,3.765,0,4.967,0,.6,0,1.075,0,1.4a2.311,2.311,0,0,1-.046.788,1,1,0,0,1-.958.713h-.046c-2.293,0-3.32,4.03-3.33,4.071a1,1,0,0,1-.962.768c-.035,0-3.507.037-6.953.056C2958.855-12275.717,2957.707-12275.714,2956.743-12275.714Z" transform="translate(-2495 13082.944)" fill="#00009f"/>
    <path id="Subtraction_47_-_Outline" data-name="Subtraction 47 - Outline" d="M-2473,13110a9.936,9.936,0,0,0,7.072-2.929A9.935,9.935,0,0,0-2463,13100a10,10,0,0,0-5.641-9h-8.72a10,10,0,0,0-5.638,9,9.941,9.941,0,0,0,2.928,7.072A9.929,9.929,0,0,0-2473,13110m0,2a11.917,11.917,0,0,1-8.484-3.515A11.928,11.928,0,0,1-2485,13100a12,12,0,0,1,7.2-11h9.595a12,12,0,0,1,7.2,11,11.923,11.923,0,0,1-3.515,8.486A11.922,11.922,0,0,1-2473,13112Z" transform="translate(2937.963 -12333)" fill="#00009f"/>
  </g>
</svg>
