<svg xmlns="http://www.w3.org/2000/svg" width="54" height="48.73" viewBox="0 0 54 48.73">
  <g id="icon-domain-for-sale" transform="translate(0 -0.039)">
    <path id="Path_17203" data-name="Path 17203" d="M49.492,47.8H3.877V21.879a5.16,5.16,0,0,1,5.154-5.154H44.339a5.16,5.16,0,0,1,5.154,5.154Zm-43.615-2H47.492V21.879a3.157,3.157,0,0,0-3.154-3.154H9.031a3.157,3.157,0,0,0-3.154,3.154Z" transform="translate(0.188 0.682)" fill="#d92a92"/>
    <path id="Line_169" data-name="Line 169" d="M1.038.5H0v-1H1.038Z" transform="translate(43.305 21.915)" fill="#d92a92"/>
    <path id="Line_170" data-name="Line 170" d="M1.038.5H0v-1H1.038Z" transform="translate(40.244 21.915)" fill="#d92a92"/>
    <path id="Line_171" data-name="Line 171" d="M1.038.5H0v-1H1.038Z" transform="translate(37.183 21.915)" fill="#d92a92"/>
    <path id="Line_172" data-name="Line 172" d="M2.09.5H0v-1H2.09Z" transform="translate(9.152 21.915)" fill="#d92a92"/>
    <path id="Line_173" data-name="Line 173" d="M6.244.5H0v-1H6.244Z" transform="translate(8.766 29.685)" fill="#d92a92"/>
    <path id="Line_174" data-name="Line 174" d="M6.244.5H0v-1H6.244Z" transform="translate(8.766 32.8)" fill="#d92a92"/>
    <path id="Line_175" data-name="Line 175" d="M6.244.5H0v-1H6.244Z" transform="translate(8.766 35.916)" fill="#d92a92"/>
    <path id="Line_176" data-name="Line 176" d="M6.244.5H0v-1H6.244Z" transform="translate(8.766 39.031)" fill="#d92a92"/>
    <path id="Line_177" data-name="Line 177" d="M6.244.5H0v-1H6.244Z" transform="translate(8.766 42.147)" fill="#d92a92"/>
    <path id="Line_178" data-name="Line 178" d="M43.529.5H0v-1H43.529Z" transform="translate(5.407 24.498)" fill="#d92a92"/>
    <path id="Path_17204" data-name="Path 17204" d="M44.8,46.239h-1V29.086H21.954V46.239h-1V28.086H44.8Z" transform="translate(0.825 1.099)" fill="#d92a92"/>
    <path id="Rectangle_5455" data-name="Rectangle 5455" d="M-.5-.5H14V6.731H-.5ZM13,.5H.5V5.731H13Z" transform="translate(18.125 35.916)" fill="#d92a92"/>
    <path id="Line_179" data-name="Line 179" d="M1,17.654H-1V0H1Z" transform="translate(24.364 1.038)" fill="#d92a92"/>
    <path id="Path_17205" data-name="Path 17205" d="M39.889,11.346H22.539V0H39.453L33.343,6.109Zm-15.351-2h9.649L30.349,6.275,34.624,2H24.539Z" transform="translate(0.905 0.038)" fill="#d92a92"/>
    <path id="Line_180" data-name="Line 180" d="M54,1H0V-1H54Z" transform="translate(0 47.769)" fill="#d92a92"/>
  </g>
</svg>
