<svg xmlns="http://www.w3.org/2000/svg" width="92" height="92" viewBox="0 0 92 92">
  <g id="icon-backup-options-bg" transform="translate(0 -44)">
    <g id="bg" transform="translate(0 44)" fill="none" stroke="#fff" stroke-width="2" opacity="0">
      <circle cx="46" cy="46" r="46" stroke="none"/>
      <circle cx="46" cy="46" r="45" fill="none"/>
    </g>
    <g id="icon-backup-options">
      <path id="Line_421" data-name="Line 421" d="M1,15.1H-1V0H1Z" transform="translate(32 64.25)" fill="#00b2a9"/>
      <path id="Path_21022" data-name="Path 21022" d="M32,16.3l-6.985-4.656,1.109-1.664L32,13.9l5.874-3.916,1.109,1.664Z" transform="translate(0 64.25)" fill="#00b2a9"/>
      <path id="Path_21023" data-name="Path 21023" d="M19,37.156H11.333a11.333,11.333,0,0,1,0-22.667c.242,0,.489.01.745.029A11.325,11.325,0,0,1,23.3,4.7v2a9.324,9.324,0,0,0-9.314,8.972L13.941,16.8l-1.115-.18a9.328,9.328,0,1,0-1.493,18.535H19Z" transform="translate(0 64.25)" fill="#00b2a9"/>
      <path id="Path_21024" data-name="Path 21024" d="M52.667,37.157H44v-2h8.667a9.334,9.334,0,1,0-2.139-18.414,9.44,9.44,0,0,0-1.968.711l-.969.477-.4-1A9.343,9.343,0,0,0,43.815,12.7l1.138-1.645a11.339,11.339,0,0,1,3.668,4.193,11.38,11.38,0,0,1,1.441-.448,11.331,11.331,0,1,1,2.6,22.36Z" transform="translate(0 64.25)" fill="#00b2a9"/>
      <path id="Path_21025" data-name="Path 21025" d="M39.8,31.9H24.2a6.2,6.2,0,1,1,0-12.4H39.8a6.2,6.2,0,1,1,0,12.4ZM24.2,21.5a4.2,4.2,0,1,0,0,8.4H39.8a4.2,4.2,0,1,0,0-8.4Z" transform="translate(0 64.25)" fill="#00b2a9"/>
      <path id="Path_21026" data-name="Path 21026" d="M39.8,41.9H24.2A6.207,6.207,0,0,1,18,35.7h2a4.2,4.2,0,0,0,4.2,4.2H39.8A4.2,4.2,0,0,0,44,35.7h2A6.207,6.207,0,0,1,39.8,41.9Z" transform="translate(0 64.25)" fill="#00b2a9"/>
      <path id="Line_422" data-name="Line 422" d="M1,10H-1V0H1Z" transform="translate(45 89.95)" fill="#00b2a9"/>
      <path id="Line_423" data-name="Line 423" d="M1,10H-1V0H1Z" transform="translate(19 89.95)" fill="#00b2a9"/>
      <path id="Path_21027" data-name="Path 21027" d="M39.8,51.5H24.2A6.207,6.207,0,0,1,18,45.3h2a4.2,4.2,0,0,0,4.2,4.2H39.8A4.2,4.2,0,0,0,44,45.3h2A6.207,6.207,0,0,1,39.8,51.5Z" transform="translate(0 64.25)" fill="#00b2a9"/>
      <path id="Line_424" data-name="Line 424" d="M1,9.1H-1V0H1Z" transform="translate(45 100.451)" fill="#00b2a9"/>
      <path id="Line_425" data-name="Line 425" d="M1,9.1H-1V0H1Z" transform="translate(19 100.45)" fill="#00b2a9"/>
      <path id="Line_426" data-name="Line 426" d="M15,.5H0v-1H15Z" transform="translate(23.748 90.15)" fill="#00b2a9"/>
      <path id="Line_427" data-name="Line 427" d="M1,.5H0v-1H1Z" transform="translate(40.748 90.15)" fill="#00b2a9"/>
    </g>
  </g>
</svg>
