<svg xmlns="http://www.w3.org/2000/svg" width="50.548" height="50.547" viewBox="0 0 50.548 50.547">
  <g id="icon-dns4free" transform="translate(0.121 0.121)">
    <path id="Union_26" data-name="Union 26" d="M15977.436,16482.863a25.266,25.266,0,0,1-8.034-41.156,25.256,25.256,0,0,1,35.745,0,26.341,26.341,0,0,1,2.172,2.475h.021v.029a25.278,25.278,0,0,1-29.9,38.652Zm10.74-.037c1.428-.691,2.88-2.986,3.984-6.3.19-.566.368-1.162.55-1.824h-4.534Zm-5.788-6.3c1.1,3.314,2.557,5.609,3.98,6.3v-8.121h-4.53C15982.02,16475.363,15982.2,16475.959,15982.388,16476.525Zm11.489.57a19.747,19.747,0,0,1-2.4,5.053,15.164,15.164,0,0,0,5.975-5.043,4.484,4.484,0,0,1-1.361-2.4h-1.511C15994.373,16475.512,15994.138,16476.314,15993.877,16477.1Zm-17.339-.785a15.636,15.636,0,0,0,6.532,5.838,19.688,19.688,0,0,1-2.4-5.053c-.261-.781-.5-1.584-.7-2.395h-4.406C15975.859,16475.246,15976.178,16475.771,15976.538,16476.311Zm19.453,5.064c.049-.021.095-.039.145-.059s.111-.051.17-.074l.1-.041a23.373,23.373,0,0,0,5.22-3.055,4.517,4.517,0,0,1-2.621-.107A19.7,19.7,0,0,1,15995.991,16481.375Zm-25.312-5.2a23.411,23.411,0,0,0,7.459,5.027l.021.012.4.156a20,20,0,0,1-3.524-4.059,24.066,24.066,0,0,1-1.519-2.609h-4.187C15969.712,16475.16,15970.154,16475.645,15970.68,16476.174Zm27.127-2.379a2.685,2.685,0,1,0,2.686-2.686A2.689,2.689,0,0,0,15997.807,16473.795Zm6.938,1.455c.163-.182.321-.365.477-.549h-.327A4.454,4.454,0,0,1,16004.744,16475.25Zm1.862-2.361a23.16,23.16,0,0,0,2.288-4.174.481.481,0,0,0,.024-.055v-.008a.489.489,0,0,0,.021-.045h-5.635c-.124.477-.257.947-.4,1.4a4.507,4.507,0,0,1,1.983,2.879Zm-11.6,0h1.085a4.5,4.5,0,0,1,4.4-3.586,4.421,4.421,0,0,1,.724.059q.082-.27.157-.539c.025-.084.042-.148.059-.215h-5.7C15995.54,16470.1,15995.3,16471.541,15995.006,16472.889Zm-6.83,0h4.981c.3-1.34.554-2.783.757-4.281h-5.738Zm-6.785,0h4.978v-4.281h-5.734C15980.837,16470.105,15981.089,16471.545,15981.391,16472.889Zm-6.739,0h4.89c-.289-1.365-.533-2.8-.728-4.281h-2.978a4.517,4.517,0,0,1-1.9,2.549C15974.157,16471.748,15974.4,16472.328,15974.651,16472.889Zm-9.031-4.252.008.016v.008c.009.021.017.037.025.055a23.16,23.16,0,0,0,2.288,4.174h4.732q-.224-.536-.429-1.082a4.55,4.55,0,0,1-.733.061,4.5,4.5,0,0,1-4.321-3.26h-1.583C15965.611,16468.615,15965.616,16468.627,15965.62,16468.637Zm3.206-1.264a2.687,2.687,0,1,0,2.686-2.684A2.687,2.687,0,0,0,15968.826,16467.373Zm34.893-.574h5.892a23.573,23.573,0,0,0,1.113-6.312h-6.313A36.765,36.765,0,0,1,16003.719,16466.8Zm-7.773,0h5.925a34.634,34.634,0,0,0,.731-6.312h-6.3C15996.268,16462.666,15996.148,16464.793,15995.945,16466.8Zm-7.77,0h5.953c.207-2.006.331-4.133.36-6.312h-6.313Zm-7.757,0h5.949v-6.312h-6.31C15980.088,16462.666,15980.208,16464.789,15980.419,16466.8Zm-1.816,0c-.207-2.01-.323-4.133-.352-6.312h-6.306c.021.813.068,1.625.142,2.428a4.509,4.509,0,0,1,3.885,3.885Zm-13.661,0h2.113a4.508,4.508,0,0,1,3.227-3.75c-.079-.859-.129-1.719-.147-2.562h-6.31A23.387,23.387,0,0,0,15964.941,16466.8Zm39.469-8.121h6.313a23.424,23.424,0,0,0-1.113-6.318h-5.892A36.791,36.791,0,0,1,16004.41,16458.678Zm-8.113,0h6.3a34.819,34.819,0,0,0-.731-6.318h-2.532a4.508,4.508,0,0,1-3.135,3.41C15996.253,16456.725,15996.284,16457.7,15996.3,16458.678Zm-8.121,0h6.313c-.013-.922-.041-1.848-.088-2.758a4.509,4.509,0,0,1-3.871-3.561h-2.354Zm-8.117,0h6.31v-6.318h-5.949C15980.208,16454.371,15980.088,16456.5,15980.059,16458.678Zm-8.113,0h6.306c.024-2.143.145-4.27.352-6.318h-5.925A34.292,34.292,0,0,0,15971.945,16458.678Zm-8.121,0h6.31a36.759,36.759,0,0,1,.69-6.318h-5.887A23.55,23.55,0,0,0,15963.824,16458.678Zm28.427-7.219a2.685,2.685,0,1,0,2.685-2.686A2.687,2.687,0,0,0,15992.251,16451.459Zm9.5-5.471a31.257,31.257,0,0,1,1.556,4.564h5.635c-.009-.021-.017-.037-.025-.055a.235.235,0,0,0-.021-.053,23.208,23.208,0,0,0-2.486-4.457Zm-.318,4.564c-.013-.037-.021-.078-.033-.117s-.017-.061-.025-.094a28.466,28.466,0,0,0-1.605-4.354h-4.823c.072.324.141.652.2.979a4.5,4.5,0,0,1,4.188,3.586Zm-13.256,0h2.354a4.519,4.519,0,0,1,2.832-3.307c-.085-.428-.175-.85-.268-1.258h-4.919Zm-7.542,0h5.734v-4.564h-4.911C15981.135,16447.383,15980.857,16448.918,15980.634,16450.553Zm-7.459-.211c-.013.041-.021.078-.033.115s-.017.066-.025.1h5.7c.207-1.6.476-3.137.79-4.564h-.8a4.5,4.5,0,0,1-5.372,3.486C15973.343,16449.762,15973.256,16450.051,15973.175,16450.342Zm-7.521.1a.235.235,0,0,0-.021.053c0,.008-.009.018-.013.025s-.009.021-.013.029h5.631c.157-.611.334-1.225.529-1.83a4.509,4.509,0,0,1-1.766-2.734h-1.862A23.515,23.515,0,0,0,15965.653,16450.445Zm6.064-5.363a2.685,2.685,0,1,0,2.686-2.684A2.688,2.688,0,0,0,15971.718,16445.082Zm27.794-3.234a25.246,25.246,0,0,1,1.378,2.334h4.1c-.373-.422-.736-.816-1.117-1.2a23.422,23.422,0,0,0-7.46-5.027l-.194-.082-.219-.092A20.207,20.207,0,0,1,15999.512,16441.848Zm-5.635.215c.228.684.438,1.395.629,2.119h4.327c-.269-.469-.546-.92-.823-1.332a15.608,15.608,0,0,0-6.532-5.834A19.51,19.51,0,0,1,15993.877,16442.063Zm-5.7,2.119h4.456c-.141-.51-.3-1.031-.472-1.547-1.1-3.314-2.557-5.611-3.984-6.3Zm-5.788-1.547c-.157.467-.311.971-.476,1.547h4.456v-7.844C15984.94,16437.023,15983.492,16439.32,15982.388,16442.635Zm-2.346,1.547c.211-.8.418-1.494.629-2.119a19.709,19.709,0,0,1,2.4-5.051,14.93,14.93,0,0,0-5.71,4.693,4.493,4.493,0,0,1,1.444,2.477Zm-10.479,0h.438a4.582,4.582,0,0,1,.209-.711C15969.985,16443.709,15969.771,16443.943,15969.563,16444.182Zm6.209-3.379a19.409,19.409,0,0,1,2.785-3.018.49.49,0,0,1-.083.033c-.021.008-.045.02-.065.029-.083.033-.178.074-.27.111a23.569,23.569,0,0,0-4.846,2.77,4.508,4.508,0,0,1,2.479.074Z" transform="translate(-15962.121 -16434.428)" fill="#d92a92"/>
  </g>
</svg>
