<svg xmlns="http://www.w3.org/2000/svg" width="37.002" height="23.998" viewBox="0 0 37.002 23.998">
  <g id="icon-footer-mail" transform="translate(0.004 -0.235)">
    <path id="Union_20" data-name="Union 20" d="M19094,6211.057a3,3,0,0,1-3-3v-17a3,3,0,0,1,3-3h30a3,3,0,0,1,3,3v17a3,3,0,0,1-3,3Zm9.207-10.493-8.5,8.5h28.582l-8.5-8.5,1.412-1.416,8.793,8.794v-16.882a1,1,0,0,0-1-1h-30a1,1,0,0,0-1,1v16.882l8.795-8.794Zm5.2.677-9.174-6.73,1.186-1.613,8.588,6.3,8.824-6.312,1.16,1.627-9.408,6.73a1,1,0,0,1-1.176,0Z" transform="translate(-19090.502 -6187.324)" fill="#fff" stroke="rgba(0,0,0,0)" stroke-width="1"/>
  </g>
</svg>
