<svg xmlns="http://www.w3.org/2000/svg" xmlns:xlink="http://www.w3.org/1999/xlink" width="421.557" height="249.276" viewBox="0 0 421.557 249.276">
  <defs>
    <linearGradient id="linear-gradient" y1="0.5" x2="1" y2="0.5" gradientUnits="objectBoundingBox">
      <stop offset="0" stop-color="#00009f"/>
      <stop offset="1" stop-color="#3b93d2"/>
    </linearGradient>
    <clipPath id="clip-path">
      <path id="Path_24105" data-name="Path 24105" d="M22.486,31.64l.047-16.674a36.147,36.147,0,0,0,.284,4.623L22.77,36.264a36.14,36.14,0,0,1-.284-4.623Z" transform="translate(-22.486 -14.966)" fill="none"/>
    </clipPath>
    <clipPath id="clip-path-2">
      <path id="Path_24115" data-name="Path 24115" d="M29.145,30.8,29.1,47.474a43.359,43.359,0,0,1-6.316-13.536l.047-16.674A43.358,43.358,0,0,0,29.145,30.8Z" transform="translate(-22.782 -17.263)" fill="url(#linear-gradient)"/>
    </clipPath>
  </defs>
  <g id="icon-episimos" transform="translate(-120.5 -3356.019)">
    <g id="lines" transform="translate(121 3356.885)">
      <path id="Line_505" data-name="Line 505" d="M.5,44.086l-1-1.732L74.36-.866l1,1.732Z" transform="translate(309.23 21.61)" fill="#d92a92"/>
      <path id="Line_506" data-name="Line 506" d="M.5,44.086l-1-1.732L74.36-.866l1,1.732Z" transform="translate(327.07)" fill="#d92a92"/>
      <path id="Line_507" data-name="Line 507" d="M.5,44.086l-1-1.732L74.36-.866l1,1.732Z" transform="translate(13.908 162.423)" fill="#d92a92"/>
      <path id="Line_691" data-name="Line 691" d="M.5,44.086l-1-1.732L74.36-.866l1,1.732Z" transform="translate(271.908 162.423)" fill="#d92a92"/>
      <path id="Line_694" data-name="Line 694" d="M.5,44.086l-1-1.732L74.36-.866l1,1.732Z" transform="translate(139.035 45.423)" fill="#d92a92"/>
      <path id="Line_508" data-name="Line 508" d="M.5,44.086l-1-1.732L74.36-.866l1,1.732Z" transform="translate(87.697 129.916)" fill="#d92a92"/>
      <path id="Line_692" data-name="Line 692" d="M.5,44.086l-1-1.732L74.36-.866l1,1.732Z" transform="translate(345.697 129.916)" fill="#d92a92"/>
      <path id="Line_695" data-name="Line 695" d="M.5,44.086l-1-1.732L74.36-.866l1,1.732Z" transform="translate(212.824 12.916)" fill="#d92a92"/>
      <path id="Line_509" data-name="Line 509" d="M.5,44.086l-1-1.732L74.36-.866l1,1.732Z" transform="translate(0 181.025)" fill="#d92a92"/>
      <path id="Line_690" data-name="Line 690" d="M.5,44.086l-1-1.732L74.36-.866l1,1.732Z" transform="translate(258 181.025)" fill="#d92a92"/>
      <path id="Line_693" data-name="Line 693" d="M.5,44.086l-1-1.732L74.36-.866l1,1.732Z" transform="translate(125.127 64.025)" fill="#d92a92"/>
    </g>
    <g id="vector" transform="translate(191.658 3411)">
      <g id="Group_15403" data-name="Group 15403" transform="translate(0 0)" style="mix-blend-mode: normal;isolation: isolate">
        <path id="Path_24100" data-name="Path 24100" d="M57.051,17.1,57,33.773l-9.612-5.55.047-16.674Z" transform="translate(146.491 35.699)" fill="#005"/>
        <path id="Path_24101" data-name="Path 24101" d="M191.688,17.737c-2.308-1.332-4.711-2.575-7.181-3.748-.817-.388-1.678-.723-2.511-1.093-1.461-.649-2.9-1.324-4.407-1.919-.267-.105-.546-.194-.815-.3-.565-.218-1.144-.416-1.715-.627Q172.128,8.971,169.1,8.02c-.683-.214-1.362-.433-2.052-.638-.455-.135-.9-.29-1.354-.42-.824-.235-1.689-.4-2.522-.618-2.017-.534-4.042-1.045-6.1-1.5-.542-.118-1.06-.28-1.6-.393-.809-.167-1.645-.273-2.46-.428-1.73-.329-3.464-.635-5.217-.907-.691-.108-1.365-.26-2.06-.359-.766-.108-1.547-.161-2.316-.259-1.635-.208-3.271-.391-4.919-.55-.777-.075-1.542-.2-2.321-.259-.732-.061-1.472-.068-2.206-.118-1.663-.115-3.325-.2-4.994-.267-.831-.032-1.655-.112-2.487-.133-.667-.016-1.334.018-2,.009-1.8-.023-3.6-.008-5.4.025-.89.017-1.782-.018-2.672.013-.526.018-1.044.082-1.569.1-2.236.1-4.457.26-6.679.445-.883.074-1.777.09-2.658.177-.419.041-.833.1-1.252.149-.662.071-1.318.156-1.977.236q-3.415.408-6.781.958c-.564.092-1.13.172-1.691.27-.274.048-.554.083-.828.132-1.065.192-2.093.459-3.149.673-1.815.368-3.631.726-5.413,1.157-1.306.316-2.574.688-3.86,1.038-1.7.461-3.389.919-5.045,1.44-.363.114-.745.2-1.105.316q-3.013.977-5.922,2.091c-.269.1-.525.219-.792.323-2.157.84-4.259,1.745-6.319,2.7-.6.277-1.195.554-1.785.84-2.265,1.1-4.488,2.237-6.612,3.471q-.6.349-1.189.7c-.906.545-1.679,1.135-2.54,1.695-1.186.772-2.4,1.534-3.5,2.334-.973.708-1.843,1.445-2.749,2.173-1.017.817-2.055,1.626-2.988,2.467-.184.166-.409.32-.59.487-1.265,1.168-2.431,2.362-3.535,3.57-.237.259-.443.523-.672.784-.636.723-1.288,1.442-1.867,2.177-.478.607-.9,1.224-1.341,1.838-.152.214-.318.424-.465.638-.771,1.118-1.5,2.244-2.14,3.383-.22.39-.4.785-.607,1.177-.127.243-.254.484-.375.727a39.158,39.158,0,0,0-1.634,3.681c-.115.308-.2.617-.306.926-.082.236-.158.471-.234.708a35.464,35.464,0,0,0-1.047,3.9c-.052.262-.077.524-.123.785-.041.236-.075.471-.111.707a33.474,33.474,0,0,0-.411,4.151q-.012.431-.014.86v0l-.047,16.674a33.443,33.443,0,0,1,.424-5.012c.037-.237.07-.474.112-.712a35.12,35.12,0,0,1,1.17-4.681c.076-.237.153-.472.234-.709a38.53,38.53,0,0,1,1.94-4.605c.122-.244.249-.486.376-.729a43.731,43.731,0,0,1,2.745-4.557c.149-.216.315-.427.468-.642a50.894,50.894,0,0,1,3.205-4.012c.229-.261.436-.526.673-.785,1.261-1.379,2.652-2.729,4.124-4.056.933-.841,1.974-1.652,2.992-2.47.9-.727,1.774-1.464,2.745-2.17,1.1-.8,2.313-1.562,3.5-2.334,1.233-.8,2.4-1.627,3.729-2.4,2.123-1.234,4.345-2.373,6.609-3.469.592-.287,1.191-.567,1.792-.844,2.056-.948,4.154-1.851,6.307-2.69.271-.1.531-.224.8-.327,2.288-.872,4.644-1.657,7.025-2.406,1.654-.52,3.349-.978,5.042-1.439,1.286-.351,2.557-.723,3.863-1.039,1.78-.43,3.6-.79,5.41-1.157,1.327-.269,2.636-.571,3.978-.806.561-.1,1.129-.178,1.692-.27q3.365-.55,6.781-.958c.659-.079,1.315-.164,1.976-.235,1.3-.139,2.607-.218,3.911-.327,2.22-.185,4.444-.348,6.678-.445,1.412-.061,2.827-.091,4.242-.117,1.8-.033,3.6-.049,5.4-.025,1.5.019,2.992.064,4.487.124,1.668.066,3.333.152,4.994.267q2.269.157,4.526.378,2.47.238,4.92.55,2.2.279,4.376.617c1.752.272,3.49.579,5.218.908,1.361.259,2.718.526,4.062.821,2.062.451,4.09.962,6.106,1.5,1.294.343,2.6.661,3.876,1.039.689.2,1.369.423,2.052.637q3.028.951,5.959,2.033c.57.21,1.15.409,1.715.627,1.783.689,3.5,1.453,5.222,2.216.832.37,1.695.706,2.511,1.094,2.47,1.172,4.873,2.415,7.181,3.747,19.292,11.138,28.929,25.8,28.888,40.435l.047-16.674c.041-14.638-9.6-29.3-28.888-40.435Z" transform="translate(75.697 3.617)" fill="url(#linear-gradient)"/>
        <path id="Path_24102" data-name="Path 24102" d="M152.329,17.037c-1.684-.972-3.436-1.879-5.236-2.734-.606-.288-1.245-.535-1.863-.81-1.076-.477-2.136-.974-3.246-1.411-.115-.045-.242-.075-.357-.12-2.453-.953-4.988-1.8-7.581-2.556-.213-.062-.408-.149-.622-.21-.594-.169-1.217-.286-1.817-.445-1.465-.389-2.937-.758-4.435-1.086-.4-.087-.781-.207-1.181-.29-.582-.12-1.182-.2-1.768-.307-1.237-.235-2.478-.453-3.731-.648-.507-.079-1-.191-1.512-.263-.556-.079-1.124-.117-1.682-.188-1.176-.149-2.353-.281-3.539-.4-.565-.055-1.121-.142-1.688-.189-.533-.044-1.071-.049-1.606-.086q-1.8-.124-3.6-.193c-.6-.024-1.2-.082-1.8-.1q-1.55-.038-3.1-.038-2.1,0-4.193.071c-.385.013-.766.059-1.151.076-1.6.07-3.185.186-4.773.318-.644.053-1.3.065-1.937.129-.2.02-.4.062-.6.083-2.724.285-5.422.654-8.084,1.124-.128.022-.261.031-.389.054-.837.151-1.646.358-2.475.527-1.226.25-2.456.488-3.661.779-.98.237-1.93.517-2.895.78-1.168.319-2.34.627-3.483.985-.211.066-.434.115-.644.182-.41.132-.783.311-1.189.447q-3.008,1.011-5.869,2.206c-.678.284-1.354.563-2.018.862a73.947,73.947,0,0,0-6.823,3.443q-.494.287-.977.578c-.667.4-1.237.838-1.87,1.252-.83.543-1.681,1.08-2.453,1.643-.728.53-1.38,1.081-2.056,1.627-.716.578-1.45,1.15-2.108,1.745-.136.122-.3.237-.435.36-.92.851-1.766,1.72-2.568,2.6-.173.19-.324.384-.491.574-.456.519-.924,1.037-1.339,1.565-.2.249-.324.509-.511.759-.6.8-1.127,1.609-1.63,2.425-.217.351-.5.691-.7,1.044-.11.195-.173.4-.278.592-.386.72-.7,1.448-1.019,2.177-.185.426-.436.845-.6,1.274-.063.168-.086.34-.146.508-.245.7-.419,1.4-.6,2.1-.123.47-.31.936-.4,1.408-.03.152-.025.306-.052.457-.132.731-.186,1.463-.251,2.2-.043.481-.151.961-.165,1.443q-.011.39-.01.78l-.047,16.674c0-.74.109-1.477.175-2.216s.12-1.472.252-2.205c.113-.623.294-1.241.455-1.86.183-.7.357-1.4.6-2.1.211-.6.485-1.19.743-1.783.316-.729.634-1.458,1.02-2.178.295-.55.643-1.092.979-1.635.5-.816,1.035-1.626,1.631-2.425.583-.783,1.182-1.563,1.853-2.328.166-.189.316-.382.487-.569.917-1.007,1.931-1.992,3-2.96.658-.595,1.393-1.168,2.11-1.746.675-.545,1.328-1.1,2.055-1.627.773-.563,1.625-1.1,2.457-1.645.937-.613,1.832-1.241,2.843-1.829a74.176,74.176,0,0,1,6.825-3.443c.662-.3,1.339-.578,2.014-.86q2.863-1.2,5.874-2.208c.612-.206,1.209-.433,1.829-.627,1.144-.358,2.319-.668,3.489-.987.961-.262,1.911-.542,2.888-.778,1.212-.292,2.449-.532,3.681-.783.947-.193,1.884-.408,2.841-.576,2.662-.47,5.364-.84,8.088-1.125.841-.088,1.69-.142,2.535-.212,1.587-.132,3.176-.248,4.772-.317,1.779-.078,3.56-.148,5.344-.148,1.636,0,3.268.07,4.9.135q1.805.072,3.6.193,1.652.115,3.293.274,1.776.172,3.538.4,1.6.2,3.195.45c1.252.195,2.494.413,3.731.648.988.188,1.972.384,2.948.6,1.5.328,2.974.7,4.439,1.087.813.216,1.633.42,2.435.654,2.593.758,5.129,1.6,7.581,2.556,1.23.478,2.419,1.005,3.608,1.533.617.274,1.255.521,1.86.809,1.8.854,3.552,1.761,5.236,2.734,13.922,8.037,20.906,18.564,20.966,29.12l.047-16.674c-.06-10.556-7.044-21.083-20.966-29.121Z" transform="translate(96.035 15.371)" fill="url(#linear-gradient)"/>
        <path id="Path_24103" data-name="Path 24103" d="M28.472,15.873l-.047,16.675-5.869.912L22.6,16.785Z" transform="translate(69.721 49.065)" fill="#000076"/>
        <g id="Group_15399" data-name="Group 15399" transform="translate(91.992 61.226)" style="mix-blend-mode: normal;isolation: isolate">
          <g id="Group_15398" data-name="Group 15398" clip-path="url(#clip-path)">
            <g id="Group_15397" data-name="Group 15397" transform="translate(0 0)" style="mix-blend-mode: normal;isolation: isolate">
              <path id="Path_24104" data-name="Path 24104" d="M22.818,19.589,22.77,36.264a36.148,36.148,0,0,1-.284-4.623l.047-16.674a36.134,36.134,0,0,0,.284,4.623" transform="translate(-22.486 -14.966)" fill="#000053"/>
            </g>
          </g>
        </g>
        <path id="Path_24106" data-name="Path 24106" d="M26.2,20.457l-.047,16.674L23.99,32.547l.047-16.675Z" transform="translate(74.155 49.065)" fill="#000050"/>
        <path id="Path_24107" data-name="Path 24107" d="M29.934,16.994l-.047,16.675-7.105,1.1L22.829,18.1Z" transform="translate(70.42 52.529)" fill="#000076"/>
        <path id="Path_24108" data-name="Path 24108" d="M81.045,12.942,81,29.617,47.159,49.282l.047-16.675Z" transform="translate(145.772 40.006)" fill="#007"/>
        <path id="Path_24109" data-name="Path 24109" d="M77.209,17.263l-.047,16.674L5.189,45.111l.047-16.675Z" transform="translate(16.039 53.362)" fill="#007"/>
        <path id="Path_24110" data-name="Path 24110" d="M71.78,34.6l-.047,16.675L39.187,32.488l.047-16.675Z" transform="translate(121.13 48.882)" fill="#3b93d2"/>
        <path id="Path_24111" data-name="Path 24111" d="M56.61,19.069l-.047,16.674-9.42,5.474.047-16.675Z" transform="translate(145.72 58.943)" fill="#007"/>
        <path id="Path_24112" data-name="Path 24112" d="M105.653,20.428,71.813,40.093l9.351,5.4-9.42,5.474L39.2,32.176l9.42-5.474,11.388,6.575,22.369-13-9.612-5.55L80,10.521c7.124,3,11.244,4.117,17,4.916l8.646,4.992Z" transform="translate(121.165 32.52)" fill="#89bee4"/>
        <g id="Group_15402" data-name="Group 15402" transform="translate(93.201 70.625)" style="mix-blend-mode: normal;isolation: isolate">
          <path id="Path_24113" data-name="Path 24113" d="M29.145,30.8,29.1,47.474a43.359,43.359,0,0,1-6.316-13.536l.047-16.674A43.358,43.358,0,0,0,29.145,30.8Z" transform="translate(-22.782 -17.263)" fill="url(#linear-gradient)"/>
          <g id="Group_15401" data-name="Group 15401" clip-path="url(#clip-path-2)">
            <g id="Group_15400" data-name="Group 15400" style="mix-blend-mode: normal;isolation: isolate">
              <path id="Path_24114" data-name="Path 24114" d="M29.145,30.8,29.1,47.474a43.358,43.358,0,0,1-6.316-13.536l.047-16.674A43.357,43.357,0,0,0,29.145,30.8" transform="translate(-22.782 -17.263)" fill="url(#linear-gradient)"/>
            </g>
          </g>
        </g>
        <path id="Path_24116" data-name="Path 24116" d="M28.624,20.377l-.047,16.675-4.252.8.047-16.674Z" transform="translate(75.192 62.989)" fill="#007"/>
        <path id="Path_24117" data-name="Path 24117" d="M14.5,22.659l-.047,16.674-1.7.318L12.8,22.977Z" transform="translate(39.417 70.041)" fill="#007"/>
        <path id="Path_24118" data-name="Path 24118" d="M47.912,35.57l-.047,16.675L0,36.274.047,19.6Z" transform="translate(0 60.585)" fill="url(#linear-gradient)"/>
        <path id="Path_24119" data-name="Path 24119" d="M60.438,21.64,60.39,38.315,13.74,47.041l.047-16.674Z" transform="translate(42.47 66.892)" fill="#007"/>
        <path id="Path_24120" data-name="Path 24120" d="M14.932,23.773l-.047,16.674-1.516.284.047-16.674Z" transform="translate(41.325 73.485)" fill="#007"/>
        <path id="Path_24121" data-name="Path 24121" d="M15.324,27.261l-.047,16.674-2.525-4.524L12.8,22.737Z" transform="translate(39.417 70.281)" fill="#000050"/>
        <path id="Path_24122" data-name="Path 24122" d="M64.363,20.378,66.888,24.9l-3.433.642L16.8,34.27l-1.516.284-2.525-4.524,1.7-.318,45.646-8.538Z" transform="translate(39.453 62.989)" fill="#89bee4"/>
        <path id="Path_24123" data-name="Path 24123" d="M34.116,25.007l-.047,16.675-3.921.609.047-16.675Z" transform="translate(93.187 77.3)" fill="#000076"/>
        <path id="Path_24124" data-name="Path 24124" d="M31.026,25.286l-.047,16.675-1.1-.172.047-16.674Z" transform="translate(92.355 77.63)" fill="#000067"/>
        <path id="Path_24125" data-name="Path 24125" d="M31.243,25.114,31.2,41.789l-1.744.614L29.5,25.728Z" transform="translate(91.037 77.63)" fill="#00007a"/>
        <path id="Path_24126" data-name="Path 24126" d="M29.848,25.483l.169-.369,1.1.172Z" transform="translate(92.263 77.63)" fill="#000089"/>
        <path id="Path_24127" data-name="Path 24127" d="M31.153,25.156l-.047,16.675-1.269.2.047-16.674Z" transform="translate(92.227 77.76)" fill="#000076"/>
        <path id="Path_24128" data-name="Path 24128" d="M28.815,25.557q-1.943-1.927-3.625-3.916h0l-.047,16.674A74.442,74.442,0,0,0,42.771,53.14l.047-16.674a79.332,79.332,0,0,1-14-10.91Z" transform="translate(77.718 66.892)" fill="url(#linear-gradient)"/>
        <path id="Path_24129" data-name="Path 24129" d="M31.774,26.326,31.727,43l-.621-1.318.047-16.675Z" transform="translate(96.149 77.3)" fill="#000050"/>
        <path id="Path_24130" data-name="Path 24130" d="M33.583,25.685,33.535,42.36,31.257,42,31.3,25.33Z" transform="translate(96.619 78.296)" fill="#89bee4"/>
        <path id="Path_24131" data-name="Path 24131" d="M32.544,27.959,32.5,44.633,31.257,42,31.3,25.33Z" transform="translate(96.619 78.296)" fill="#000050"/>
        <path id="Path_24132" data-name="Path 24132" d="M38.426,26.152l-.047,16.674-9.133,1.418.047-16.675Z" transform="translate(90.401 80.839)" fill="#000076"/>
        <path id="Path_24133" data-name="Path 24133" d="M180.271,17.611c-.071.79-.126,1.581-.271,2.369-.118.642-.313,1.279-.481,1.919-.2.752-.381,1.5-.646,2.25-.219.615-.508,1.222-.773,1.831-.341.785-.68,1.569-1.1,2.344-.3.561-.664,1.112-1.006,1.667-.545.883-1.122,1.761-1.769,2.627-.624.834-1.267,1.666-1.986,2.481-.168.191-.319.385-.492.574-.969,1.059-2.04,2.094-3.17,3.113-.718.647-1.518,1.271-2.3,1.9-.7.558-1.365,1.125-2.113,1.668-.848.617-1.783,1.2-2.7,1.8-.947.616-1.846,1.25-2.865,1.841a77.857,77.857,0,0,1-7.084,3.583c-.7.318-1.428.615-2.148.916q-2.875,1.2-5.893,2.232c-.725.248-1.437.514-2.173.746-1.263.4-2.557.746-3.849,1.1-.99.27-1.969.558-2.975.8-1.359.329-2.747.6-4.131.883-.953.193-1.894.41-2.856.579-2.811.5-5.664.888-8.54,1.19-.89.093-1.788.15-2.683.225-1.685.14-3.372.264-5.067.338-1.087.047-2.177.07-3.266.09-1.371.025-2.741.037-4.113.019-1.15-.015-2.3-.05-3.447-.1q-1.906-.075-3.8-.2-1.745-.121-3.481-.291-1.878-.181-3.742-.418-1.693-.215-3.37-.476C84.641,57,83.316,56.771,82,56.52c-1.044-.2-2.085-.405-3.117-.631-1.575-.345-3.125-.735-4.666-1.143-.861-.229-1.73-.444-2.579-.693-2.759-.806-5.455-1.707-8.061-2.722-1.3-.5-2.553-1.06-3.806-1.617-.64-.285-1.3-.543-1.932-.841-1.9-.9-3.74-1.854-5.512-2.877C37.5,37.435,30.09,26.2,30.122,14.982l-.047,16.675c-.032,11.217,7.373,22.453,22.2,31.015,1.772,1.023,3.616,1.977,5.512,2.877.628.3,1.291.556,1.932.841,1.124.5,2.232,1.019,3.392,1.477.133.053.28.088.414.14,2.607,1.015,5.3,1.916,8.06,2.722.222.065.427.156.65.219.631.18,1.294.3,1.931.473,1.542.408,3.09.8,4.666,1.144.419.092.82.217,1.242.3.616.128,1.252.208,1.872.326,1.32.252,2.644.485,3.981.693.537.083,1.059.2,1.6.278.585.083,1.182.123,1.77.2q1.866.237,3.744.418c.6.058,1.192.151,1.794.2.56.046,1.125.051,1.686.09,1.268.088,2.536.153,3.808.2.638.025,1.272.086,1.91.1.509.013,1.018-.014,1.528-.007,1.378.018,2.752.006,4.13-.019.681-.013,1.362.014,2.042-.01.4-.014.8-.063,1.207-.08,1.7-.074,3.4-.2,5.088-.34.679-.056,1.366-.068,2.042-.136.21-.021.413-.065.623-.087q4.321-.452,8.548-1.191c.137-.024.279-.033.416-.058.816-.147,1.6-.352,2.413-.515,1.394-.283,2.79-.558,4.159-.889,1-.242,1.971-.528,2.956-.8,1.3-.354,2.6-.7,3.868-1.1.273-.086.561-.15.832-.238.458-.149.876-.35,1.33-.5q3.025-1.029,5.9-2.236c.719-.3,1.437-.6,2.141-.914a77.907,77.907,0,0,0,7.087-3.584q.464-.27.918-.543c.693-.417,1.284-.867,1.942-1.3.916-.6,1.852-1.185,2.7-1.8.747-.543,1.415-1.109,2.11-1.667.785-.63,1.586-1.255,2.306-1.9.146-.131.324-.253.467-.385.967-.892,1.858-1.8,2.7-2.726.174-.19.324-.384.492-.574.5-.569,1.014-1.136,1.47-1.715.2-.252.328-.515.518-.768.646-.865,1.221-1.74,1.766-2.622.229-.372.532-.73.743-1.1.106-.187.165-.381.266-.568.417-.774.756-1.557,1.1-2.34.2-.457.467-.906.64-1.365.058-.155.079-.313.134-.468.265-.745.447-1.494.644-2.245.133-.508.334-1.01.436-1.52.027-.135.021-.271.046-.405.145-.787.2-1.575.27-2.365.046-.514.162-1.027.176-1.542q.01-.33.01-.66l.047-16.675c0,.735-.121,1.467-.187,2.2Z" transform="translate(92.964 46.312)" fill="url(#linear-gradient)"/>
        <path id="Path_24134" data-name="Path 24134" d="M158.245,17.152c29.437,17,29.593,44.563.321,61.574-29.246,17-76.839,17-106.276,0C22.826,61.716,22.67,34.148,51.917,17.152,81.189.141,128.781.141,158.245,17.152ZM105.486,89.117c18.2-.015,36.349-4.027,50.18-12.065C169.524,69,176.39,58.473,176.331,47.946c-.06-10.556-7.044-21.083-20.966-29.121C141.416,10.773,123.221,6.762,105,6.761c-18.173,0-36.323,4.012-50.18,12.065-13.832,8.038-20.7,18.564-20.664,29.106C34.237,58.473,41.221,69,55.17,77.053,69.092,85.09,87.287,89.1,105.486,89.117" transform="translate(92.999 13.582)" fill="#89bee4"/>
        <path id="Path_24135" data-name="Path 24135" d="M28.032,23.773l-.047,16.674L9.131,59.462l.047-16.675Z" transform="translate(28.224 73.485)" fill="url(#linear-gradient)"/>
        <path id="Path_24136" data-name="Path 24136" d="M52.139,34.532c-1.085-.329-2.173-.654-3.242-1.005s-2.112-.73-3.161-1.1-2.111-.747-3.146-1.147c-.59-.227-1.162-.476-1.745-.711-3.23-1.3-6.391-2.682-9.41-4.213l-.047,16.675c3.019,1.531,6.18,2.912,9.41,4.212.31.124.591.281.9.4.276.109.566.2.844.308,1.035.4,2.09.769,3.142,1.145s2.1.755,3.168,1.107,2.145.673,3.225,1c.794.241,1.57.507,2.372.736q.879.25,1.764.49l.047-16.674c-1.393-.378-2.753-.808-4.123-1.223Z" transform="translate(97.019 81.456)" fill="url(#linear-gradient)"/>
        <path id="Path_24137" data-name="Path 24137" d="M38.079,28.373l-.047,16.674-.576,1.134L37.5,29.507Z" transform="translate(115.779 87.703)" fill="#00006b"/>
        <path id="Path_24138" data-name="Path 24138" d="M45.514,29.73,45.467,46.4,37.6,45.047l.047-16.674Z" transform="translate(116.214 87.703)" fill="#006"/>
        <path id="Path_24139" data-name="Path 24139" d="M40.2,28.7,40.15,45.379l-.834,1.639.047-16.674Z" transform="translate(121.53 88.729)" fill="#00006c"/>
        <path id="Path_24140" data-name="Path 24140" d="M53.639,30.443l-.047,16.674L45.671,45.88l.047-16.674Z" transform="translate(141.172 90.278)" fill="#000067"/>
        <path id="Path_24141" data-name="Path 24141" d="M51.554,31.29c-.178-.025-.351-.066-.528-.092-3.938-.571-7.836-1.259-11.661-2.093L39.316,45.78q.864.189,1.733.369c3.266.675,6.584,1.239,9.929,1.724.178.026.35.067.529.092l.045.008q5.126.726,10.338,1.155,1,.083,2.012.155l.047-16.674c-4.163-.3-8.3-.737-12.395-1.317Z" transform="translate(121.53 89.967)" fill="url(#linear-gradient)"/>
        <path id="Path_24142" data-name="Path 24142" d="M46.784,29.206,46.737,45.88l-1.411,3.09L45.373,32.3Z" transform="translate(140.106 90.278)" fill="#00006a"/>
        <path id="Path_24143" data-name="Path 24143" d="M158.077,15.109c0,.625-.047,1.249-.082,1.873-.029.536-.062,1.072-.115,1.608-.046.465-.111.93-.175,1.395-.074.533-.153,1.067-.251,1.6-.086.467-.187.934-.292,1.4-.117.521-.24,1.041-.38,1.561-.126.466-.264.932-.408,1.4-.16.516-.329,1.032-.512,1.547-.163.458-.338.916-.519,1.372q-.32.807-.678,1.609c-.2.451-.41.9-.629,1.35-.26.531-.535,1.061-.82,1.589-.233.432-.47.865-.72,1.294-.369.634-.765,1.264-1.171,1.893-.242.375-.476.752-.731,1.124-.481.7-1,1.4-1.526,2.092-.218.287-.419.577-.645.862-.859,1.084-1.781,2.154-2.755,3.214-.256.279-.532.553-.8.83q-1.145,1.2-2.389,2.377c-.382.361-.764.721-1.16,1.079-.495.445-1,.887-1.521,1.327-.482.41-.969.82-1.47,1.226-.537.434-1.092.864-1.651,1.291-.522.4-1.046.8-1.588,1.192-.581.422-1.18.838-1.782,1.254-.561.387-1.124.773-1.7,1.153-.621.408-1.263.808-1.906,1.208-.815.506-1.62,1.016-2.469,1.51-2.434,1.414-4.989,2.715-7.594,3.963q-.935.448-1.882.883c-2.617,1.2-5.288,2.336-8.048,3.368-.207.078-.423.143-.631.22-2.387.88-4.844,1.667-7.321,2.425-1.572.481-3.171.921-4.775,1.353-1.689.455-3.385.9-5.106,1.3-1.632.38-3.282.722-4.938,1.053-2.048.41-4.1.814-6.18,1.149-.69.111-1.377.227-2.07.33q-4.492.667-9.056,1.108c-3.127.3-6.278.49-9.433.627-.623.027-1.239.095-1.862.115-2.342.078-4.689.042-7.035.031-1.3-.006-2.6.047-3.9.014l-.047,16.674.145,0c1.251.031,2.5-.023,3.754-.017,2.346.011,4.693.046,7.035-.032.044,0,.088,0,.132,0,.58-.019,1.152-.089,1.73-.115,3.156-.137,6.305-.327,9.433-.627.208-.02.42-.021.629-.042,2.831-.281,5.636-.652,8.426-1.066.694-.1,1.381-.219,2.073-.33,1.045-.169,2.1-.314,3.138-.5s2.021-.444,3.041-.648c1.658-.332,3.3-.673,4.937-1.053,1.724-.4,3.417-.845,5.109-1.3,1.6-.432,3.2-.871,4.771-1.352.637-.2,1.3-.346,1.935-.549,1.823-.586,3.611-1.222,5.384-1.875.21-.077.427-.143.636-.222,2.759-1.033,5.429-2.172,8.047-3.368.633-.29,1.256-.584,1.88-.883,2.606-1.249,5.161-2.548,7.6-3.963q.652-.379,1.291-.763c.406-.245.78-.5,1.178-.746.643-.4,1.285-.8,1.906-1.208.581-.381,1.143-.767,1.7-1.154.6-.415,1.2-.831,1.782-1.254.541-.394,1.065-.792,1.588-1.191.559-.429,1.114-.857,1.651-1.292.5-.405.988-.815,1.47-1.226.517-.44,1.027-.881,1.521-1.328.2-.182.423-.359.621-.541s.352-.36.539-.536q1.247-1.178,2.392-2.38c.263-.276.537-.547.792-.825.975-1.06,1.9-2.132,2.758-3.218.033-.042.073-.082.106-.124.189-.24.347-.486.531-.727.53-.7,1.049-1.394,1.532-2.1.256-.374.49-.751.732-1.127.406-.629.8-1.259,1.171-1.894.1-.169.216-.334.312-.5.147-.26.264-.524.405-.785.286-.53.563-1.061.823-1.594.219-.448.426-.9.627-1.348q.358-.8.678-1.609c.094-.239.211-.474.3-.713.082-.219.14-.44.218-.66.183-.515.352-1.03.512-1.547.144-.464.282-.929.408-1.395.14-.52.264-1.042.381-1.564.062-.276.146-.551.2-.828.038-.19.054-.38.089-.569.1-.535.178-1.071.253-1.607.064-.461.128-.922.174-1.383.054-.54.086-1.081.116-1.622.017-.31.057-.619.066-.928s.014-.624.015-.935h0l.047-16.674Z" transform="translate(146.378 46.703)" fill="url(#linear-gradient)"/>
        <path id="Path_24144" data-name="Path 24144" d="M98.157,15.873l2.161,4.584-7.105,1.1L21.24,32.733l32.643,10.9-1.7.318,2.525,4.524,1.516-.284L37.367,67.208,120.5,54.294l1.576-.245,1.269-.2,3.921-.609.622,1.318,1.239,2.629.3.637-.637.1-9.133,1.418-99.223,15.4L47.876,47.09.012,31.12,92.288,16.785Z" transform="translate(0.036 49.065)" fill="#89bee4"/>
        <path id="Path_24145" data-name="Path 24145" d="M203.6,18.006c41.557,23.993,41.777,63.022.464,87.03-21.858,12.7-51.041,18.683-79.83,17.94l1.031-2.256-7.921-1.237-1.411,3.09a173.394,173.394,0,0,1-24.585-3.5l.834-1.639-7.87-1.357-.576,1.134a130.712,130.712,0,0,1-24.828-9.4l.373-.817.336-.736,1.039-2.273-2.278-.356-.621-1.318-3.921.609-1.269.2-1.575.245A74.449,74.449,0,0,1,33.366,88.532L36.8,87.89l-2.525-4.524-4.252.8a43.358,43.358,0,0,1-6.316-13.536l7.1-1.1-2.161-4.584-5.869.912C20.618,48.679,30.8,31.1,53.329,18.007,94.642-6,162.021-6,203.6,18.006Zm-144,83.683c38.344,22.138,100.569,22.138,138.664,0,38.121-22.154,37.918-58.2-.426-80.334C159.473-.8,97.248-.8,59.127,21.355c-38.1,22.139-37.892,58.181.478,80.335" transform="translate(69.542 0)" fill="#89bee4"/>
        <path id="Path_24146" data-name="Path 24146" d="M104.263,26.5l-.047,16.675L4.992,58.577,5.039,41.9Z" transform="translate(15.431 81.91)" fill="#3b93d2"/>
        <path id="Path_24147" data-name="Path 24147" d="M34.385,35.475,34.338,52.15l-.461.908.047-16.675Z" transform="translate(104.716 109.658)" fill="#00006b"/>
        <path id="Path_24148" data-name="Path 24148" d="M49.877,29.105,49.829,45.78,35.915,73.116l.047-16.675Z" transform="translate(111.017 89.967)" fill="#00006c"/>
        <path id="Path_24149" data-name="Path 24149" d="M56.976,29.73l-.834,1.639L42.228,58.705l-.5.975-7.844-1.342.461-.908L48.53,29.507l.576-1.135Z" transform="translate(104.751 87.703)" fill="#89bee4"/>
        <path id="Path_24150" data-name="Path 24150" d="M36.337,35.787,36.29,52.462l-.5.975.047-16.674Z" transform="translate(110.642 110.621)" fill="#00006c"/>
        <path id="Path_24151" data-name="Path 24151" d="M41.768,37.04l-.047,16.674-7.844-1.342L33.924,35.7Z" transform="translate(104.716 110.344)" fill="#006"/>
        <path id="Path_24152" data-name="Path 24152" d="M48.107,26.352,48.06,43.026,25.993,91.319l.047-16.674Z" transform="translate(80.346 81.456)" fill="#00006a"/>
        <path id="Path_24153" data-name="Path 24153" d="M70.53,36.652l-.047,16.674L22.824,69.312l.047-16.675Z" transform="translate(70.552 113.295)" fill="#3b93d2"/>
        <path id="Path_24154" data-name="Path 24154" d="M123.192,42.138,98.222,96.781,70.495,69.109,22.836,85.094,49.105,27.57l9.133-1.418-.373.817L35.8,75.262,68.512,64.295l-.461.908L75.9,66.545l.5-.975L95.367,84.49,114.89,41.736l1.411-3.09,7.921,1.237Z" transform="translate(70.588 80.839)" fill="#89bee4"/>
        <path id="Path_24155" data-name="Path 24155" d="M62.248,64.325,62.2,81,34.474,53.327l.047-16.674Z" transform="translate(106.562 113.295)" fill="#007"/>
        <path id="Path_24156" data-name="Path 24156" d="M66.269,30.06l-.047,16.674L41.251,101.377,41.3,84.7Z" transform="translate(127.511 92.917)" fill="url(#linear-gradient)"/>
      </g>
    </g>
  </g>
</svg>
