<svg xmlns="http://www.w3.org/2000/svg" width="185.507" height="141" viewBox="0 0 185.507 141">
  <g id="icon-site-bulder" transform="translate(0 -2272)">
    <circle id="Ellipse_7" data-name="Ellipse 7" cx="70.5" cy="70.5" r="70.5" transform="translate(0 2272)" fill="#d92a92"/>
    <g id="icon-builder" transform="translate(27 2316)">
      <path id="Subtraction_34" data-name="Subtraction 34" d="M17711.561,6238.651H17655v-32.178a6.207,6.207,0,0,1,6.2-6.2h34.615a15.708,15.708,0,0,0-.168,2H17661.2a4.2,4.2,0,0,0-4.2,4.2v1.922h39.756c.127.317.275.653.443,1H17657v27.253h20.033v-5.174h-5.2v-8.8h5.2v-7.794h24.613a15.551,15.551,0,0,0,1.436,1h-25.047v6.8h11.7v8.8h-11.7v5.174h27.582v-19.512c.318.123.654.24,1,.347v19.166h2.951v-18.56a15.758,15.758,0,0,0,1.662.088c.111,0,.225,0,.334,0v20.476Zm-33.525-14.971h0v6.8h10.7v-6.8h-10.7Zm-5.2,0h0v6.8h4.2v-6.8h-4.2Zm-4.395,7.791h-7.816v-1h7.816v1Zm0-3.893h-7.816v-1h7.816v1Zm0-3.9h-7.816v-1h7.816v1Zm0-3.9h-7.816v-1h7.816v1Zm0-3.9h-7.816v-1h7.816v1Zm-4.721-9.721h-2.611v-1h2.611v1Z" transform="translate(-17649.662 -6185.701)" fill="#fff"/>
      <path id="Line_237" data-name="Line 237" d="M67.556,1H0V-1H67.556Z" transform="translate(0 52.308)" fill="#fff"/>
      <path id="Subtraction_35" data-name="Subtraction 35" d="M17671.59,6220.18a16.585,16.585,0,1,1,13.8-7.377l-1.436-1.458a14.586,14.586,0,1,0-4.418,4.486l1.428,1.45A16.469,16.469,0,0,1,17671.59,6220.18Z" transform="translate(-17610.023 -6186.701)" fill="#fff"/>
      <path id="Path_17221" data-name="Path 17221" d="M70.318,40.081a4.123,4.123,0,0,1-2.935-1.216l-.005-.005L52.293,23.548a9.374,9.374,0,0,1-3.1.521,9.874,9.874,0,0,1-9.636-8.026,9.439,9.439,0,0,1,.631-5.573,1,1,0,0,1,1.622-.3l3.465,3.465,2.869.048-.048-2.87L44.656,7.373a1,1,0,0,1,.316-1.627A9.356,9.356,0,0,1,48.655,5a9.833,9.833,0,0,1,9.4,12.569L73.256,33a4.15,4.15,0,0,1-2.937,7.082ZM68.8,37.453a2.15,2.15,0,0,0,3.038-3.043l-.005-.005L56.194,18.532a1,1,0,0,1-.221-1.061A7.821,7.821,0,0,0,48.655,7a7.507,7.507,0,0,0-1.411.132l2.548,2.548a1,1,0,0,1,.293.691l.071,4.308A1,1,0,0,1,49.14,15.7l-4.307-.071a1,1,0,0,1-.691-.293l-2.6-2.6a7.543,7.543,0,0,0-.026,2.941,7.874,7.874,0,0,0,7.67,6.394,7.357,7.357,0,0,0,2.954-.609,1,1,0,0,1,1.111.215Z" transform="translate(12.082 1.795)" fill="#fff"/>
    </g>
    <g id="icon_free" data-name="icon free" transform="translate(-172.496 2302.003)">
      <path id="Union_10" data-name="Union 10" d="M57.052,0c-3.169,6.286-4.76,9.646-7.929,16.646a119.332,119.332,0,0,1,8,10.07C34.312,32.748,22.9,53.584.081,59.671.045,48.987.037,43.649,0,32.965,22.823,26.932,34.238,6.1,57.052,0" transform="translate(299.213 -0.002)" fill="#00009f" stroke="#fff" stroke-width="2"/>
      <path id="Path_21426" data-name="Path 21426" d="M28.227,7.623c.063.632.117,1.264.2,2.1.659-.406.993-.614,1.653-1,.072-.939.135-1.644.19-2.348s.117-1.409.19-2.348c.009-.515.027-.9.036-1.292s.018-.768.036-1.282c-.524.307-.912.542-1.3.777s-.777.479-1.292.813l.09,2.475c.081.84.135,1.472.2,2.1" transform="translate(313.047 11.675)" fill="#fff"/>
      <path id="Path_21427" data-name="Path 21427" d="M28.52,14.271c0-.813,0-1.219-.009-2.032,1.382-1,2.077-1.517,3.459-2.529-.009-.993-.009-1.481-.009-2.475-1.382,1.012-2.077,1.517-3.45,2.529-.009-.352-.009-.614-.009-.876V8c1.617-1.174,2.42-1.779,4.037-2.953V2.566C29.884,4.508,28.556,5.5,25.91,7.407c0,2.24.009,3.929.009,5.609.009.84.009,1.68.009,2.592s.009,1.9.009,3.017c2.718-1.951,4.073-2.962,6.792-4.949-.009-.993-.009-1.49-.009-2.484-1.68,1.228-2.52,1.851-4.2,3.08" transform="translate(296.759 20.607)" fill="#fff"/>
      <path id="Path_21428" data-name="Path 21428" d="M29.519,13.4l-.009-2.032c1.382-.975,2.077-1.463,3.459-2.393-.009-.993-.009-1.49-.009-2.484-1.382.939-2.068,1.418-3.45,2.4-.009-.7-.009-1.057-.009-1.761,1.617-1.147,2.429-1.707,4.037-2.791V1.857c-1.328.894-2.321,1.571-3.315,2.276s-2,1.418-3.315,2.384c.009,4.489.018,6.729.027,11.217,2.718-1.969,4.073-2.944,6.792-4.76-.009-.984-.009-1.481-.009-2.475-1.68,1.12-2.52,1.707-4.2,2.9" transform="translate(304.782 14.912)" fill="#fff"/>
      <path id="Path_21429" data-name="Path 21429" d="M30.606,3.921a51.162,51.162,0,0,1-6.674,3.4c.018,4.489.027,6.738.036,11.226,1.021-.443,1.526-.677,2.547-1.183,0-1.644,0-2.457-.009-4.1,1.409-.7,2.122-1.075,3.531-1.888,0-.984,0-1.49-.009-2.475-1.409.8-2.113,1.183-3.531,1.879V8.626C28.141,7.8,28.963,7.362,30.615,6.4c-.009-.993-.009-1.49-.009-2.484" transform="translate(280.872 31.489)" fill="#fff"/>
      <path id="Path_21430" data-name="Path 21430" d="M29.546,2.661A3.565,3.565,0,0,0,27.9,5.587a1.111,1.111,0,0,0,.461,1.057,1.228,1.228,0,0,0,1.192-.2A3.639,3.639,0,0,0,31.2,3.564c0-1.12-.713-1.481-1.653-.9" transform="translate(312.758 19.184)" fill="#fff"/>
      <path id="Path_21431" data-name="Path 21431" d="M32.408,5.457c0-2.746-1.77-2.348-3.893-.93-1.454.966-2.186,1.436-3.649,2.33.018,4.489.018,6.738.036,11.226,1.03-.632,1.553-.966,2.583-1.635,0-1.517,0-2.276-.009-3.793.379-.244.569-.37.939-.614.686,1.066,1.021,1.59,1.7,2.646,1.147-.786,1.725-1.183,2.872-2-.858-1.156-1.282-1.725-2.131-2.89a7.122,7.122,0,0,0,1.553-4.344m-4.073,4.29c-.343.226-.515.343-.867.569V7.561L28.326,7c1.021-.677,1.571-.741,1.571.2a3.038,3.038,0,0,1-1.562,2.547" transform="translate(288.382 27.497)" fill="#fff"/>
    </g>
  </g>
</svg>
