<svg id="illustration-web-hosting" xmlns="http://www.w3.org/2000/svg" xmlns:xlink="http://www.w3.org/1999/xlink" width="572.378" height="539.516" viewBox="0 0 572.378 539.516">
  <defs>
    <linearGradient id="linear-gradient" x1="0.015" y1="0.433" x2="1.014" y2="0.433" gradientUnits="objectBoundingBox">
      <stop offset="0" stop-color="#007"/>
      <stop offset="0.99" stop-color="#3b93d2"/>
    </linearGradient>
    <linearGradient id="linear-gradient-2" x1="0.023" y1="0.389" x2="1.022" y2="0.389" xlink:href="#linear-gradient"/>
  </defs>
  <g id="box">
    <path id="white" d="M275.53,17,246.27,34,216.83,17,246.08,0Z" fill="#fff"/>
    <g id="Group_15021" data-name="Group 15021">
      <path id="top" d="M275.53,93.98l-29.2,16.97L216.94,93.98l29.2-16.96Z" fill="#00b2a9"/>
      <path id="Path_21097" data-name="Path 21097" d="M275.53,93.98l-.12,42.21-29.2,16.97.12-42.21Z" fill="#3b93d2"/>
      <path id="Path_21098" data-name="Path 21098" d="M246.33,110.95l-.12,42.21-29.38-16.97.11-42.21Z" fill="#007"/>
    </g>
  </g>
  <g id="pie-big">
    <path id="Path_21099" data-name="Path 21099" d="M499.56,388.48l-.46,117.78c-.03,8.52-5.65,17.02-16.86,23.52-22.47,13.02-59.07,12.99-81.74-.14-11.37-6.58-17.04-15.22-17-23.83l.46-117.78c-.03,8.62,5.64,17.25,17,23.83,22.68,13.13,59.28,13.17,81.74.14,11.21-6.5,16.82-15,16.86-23.52Z" fill="url(#linear-gradient)"/>
    <path id="top-2" data-name="top" d="M400.97,411.96c-22.69-13.1-22.81-34.3-.27-47.4,22.45-13.05,59.05-13.05,81.74.05,22.6,13.05,22.72,34.25.27,47.3-22.55,13.1-59.14,13.1-81.74.05Z" fill="#00b2a9"/>
    <path id="Path_21101" data-name="Path 21101" d="M425.73,397.54c-8.89-5.13-8.94-13.44-.1-18.57,8.8-5.11,23.13-5.11,32.02.02,8.85,5.11,8.9,13.42.1,18.53-8.83,5.13-23.17,5.13-32.02.02Z" fill="#007"/>
  </g>
  <g id="pie">
    <path id="Path_21102" data-name="Path 21102" d="M476.36,315.36l-.28,70.7c-.02,5.11-3.39,10.22-10.12,14.12-13.49,7.82-35.46,7.79-49.07-.09-6.82-3.95-10.23-9.13-10.21-14.31l.28-70.7c-.02,5.17,3.38,10.36,10.21,14.31,13.61,7.88,35.58,7.9,49.07.09,6.73-3.9,10.1-9,10.12-14.12Z" fill="url(#linear-gradient-2)"/>
    <path id="top-3" data-name="top" d="M417.18,329.45c-13.62-7.87-13.69-20.59-.16-28.46,13.48-7.83,35.45-7.83,49.07.03,13.57,7.83,13.64,20.56.16,28.39-13.53,7.87-35.5,7.87-49.07.03Z" fill="#00b2a9"/>
    <path id="Path_21104" data-name="Path 21104" d="M432.04,320.79c-5.34-3.08-5.36-8.07-.06-11.15,5.28-3.07,13.89-3.07,19.22.01,5.31,3.07,5.34,8.05.06,11.12-5.3,3.08-13.91,3.08-19.22.01Z" fill="#007"/>
  </g>
  <g id="stroke-pie">
    <path id="Path_21105" data-name="Path 21105" d="M38.22,441.826l1,0a11.127,11.127,0,0,0,2.253,6.559,21.1,21.1,0,0,0,6.9,5.875A39.1,39.1,0,0,0,58.859,458.2a54.715,54.715,0,0,0,23.82.007,38.44,38.44,0,0,0,10.384-3.91c5.777-3.285,8.99-7.613,9.046-12.186v-.1l1,0c0,.035,0,.071,0,.106h0l-.179,24.957a12.046,12.046,0,0,1-2.426,7.052,21.935,21.935,0,0,1-7.127,6.1,39.436,39.436,0,0,1-10.654,4.015,54.158,54.158,0,0,1-12.108,1.334c-8.631,0-16.768-1.91-22.911-5.378a22.057,22.057,0,0,1-7.232-6.163,12.06,12.06,0,0,1-2.432-7.144Zm32.575,18.687a54.454,54.454,0,0,1-12.16-1.341,40.1,40.1,0,0,1-10.751-4.038,22.076,22.076,0,0,1-7.224-6.163,14.054,14.054,0,0,1-1.473-2.572l-.147,20.493a11.082,11.082,0,0,0,2.245,6.557,21.077,21.077,0,0,0,6.91,5.874,39.1,39.1,0,0,0,10.483,3.934,54.715,54.715,0,0,0,23.82.007,38.442,38.442,0,0,0,10.384-3.91,20.953,20.953,0,0,0,6.808-5.811,11.07,11.07,0,0,0,2.239-6.475l.146-20.389c-1.438,3.191-4.344,6.111-8.519,8.485C87.485,458.614,79.4,460.514,70.795,460.514Z" fill="#fff"/>
    <path id="Path_21106" data-name="Path 21106" d="M70.728,460.5c-8.614,0-16.716-1.9-22.814-5.337a22.2,22.2,0,0,1-7.242-6.16,11.58,11.58,0,0,1-.05-14.214,21.886,21.886,0,0,1,7.141-6.117,39.436,39.436,0,0,1,10.654-4.015,54.158,54.158,0,0,1,12.108-1.334c8.631,0,16.768,1.91,22.911,5.378a22.075,22.075,0,0,1,7.214,6.142,11.58,11.58,0,0,1,.05,14.189,21.758,21.758,0,0,1-7.113,6.1,39.573,39.573,0,0,1-10.7,4.028A54.442,54.442,0,0,1,70.728,460.5Zm-.2-36.176a53.158,53.158,0,0,0-11.884,1.309,38.442,38.442,0,0,0-10.384,3.91,20.9,20.9,0,0,0-6.821,5.828,10.584,10.584,0,0,0,.048,13.049,21.224,21.224,0,0,0,6.922,5.873,38.782,38.782,0,0,0,10.424,3.9,54.893,54.893,0,0,0,23.835-.009,38.578,38.578,0,0,0,10.428-3.923,20.776,20.776,0,0,0,6.792-5.81,10.583,10.583,0,0,0-.048-13.025,21.094,21.094,0,0,0-6.893-5.855,39.1,39.1,0,0,0-10.483-3.934A53.455,53.455,0,0,0,70.525,424.326Z" fill="#fff"/>
    <path id="Path_21107" data-name="Path 21107" d="M70.7,392.919a18.853,18.853,0,0,1-9.094-2.133c-2.548-1.438-3.953-3.38-3.956-5.47s1.38-4,3.894-5.431a18.677,18.677,0,0,1,9.066-2.134,18.924,18.924,0,0,1,9.127,2.143c2.539,1.433,3.938,3.372,3.941,5.46s-1.375,4-3.879,5.421A18.749,18.749,0,0,1,70.7,392.919Zm-.09-14.168a17.671,17.671,0,0,0-8.572,2c-2.187,1.241-3.39,2.861-3.388,4.56s1.226,3.347,3.447,4.6a17.846,17.846,0,0,0,8.6,2,17.742,17.742,0,0,0,8.6-2.014c2.177-1.237,3.375-2.852,3.373-4.55s-1.221-3.342-3.432-4.59A17.917,17.917,0,0,0,70.609,378.751Z" fill="#fff"/>
    <path id="Path_21108" data-name="Path 21108" d="M70.7,449.509a18.853,18.853,0,0,1-9.094-2.133c-2.548-1.438-3.953-3.38-3.956-5.47s1.38-4,3.894-5.431a18.677,18.677,0,0,1,9.066-2.134,18.924,18.924,0,0,1,9.127,2.143c2.539,1.433,3.938,3.372,3.941,5.46s-1.375,4-3.879,5.421A18.749,18.749,0,0,1,70.7,449.509Zm-.09-14.168a17.671,17.671,0,0,0-8.572,2c-2.187,1.241-3.39,2.861-3.388,4.56s1.226,3.347,3.447,4.6a17.846,17.846,0,0,0,8.6,2,17.742,17.742,0,0,0,8.6-2.014c2.177-1.237,3.375-2.852,3.373-4.55s-1.221-3.342-3.432-4.59A17.917,17.917,0,0,0,70.609,435.341Z" fill="#fff"/>
  </g>
  <g id="_5" data-name="5">
    <path id="top-4" data-name="top" d="M362.68,413.67,246.65,481.1,129.86,413.68l116.03-67.43Z" fill="#00b2a9"/>
    <path id="Path_21110" data-name="Path 21110" d="M362.68,413.67l-.47,17.37L246.18,498.47l.47-17.37Z" fill="#3b93d2"/>
    <path id="Path_21111" data-name="Path 21111" d="M246.65,481.1l-.47,17.37L129.39,431.04l.47-17.36Z" fill="#007"/>
  </g>
  <g id="_4" data-name="4">
    <path id="top-5" data-name="top" d="M362.68,372.96,246.65,440.39,129.86,372.97l116.03-67.43Z" fill="#00b2a9"/>
    <path id="Path_21113" data-name="Path 21113" d="M362.68,372.96l-.47,17.37L246.18,457.76l.47-17.37Z" fill="#3b93d2"/>
    <path id="Path_21114" data-name="Path 21114" d="M246.65,440.39l-.47,17.37L129.39,390.33l.47-17.36Z" fill="#007"/>
  </g>
  <g id="_3" data-name="3">
    <path id="top-6" data-name="top" d="M362.68,332.25,246.65,399.68,129.86,332.25l116.03-67.43Z" fill="#00b2a9"/>
    <path id="Path_21116" data-name="Path 21116" d="M362.68,332.25l-.47,17.37L246.18,417.05l.47-17.37Z" fill="#3b93d2"/>
    <path id="Path_21117" data-name="Path 21117" d="M246.65,399.68l-.47,17.37L129.39,349.62l.47-17.37Z" fill="#007"/>
  </g>
  <g id="_2" data-name="2">
    <path id="top-7" data-name="top" d="M362.68,291.54,246.65,358.97,129.86,291.54l116.03-67.43Z" fill="#00b2a9"/>
    <path id="Path_21119" data-name="Path 21119" d="M362.68,291.54l-.47,17.37L246.18,376.34l.47-17.37Z" fill="#3b93d2"/>
    <path id="Path_21120" data-name="Path 21120" d="M246.65,358.97l-.47,17.37L129.39,308.91l.47-17.37Z" fill="#007"/>
  </g>
  <g id="_1" data-name="1">
    <path id="top-8" data-name="top" d="M362.68,250.83,246.65,318.26,129.86,250.83,245.89,183.4Z" fill="#00b2a9"/>
    <path id="Path_21122" data-name="Path 21122" d="M362.68,250.83l-.47,17.37L246.18,335.63l.47-17.37Z" fill="#3b93d2"/>
    <path id="Path_21123" data-name="Path 21123" d="M246.65,318.26l-.47,17.37L129.39,268.2l.47-17.37Z" fill="#007"/>
  </g>
  <path id="stroke-rectangle-big" d="M245.611,257.088l-26.638-15.376,26.477-15.389,26.638,15.387Zm-24.643-15.379,24.642,14.224,24.483-14.221-24.642-14.233Z" fill="#fff"/>
  <path id="stroke-rectangle" d="M474.879,100.5,493.1,111.018,475,121.538l-18.218-10.516ZM491.1,111.022l-16.222-9.364-16.1,9.361L475,120.382Z" fill="#fff"/>
  <g id="stroke-box">
    <path id="Path_21126" data-name="Path 21126" d="M545.5,438.532l26.878,15.516-26.707,15.519L518.8,454.051Zm24.883,15.519L545.5,439.688l-24.7,14.361,24.872,14.364Z" fill="#fff"/>
    <path id="Path_21127" data-name="Path 21127" d="M571.886,453.178l-.117,18.231-26.7,15.523.107-18.231Zm-1.114,17.653.1-15.909-24.706,14.357-.093,15.909Z" fill="#fff"/>
    <path id="Path_21128" data-name="Path 21128" d="M519.306,453.187,546.172,468.7l-.107,18.221-26.877-15.515,0-.291Zm25.863,16.091-24.874-14.365-.1,15.919L545.075,485.2Z" fill="#fff"/>
  </g>
  <path id="white-rectangle2" d="M337.25,507.24l-17.34,10.07-17.45-10.07,17.34-10.08Z" fill="#fff"/>
  <path id="white-rectangle" d="M30.59,253.15l-15.25,8.86L0,253.15l15.24-8.86Z" fill="#fff"/>
  <path id="white-circle-small" d="M432.38,268.5c-5.1-2.94-5.13-7.71-.06-10.65,5.05-2.93,13.27-2.93,18.37.01,5.08,2.93,5.11,7.69.06,10.63-5.07,2.94-13.29,2.94-18.37.01Z" fill="#fff"/>
  <path id="white-circle-big" d="M55.95,533.75c-8.38-4.73-8.43-12.39-.1-17.12s21.81-4.71,30.2.02c8.35,4.71,8.39,12.37.1,17.08-8.33,4.73-21.85,4.73-30.19.02Z" fill="#fff"/>
</svg>
