<svg xmlns="http://www.w3.org/2000/svg" xmlns:xlink="http://www.w3.org/1999/xlink" width="525.951" height="443.128" viewBox="0 0 525.951 443.128">
  <defs>
    <clipPath id="clip-path">
      <path id="Path_21390" data-name="Path 21390" d="M94.19,34.084c-.039.116-.116.244-.167.372a17.261,17.261,0,0,1-2.439,3.876c-.205.244-.488.5-.719.757a30.338,30.338,0,0,1-3.375,3.234c-.334.282-.655.552-1.027.847a52.958,52.958,0,0,1-5.737,3.863,65.713,65.713,0,0,1-6.661,3.324c-.732.308-1.476.552-2.208.834-1.463.552-2.913,1.091-4.377,1.527-1.72.513-3.414.924-5.108,1.284-.963.205-1.938.488-2.888.629-.475.09-.95.141-1.437.218-1.925.27-3.838.475-5.724.578l-.6.038a55.475,55.475,0,0,1-6.392-.1l-.359-.013a51.9,51.9,0,0,1-6.2-.86h-.038a41.541,41.541,0,0,1-5.057-1.425c-.308-.1-.616-.193-.924-.308a31.041,31.041,0,0,1-4.608-2.131c-4.62-2.67-6.854-6.161-6.841-10.127V40.36l-.488-.282-.09,31.394.488.27v.141c-.013,3.966,2.22,7.47,6.841,10.127a29.294,29.294,0,0,0,4.03,1.938c.18.077.4.128.59.193.3.116.616.205.911.308.642.218,1.258.462,1.938.667,1.014.282,2.041.539,3.106.757h.064c.95.205,1.925.372,2.926.526.988.128,1.989.244,3.029.334h.231l.372.026c.847.064,1.694.116,2.58.141.372.013.744.013,1.117.013h.205c.706,0,1.412-.013,2.131-.039l.347-.026c.193,0,.411-.026.616-.039.988-.051,1.977-.09,2.99-.193.9-.1,1.823-.257,2.721-.385.488-.077.963-.116,1.45-.193.244-.051.5-.077.757-.116.706-.128,1.412-.372,2.118-.526,1.694-.372,3.388-.757,5.108-1.284.347-.115.693-.154,1.04-.257,1.129-.359,2.22-.847,3.337-1.271.732-.3,1.476-.539,2.208-.847a60.65,60.65,0,0,0,6.661-3.311c.3-.18.6-.359.886-.539.488-.282.757-.59,1.206-.873A46.122,46.122,0,0,0,88,73.139c.27-.244.693-.462.95-.706a23.162,23.162,0,0,0,1.822-1.951c.231-.27.5-.513.732-.783.077-.09.205-.193.282-.3a22.956,22.956,0,0,0,1.566-2.31c.231-.424.385-.834.578-1.258l.18-.359c.051-.128.128-.257.18-.372a12.012,12.012,0,0,0,.5-1.784,8.321,8.321,0,0,0,.193-1.669L95,61.4l.09-31.381a10.8,10.8,0,0,1-.9,4.069" transform="translate(-20.724 -30.015)" fill="none"/>
    </clipPath>
    <linearGradient id="linear-gradient" y1="0.585" x2="1" y2="0.584" gradientUnits="objectBoundingBox">
      <stop offset="0" stop-color="#3b93d2"/>
      <stop offset="0.994" stop-color="#3b93d2"/>
      <stop offset="1" stop-color="#3b93d2"/>
    </linearGradient>
    <clipPath id="clip-path-2">
      <rect id="Rectangle_5588" data-name="Rectangle 5588" width="525.951" height="442.128" fill="none"/>
    </clipPath>
    <clipPath id="clip-path-3">
      <path id="Path_21337" data-name="Path 21337" d="M41.063,13.805l-.013.1a8.584,8.584,0,0,1-1.065,1.951,3.114,3.114,0,0,1-.18.257,13.437,13.437,0,0,1-1.617,1.733A17.861,17.861,0,0,1,36.4,19.17c-.359.231-.655.5-1.04.719a25.334,25.334,0,0,1-6.084,2.439c-.321.077-.642.154-.975.244a31.066,31.066,0,0,1-6.687.847h-.244a31.082,31.082,0,0,1-7.213-.809l-.282-.051A26.079,26.079,0,0,1,7.1,19.889c-4.2-2.426-6.186-5.339-6.173-8.2L.839,30.234c0,2.862,1.977,5.776,6.173,8.2A22.916,22.916,0,0,0,10.26,40a23.9,23.9,0,0,0,2.5.847c.347.1.693.167,1.027.244l.282.09c.257.051.5.128.744.167.616.141,1.258.244,1.874.334s1.206.154,1.823.205,1.194.077,1.81.1c.321,0,.655-.013.975-.013h.911c.693-.026,1.373-.077,2.054-.141.834-.077,1.669-.193,2.477-.347.5-.09.988-.257,1.489-.372.334-.077.642-.167.963-.244.436-.116.886-.193,1.3-.321a24.529,24.529,0,0,0,4.8-2.118l.257-.154c.308-.18.5-.385.783-.565a19.625,19.625,0,0,0,1.758-1.322,1.609,1.609,0,0,0,.218-.167,12.987,12.987,0,0,0,1.3-1.386l.116-.167c.077-.09.116-.193.193-.27.167-.257.359-.5.5-.757a8.759,8.759,0,0,0,.526-1.117l.013-.064.039-.116a7.865,7.865,0,0,0,.257-.9V30.9a4.381,4.381,0,0,0,.128-.693l.09-18.559a6.281,6.281,0,0,1-.4,2.156" transform="translate(-0.839 -11.649)" fill="none"/>
    </clipPath>
    <linearGradient id="linear-gradient-2" y1="0.585" x2="1" y2="0.584" gradientUnits="objectBoundingBox">
      <stop offset="0" stop-color="#007"/>
      <stop offset="0.994" stop-color="#3b93d2"/>
      <stop offset="1" stop-color="#3b93d2"/>
    </linearGradient>
    <clipPath id="clip-path-5">
      <path id="Path_21339" data-name="Path 21339" d="M13.484,11.957l-.359.026H13.06l-.257.026c-.385.038-.8.09-1.245.167-.9.167-1.938.424-3.119.757L8.35,44.313a25.433,25.433,0,0,1,4.62-.95h.077a4.882,4.882,0,0,1,2.734.436c.59.334.9.706.886,1.129l.09-31.381c0-.424-.308-.8-.886-1.142l-.372-.18-.308-.1-.282-.064-.282-.051-.308-.039-.372-.026c-.154,0-.308,0-.462.013" transform="translate(-8.35 -11.944)" fill="none"/>
    </clipPath>
    <clipPath id="clip-path-7">
      <path id="Path_21340" data-name="Path 21340" d="M14.8,12.835l-.064.013h-.026c-.218.013-.436.026-.667.051-.424.039-.847.1-1.322.18-.821.154-1.746.372-2.759.667L9.883,45.127a21.08,21.08,0,0,1,4.736-.886h.039a5.363,5.363,0,0,1,2.978.552c.5.3.744.59.744.911l.1-31.394c0-.321-.244-.616-.757-.9a4.321,4.321,0,0,0-.488-.244l-.372-.116-.347-.09-.359-.051-.359-.051c-.154-.013-.3-.026-.449-.026H14.8" transform="translate(-9.883 -12.835)" fill="none"/>
    </clipPath>
    <clipPath id="clip-path-10">
      <path id="Path_21347" data-name="Path 21347" d="M20.869,15.152c-.488.013-.988.038-1.476.09-.193.026-.385.051-.59.09l-.359.051c-.321.039-.642.077-.963.128a28.378,28.378,0,0,0-3.594.911l-.18.051-.1,31.394a27.156,27.156,0,0,1,4.749-1.1l.359-.051a21.333,21.333,0,0,1,4.5-.116h.013a19.628,19.628,0,0,1,4.235.821l.359.128a21.276,21.276,0,0,1,3.927,1.733c2.644,1.54,3.889,3.119,3.889,4.787l.09-31.394c.013-1.656-1.245-3.247-3.889-4.774a19,19,0,0,0-2.824-1.36c-.359-.154-.732-.257-1.1-.385l-.347-.116-.411-.141c-.462-.128-.937-.257-1.425-.347-.4-.077-.821-.154-1.232-.218s-.783-.09-1.181-.128h-.013c-.385-.026-.783-.051-1.168-.064-.18-.013-.359-.013-.539-.013-.244,0-.488.013-.732.026" transform="translate(-13.605 -15.126)" fill="none"/>
    </clipPath>
    <linearGradient id="linear-gradient-6" x1="-7.887" y1="6.369" x2="-7.307" y2="6.369" gradientUnits="objectBoundingBox">
      <stop offset="0" stop-color="#007"/>
      <stop offset="0.771" stop-color="#007"/>
      <stop offset="0.873" stop-color="#3b93d2"/>
      <stop offset="1" stop-color="#3b93d2"/>
    </linearGradient>
    <clipPath id="clip-path-11">
      <path id="Path_21348" data-name="Path 21348" d="M14.049,16.6a8.185,8.185,0,0,0-.719,1.065c-.064.116-.09.218-.154.321l-.077.18-.205.411a5.288,5.288,0,0,0-.231.821,6.241,6.241,0,0,0-.1.821v.116l-.077,31.394A5.258,5.258,0,0,1,13,49.545l.1-.167a8.517,8.517,0,0,1,1.579-2.208l.09-31.394c-.257.27-.5.552-.719.821" transform="translate(-12.483 -15.777)" fill="none"/>
    </clipPath>
    <linearGradient id="linear-gradient-7" x1="-70.129" y1="6.666" x2="-64.511" y2="6.666" gradientUnits="objectBoundingBox">
      <stop offset="0" stop-color="#007"/>
      <stop offset="0.087" stop-color="#007"/>
      <stop offset="0.873" stop-color="#3b93d2"/>
      <stop offset="1" stop-color="#3b93d2"/>
    </linearGradient>
    <clipPath id="clip-path-13">
      <path id="Path_21351" data-name="Path 21351" d="M10.673,47.3c-.013,6.443,5.108,12.886,14.349,18.212a59.667,59.667,0,0,0,7.11,3.363c.3.116.5.257.809.372.655.257,1.4.462,2.079.706,1.412.513,2.824,1,4.338,1.463.5.154.95.334,1.45.488.886.257,1.823.436,2.734.667.86.231,1.694.449,2.554.629.4.09.783.205,1.168.3v-.077c1.964.411,3.927.809,5.9,1.078l.09-31.381c-2.362-.321-4.736-.783-7.059-1.3-.873-.193-1.72-.424-2.567-.629-1.425-.359-2.811-.744-4.184-1.168-1.5-.449-2.939-.95-4.338-1.45-.988-.359-1.964-.706-2.888-1.091a59.667,59.667,0,0,1-7.11-3.363,37.149,37.149,0,0,1-10.64-8.676A18.76,18.76,0,0,1,11.7,20.718a13.243,13.243,0,0,1-.937-4.8Z" transform="translate(-10.673 -15.918)" fill="none"/>
    </clipPath>
    <clipPath id="clip-path-16">
      <path id="Path_21353" data-name="Path 21353" d="M0,38.559c-.013,2.862,1.977,5.776,6.186,8.2a23.442,23.442,0,0,0,3.234,1.553,26.094,26.094,0,0,0,2.5.86c.347.09.693.154,1.027.244l.282.077c.244.051.488.128.744.167.629.141,1.245.244,1.887.334.6.09,1.194.154,1.8.205s1.219.077,1.81.1c.334,0,.655-.013.975-.013h.244c.218,0,.449.013.68,0,.68-.026,1.373-.064,2.054-.141.834-.077,1.656-.193,2.477-.347.5-.09.975-.257,1.476-.372l.988-.231c.424-.115.873-.193,1.283-.334a24.812,24.812,0,0,0,4.787-2.1l.27-.167c.3-.167.5-.385.77-.565a16.3,16.3,0,0,0,1.771-1.322l.231-.154a12.836,12.836,0,0,0,1.283-1.386l.116-.18a3.112,3.112,0,0,0,.18-.257,8.921,8.921,0,0,0,.513-.77,8.615,8.615,0,0,0,.526-1.1l.013-.077.039-.116a7.187,7.187,0,0,0,.257-.9c.077-.359.116-13.553.116-13.913l.013-.167.077-5.57a6.73,6.73,0,0,1-.372,2l-.039.116a8.444,8.444,0,0,1-1.052,1.938l-.18.27a12.7,12.7,0,0,1-1.63,1.72,15.319,15.319,0,0,1-1.784,1.322c-.359.231-.642.5-1.027.719a25.669,25.669,0,0,1-6.071,2.439c-.334.077-.667.167-.988.244a30.5,30.5,0,0,1-6.7.86h-.231a31.619,31.619,0,0,1-7.213-.8l-.282-.077A25.808,25.808,0,0,1,6.263,28.2C2.054,25.776.077,22.863.09,20ZM40.609,20.116v0Z" transform="translate(0 -19.962)" fill="none"/>
    </clipPath>
    <clipPath id="clip-path-18">
      <path id="Path_21355" data-name="Path 21355" d="M11.315,20.438l-.4.026a2.415,2.415,0,0,0-.424.064,3.092,3.092,0,0,0-.616.154A3.311,3.311,0,0,0,9.159,21l-.051.026a1.687,1.687,0,0,0-.4.3l-.18.167-.1.167-.064.141-.051.154-.013.154-.013,2.5-.077,28.9c0-.436.27-.8.847-1.129a5.729,5.729,0,0,1,3.812-.436l.026.013a15.405,15.405,0,0,1,4.916,1.887A31.015,31.015,0,0,1,30.464,67l.077-31.394c-2.387-5.147-6.995-9.883-12.642-13.143a19.351,19.351,0,0,0-2.439-1.194,13.046,13.046,0,0,0-1.309-.436c-.282-.077-.565-.141-.834-.205a1.4,1.4,0,0,0-.334-.051l-.026-.013-.27-.051a3.478,3.478,0,0,0-.513-.051c-.154-.013-.3-.026-.449-.026h-.411" transform="translate(-8.209 -20.438)" fill="none"/>
    </clipPath>
    <clipPath id="clip-path-19">
      <path id="Path_21356" data-name="Path 21356" d="M6.288,51.7c-.013,3.709,2.875,8.227,9.228,13.926,5.339,4.749,8.034,7.008,8.034,8.458l.09-31.381c0-1.463-2.7-3.709-8.022-8.458C9.253,28.537,6.378,24.032,6.391,20.31Z" transform="translate(-6.288 -20.31)" fill="none"/>
    </clipPath>
    <clipPath id="clip-path-21">
      <path id="Path_21369" data-name="Path 21369" d="M4.072,52.34c2.4,6.661,8.984,14.709,18.4,20.15a76.114,76.114,0,0,0,9.254,4.479c.372.167.757.411,1.117.552.552.218,1.078.359,1.617.552.988.359,1.951.68,2.913.975.552.18,1.1.411,1.643.578.847.231,1.669.411,2.49.6.4.09.8.205,1.181.3.193.038.424.116.616.141,1.142.244,2.272.449,3.388.59.462.077.924.1,1.386.167.218.026.436.051.667.064.27.039.565.09.834.1.9.077,1.758.116,2.631.141v-.077c6.34.154,11.936-1.014,16.2-3.491,4.133-2.4,6.379-4.89,6.392-7.983l.09-31.381c-.013,3.093-2.259,5.583-6.392,7.983C63.471,49.7,56.643,50.89,48.839,50.107c-.231-.026-.449-.051-.68-.064-1.746-.218-3.542-.5-5.378-.911-.385-.09-.783-.193-1.168-.282-1.373-.321-2.759-.744-4.146-1.181-.963-.3-1.925-.629-2.9-.975-.911-.334-1.835-.719-2.747-1.1A78.343,78.343,0,0,1,22.554,41.1C13.133,35.655,6.562,27.621,4.162,20.934Z" transform="translate(-4.072 -20.934)" fill="none"/>
    </clipPath>
    <clipPath id="clip-path-23">
      <path id="Path_21371" data-name="Path 21371" d="M13.027,54.913a48.131,48.131,0,0,1,7.059.59l.193.039a17.579,17.579,0,0,1,5.673,2.015c2,1.155,2.978,2.259,2.978,3.4l.077-31.381c.013-1.155-.963-2.259-2.965-3.414A17.252,17.252,0,0,0,23.9,25.136q-.789-.308-1.617-.539c-.475-.141-.975-.27-1.489-.372l-.424-.064-.18-.039c-.334-.051-.68-.128-1.027-.167-.693-.116-1.4-.18-2.131-.244-1.219-.09-2.5-.154-3.915-.193Z" transform="translate(-13.027 -23.519)" fill="none"/>
    </clipPath>
    <clipPath id="clip-path-24">
      <rect id="Rectangle_5619" data-name="Rectangle 5619" width="525.951" height="442.128" transform="translate(0 -1)" fill="none"/>
    </clipPath>
    <clipPath id="clip-path-26">
      <path id="Path_21375" data-name="Path 21375" d="M38.735,26.4c-.424.026-.847.051-1.271.1-.205.013-.424.051-.629.077l-.244.039c-.27.038-.539.064-.821.115a24.972,24.972,0,0,0-3.337.847c-.231.077-.475.244-.693.308a41.95,41.95,0,0,0-6.944,3.2l-.719.424c-.193.116-.308.244-.5.359a29.889,29.889,0,0,0-3.517,2.554c-.167.141-.436.282-.578.411s-.218.244-.334.372c-.18.167-.321.321-.475.488-.18.205-.411.411-.565.616a8.925,8.925,0,0,0-.693,1.014l-.064.141-.051.115a4.822,4.822,0,0,0-.244.526,3.711,3.711,0,0,0-.205.68v.449c-.013.1-.077.193-.077.282L16.7,70.9a4.292,4.292,0,0,1,.513-1.938l.051-.1A8.435,8.435,0,0,1,18.6,67.084c.141-.167.3-.334.449-.5.27-.244.616-.513.924-.783a31.018,31.018,0,0,1,3.517-2.541c.424-.257.757-.526,1.219-.8a39.752,39.752,0,0,1,6.944-3.17A25.915,25.915,0,0,1,36.5,58.01l.244-.039a17.35,17.35,0,0,1,5.288.051l.1.013a14.961,14.961,0,0,1,4.941,1.784c2.426,1.4,3.542,2.926,3.53,4.543l.09-31.394c0-1.6-1.117-3.132-3.53-4.531a14.529,14.529,0,0,0-2.015-.975A13.052,13.052,0,0,0,43.792,27q-.539-.154-1.078-.27c-.167-.038-.334-.051-.488-.09l-.1-.013c-.128-.013-.27-.051-.4-.077-.308-.039-.642-.064-.963-.1s-.642-.051-.963-.051H38.735" transform="translate(-16.698 -26.398)" fill="none"/>
    </clipPath>
    <clipPath id="clip-path-28">
      <path id="Path_21386" data-name="Path 21386" d="M95.246,31.128l-.1.334a17.084,17.084,0,0,1-1.964,3.722c-.128.193-.244.372-.372.552A23.369,23.369,0,0,1,89.535,39.2,33.751,33.751,0,0,1,85.9,41.883c-.783.526-1.386,1.078-2.272,1.579C69.834,51.5,52.4,52.2,38.517,48.352l.051-18.61a5.818,5.818,0,0,0-.077.642v.09L38.44,48.326a50.7,50.7,0,0,1-5.48-1.784,44.464,44.464,0,0,1-5.93-2.836c-7.56-4.377-12.09-10.293-12.065-16.467l-.1,31.381c0,6.173,4.5,12.1,12.077,16.48a46.935,46.935,0,0,0,5.93,2.836l.064.039v-.013c14.529,5.737,34.923,6.019,50.607-3.093.231-.141.385-.3.6-.424v.064c.655-.4,1.065-.834,1.681-1.245a33.5,33.5,0,0,0,3.619-2.67c.128-.116.321-.218.436-.321a23.618,23.618,0,0,0,2.541-2.721c.1-.141.18-.282.3-.424.128-.193.231-.372.359-.565.321-.436.655-.886.911-1.322a16.845,16.845,0,0,0,1-2.143,2.328,2.328,0,0,0,.064-.244,1.859,1.859,0,0,0,.09-.334,11.282,11.282,0,0,0,.449-1.514,12.327,12.327,0,0,0,.244-2.143l.013-.321.09-31.381a13.093,13.093,0,0,1-.693,3.966" transform="translate(-14.863 -27.162)" fill="none"/>
    </clipPath>
    <clipPath id="clip-path-30">
      <path id="Path_21388" data-name="Path 21388" d="M23.4,29.388l-.09,31.394c1.258-.039,2.374-.013,3.44.039.141.013.282.026.436.026,1.027.077,1.964.205,2.849.359l.154.038a14.448,14.448,0,0,1,2.362.655l.308.1a15.283,15.283,0,0,1,2.22,1.052c2.143,1.232,3.26,2.567,3.26,4.069l.1-31.381c0-1.5-1.129-2.836-3.273-4.081a15.936,15.936,0,0,0-2.054-.988l-.18-.064-.3-.09c-.321-.116-.642-.244-.975-.334-.4-.116-.821-.218-1.271-.321l-.128-.013-.141-.026c-.334-.064-.667-.128-1.014-.18-.462-.064-.95-.128-1.476-.154l-.372-.026-.436-.026c-.347-.013-.693-.051-1.078-.051-.3-.013-.616-.013-.937-.013-.449,0-.924,0-1.412.013" transform="translate(-23.313 -29.375)" fill="none"/>
    </clipPath>
    <linearGradient id="linear-gradient-17" x1="-19.774" y1="1.725" x2="-18.925" y2="1.725" gradientUnits="objectBoundingBox">
      <stop offset="0" stop-color="#007"/>
      <stop offset="0.692" stop-color="#3b93d2"/>
      <stop offset="1" stop-color="#3b93d2"/>
    </linearGradient>
    <clipPath id="clip-path-34">
      <path id="Path_21394" data-name="Path 21394" d="M37.392,48.683a14.119,14.119,0,0,0,1.476,6.148l.077-31.381a14.518,14.518,0,0,1-1.463-6.161Z" transform="translate(-37.392 -17.289)" fill="none"/>
    </clipPath>
    <clipPath id="clip-path-35">
      <path id="Path_21395" data-name="Path 21395" d="M45.689,21.37l-.321.193c-.27.167-.475.372-.732.539a18.257,18.257,0,0,0-2.015,1.5c-.09.077-.205.128-.3.218a13.692,13.692,0,0,0-1.45,1.553l-.1.167-.167.244a8.231,8.231,0,0,0-.655.988,8.507,8.507,0,0,0-.642,1.335l-.026.09-.026.128a10.961,10.961,0,0,0-.347,1.155,9.12,9.12,0,0,0-.154,1.476l-.013.231L38.668,62.57a8.737,8.737,0,0,1,.488-2.849l.038-.141a9.559,9.559,0,0,1,1.322-2.4l.167-.257a14.592,14.592,0,0,1,1.848-1.938,19.024,19.024,0,0,1,2.041-1.5c.334-.231.655-.5,1.027-.719a51.093,51.093,0,0,1,10.922-4.646L56.6,16.737A50.675,50.675,0,0,0,45.689,21.37" transform="translate(-38.668 -16.737)" fill="none"/>
    </clipPath>
    <linearGradient id="linear-gradient-20" y1="0.392" x2="1" y2="0.335" gradientUnits="objectBoundingBox">
      <stop offset="0" stop-color="#007"/>
      <stop offset="0.481" stop-color="#3b93d2"/>
      <stop offset="1" stop-color="#3b93d2"/>
    </linearGradient>
    <clipPath id="clip-path-37">
      <path id="Path_21398" data-name="Path 21398" d="M41.716,20.469l-.116.013c-.141,0-.282-.013-.436,0-.3.013-.6.026-.911.064-.372.026-.744.09-1.091.141-.257.051-.488.128-.732.193a3.841,3.841,0,0,0-.411.1c-.18.038-.359.077-.526.128a10.817,10.817,0,0,0-2.246.988l-.141.09a7.975,7.975,0,0,0-1.335.975,6.56,6.56,0,0,0-.578.616l-.013.013a3.643,3.643,0,0,0-.321.5c-.09.154-.154.308-.231.462-.039.154-.09.3-.128.462a2.773,2.773,0,0,0-.038.449v.077l-.1,31.394a3.1,3.1,0,0,1,.744-1.951,7.069,7.069,0,0,1,2.041-1.694,12.177,12.177,0,0,1,2.772-1.129l.424-.1a13.4,13.4,0,0,1,3.17-.4h.116a14.789,14.789,0,0,1,3.607.462l.154.039a15.615,15.615,0,0,1,3.722,1.553h.013a10.388,10.388,0,0,1,2.926,2.349,3.65,3.65,0,0,1,.911,2.285l.077-31.381c.013-1.476-1.129-3.08-3.825-4.646a18.123,18.123,0,0,0-2.079-1c-.475-.18-.937-.347-1.412-.475l-.257-.064-.128-.038c-.231-.051-.475-.116-.706-.154a7.33,7.33,0,0,0-.924-.167c-.27-.051-.565-.077-.847-.1s-.565-.039-.834-.051h-.308" transform="translate(-32.36 -20.469)" fill="none"/>
    </clipPath>
    <clipPath id="clip-path-38">
      <path id="Path_21399" data-name="Path 21399" d="M53.276,24.122c-.051.1-.09.205-.154.308a15.064,15.064,0,0,1-2.1,3.067c-.244.282-.539.578-.809.86-.565.565-1.232,1.129-1.887,1.694a41.322,41.322,0,0,1-4.852,3.555c-.59.372-1.065.744-1.694,1.1v.013c-.988.565-2.1,1.142-3.375,1.733s-2.7,1.181-4.287,1.771l-.09,31.381c1.591-.59,3-1.181,4.287-1.771A36.709,36.709,0,0,0,41.673,66.1c.308-.167.59-.347.886-.5.321-.205.5-.411.821-.616a41.3,41.3,0,0,0,4.852-3.542c.257-.231.68-.449.937-.68.347-.334.616-.693.95-1.027.282-.282.552-.578.809-.86.18-.205.424-.411.578-.629A12.615,12.615,0,0,0,52.75,56.4a4.809,4.809,0,0,0,.282-.578l.154-.321a5.353,5.353,0,0,0,.282-.616,7.652,7.652,0,0,0,.4-1.348,6.239,6.239,0,0,0,.141-1.283v-.193l.1-31.381a8.457,8.457,0,0,1-.834,3.44" transform="translate(-34.024 -20.682)" fill="none"/>
    </clipPath>
    <clipPath id="clip-path-39">
      <path id="Path_21403" data-name="Path 21403" d="M34.091,22.973l-.077,31.381a3.62,3.62,0,0,1,.128-.924l.09-31.381a4.385,4.385,0,0,0-.141.924" transform="translate(-34.014 -22.049)" fill="none"/>
    </clipPath>
    <clipPath id="clip-path-40">
      <path id="Path_21404" data-name="Path 21404" d="M30.657,52.582c-.013,3.709,2.387,7.38,8,10.614A28.8,28.8,0,0,0,42.3,64.941c.359.128.732.231,1.091.359a8.29,8.29,0,0,0,.8.27c.334.116.667.244,1,.347.821.231,1.643.424,2.464.6.449.09.911.167,1.36.244.141.013.257.039.4.064l.513.09c.732.1,1.476.18,2.208.244s1.476.09,2.208.116h.642c.539,0,1.078.013,1.6-.013.8-.013,1.592-.077,2.374-.141.372-.051.757-.1,1.129-.141l.4.231.077-23.885.026-7.5-.411-.231a34.862,34.862,0,0,1-5.108.282l-.321.013a38.319,38.319,0,0,1-5.237-.462c-.141-.013-.282-.051-.424-.064a36.074,36.074,0,0,1-4.813-1.181c-.269-.077-.539-.18-.783-.27A27.591,27.591,0,0,1,38.756,31.8c-4.21-2.426-6.623-5.083-7.56-7.842a8.254,8.254,0,0,1-.449-2.772Z" transform="translate(-30.657 -21.188)" fill="none"/>
    </clipPath>
    <linearGradient id="linear-gradient-23" y1="0.559" x2="1" y2="0.568" gradientUnits="objectBoundingBox">
      <stop offset="0" stop-color="#007"/>
      <stop offset="0.312" stop-color="#007"/>
      <stop offset="0.692" stop-color="#3b93d2"/>
      <stop offset="1" stop-color="#3b93d2"/>
    </linearGradient>
    <clipPath id="clip-path-41">
      <path id="Path_21405" data-name="Path 21405" d="M59.111,22.134c-.154,0-.3.013-.449.026l-.6.09c-.308.064-.616.154-.924.244l-.3.064-.205.051a17.3,17.3,0,0,0-1.938.834c-.334.141-.629.231-.975.4-1.1.552-2.31,1.206-3.619,1.977l-5.378,3.119a47.756,47.756,0,0,1-8.882,4.4,7.67,7.67,0,0,0-.193.783,3.1,3.1,0,0,0-.09.744v.09l-.1,31.381a5.411,5.411,0,0,1,.3-1.6,48.606,48.606,0,0,0,8.882-4.4L50,57.211c1.335-.783,2.541-1.438,3.645-1.977.334-.18.629-.257.95-.411a20.162,20.162,0,0,1,2.169-.873,1.816,1.816,0,0,1,.282-.077,7.838,7.838,0,0,1,2.451-.347h.026a4.748,4.748,0,0,1,2.233.655,1.954,1.954,0,0,1,1.117,1.746l.09-31.394A1.95,1.95,0,0,0,61.845,22.8a3.331,3.331,0,0,0-.642-.321,4.616,4.616,0,0,0-.449-.154l-.359-.09-.308-.051-.308-.039-.18-.013h-.488" transform="translate(-35.457 -22.134)" fill="none"/>
    </clipPath>
    <clipPath id="clip-path-43">
      <path id="Path_21409" data-name="Path 21409" d="M32.947,53.921A7.93,7.93,0,0,0,37.2,60.954a19.494,19.494,0,0,0,2.387,1.168c.321.1.642.205.95.321.128.026.244.077.372.116s.269.1.411.141q.712.193,1.425.347c.449.09.9.167,1.335.231l.269.026.205.026c.3.039.59.077.886.1.5.039.988.064,1.489.077.347,0,.706-.013,1.065-.013h.667c.77-.026,1.527-.077,2.285-.154V63.3c.334-.026.655-.026.975-.064l.09-31.381c-1.194.141-2.4.218-3.619.257h-.308a28.142,28.142,0,0,1-3.453-.167l-.193-.026a20.373,20.373,0,0,1-3.44-.757c-.116-.026-.244-.077-.359-.116A17.071,17.071,0,0,1,37.3,29.573a7.958,7.958,0,0,1-4.261-7.033Z" transform="translate(-32.947 -22.54)" fill="none"/>
    </clipPath>
    <linearGradient id="linear-gradient-25" x1="0.067" y1="0.633" x2="1" y2="0.627" gradientUnits="objectBoundingBox">
      <stop offset="0" stop-color="#007"/>
      <stop offset="0.322" stop-color="#007"/>
      <stop offset="0.773" stop-color="#3b93d2"/>
      <stop offset="1" stop-color="#3b93d2"/>
    </linearGradient>
    <clipPath id="clip-path-45">
      <path id="Path_21417" data-name="Path 21417" d="M76.339,43.564c-2.156,1.258-4.364,2.362-6.559,3.414-.578.27-1.155.526-1.733.783q-2.926,1.309-5.814,2.285c-.308.1-.629.231-.937.334a49.339,49.339,0,0,1-5.724,1.463,37.813,37.813,0,0,1-4.2.578c-.167.013-.321.026-.488.026a28.361,28.361,0,0,1-4.312-.039l-.154-.026A21.275,21.275,0,0,1,42.3,51.6l-.231-.077A18.781,18.781,0,0,1,38.31,49.9a8.77,8.77,0,0,1-2.939-2.567,5.43,5.43,0,0,1-.937-3.119l-.1,31.394c0,2.259,1.258,4.146,3.889,5.673a17.033,17.033,0,0,0,2.336,1.129c.462.193.95.347,1.437.5l.205.064.18.064c.5.141.988.27,1.5.372.475.09.95.18,1.425.244.334.051.68.077,1.027.1l.154.026.244.026c.5.051,1,.064,1.514.077.565.013,1.142.013,1.733-.013.269,0,.552-.026.834-.039l.475-.039c.269-.026.539-.038.821-.051,1-.1,2.015-.244,3.042-.436a2.532,2.532,0,0,0,.334-.09,51.977,51.977,0,0,0,5.724-1.45l.205-.051c.257-.077.5-.205.744-.282,1.925-.667,3.85-1.425,5.788-2.3.578-.244,1.155-.5,1.745-.783,2.195-1.04,4.39-2.156,6.559-3.414l1.412-.834v-.1c11.923-7.226,18.2-14.567,18.225-20.664l.09-31.394C95.95,28.316,89.3,36.03,76.339,43.564" transform="translate(-34.331 -21.95)" fill="none"/>
    </clipPath>
    <clipPath id="clip-path-46">
      <path id="Path_21418" data-name="Path 21418" d="M28.448,44.391c-.013,3,2.143,5.955,6.148,8.266a24.168,24.168,0,0,0,3.17,1.54q1.232.481,2.541.847c.218.064.462.116.693.18l.308.064c.372.09.732.205,1.1.282.642.128,1.271.244,1.925.321.6.09,1.219.167,1.835.205.6.064,1.206.09,1.823.1.141,0,.282-.013.424,0a.841.841,0,0,1,.18,0c.424,0,.847,0,1.283-.013.693-.013,1.373-.064,2.054-.128.8-.09,1.592-.193,2.387-.334.4-.077.77-.205,1.168-.3.321-.064.629-.154.937-.231.539-.141,1.078-.231,1.617-.4a26.051,26.051,0,0,0,4.8-2.143l.3-.154c.308-.193.488-.4.77-.578a18.173,18.173,0,0,0,1.823-1.348c.077-.064.18-.116.231-.167a12.243,12.243,0,0,0,1.258-1.36l.128-.18c.077-.09.116-.18.18-.27.154-.231.347-.475.488-.719a7.06,7.06,0,0,0,.488-1.052l.039-.1.039-.128c.09-.269.167-.552.231-.821a7.372,7.372,0,0,0,.128-1.052v-.167l.077-18.546a6.534,6.534,0,0,1-.347,2.028l-.051.141a8.33,8.33,0,0,1-1,1.874,2.454,2.454,0,0,0-.18.269,12.265,12.265,0,0,1-1.6,1.694A15.083,15.083,0,0,1,64,33.366c-.372.244-.655.513-1.065.744a25.175,25.175,0,0,1-6.417,2.541l-.937.231a31.778,31.778,0,0,1-6.892.77H48.5a31.922,31.922,0,0,1-7.11-.911l-.282-.064a25.9,25.9,0,0,1-6.43-2.567c-3.992-2.31-6.148-5.275-6.148-8.278Z" transform="translate(-28.448 -25.832)" fill="none"/>
    </clipPath>
    <clipPath id="clip-path-48">
      <path id="Path_21422" data-name="Path 21422" d="M22.944,133.022a2.478,2.478,0,0,0,1.463,2.041,7.736,7.736,0,0,0,7.021.013,2.486,2.486,0,0,0,1.45-2.028L32.9,2.879a2.486,2.486,0,0,1-1.45,2.028,7.736,7.736,0,0,1-7.021-.013,2.47,2.47,0,0,1-1.476-2.041Z" transform="translate(-22.944 -2.853)" fill="none"/>
    </clipPath>
  </defs>
  <g id="illustration-free-domain" transform="translate(0 1)">
    <g id="Group_15245" data-name="Group 15245" transform="translate(88.203 164.167)">
      <g id="Group_15244" data-name="Group 15244" clip-path="url(#clip-path)">
        <rect id="Rectangle_5629" data-name="Rectangle 5629" width="21.364" height="56.896" transform="translate(53 0.003)" fill="url(#linear-gradient)"/>
      </g>
    </g>
    <path id="Path_21453" data-name="Path 21453" d="M23.308,2.4V31.855H42.818V.666Z" transform="translate(104.242 275.041)" fill="#3b93d2"/>
    <path id="Path_21309" data-name="Path 21309" d="M9.043,9.964l8.266,4.775,8.2-4.775L17.257,5.19Z" transform="translate(107.023 61.417)" fill="#00b2a9"/>
    <path id="Path_21310" data-name="Path 21310" d="M11.187,11.2l8.266,4.775,8.2-4.775L19.4,6.427Z" transform="translate(132.394 76.063)" fill="#00b2a9"/>
    <path id="Path_21311" data-name="Path 21311" d="M13.331,12.427,21.6,17.2l8.2-4.775L21.545,7.666Z" transform="translate(157.765 90.72)" fill="#00b2a9"/>
    <path id="Path_21312" data-name="Path 21312" d="M15.475,13.678l8.265,4.775,8.2-4.775L23.689,8.9Z" transform="translate(183.137 105.364)" fill="#00b2a9"/>
    <path id="Path_21313" data-name="Path 21313" d="M17.618,14.915l8.265,4.775,8.2-4.775-8.253-4.774Z" transform="translate(208.508 120.009)" fill="#00b2a9"/>
    <path id="Path_21314" data-name="Path 21314" d="M19.762,16.153l8.253,4.775,8.214-4.775-8.253-4.774Z" transform="translate(233.879 134.655)" fill="#00b2a9"/>
    <path id="Path_21315" data-name="Path 21315" d="M39.05,17.146l8.214,4.775,8.253-4.775-8.2-4.774Z" transform="translate(462.144 146.414)" fill="#19a69d"/>
    <path id="Path_21316" data-name="Path 21316" d="M36.906,18.384l8.214,4.775,8.253-4.775-8.2-4.774Z" transform="translate(436.773 161.059)" fill="#19a69d"/>
    <path id="Path_21317" data-name="Path 21317" d="M34.763,19.621,42.977,24.4l8.253-4.775-8.2-4.774Z" transform="translate(411.402 175.704)" fill="#19a69d"/>
    <path id="Path_21318" data-name="Path 21318" d="M32.619,20.86l8.214,4.775,8.253-4.775-8.2-4.774Z" transform="translate(386.031 190.36)" fill="#19a69d"/>
    <path id="Path_21319" data-name="Path 21319" d="M30.475,22.1l8.214,4.775L46.942,22.1l-8.2-4.774Z" transform="translate(360.66 205.006)" fill="#19a69d"/>
    <path id="Path_21320" data-name="Path 21320" d="M28.331,23.335l8.214,4.774L44.8,23.335,36.584,18.56Z" transform="translate(335.289 219.651)" fill="#19a69d"/>
    <path id="Path_21321" data-name="Path 21321" d="M162.88,59.738,90.505,101.8,17.656,59.738,90.03,17.679Z" transform="translate(208.95 209.219)" fill="#89bee4"/>
    <path id="Path_21322" data-name="Path 21322" d="M17.656,20.956V55.686L90.21,97.579l.3-34.564Z" transform="translate(208.95 248.001)" fill="#007"/>
    <path id="Path_21323" data-name="Path 21323" d="M22,29.715,26.11,32.09l.051-5.083L22,24.62Z" transform="translate(260.4 291.368)" fill="#89bee4"/>
    <path id="Path_21324" data-name="Path 21324" d="M57.468,45.085l-38.812-22.4v5.1l38.812,22.4Z" transform="translate(220.784 268.503)" fill="#89bee4"/>
    <path id="Path_21325" data-name="Path 21325" d="M162.88,55.913,90.505,97.973,17.656,55.913,90.03,13.854Z" transform="translate(208.95 163.958)" fill="#89bee4"/>
    <path id="Path_21326" data-name="Path 21326" d="M17.656,17.131V51.862L90.21,93.754l.3-34.564Z" transform="translate(208.95 202.741)" fill="#007"/>
    <path id="Path_21327" data-name="Path 21327" d="M22,25.9l4.107,2.374.051-5.083L22,20.795Z" transform="translate(260.4 246.099)" fill="#89bee4"/>
    <path id="Path_21328" data-name="Path 21328" d="M57.468,41.26l-38.812-22.4v5.1l38.812,22.4Z" transform="translate(220.784 223.243)" fill="#89bee4"/>
    <path id="Path_21329" data-name="Path 21329" d="M162.88,52.089,90.505,94.148,17.656,52.089,90.03,10.03Z" transform="translate(208.95 118.698)" fill="#89bee4"/>
    <path id="Path_21330" data-name="Path 21330" d="M17.656,13.307V48.037L90.21,89.93l.3-34.564Z" transform="translate(208.95 157.48)" fill="#007"/>
    <path id="Path_21439" data-name="Path 21439" d="M90.5,13.307V48.038L17.951,89.93l-.3-34.564Z" transform="translate(281.021 157.481)" fill="#3b93d2"/>
    <path id="Path_21440" data-name="Path 21440" d="M90.5,13.307V48.038L17.951,89.93l-.3-34.564Z" transform="translate(281.021 206.563)" fill="#3b93d2"/>
    <path id="Path_21441" data-name="Path 21441" d="M90.5,13.307V48.038L17.951,89.93l-.3-34.564Z" transform="translate(281.021 255.648)" fill="#3b93d2"/>
    <path id="Path_21331" data-name="Path 21331" d="M22,22.079l4.107,2.362.051-5.07L22,16.971Z" transform="translate(260.4 200.842)" fill="#89bee4"/>
    <path id="Path_21332" data-name="Path 21332" d="M57.468,37.436l-38.812-22.4v5.1l38.812,22.4Z" transform="translate(220.784 177.984)" fill="#89bee4"/>
    <path id="Path_21333" data-name="Path 21333" d="M78.406,28.386l-28.557,16.6L21.1,28.386l28.557-16.6Z" transform="translate(249.701 139.534)" fill="#00b2a9"/>
    <path id="Path_21334" data-name="Path 21334" d="M21.1,13.083v5.8L49.733,35.416l.116-5.737Z" transform="translate(249.704 154.836)" fill="#007"/>
    <path id="Path_21442" data-name="Path 21442" d="M49.848,13.083v5.8L21.215,35.416,21.1,29.679Z" transform="translate(277.578 154.837)" fill="#3b93d2"/>
    <g id="Group_15191" data-name="Group 15191" transform="translate(0 0)">
      <g id="Group_15190" data-name="Group 15190" clip-path="url(#clip-path-2)">
        <path id="Path_21335" data-name="Path 21335" d="M4.087,11.649,4,30.2v.167l.09-18.546v-.167" transform="translate(47.303 137.859)"/>
        <path id="Path_21336" data-name="Path 21336" d="M4.205,11.662l-.09,18.546A6.178,6.178,0,0,1,3.987,31.3l.09-18.559a6.179,6.179,0,0,0,.128-1.078" transform="translate(47.185 138.013)"/>
      </g>
    </g>
    <g id="Group_15193" data-name="Group 15193" transform="translate(10.768 149.509)">
      <g id="Group_15192" data-name="Group 15192" clip-path="url(#clip-path-3)">
        <rect id="Rectangle_5589" data-name="Rectangle 5589" width="40.622" height="30.341" transform="translate(0 0.003)" fill="url(#linear-gradient-2)"/>
      </g>
    </g>
    <g id="Group_15195" data-name="Group 15195" transform="translate(0 0)">
      <g id="Group_15194" data-name="Group 15194" clip-path="url(#clip-path-2)">
        <path id="Path_21338" data-name="Path 21338" d="M35.269,14.248c8.522,4.916,7.739,11.923.013,16.416-7.816,4.543-19.74,4.916-28.262,0S-.887,18.843,6.93,14.3c7.726-4.5,19.817-4.967,28.339-.051" transform="translate(10.012 127.084)" fill="#89bee4"/>
      </g>
    </g>
    <g id="Group_15197" data-name="Group 15197" transform="translate(107.169 153.295)">
      <g id="Group_15196" data-name="Group 15196" clip-path="url(#clip-path-5)">
        <rect id="Rectangle_5592" data-name="Rectangle 5592" width="8.407" height="32.985" transform="translate(0 0.003)" fill="url(#linear-gradient-2)"/>
      </g>
    </g>
    <g id="Group_15201" data-name="Group 15201" transform="translate(126.845 164.73)">
      <g id="Group_15200" data-name="Group 15200" clip-path="url(#clip-path-7)">
        <rect id="Rectangle_5595" data-name="Rectangle 5595" width="8.599" height="32.87" transform="translate(0 0.003)" fill="url(#linear-gradient-2)"/>
      </g>
    </g>
    <g id="Group_15203" data-name="Group 15203" transform="translate(0 0)">
      <g id="Group_15202" data-name="Group 15202" clip-path="url(#clip-path-2)">
        <path id="Path_21444" data-name="Path 21444" d="M4.2,23.052l.09,31.381,35.545-20.6V2.246Z" transform="translate(67.484 151.906)" fill="#3b93d2"/>
        <path id="Path_21445" data-name="Path 21445" d="M4.2,23.052l.09,31.381,35.545-20.6V2.268Z" transform="translate(87.15 163.259)" fill="#3b93d2"/>
        <path id="Path_21341" data-name="Path 21341" d="M21.988,23.052l.325,31.3L4.2,44.217l.09-31.381Z" transform="translate(49.695 151.906)" fill="#007"/>
        <path id="Path_21342" data-name="Path 21342" d="M17.534,13.5l-.09,31.381a33.8,33.8,0,0,1-5.532,4.043L12,17.54A34.564,34.564,0,0,0,17.534,13.5" transform="translate(140.974 159.73)" fill="#3b93d2"/>
        <path id="Path_21343" data-name="Path 21343" d="M12.688,13.811,12.6,45.192c-.244.154-.488.3-.744.449l.09-31.394c.257-.141.5-.282.744-.436" transform="translate(140.288 163.446)"/>
        <path id="Path_21344" data-name="Path 21344" d="M20.266,22.067l.21,31.4-14.469-8.2.077-31.394Z" transform="translate(71.084 164.246)" fill="#007"/>
        <path id="Path_21345" data-name="Path 21345" d="M108,37.535c7.868,4.543,5.288,11.076-5.545,17.365L64.683,76.848l-17.7-10.216L83.46,45.441c2.285-1.335,2.849-2.131,1.45-2.939-1.476-.847-3.927-.757-7.752.334L41.581,63.512,27.4,55.324l36.476-21.19c2.285-1.335,2.439-2.374,1.04-3.17-1.309-.757-3.594-.578-7.431.513L21.9,52.154,4.206,41.937l54.3-31.56,14.015,8.086-5.2,4.543.411.244c5.788-1.373,12.976-1.476,19.29,2.169,4.5,2.605,4.929,6.34.539,10.319,6.122-1.746,14.208-1.8,20.433,1.8" transform="translate(49.777 122.806)" fill="#89bee4"/>
        <path id="Path_21346" data-name="Path 21346" d="M25.321,24.976l-.09,31.381L7.532,46.141l.09-31.381Z" transform="translate(89.137 174.678)" fill="#007"/>
        <path id="Path_21446" data-name="Path 21446" d="M4.2,23.052l.09,31.381L42.818,31.855V.666Z" transform="translate(110.15 176.602)" fill="#3b93d2"/>
        <g id="Group_15282" data-name="Group 15282" transform="translate(143.985 202.49)" clip-path="url(#clip-path)">
          <rect id="Rectangle_5649" data-name="Rectangle 5649" width="21.364" height="56.896" transform="translate(53 0.003)" fill="url(#linear-gradient)"/>
        </g>
      </g>
    </g>
    <g id="Group_15205" data-name="Group 15205" transform="translate(174.615 194.135)">
      <g id="Group_15204" data-name="Group 15204" clip-path="url(#clip-path-10)">
        <rect id="Rectangle_5600" data-name="Rectangle 5600" width="22.14" height="38.94" transform="translate(0 0.003)" fill="url(#linear-gradient-6)"/>
      </g>
    </g>
    <g id="Group_15207" data-name="Group 15207" transform="translate(160.215 202.49)">
      <g id="Group_15206" data-name="Group 15206" clip-path="url(#clip-path-11)">
        <rect id="Rectangle_5601" data-name="Rectangle 5601" width="2.285" height="35.95" transform="translate(0 0.003)" fill="url(#linear-gradient-7)"/>
      </g>
    </g>
    <g id="Group_15209" data-name="Group 15209" transform="translate(0 0)">
      <g id="Group_15208" data-name="Group 15208" clip-path="url(#clip-path-2)">
        <path id="Path_21349" data-name="Path 21349" d="M47.732,35.979l-.09,31.381-34.987-20.2.09-31.381Z" transform="translate(149.76 186.715)" fill="#007"/>
        <path id="Path_21350" data-name="Path 21350" d="M14.666,18.12,14.576,49.5l-.642-.077.09-31.394c.218.038.424.064.642.09" transform="translate(164.904 213.376)"/>
      </g>
    </g>
    <g id="Group_15211" data-name="Group 15211" transform="translate(136.984 204.3)">
      <g id="Group_15210" data-name="Group 15210" clip-path="url(#clip-path-13)">
        <rect id="Rectangle_5605" data-name="Rectangle 5605" width="42.598" height="58.577" transform="translate(-0.013 0.003)" fill="url(#linear-gradient-2)"/>
      </g>
    </g>
    <g id="Group_15213" data-name="Group 15213" transform="translate(0 0)">
      <g id="Group_15212" data-name="Group 15212" clip-path="url(#clip-path-2)">
        <path id="Path_21352" data-name="Path 21352" d="M79.643,51.423a73.427,73.427,0,0,1-8.548,4.12l-34.987-20.2c-4.312,4.492-2.246,8.792,5.622,13.335,4.351,2.5,9.421,4.12,16.364,5.673l-4.916,9.985c-10.627-1.412-21.357-5.057-28.159-8.984C7.82,45.417,4.881,31.645,22.875,21.185c17.827-10.358,42.419-8.42,57.012,0,17.288,9.985,14.336,21.768-.244,30.238M48.313,28.334,67.244,39.269c4.223-3.414,4.287-6.584-.8-9.51-5.326-3.08-11.371-3.645-18.135-1.425" transform="translate(126.405 167.161)" fill="#89bee4"/>
        <g id="Group_15281" data-name="Group 15281" transform="translate(265.985 385.23)" clip-path="url(#clip-path)">
          <rect id="Rectangle_5648" data-name="Rectangle 5648" width="74.364" height="56.896" transform="translate(0 0.003)" fill="url(#linear-gradient-2)"/>
        </g>
      </g>
    </g>
    <g id="Group_15215" data-name="Group 15215" transform="translate(0 256.203)">
      <g id="Group_15214" data-name="Group 15214" clip-path="url(#clip-path-16)">
        <rect id="Rectangle_5607" data-name="Rectangle 5607" width="40.622" height="30.341" transform="translate(-0.013 0.003)" fill="url(#linear-gradient-2)"/>
      </g>
    </g>
    <g id="Group_15217" data-name="Group 15217" transform="translate(0 0)">
      <g id="Group_15216" data-name="Group 15216" clip-path="url(#clip-path-2)">
        <path id="Path_21354" data-name="Path 21354" d="M34.43,22.557c8.522,4.916,7.739,11.923.013,16.415-7.816,4.543-19.74,4.929-28.262,0s-7.906-11.821-.09-16.364c7.726-4.492,19.817-4.967,28.339-.051" transform="translate(0.083 225.47)" fill="#89bee4"/>
      </g>
    </g>
    <g id="Group_15219" data-name="Group 15219" transform="translate(105.36 262.312)">
      <g id="Group_15218" data-name="Group 15218" clip-path="url(#clip-path-18)">
        <rect id="Rectangle_5610" data-name="Rectangle 5610" width="22.332" height="46.564" transform="translate(0 0.003)" fill="url(#linear-gradient-2)"/>
      </g>
    </g>
    <g id="Group_15221" data-name="Group 15221" transform="translate(80.704 260.669)">
      <g id="Group_15220" data-name="Group 15220" clip-path="url(#clip-path-19)">
        <rect id="Rectangle_5611" data-name="Rectangle 5611" width="17.365" height="53.777" transform="translate(-0.013 0.003)" fill="url(#linear-gradient-2)"/>
      </g>
    </g>
    <g id="Group_15223" data-name="Group 15223" transform="translate(0 0)">
      <g id="Group_15222" data-name="Group 15222" clip-path="url(#clip-path-2)">
        <path id="Path_21357" data-name="Path 21357" d="M9.673,22.326l-.09,31.381v.167l.09-31.381v-.167" transform="translate(113.411 264.218)"/>
        <path id="Path_21358" data-name="Path 21358" d="M9.779,22.339,9.69,53.72a6.615,6.615,0,0,1-.116,1.027l.09-31.394a6.626,6.626,0,0,0,.116-1.014" transform="translate(113.305 264.372)"/>
        <path id="Path_21359" data-name="Path 21359" d="M9.912,22.418,9.823,53.8a6.154,6.154,0,0,1-.27.95l.09-31.394a6,6,0,0,0,.27-.937" transform="translate(113.056 265.307)"/>
        <path id="Path_21360" data-name="Path 21360" d="M10.045,22.492l-.09,31.381a6.219,6.219,0,0,1-.436.937l.09-31.381a6.866,6.866,0,0,0,.436-.937" transform="translate(112.654 266.182)"/>
        <path id="Path_21361" data-name="Path 21361" d="M10.248,22.565l-.09,31.381a6.556,6.556,0,0,1-.693,1.027l.09-31.381a7.216,7.216,0,0,0,.693-1.027" transform="translate(112.015 267.046)"/>
        <path id="Path_21362" data-name="Path 21362" d="M10.644,22.644l-.09,31.381A9.838,9.838,0,0,1,9.373,55.3l.09-31.381a11.957,11.957,0,0,0,1.181-1.271" transform="translate(110.926 267.981)"/>
        <path id="Path_21363" data-name="Path 21363" d="M12.481,22.743l-.09,31.381a20.012,20.012,0,0,1-3.273,2.387l.09-31.394a19.268,19.268,0,0,0,3.273-2.374" transform="translate(107.908 269.153)"/>
        <path id="Path_21364" data-name="Path 21364" d="M13.859,22.928l-.09,31.381c-.141.09-.282.18-.424.257a23.554,23.554,0,0,1-4.62,2.041l.09-31.381a24.337,24.337,0,0,0,4.62-2.041l.424-.257" transform="translate(103.257 271.342)"/>
        <path id="Path_21365" data-name="Path 21365" d="M12.388,23.107,12.3,54.488a28.063,28.063,0,0,1-3.876.975l.09-31.381a32.273,32.273,0,0,0,3.876-.975" transform="translate(99.671 273.461)"/>
        <path id="Path_21366" data-name="Path 21366" d="M11.033,23.183l-.09,31.381q-1.328.25-2.734.385L8.3,23.568q1.405-.154,2.734-.385" transform="translate(97.151 274.36)"/>
        <path id="Path_21367" data-name="Path 21367" d="M10.583,23.212l-.09,31.381c-.809.09-1.643.141-2.477.167l.09-31.381c.834-.026,1.668-.09,2.477-.167" transform="translate(94.867 274.703)"/>
        <path id="Path_21368" data-name="Path 21368" d="M10.4,23.225l-.09,31.381c-.809.039-1.643.039-2.49.013l.09-31.381c.847.013,1.681.013,2.49-.013" transform="translate(92.571 274.857)"/>
      </g>
    </g>
    <g id="Group_15225" data-name="Group 15225" transform="translate(52.263 268.678)">
      <g id="Group_15224" data-name="Group 15224" clip-path="url(#clip-path-21)">
        <rect id="Rectangle_5613" data-name="Rectangle 5613" width="70.822" height="60.875" transform="translate(0 0.003)" fill="url(#linear-gradient-2)"/>
      </g>
    </g>
    <g id="Group_15227" data-name="Group 15227" transform="translate(0 0)">
      <g id="Group_15226" data-name="Group 15226" clip-path="url(#clip-path-2)">
        <path id="Path_21370" data-name="Path 21370" d="M82.1,27.8c10.319,5.955,14.529,13.014,16.685,18.4L79.43,47.865c-2.387-5.16-6.995-9.9-12.642-13.156-3.453-1.989-6.8-2.605-8.753-1.463-2.362,1.373.27,3.17,6.751,9.177C77.505,54.013,77.467,59.647,68.418,64.9c-10.165,5.917-27.736,4.826-45.935-5.673-9.421-5.442-15.992-13.489-18.4-20.163L23.51,36.892c2.811,6.34,8.317,11.872,15.273,15.889,4.762,2.747,8.022,3.132,9.985,1.989,2.605-1.514.218-3.363-7.008-9.793-11.821-10.6-11.6-17.083-3.221-21.947C49.2,16.831,66.288,18.679,82.1,27.8" transform="translate(48.262 229.63)" fill="#89bee4"/>
        <path id="Path_21452" data-name="Path 21452" d="M2.388,19.906l1.9,34.527L42.818,31.855V.666Z" transform="translate(164.15 277.381)" fill="#3b93d2"/>
      </g>
    </g>
    <g id="Group_15229" data-name="Group 15229" transform="translate(167.197 301.856)">
      <g id="Group_15228" data-name="Group 15228" clip-path="url(#clip-path-23)">
        <rect id="Rectangle_5616" data-name="Rectangle 5616" width="15.992" height="37.439" transform="translate(0 0.003)" fill="#3b93d2"/>
      </g>
    </g>
    <g id="Group_15231" data-name="Group 15231" transform="translate(0 0)">
      <g id="Group_15230" data-name="Group 15230" clip-path="url(#clip-path-24)">
        <path id="Path_21451" data-name="Path 21451" d="M2.388,19.906l1.9,34.527L42.818,31.855V.666Z" transform="translate(164.15 277.38)" fill="#3b93d2"/>
        <path id="Path_21447" data-name="Path 21447" d="M4.2,23.052l.09,31.381L42.818,31.855V.666Z" transform="translate(127.514 299.482)" fill="#3b93d2"/>
        <path id="Path_21448" data-name="Path 21448" d="M4.2,23.052l.09,31.381L42.818,31.855V.666Z" transform="translate(161.357 319.02)" fill="#3b93d2"/>
        <path id="Path_21449" data-name="Path 21449" d="M4.2,23.052l.09,31.381L42.818,31.855V.666Z" transform="translate(239.467 385.02)" fill="#3b93d2"/>
        <path id="Path_21372" data-name="Path 21372" d="M27.647,35.119,27.558,66.5,8.793,55.667l.09-31.381Z" transform="translate(104.066 287.415)" fill="#007"/>
        <path id="Path_21373" data-name="Path 21373" d="M103.11,31.7,85.527,41.914,74.848,46.881l.411.244c7.033,0,16.351,1.129,24.373,5.763,12.052,6.956,8.663,15-4.774,22.807L61.4,95.139,42.633,84.307l31.021-18.02c6.109-3.555,7.162-5.968,2.4-8.715-3.517-2.028-7.444-2.5-12.912-2.644L27.565,75.6,8.8,64.772,84.346,20.865Z" transform="translate(104.157 246.927)" fill="#89bee4"/>
        <path id="Path_21374" data-name="Path 21374" d="M30.284,36.641l-.09,31.381L11.43,57.189l.09-31.381Z" transform="translate(135.272 305.432)" fill="#007"/>
      </g>
      <g id="Group_15284" data-name="Group 15284" transform="translate(136.985 307.49)" clip-path="url(#clip-path)">
        <rect id="Rectangle_5651" data-name="Rectangle 5651" width="21.364" height="56.896" transform="translate(53 0.003)" fill="url(#linear-gradient)"/>
      </g>
    </g>
    <g id="Group_15233" data-name="Group 15233" transform="translate(214.313 338.807)">
      <g id="Group_15232" data-name="Group 15232" clip-path="url(#clip-path-26)">
        <rect id="Rectangle_5620" data-name="Rectangle 5620" width="33.999" height="44.498" transform="translate(0 0.003)" fill="url(#linear-gradient-2)"/>
      </g>
    </g>
    <g id="Group_15235" data-name="Group 15235" transform="translate(0 0)">
      <g id="Group_15234" data-name="Group 15234" clip-path="url(#clip-path-2)">
        <path id="Path_21376" data-name="Path 21376" d="M29.89,28.4,29.8,59.786c-.193.128-.4.244-.59.359a50.1,50.1,0,0,1-9.754,4.325l.09-31.381A50.491,50.491,0,0,0,29.3,28.752l.59-.347" transform="translate(230.243 336.161)"/>
        <path id="Path_21377" data-name="Path 21377" d="M26.42,28.77l-.09,31.381a55.6,55.6,0,0,1-7.457,1.874l.09-31.394A55.552,55.552,0,0,0,26.42,28.77" transform="translate(223.355 340.48)"/>
        <path id="Path_21378" data-name="Path 21378" d="M23.365,28.916,23.275,60.3c-1.579.3-3.17.513-4.774.667l.09-31.381c1.592-.167,3.2-.385,4.774-.667" transform="translate(218.953 342.208)"/>
        <path id="Path_21379" data-name="Path 21379" d="M22.39,28.968,22.3,60.349c-1.373.141-2.747.231-4.12.282l.077-31.394c1.373-.039,2.759-.128,4.133-.27" transform="translate(215.154 342.824)"/>
        <path id="Path_21380" data-name="Path 21380" d="M21.8,28.989l-.09,31.381c-1.283.051-2.554.051-3.825.026L17.972,29c1.271.039,2.541.026,3.825-.013" transform="translate(211.627 343.072)"/>
        <path id="Path_21381" data-name="Path 21381" d="M21.4,29.179l-.09,31.381c-1.245-.026-2.49-.09-3.722-.193l.09-31.394c1.232.1,2.477.18,3.722.205" transform="translate(208.195 342.895)"/>
        <path id="Path_21382" data-name="Path 21382" d="M21.149,29.366l-.09,31.381c-1.258-.1-2.516-.244-3.761-.411l.09-31.394c1.245.18,2.49.321,3.761.424" transform="translate(204.728 342.516)"/>
        <path id="Path_21383" data-name="Path 21383" d="M20.975,29.569l-.09,31.381c-1.322-.18-2.618-.411-3.889-.667l.09-31.394c1.271.27,2.567.488,3.889.68" transform="translate(201.142 341.889)"/>
        <path id="Path_21384" data-name="Path 21384" d="M21.039,29.859l-.09,31.381c-1.463-.3-2.888-.642-4.287-1.052l.09-31.381c1.4.4,2.824.744,4.287,1.052" transform="translate(197.189 340.918)"/>
        <path id="Path_21385" data-name="Path 21385" d="M21.367,30.369l-.09,31.381a49.8,49.8,0,0,1-5.006-1.694l.09-31.381q2.406.943,5.006,1.694" transform="translate(192.573 339.356)"/>
      </g>
    </g>
    <g id="Group_15237" data-name="Group 15237" transform="translate(190.761 348.612)">
      <g id="Group_15236" data-name="Group 15236" clip-path="url(#clip-path-28)">
        <rect id="Rectangle_5622" data-name="Rectangle 5622" width="81.077" height="56.819" transform="translate(0 0.003)" fill="url(#linear-gradient-2)"/>
      </g>
    </g>
    <g id="Group_15239" data-name="Group 15239" transform="translate(0 0)">
      <g id="Group_15238" data-name="Group 15238" clip-path="url(#clip-path-2)">
        <path id="Path_21387" data-name="Path 21387" d="M83.766,32.275c14.426,8.33,17.776,22.332-.218,32.793s-42.175,8.561-56.6.231-17.776-22.332.218-32.78,42.187-8.574,56.6-.244M41.925,56.6c6.315,3.645,14.144,2.131,22.371-2.644,8.291-4.826,10.807-9.331,4.492-12.963S54.734,38.808,46.43,43.634c-8.227,4.775-10.82,9.318-4.5,12.963" transform="translate(175.982 299.857)" fill="#89bee4"/>
      </g>
    </g>
    <g id="Group_15241" data-name="Group 15241" transform="translate(299.214 377.016)">
      <g id="Group_15240" data-name="Group 15240" clip-path="url(#clip-path-30)">
        <rect id="Rectangle_5625" data-name="Rectangle 5625" width="15.132" height="37.747" transform="translate(0 0.003)" fill="url(#linear-gradient-17)"/>
        <path id="Path_21450" data-name="Path 21450" d="M38.735,26.4c-.424.026-.847.051-1.271.1-.205.013-.424.051-.629.077l-.244.039c-.27.038-.539.064-.821.115a24.972,24.972,0,0,0-3.337.847c-.231.077-.475.244-.693.308a41.95,41.95,0,0,0-6.944,3.2l-.719.424c-.193.116-.308.244-.5.359a29.889,29.889,0,0,0-3.517,2.554c-.167.141-.436.282-.578.411s-.218.244-.334.372c-.18.167-.321.321-.475.488-.18.205-.411.411-.565.616a8.925,8.925,0,0,0-.693,1.014l-.064.141-.051.115a4.822,4.822,0,0,0-.244.526,3.711,3.711,0,0,0-.205.68v.449c-.013.1-.077.193-.077.282L16.7,70.9a4.292,4.292,0,0,1,.513-1.938l.051-.1A8.435,8.435,0,0,1,18.6,67.084c.141-.167.3-.334.449-.5.27-.244.616-.513.924-.783a31.018,31.018,0,0,1,3.517-2.541c.424-.257.757-.526,1.219-.8a39.752,39.752,0,0,1,6.944-3.17A25.915,25.915,0,0,1,36.5,58.01l.244-.039a17.35,17.35,0,0,1,5.288.051l.1.013a14.961,14.961,0,0,1,4.941,1.784c2.426,1.4,3.542,2.926,3.53,4.543l.09-31.394c0-1.6-1.117-3.132-3.53-4.531a14.529,14.529,0,0,0-2.015-.975A13.052,13.052,0,0,0,43.792,27q-.539-.154-1.078-.27c-.167-.038-.334-.051-.488-.09l-.1-.013c-.128-.013-.27-.051-.4-.077-.308-.039-.642-.064-.963-.1s-.642-.051-.963-.051H38.735" transform="translate(-101.599 -64.607)" fill="none"/>
      </g>
      <rect id="Rectangle_5647" data-name="Rectangle 5647" width="33.999" height="44.498" transform="translate(-26.433 -3.376)" fill="url(#linear-gradient-2)"/>
    </g>
    <g id="Group_15243" data-name="Group 15243" transform="translate(0 0)">
      <g id="Group_15242" data-name="Group 15242" clip-path="url(#clip-path-2)">
        <path id="Path_21389" data-name="Path 21389" d="M36.379,41.879l-.09,31.381L17.524,62.427l.09-31.381Z" transform="translate(207.395 367.423)" fill="#007"/>
      </g>
    </g>
    <g id="Group_15247" data-name="Group 15247" transform="translate(0 0)">
      <g id="Group_15246" data-name="Group 15246" clip-path="url(#clip-path-2)">
        <path id="Path_21391" data-name="Path 21391" d="M124.392,45.608c13.194,7.624,10.807,18.79-5.891,28.48C99.865,84.92,77.8,84.548,65.93,77.681c-4.672-2.7-6.905-6.238-6.841-10.268l-.488-.282L51.2,72.483,36.3,81.147,17.531,70.3,90.8,27.729l15.235,8.792-3.645,3.645.488.282c7.765.244,15.941,1.938,21.511,5.16M76.724,66.284c4.5,2.605,11.859,2.888,22.281-3.17,8.959-5.2,9.908-8.894,4.582-11.975-2.939-1.694-6.3-2.413-11.769-2.272L71.873,60.47c.347,2.451,2.31,4.351,4.852,5.814" transform="translate(207.473 328.161)" fill="#89bee4"/>
        <path id="Path_21392" data-name="Path 21392" d="M37.392,48.671l.09-31.381a14.562,14.562,0,0,0,1.463,6.161l-.09,31.381a14.561,14.561,0,0,1-1.463-6.161" transform="translate(442.521 204.619)" fill="#007"/>
        <g id="Group_15283" data-name="Group 15283" transform="translate(265.98 385.232)" clip-path="url(#clip-path)">
          <rect id="Rectangle_5650" data-name="Rectangle 5650" width="79.364" height="56.896" transform="translate(-5 0.003)" fill="url(#linear-gradient-2)"/>
        </g>
      </g>
    </g>
    <g id="Group_15249" data-name="Group 15249" transform="translate(479.913 221.896)">
      <g id="Group_15248" data-name="Group 15248" clip-path="url(#clip-path-34)">
        <path id="Path_21393" data-name="Path 21393" d="M38.945,23.45l-.09,31.381a14.33,14.33,0,0,1-1.463-6.161l.09-31.381a14.372,14.372,0,0,0,1.463,6.161" transform="translate(-37.392 -17.289)" fill="#007"/>
      </g>
    </g>
    <g id="Group_15251" data-name="Group 15251" transform="translate(496.29 214.811)">
      <g id="Group_15250" data-name="Group 15250" clip-path="url(#clip-path-35)">
        <rect id="Rectangle_5631" data-name="Rectangle 5631" width="17.93" height="45.833" transform="translate(0 0.003)" fill="url(#linear-gradient-20)"/>
      </g>
    </g>
    <g id="Group_15253" data-name="Group 15253" transform="translate(0 0)">
      <g id="Group_15252" data-name="Group 15252" clip-path="url(#clip-path-2)">
        <path id="Path_21396" data-name="Path 21396" d="M84.778,15.867,96.766,27.033a51.045,51.045,0,0,0-10.922,4.633c-6.186,3.594-9.587,9.369-4.389,16.993L108.5,64.266,89.848,75.1,35.275,43.59l15.3-8.894,12.95,5.865.488-.282c-3.812-8.137.077-14.952,8.214-19.676a38.253,38.253,0,0,1,12.552-4.736" transform="translate(417.467 187.778)" fill="#89bee4"/>
        <path id="Path_21397" data-name="Path 21397" d="M89.931,49.536l-.09,31.381L35.268,49.408l.09-31.381Z" transform="translate(417.382 213.344)" fill="#007"/>
        <path id="Path_21443" data-name="Path 21443" d="M35.268,49.537V80.713L53.644,69.2V38.254Z" transform="translate(472.045 213.344)" fill="#3b93d2"/>
      </g>
    </g>
    <g id="Group_15255" data-name="Group 15255" transform="translate(415.329 262.71)">
      <g id="Group_15254" data-name="Group 15254" clip-path="url(#clip-path-37)">
        <rect id="Rectangle_5635" data-name="Rectangle 5635" width="20.689" height="38.08" transform="translate(0 0.003)" fill="url(#linear-gradient-2)"/>
      </g>
    </g>
    <g id="Group_15257" data-name="Group 15257" transform="translate(436.686 265.444)">
      <g id="Group_15256" data-name="Group 15256" clip-path="url(#clip-path-38)">
        <rect id="Rectangle_5636" data-name="Rectangle 5636" width="20.086" height="48.926" transform="translate(0 0.003)" fill="url(#linear-gradient-2)"/>
      </g>
    </g>
    <g id="Group_15259" data-name="Group 15259" transform="translate(436.558 282.989)">
      <g id="Group_15258" data-name="Group 15258" clip-path="url(#clip-path-39)">
        <path id="Path_21400" data-name="Path 21400" d="M34.161,22.049l-.09,31.381-.051.269L34.1,22.306l.064-.257" transform="translate(-33.943 -22.049)"/>
        <path id="Path_21401" data-name="Path 21401" d="M34.18,22.069,34.09,53.45a5.97,5.97,0,0,0-.077.6l.09-31.394a5.755,5.755,0,0,1,.077-.59" transform="translate(-34.026 -21.812)"/>
        <path id="Path_21402" data-name="Path 21402" d="M34.1,22.116,34.013,53.5v.064L34.1,22.18v-.064" transform="translate(-34.021 -21.26)"/>
      </g>
    </g>
    <g id="Group_15261" data-name="Group 15261" transform="translate(393.472 271.938)">
      <g id="Group_15260" data-name="Group 15260" clip-path="url(#clip-path-40)">
        <rect id="Rectangle_5637" data-name="Rectangle 5637" width="29.943" height="46.102" transform="translate(-0.013 0.003)" fill="url(#linear-gradient-23)"/>
      </g>
    </g>
    <g id="Group_15263" data-name="Group 15263" transform="translate(455.078 284.08)">
      <g id="Group_15262" data-name="Group 15262" clip-path="url(#clip-path-41)">
        <rect id="Rectangle_5638" data-name="Rectangle 5638" width="27.505" height="44.203" transform="translate(0 0.003)" fill="url(#linear-gradient-2)"/>
      </g>
    </g>
    <g id="Group_15265" data-name="Group 15265" transform="translate(0 0)">
      <g id="Group_15264" data-name="Group 15264" clip-path="url(#clip-path-2)">
        <path id="Path_21406" data-name="Path 21406" d="M35.547,23.126l-.09,31.381v.09l.09-31.381v-.09" transform="translate(419.627 273.691)"/>
        <path id="Path_21407" data-name="Path 21407" d="M35,23.548l-.09,31.381-.488-.282.09-31.381Z" transform="translate(407.414 275.338)" fill="#007"/>
        <path id="Path_21408" data-name="Path 21408" d="M35.414,23.265l-.09,31.381c-.321.051-.655.077-.975.116l.09-31.394c.321-.026.655-.064.975-.1" transform="translate(406.508 275.331)"/>
      </g>
    </g>
    <g id="Group_15267" data-name="Group 15267" transform="translate(422.863 289.291)">
      <g id="Group_15266" data-name="Group 15266" clip-path="url(#clip-path-43)">
        <rect id="Rectangle_5640" data-name="Rectangle 5640" width="19.072" height="40.968" transform="translate(-0.013 0.002)" fill="url(#linear-gradient-25)"/>
      </g>
    </g>
    <g id="Group_15269" data-name="Group 15269" transform="translate(0 0)">
      <g id="Group_15268" data-name="Group 15268" clip-path="url(#clip-path-2)">
        <path id="Path_21410" data-name="Path 21410" d="M39.216,21.95l-.09,31.381v.257l.09-31.394V21.95" transform="translate(463.043 259.768)"/>
        <path id="Path_21411" data-name="Path 21411" d="M39.393,21.97,39.3,53.351a9.653,9.653,0,0,1-.193,1.694l.09-31.381a9.792,9.792,0,0,0,.193-1.694" transform="translate(462.865 260.005)"/>
        <path id="Path_21412" data-name="Path 21412" d="M39.71,22.1l-.09,31.381a12.16,12.16,0,0,1-.552,1.9l.09-31.394A12.021,12.021,0,0,0,39.71,22.1" transform="translate(462.356 261.555)"/>
        <path id="Path_21413" data-name="Path 21413" d="M40.128,22.249l-.09,31.381a15.839,15.839,0,0,1-1.052,2.233l.09-31.394a15.068,15.068,0,0,0,1.052-2.22" transform="translate(461.386 263.307)"/>
        <path id="Path_21414" data-name="Path 21414" d="M40.851,22.422,40.761,53.8a23.31,23.31,0,0,1-1.925,2.862l.09-31.394a22.265,22.265,0,0,0,1.925-2.849" transform="translate(459.61 265.354)"/>
        <path id="Path_21415" data-name="Path 21415" d="M42.37,22.644l-.09,31.381a33.072,33.072,0,0,1-3.735,3.992l.09-31.381a34.052,34.052,0,0,0,3.735-3.992" transform="translate(456.167 267.981)"/>
        <path id="Path_21416" data-name="Path 21416" d="M48.552,22.955l-.09,31.381a65.886,65.886,0,0,1-10.755,7.88l.09-31.381a67.224,67.224,0,0,0,10.755-7.88" transform="translate(446.249 271.662)"/>
      </g>
    </g>
    <g id="Group_15271" data-name="Group 15271" transform="translate(440.626 281.718)">
      <g id="Group_15270" data-name="Group 15270" clip-path="url(#clip-path-45)">
        <rect id="Rectangle_5642" data-name="Rectangle 5642" width="61.645" height="61.953" transform="translate(0 0.002)" fill="url(#linear-gradient-2)"/>
      </g>
    </g>
    <g id="Group_15273" data-name="Group 15273" transform="translate(365.12 331.542)">
      <g id="Group_15272" data-name="Group 15272" clip-path="url(#clip-path-46)">
        <rect id="Rectangle_5643" data-name="Rectangle 5643" width="40.583" height="30.367" transform="translate(-0.013 0.002)" fill="url(#linear-gradient-2)"/>
      </g>
    </g>
    <g id="Group_15275" data-name="Group 15275" transform="translate(0 0)">
      <g id="Group_15274" data-name="Group 15274" clip-path="url(#clip-path-2)">
        <path id="Path_21419" data-name="Path 21419" d="M62.769,28.457c7.868,4.543,8.561,11.449.09,16.364s-20.394,4.543-28.262,0c-7.778-4.492-8.561-11.449-.09-16.364s20.471-4.492,28.262,0" transform="translate(336.748 295)" fill="#89bee4"/>
        <path id="Path_21420" data-name="Path 21420" d="M32.953,29.061l.449-6.507-.411-.244Z" transform="translate(389.992 264.032)" fill="#007"/>
        <path id="Path_21421" data-name="Path 21421" d="M133.032,51.377c11.808,6.815,6.969,19.021-13.3,30.8-13.438,7.8-28.2,12.013-38.029,6.34-4.428-2.554-4.928-6.148-2.182-10.794l-.488-.282c-4.98.616-10.127.385-14.721-2.272A7.977,7.977,0,0,1,60.5,65.431l-.411-.244c-6.777.9-15.029-.09-21.421-3.773C25.157,53.6,30.24,43.33,42.856,36a49.5,49.5,0,0,1,10.512-4.595L75.276,18.687l13.515,7.8-9.767,5.673a23.346,23.346,0,0,1,7.2,2.374c12.95,7.47,8.176,16.326-4.685,23.8a50.367,50.367,0,0,1-7.662,3.5c-.321,1.322-.154,1.989,1.412,2.888,2.374,1.36,5.711.462,11.744-3.029l9.2-5.352c14.323-8.33,26.812-10.743,36.8-4.967m-39.3,26.632c3.53,2.041,10.05-.039,17.3-4.248s10.563-8.432,7.534-10.178c-2.785-1.6-6.289-.141-11.744,3.029l-5.378,3.119a47.744,47.744,0,0,1-8.869,4.4c-.565,1.848-.4,2.978,1.155,3.876M56.178,51.236c5.249,3.029,10.627,2.747,14.221.667,3.491-2.041,4.133-5.262-1.117-8.278a14.191,14.191,0,0,0-13.964-.436c-3.581,2.092-4.133,5.16.86,8.047" transform="translate(362.899 221.152)" fill="#89bee4"/>
      </g>
    </g>
    <g id="Group_15277" data-name="Group 15277" transform="translate(294.478 36.615)">
      <g id="Group_15276" data-name="Group 15276" clip-path="url(#clip-path-48)">
        <rect id="Rectangle_5645" data-name="Rectangle 5645" width="9.96" height="133.339" transform="translate(0 0.003)" fill="url(#linear-gradient-2)"/>
      </g>
    </g>
    <g id="Group_15279" data-name="Group 15279" transform="translate(0 0)">
      <g id="Group_15278" data-name="Group 15278" clip-path="url(#clip-path-2)">
        <path id="Path_21423" data-name="Path 21423" d="M24.417,7.545c-1.951-1.129-1.964-2.952-.026-4.069a7.723,7.723,0,0,1,7.033,0c1.938,1.117,1.951,2.939.013,4.069a7.776,7.776,0,0,1-7.021,0" transform="translate(271.55 31.111)" fill="#89bee4"/>
        <path id="Path_21424" data-name="Path 21424" d="M23.76,4.693A.839.839,0,0,1,23.747,3.1a2.994,2.994,0,0,1,2.759,0,.841.841,0,0,1,0,1.591,3.045,3.045,0,0,1-2.747,0" transform="translate(274.338 32.717)" fill="#007"/>
        <path id="Path_21425" data-name="Path 21425" d="M104.389,0c-4.5,8.933-6.764,13.707-11.269,23.654a169.5,169.5,0,0,1,11.371,14.311C72.072,46.538,55.849,76.148,23.429,84.8c-.051-15.183-.064-22.769-.116-37.952C55.746,38.273,71.969,8.663,104.389,0" transform="translate(275.901 -0.002)" fill="#00b2a9"/>
        <path id="Path_21426" data-name="Path 21426" d="M28.349,10.22c.09.9.167,1.8.282,2.99.937-.578,1.412-.873,2.349-1.425.1-1.335.193-2.336.269-3.337s.167-2,.27-3.337c.013-.732.039-1.283.051-1.835s.026-1.091.051-1.823c-.744.436-1.3.77-1.848,1.1s-1.1.68-1.835,1.155l.128,3.517c.116,1.194.193,2.092.282,2.99" transform="translate(330.636 17.205)" fill="#fff"/>
        <path id="Path_21427" data-name="Path 21427" d="M29.619,19.2c0-1.155,0-1.733-.013-2.888,1.964-1.425,2.952-2.156,4.916-3.594-.013-1.412-.013-2.1-.013-3.517-1.964,1.437-2.952,2.156-4.9,3.594-.013-.5-.013-.873-.013-1.245V10.292c2.3-1.669,3.44-2.528,5.737-4.2V2.566c-3.773,2.759-5.66,4.171-9.421,6.879,0,3.183.013,5.583.013,7.97.013,1.194.013,2.387.013,3.684s.013,2.7.013,4.287c3.863-2.772,5.788-4.21,9.652-7.033-.013-1.412-.013-2.118-.013-3.53-2.387,1.746-3.581,2.631-5.968,4.377" transform="translate(306.636 30.365)" fill="#fff"/>
        <path id="Path_21428" data-name="Path 21428" d="M30.618,18.26l-.013-2.888c1.964-1.386,2.952-2.079,4.916-3.4-.013-1.412-.013-2.118-.013-3.53-1.964,1.335-2.939,2.015-4.9,3.414-.013-1-.013-1.5-.013-2.5,2.3-1.63,3.453-2.426,5.737-3.966V1.857c-1.887,1.271-3.3,2.233-4.71,3.234s-2.836,2.015-4.71,3.388c.013,6.379.026,9.562.039,15.941,3.863-2.8,5.788-4.184,9.652-6.764-.013-1.4-.013-2.1-.013-3.517-2.387,1.591-3.581,2.426-5.968,4.12" transform="translate(318.459 21.974)" fill="#fff"/>
        <path id="Path_21429" data-name="Path 21429" d="M33.417,3.921A72.706,72.706,0,0,1,23.932,8.76c.026,6.379.038,9.575.051,15.953,1.45-.629,2.169-.963,3.619-1.681,0-2.336,0-3.491-.013-5.827,2-.988,3.016-1.527,5.018-2.682,0-1.4,0-2.118-.013-3.517-2,1.142-3,1.681-5.018,2.67V10.608c2.336-1.168,3.5-1.8,5.853-3.157-.013-1.412-.013-2.118-.013-3.53" transform="translate(283.227 46.401)" fill="#fff"/>
        <path id="Path_21430" data-name="Path 21430" d="M30.238,2.776A5.066,5.066,0,0,0,27.9,6.934a1.579,1.579,0,0,0,.655,1.5,1.745,1.745,0,0,0,1.694-.282,5.171,5.171,0,0,0,2.336-4.094c0-1.591-1.014-2.1-2.349-1.283" transform="translate(330.21 28.269)" fill="#fff"/>
        <path id="Path_21431" data-name="Path 21431" d="M35.584,6.313c0-3.9-2.516-3.337-5.532-1.322C27.986,6.364,26.946,7.032,24.867,8.3c.026,6.379.026,9.575.051,15.953,1.463-.9,2.208-1.373,3.671-2.323,0-2.156,0-3.234-.013-5.391.539-.347.809-.526,1.335-.873.975,1.514,1.45,2.259,2.413,3.761,1.63-1.117,2.451-1.681,4.081-2.836-1.219-1.643-1.822-2.451-3.029-4.107a10.121,10.121,0,0,0,2.208-6.173m-5.788,6.1c-.488.321-.732.488-1.232.809V9.3l1.219-.8c1.45-.963,2.233-1.052,2.233.282a4.317,4.317,0,0,1-2.22,3.619" transform="translate(294.292 40.518)" fill="#fff"/>
        <path id="Path_21432" data-name="Path 21432" d="M22.946,3.5s.924,3.388,4.723,1.925l.1,37.965s-4.826,1.322-4.826-3.247Z" transform="translate(271.558 41.407)" fill="#19a69d"/>
        <path id="Path_21433" data-name="Path 21433" d="M40.823,31.933l-8.2,4.775-8.265-4.775,8.2-4.775Z" transform="translate(288.245 321.405)" fill="#00b2a9"/>
        <path id="Path_21434" data-name="Path 21434" d="M42.967,33.17l-8.2,4.774L26.5,33.17,34.7,28.4Z" transform="translate(313.616 336.053)" fill="#00b2a9"/>
        <path id="Path_21435" data-name="Path 21435" d="M45.111,34.408l-8.2,4.775-8.265-4.775,8.2-4.774Z" transform="translate(338.988 350.702)" fill="#00b2a9"/>
        <path id="Path_21436" data-name="Path 21436" d="M47.254,35.646l-8.2,4.775-8.266-4.775,8.2-4.774Z" transform="translate(364.359 365.35)" fill="#00b2a9"/>
        <path id="Path_21437" data-name="Path 21437" d="M49.4,36.884l-8.2,4.774-8.265-4.774,8.2-4.775Z" transform="translate(389.73 379.997)" fill="#00b2a9"/>
        <path id="Path_21438" data-name="Path 21438" d="M51.542,38.121l-8.2,4.775-8.265-4.775,8.2-4.774Z" transform="translate(415.103 394.646)" fill="#00b2a9"/>
      </g>
    </g>
  </g>
</svg>
