<svg xmlns="http://www.w3.org/2000/svg" xmlns:xlink="http://www.w3.org/1999/xlink" width="509.785" height="550.554" viewBox="0 0 509.785 550.554">
  <defs>
    <linearGradient id="linear-gradient" x1="0.026" y1="0.493" x2="1.025" y2="0.493" gradientUnits="objectBoundingBox">
      <stop offset="0" stop-color="#007"/>
      <stop offset="0.99" stop-color="#3b93d2"/>
    </linearGradient>
    <linearGradient id="linear-gradient-3" x1="0" y1="0.5" x2="1" y2="0.5" xlink:href="#linear-gradient"/>
  </defs>
  <g id="illustration-managed-hosting" transform="translate(-0.003)">
    <g id="box-big">
      <path id="top" d="M269.19,227.22,175.2,281.84,80.6,227.22l93.99-54.62Z" fill="#00b2a9"/>
      <path id="Path_17269" data-name="Path 17269" d="M269.19,227.22l-.39,86.69-93.98,54.61.38-86.68Z" fill="#3b93d2"/>
      <path id="Path_17270" data-name="Path 17270" d="M175.2,281.84l-.38,86.68-94.6-54.61.38-86.69Z" fill="#007"/>
    </g>
    <g id="box1">
      <path id="shadow" d="M199.81,209.55l-24.83,14.43-25-14.43,24.83-14.43Z" fill="#007"/>
      <g id="big-box">
        <path id="top-2" data-name="top" d="M199.91,108.85l-24.76,14.39-24.92-14.39,24.76-14.39Z" fill="#00b2a9"/>
        <path id="Path_17274" data-name="Path 17274" d="M199.91,108.85l-.1,35.79-24.76,14.39.1-35.79Z" fill="#3b93d2"/>
        <path id="Path_17275" data-name="Path 17275" d="M175.15,123.24l-.1,35.79-24.92-14.39.1-35.79Z" fill="#007"/>
      </g>
      <g id="small-box">
        <path id="top-3" data-name="top" d="M187.48,39.74l-12.34,7.17-12.43-7.17,12.34-7.18Z" fill="#00b2a9"/>
        <path id="Path_17277" data-name="Path 17277" d="M187.48,39.74l-.05,17.84-12.35,7.18.06-17.85Z" fill="#3b93d2"/>
        <path id="Path_17278" data-name="Path 17278" d="M175.14,46.91l-.06,17.85-12.42-7.18.05-17.84Z" fill="#007"/>
        <path id="fill-rectangle" d="M187.48,7.19l-12.37,7.19L162.66,7.19,175.03,0Z" fill="#fff"/>
      </g>
    </g>
    <g id="box2">
      <path id="fill-rectangle-2" data-name="fill-rectangle" d="M372.91,78.47l-23.7,13.78L325.36,78.47l23.7-13.77Z" fill="#fff"/>
      <g id="box">
        <path id="top-4" data-name="top" d="M372.91,140.83l-23.65,13.74-23.8-13.74,23.65-13.74Z" fill="#00b2a9"/>
        <path id="Path_17281" data-name="Path 17281" d="M372.91,140.83l-.1,34.19-23.64,13.74.09-34.19Z" fill="#3b93d2"/>
        <path id="Path_17282" data-name="Path 17282" d="M349.26,154.57l-.09,34.19-23.81-13.74.1-34.19Z" fill="#007"/>
      </g>
    </g>
    <g id="stroke-box">
      <path id="small" d="M24.851,162.558,0,148.212l24.7-14.359,24.848,14.357ZM2,148.208,24.849,161.4l22.7-13.191L24.7,135.008Z" fill="#fff"/>
      <g id="box-2" data-name="box">
        <path id="Path_17284" data-name="Path 17284" d="M24.739,196.242l24.808,14.316L24.9,224.888.092,210.561Zm22.813,14.319L24.741,197.4,2.088,210.559,24.9,223.732Z" fill="#fff"/>
        <path id="Path_17285" data-name="Path 17285" d="M49.053,209.689l-.1,35.349L24.3,259.36l.1-35.338Zm-1.1,34.772.1-33.031L25.4,224.6l-.1,33.022Z" fill="#fff"/>
        <path id="Path_17286" data-name="Path 17286" d="M.592,209.7,25.4,224.022l-.1,35.333L.5,245.038ZM24.4,224.6,1.588,211.425,1.5,244.462l22.8,13.164Z" fill="#fff"/>
      </g>
    </g>
    <g id="buble-tall" style="mix-blend-mode: normal;isolation: isolate">
      <path id="Path_17287" data-name="Path 17287" d="M307.79,253.18c21.13,12.28,55.56,12.28,76.91-.05,10.7-6.18,16.05-14.3,16.02-22.41l.31,287.68c.02,8.11-5.32,16.23-16.02,22.4-21.35,12.33-55.79,12.33-76.91.05l-38.37-22.3-.31-287.68,38.37,22.3Z" stroke="rgba(0,0,0,0)" stroke-width="1" fill="url(#linear-gradient)"/>
      <path id="top-5" data-name="top" d="M269.42,230.88l38.37,22.3c21.13,12.28,55.56,12.28,76.91-.05,21.27-12.28,21.38-32.22.25-44.5l-38.37-22.3Z" fill="#00b2a9"/>
    </g>
    <g id="buble" style="mix-blend-mode: normal;isolation: isolate">
      <path id="Path_17289" data-name="Path 17289" d="M221.79,395.9c25.92,15.02,68.14,14.97,94.3-.17,13.11-7.59,19.65-17.55,19.61-27.49l.54,131.07c.04,9.94-6.5,19.9-19.61,27.49-26.16,15.14-68.38,15.19-94.3.17h0a94.791,94.791,0,0,1-47.25-81.7l-.36-76.65,47.08,27.29Z" stroke="rgba(0,0,0,0)" stroke-width="1" fill="url(#linear-gradient)"/>
      <path id="top-6" data-name="top" d="M174.72,368.62l47.08,27.29c25.92,15.02,68.14,14.97,94.3-.17,26.05-15.08,26.16-39.54.24-54.56l-47.08-27.29Z" fill="#00b2a9"/>
    </g>
    <g id="stroke-box2">
      <g id="box-big-2" data-name="box-big">
        <path id="Path_17291" data-name="Path 17291" d="M480.939,483.812l28.848,16.656-28.667,16.659-28.848-16.656Zm26.853,16.659-26.852-15.5-26.673,15.5,26.852,15.5Z" fill="#fff"/>
        <path id="Path_17293" data-name="Path 17293" d="M509.3,499.6l-.128,19.531L480.5,535.792l.117-19.531.247-.144Zm-1.124,18.953.112-17.209-26.666,15.5-.1,17.209Z" fill="#fff"/>
        <path id="Path_17294" data-name="Path 17294" d="M452.775,499.607l28.847,16.655-.117,19.521-28.847-16.655Zm27.843,17.231-26.853-15.5-.1,17.219,26.853,15.5Z" fill="#fff"/>
      </g>
      <path id="small-2" data-name="small" d="M480.979,423.262l14.919,8.606-14.827,8.609-14.908-8.606Zm12.923,8.609-12.921-7.454-12.823,7.451,12.912,7.454Z" fill="#fff"/>
    </g>
    <g id="cilinder">
      <path id="Path_17295" data-name="Path 17295" d="M300.96,180.26l-.22,183.22c-.02,5.56-3.67,11.11-10.98,15.35-14.65,8.51-38.52,8.51-53.33-.03-7.42-4.28-11.12-9.91-11.11-15.53l.22-183.22c-.02,5.62,3.69,11.25,11.11,15.53,14.8,8.55,38.68,8.55,53.33.03,7.31-4.25,10.96-9.8,10.98-15.35Z" fill="url(#linear-gradient-3)"/>
      <path id="top-7" data-name="top" d="M236.71,195.62c-14.8-8.55-14.88-22.38-.17-30.92,14.65-8.51,38.52-8.51,53.33.03,14.74,8.51,14.82,22.34.17,30.85-14.71,8.55-38.58,8.55-53.32.04Z" fill="#00b2a9"/>
      <path id="fill-circle" d="M252.86,128.95c-5.8-3.35-5.83-8.77-.07-12.11,5.74-3.33,15.09-3.33,20.89.01,5.78,3.33,5.81,8.75.07,12.09C267.99,132.29,258.64,132.29,252.86,128.95Z" fill="#fff"/>
      <path id="circle-shadow" d="M252.86,186.21c-5.8-3.35-5.83-8.77-.07-12.11,5.74-3.33,15.09-3.33,20.89.01,5.78,3.33,5.81,8.75.07,12.09-5.76,3.35-15.11,3.35-20.89.01Z" fill="#007"/>
    </g>
    <path id="stroke-circle-big" d="M109.794,481.061A57.068,57.068,0,0,1,96.822,479.6a42.218,42.218,0,0,1-11.451-4.382,23.969,23.969,0,0,1-7.769-6.741,12.873,12.873,0,0,1-.071-15.533,23.631,23.631,0,0,1,7.647-6.711,41.7,41.7,0,0,1,11.45-4.426,58.435,58.435,0,0,1,26.034-.007,42.414,42.414,0,0,1,11.507,4.412,23.8,23.8,0,0,1,7.738,6.717,12.876,12.876,0,0,1,.071,15.507,23.473,23.473,0,0,1-7.617,6.692,41.932,41.932,0,0,1-11.506,4.451A56.972,56.972,0,0,1,109.794,481.061Zm-.145-39.721a55.842,55.842,0,0,0-12.791,1.445A40.71,40.71,0,0,0,85.682,447.1a22.649,22.649,0,0,0-7.33,6.419,11.877,11.877,0,0,0,.067,14.385,22.986,22.986,0,0,0,7.451,6.451,41.224,41.224,0,0,0,11.18,4.274,57.473,57.473,0,0,0,25.576-.021,40.936,40.936,0,0,0,11.232-4.342,22.491,22.491,0,0,0,7.3-6.4,11.879,11.879,0,0,0-.067-14.36,22.815,22.815,0,0,0-7.419-6.426,41.418,41.418,0,0,0-11.236-4.3A56.126,56.126,0,0,0,109.649,441.34Z" fill="#fff"/>
    <path id="stroke-circle-small" d="M109.765,468.995a19.75,19.75,0,0,1-9.715-2.332l-.25-.144v-.013c-2.564-1.551-3.975-3.6-3.98-5.8-.005-2.256,1.472-4.36,4.159-5.924a21.374,21.374,0,0,1,19.492,0c2.712,1.562,4.209,3.672,4.215,5.941s-1.466,4.355-4.143,5.914A19.744,19.744,0,0,1,109.765,468.995Zm-8.965-3.057a18.964,18.964,0,0,0,8.965,2.057,18.738,18.738,0,0,0,9.274-2.227c2.356-1.372,3.651-3.165,3.647-5.048s-1.324-3.7-3.715-5.077a20.387,20.387,0,0,0-18.488,0c-2.366,1.377-3.667,3.173-3.662,5.058s1.329,3.7,3.73,5.087l.251.144Z" fill="#fff"/>
    <path id="fill-circle-2" data-name="fill-circle" d="M99.35,540.99c-5.8-3.35-5.83-8.77-.07-12.11,5.74-3.33,15.09-3.33,20.89.01,5.78,3.33,5.81,8.75.07,12.09-5.76,3.35-15.11,3.35-20.89.01Z" fill="#fff"/>
  </g>
</svg>
