<svg xmlns="http://www.w3.org/2000/svg" xmlns:xlink="http://www.w3.org/1999/xlink" width="539.668" height="542.889" viewBox="0 0 539.668 542.889">
  <defs>
    <linearGradient id="linear-gradient" x1="0.011" y1="0.319" x2="1.01" y2="0.319" gradientUnits="objectBoundingBox">
      <stop offset="0" stop-color="#007"/>
      <stop offset="0.99" stop-color="#3b93d2"/>
    </linearGradient>
    <linearGradient id="linear-gradient-2" x1="0.023" y1="0.466" x2="1.021" y2="0.466" xlink:href="#linear-gradient"/>
  </defs>
  <g id="illustration-semi-dedicated-hosting" transform="translate(-0.002 0.001)">
    <g id="box-small">
      <path id="top" d="M208.41,159.71l-31.58,18.35-31.79-18.35,31.58-18.35Z" fill="#00b2a9"/>
      <path id="shadow-rectangle" d="M190.69,159.42l-14.99,8.71-15.08-8.71,14.99-8.71Z" fill="#007"/>
      <path id="top-white-rectangle" d="M190.57,104.7l-14.99,8.71L160.5,104.7l14.99-8.71Z" fill="#fff"/>
      <path id="Path_21136" data-name="Path 21136" d="M208.41,159.71l-.13,244.42L176.7,422.48l.13-244.42Z" fill="#3b93d2"/>
      <path id="Path_21137" data-name="Path 21137" d="M176.83,178.06l-.13,244.42-31.79-18.35.13-244.42Z" fill="#007"/>
    </g>
    <g id="pie">
      <path id="Path_21138" data-name="Path 21138" d="M210.14,383.77l-.61,19.93c-.04,11.31-7.5,22.59-22.37,31.22-29.82,17.29-78.4,17.24-108.5-.19C63.57,426,56.05,414.53,56.09,403.1l.61-19.93c-.04,11.44,7.48,22.9,22.57,31.63,30.1,17.42,78.68,17.48,108.5.19C202.65,406.37,210.1,395.08,210.14,383.77Z" fill="url(#linear-gradient)"/>
      <path id="top-2" data-name="top" d="M79.28,414.93C49.16,397.54,49,369.4,78.93,352.01c29.8-17.32,78.38-17.32,108.5.07,30,17.32,30.16,45.46.35,62.78-29.93,17.39-78.5,17.39-108.5.07Z" fill="#00b2a9"/>
    </g>
    <g id="box-smallest">
      <path id="top-3" data-name="top" d="M156.62,268.05l-23.22,13.5-23.37-13.5,23.22-13.49Z" fill="#00b2a9"/>
      <path id="Path_21141" data-name="Path 21141" d="M156.62,268.05l-.09,106.64-23.23,13.5.1-106.64Z" fill="#3b93d2"/>
      <path id="Path_21142" data-name="Path 21142" d="M133.4,281.55l-.1,106.64L109.93,374.7l.1-106.65Z" fill="#007"/>
    </g>
    <path id="white-circle2" d="M126.4,511.35c-3.74-2.16-3.76-5.66-.04-7.82a14.892,14.892,0,0,1,13.48,0c3.73,2.15,3.75,5.65.04,7.8a14.831,14.831,0,0,1-13.48,0Z" fill="#fff"/>
    <path id="white-circle" d="M523.42,248.48c-3.74-2.16-3.76-5.66-.04-7.82a14.861,14.861,0,0,1,13.48,0c3.73,2.15,3.75,5.65.04,7.8a14.831,14.831,0,0,1-13.48,0Z" fill="#fff"/>
    <g id="pie-2" data-name="pie">
      <path id="Path_21145" data-name="Path 21145" d="M302.39,63.85l-.26,333.34c-.02,4.83-3.2,9.64-9.55,13.33-12.73,7.38-33.47,7.36-46.32-.08-6.44-3.73-9.65-8.62-9.63-13.5l.26-333.34c-.02,4.88,3.19,9.78,9.63,13.5,12.85,7.44,33.59,7.46,46.32.08,6.35-3.68,9.53-8.5,9.55-13.33Z" fill="url(#linear-gradient-2)"/>
      <path id="top-4" data-name="top" d="M246.53,77.15c-12.86-7.42-12.93-19.43-.15-26.86,12.72-7.39,33.46-7.39,46.32.03,12.81,7.39,12.87,19.4.15,26.8-12.77,7.42-33.51,7.42-46.32.03Z" fill="#00b2a9"/>
    </g>
    <g id="big-box">
      <path id="top-5" data-name="top" d="M432.83,281.84l-67.36,39.15-67.8-39.15,67.36-39.14Z" fill="#00b2a9"/>
      <path id="Path_21148" data-name="Path 21148" d="M432.83,281.84l-.28,138.33-67.36,39.14.28-138.32Z" fill="#3b93d2"/>
      <path id="Path_21149" data-name="Path 21149" d="M365.47,320.99l-.28,138.32L297.4,420.17l.27-138.33Z" fill="#007"/>
    </g>
    <g id="buble" style="mix-blend-mode: normal;isolation: isolate">
      <path id="Path_21150" data-name="Path 21150" d="M331.25,479.43c-18.77,10.91-49.35,10.91-68.32-.04-9.51-5.49-14.25-12.7-14.23-19.9l-.28,55.28c-.02,7.2,4.73,14.41,14.23,19.9,18.97,10.95,49.55,10.95,68.32.04h0a68.645,68.645,0,0,0,34.16-59.23l.2-15.86-34.09,19.81Z" fill="url(#linear-gradient-2)"/>
      <path id="top-6" data-name="top" d="M365.33,459.63l-34.09,19.81c-18.77,10.91-49.35,10.91-68.32-.04-18.89-10.91-18.99-28.62-.22-39.53l34.09-19.81Z" fill="#00b2a9"/>
    </g>
    <g id="stroke-box">
      <path id="Path_21152" data-name="Path 21152" d="M387.709,185.392l19.768,11.416-19.647,11.419-19.768-11.416Zm17.773,11.419-17.772-10.264-17.653,10.261,17.772,10.264Z" fill="#fff"/>
      <path id="Path_21153" data-name="Path 21153" d="M387.739,144.582l10.379,5.986-10.317,6-10.368-6Zm8.383,5.99-8.381-4.834-8.314,4.831,8.372,4.843Z" fill="#fff"/>
      <path id="Path_21154" data-name="Path 21154" d="M406.985,195.938l-.077,13.551L387.255,220.9l.077-13.54Zm-1.073,12.973.063-11.229-17.647,10.257-.063,11.22Z" fill="#fff"/>
      <path id="Path_21155" data-name="Path 21155" d="M368.565,195.947l19.767,11.416-.076,13.531-19.767-11.405Zm18.763,11.991-17.773-10.264-.063,11.239,17.773,10.255Z" fill="#fff"/>
    </g>
    <path id="Path_21133" data-name="Path 21133" d="M17.819,34.4,35.748,44.749,17.931,55.1,0,44.751ZM33.752,44.751,17.821,35.558,2,44.749l15.931,9.194Z" fill="#fff"/>
    <path id="white-circle-2" data-name="white-circle" d="M28.03,242.95c-3.74-2.16-3.76-5.66-.04-7.82a14.892,14.892,0,0,1,13.48,0c3.73,2.15,3.75,5.65.04,7.8a14.831,14.831,0,0,1-13.48,0Z" fill="#fff"/>
    <path id="stroke-circle" d="M269.549,16.741a20.044,20.044,0,0,1-9.859-2.368c-2.749-1.588-4.264-3.727-4.266-6.022s1.491-4.405,4.205-5.983A19.872,19.872,0,0,1,269.459,0a20.115,20.115,0,0,1,9.891,2.378C282.089,3.96,283.6,6.1,283.6,8.389s-1.485,4.4-4.19,5.973A19.943,19.943,0,0,1,269.549,16.741ZM269.459,1a18.866,18.866,0,0,0-9.328,2.234c-2.393,1.391-3.71,3.208-3.708,5.117s1.34,3.755,3.766,5.158a19.037,19.037,0,0,0,9.359,2.234,18.936,18.936,0,0,0,9.36-2.244c2.383-1.386,3.695-3.2,3.693-5.107s-1.335-3.75-3.752-5.148A19.107,19.107,0,0,0,269.459,1Z" fill="#fff"/>
    <path id="shadow-circle" d="M259.94,66.91c-5.33-3.08-5.36-8.06-.06-11.14,5.28-3.07,13.88-3.07,19.22.01,5.31,3.07,5.34,8.05.06,11.12C273.86,69.98,265.26,69.98,259.94,66.91Z" fill="#007"/>
    <path id="stroke-circle-big" d="M133.18,487.205c-7.408,0-14.385-1.241-19.647-3.5-5.442-2.331-8.441-5.477-8.446-8.86,0-3.358,2.948-6.483,8.315-8.8,5.228-2.254,12.187-3.5,19.6-3.5,7.43,0,14.437,1.248,19.73,3.515,5.421,2.322,8.408,5.463,8.412,8.843,0,3.354-2.937,6.471-8.281,8.776C147.6,485.956,140.61,487.205,133.18,487.205ZM133,463.555c-7.275,0-14.094,1.212-19.2,3.414a17.5,17.5,0,0,0-5.847,3.787,5.425,5.425,0,0,0,.038,8.218,17.8,17.8,0,0,0,5.938,3.817c5.14,2.2,11.977,3.415,19.253,3.415,7.3,0,14.145-1.22,19.282-3.434A17.378,17.378,0,0,0,158.283,479a5.423,5.423,0,0,0-.038-8.2,17.687,17.687,0,0,0-5.912-3.806C147.162,464.775,140.295,463.555,133,463.555Z" fill="#fff"/>
    <path id="white-rectangle2" d="M462.75,493.91l-12.01,6.98-12.08-6.98,12.01-6.97Z" fill="#fff"/>
    <path id="stroke-rectangle" d="M297.619,445.4l17.918,10.346-17.806,10.36L279.8,455.751Zm15.924,10.349-15.922-9.194L281.8,455.749l15.932,9.2Z" fill="#fff"/>
  </g>
</svg>
