<svg xmlns="http://www.w3.org/2000/svg" xmlns:xlink="http://www.w3.org/1999/xlink" width="791.002" height="587.088" viewBox="0 0 791.002 587.088">
  <defs>
    <linearGradient id="linear-gradient" y1="0.5" x2="1" y2="0.5" gradientUnits="objectBoundingBox">
      <stop offset="0" stop-color="#007"/>
      <stop offset="0.69" stop-color="#3b93d2"/>
    </linearGradient>
    <linearGradient id="linear-gradient-2" y1="0.5" x2="1" y2="0.5" gradientUnits="objectBoundingBox">
      <stop offset="0" stop-color="#007"/>
      <stop offset="0.99" stop-color="#3b93d2"/>
    </linearGradient>
    <linearGradient id="linear-gradient-3" x1="0" y1="0.5" x2="1" y2="0.5" xlink:href="#linear-gradient-2"/>
  </defs>
  <g id="illustration-cloud-vps" transform="translate(-887.5 -119.499)">
    <path id="bg-circle-back" d="M593.859,385.04a339.794,339.794,0,0,1-37.672-2.089,313.76,313.76,0,0,1-36.561-6.267,268.835,268.835,0,0,1-34.337-10.445,216.558,216.558,0,0,1-31-14.626,162.041,162.041,0,0,1-25.565-18.063,114.044,114.044,0,0,1-18.3-20.047,83.787,83.787,0,0,1-11.01-21.385,68.176,68.176,0,0,1-.106-43.971,83,83,0,0,1,10.818-21.231,112.5,112.5,0,0,1,18.027-19.9,159.643,159.643,0,0,1,25.223-17.937,213.661,213.661,0,0,1,30.83-14.626,266.328,266.328,0,0,1,34.22-10.445,312.053,312.053,0,0,1,36.493-6.267,340.606,340.606,0,0,1,75.416.009,314.629,314.629,0,0,1,36.688,6.3,270.077,270.077,0,0,1,34.487,10.5,218.037,218.037,0,0,1,31.167,14.712,160.909,160.909,0,0,1,25.461,18,113.536,113.536,0,0,1,18.223,20A83.652,83.652,0,0,1,787.331,248.6a68.224,68.224,0,0,1,.108,43.9,82.877,82.877,0,0,1-10.773,21.194,112.026,112.026,0,0,1-17.953,19.857,158.564,158.564,0,0,1-25.121,17.882,215.219,215.219,0,0,1-31,14.711,267.6,267.6,0,0,1-34.371,10.5,312.91,312.91,0,0,1-36.618,6.3A339.449,339.449,0,0,1,593.859,385.04ZM592.57,156.65a338.1,338.1,0,0,0-37.536,2.083,311.034,311.034,0,0,0-36.375,6.247,265.322,265.322,0,0,0-34.091,10.406,212.661,212.661,0,0,0-30.686,14.556,158.644,158.644,0,0,0-25.065,17.823,111.506,111.506,0,0,0-17.867,19.722,82,82,0,0,0-10.689,20.974,67.177,67.177,0,0,0,.1,43.336,82.791,82.791,0,0,0,10.88,21.129,113.047,113.047,0,0,0,18.138,19.87,161.041,161.041,0,0,0,25.407,17.95A215.553,215.553,0,0,0,485.644,365.3a267.83,267.83,0,0,0,34.209,10.406,312.749,312.749,0,0,0,36.445,6.246,339.587,339.587,0,0,0,75.192-.009,311.914,311.914,0,0,0,36.5-6.277,266.609,266.609,0,0,0,34.242-10.461,214.214,214.214,0,0,0,30.857-14.642A157.567,157.567,0,0,0,758.051,332.8a111.03,111.03,0,0,0,17.794-19.678,81.879,81.879,0,0,0,10.645-20.937,67.226,67.226,0,0,0-.107-43.266,82.653,82.653,0,0,0-10.836-21.087,112.536,112.536,0,0,0-18.063-19.82,159.914,159.914,0,0,0-25.3-17.888,217.038,217.038,0,0,0-31.023-14.644A269.071,269.071,0,0,0,666.8,165.018a313.624,313.624,0,0,0-36.571-6.276A339.151,339.151,0,0,0,592.57,156.65Z" transform="translate(887.49 119.508)" fill="#fff"/>
    <path id="bg-circle-front" d="M322.91,571.205a452.818,452.818,0,0,1-50.208-2.784,418.126,418.126,0,0,1-48.725-8.351,358.225,358.225,0,0,1-45.756-13.919,289.2,289.2,0,0,1-40.551-19.057v.012l-.75-.433a215.851,215.851,0,0,1-34.055-24.061,151.87,151.87,0,0,1-24.367-26.7A111.537,111.537,0,0,1,63.841,447.45a90.733,90.733,0,0,1-.143-58.518,110.5,110.5,0,0,1,14.4-28.266,149.852,149.852,0,0,1,24.007-26.507,212.709,212.709,0,0,1,33.6-23.9,284.714,284.714,0,0,1,41.08-19.487,354.939,354.939,0,0,1,45.6-13.919,415.856,415.856,0,0,1,48.633-8.352,453.932,453.932,0,0,1,100.509.011,419.3,419.3,0,0,1,48.893,8.391,359.893,359.893,0,0,1,45.957,13.993,290.519,290.519,0,0,1,41.528,19.6,214.33,214.33,0,0,1,33.918,23.983A151.2,151.2,0,0,1,566.1,361.113a111.37,111.37,0,0,1,14.6,28.415,90.8,90.8,0,0,1,.142,58.424,110.319,110.319,0,0,1-14.342,28.212,149.162,149.162,0,0,1-23.909,26.441,211.179,211.179,0,0,1-33.464,23.817,286.722,286.722,0,0,1-41.307,19.6,356.6,356.6,0,0,1-45.8,13.993,417.033,417.033,0,0,1-48.8,8.392A452.454,452.454,0,0,1,322.91,571.205ZM136.67,525.364l.75.433a287.506,287.506,0,0,0,41.157,19.42A357.218,357.218,0,0,0,224.205,559.1a417.126,417.126,0,0,0,48.608,8.331,452.945,452.945,0,0,0,100.286-.013,416.053,416.053,0,0,0,48.683-8.372,355.6,355.6,0,0,0,45.674-13.953,285.721,285.721,0,0,0,41.162-19.532,210.173,210.173,0,0,0,33.305-23.7,148.165,148.165,0,0,0,23.749-26.262,109.325,109.325,0,0,0,14.214-27.955,89.8,89.8,0,0,0-.14-57.791,110.368,110.368,0,0,0-14.468-28.159,150.2,150.2,0,0,0-24.108-26.456,213.336,213.336,0,0,0-33.76-23.869,289.525,289.525,0,0,0-41.384-19.534A358.893,358.893,0,0,0,420.2,277.876a418.313,418.313,0,0,0-48.776-8.371,452.941,452.941,0,0,0-100.286-.011,414.868,414.868,0,0,0-48.516,8.332A353.92,353.92,0,0,0,177.147,291.7a283.713,283.713,0,0,0-40.936,19.418,211.712,211.712,0,0,0-33.444,23.787,148.856,148.856,0,0,0-23.848,26.329,109.5,109.5,0,0,0-14.272,28.009,89.733,89.733,0,0,0,.142,57.884,110.542,110.542,0,0,0,14.527,28.21,150.869,150.869,0,0,0,24.207,26.518,214.113,214.113,0,0,0,33.147,23.514Z" transform="translate(887.49 119.508)" fill="#fff"/>
    <g id="buble-short" transform="translate(887.49 119.508)" style="mix-blend-mode: normal;isolation: isolate">
      <path id="Path_20937" data-name="Path 20937" d="M221.64,241.04c-20.18,11.73-53.06,11.73-73.37,0-10.22-5.9-15.32-13.66-15.3-21.4l-.3,105.83c-.02,7.74,5.08,15.5,15.3,21.4,20.31,11.73,53.19,11.72,73.37,0h0a73.9,73.9,0,0,0,36.77-63.68l.18-63.45-36.65,21.3Z" fill="url(#linear-gradient)"/>
      <path id="top" d="M258.29,219.75l-36.65,21.3c-20.18,11.73-53.06,11.73-73.37,0s-20.42-30.77-.24-42.5c20.26-11.77,53.14-11.77,73.45-.05" fill="#00b2a9"/>
    </g>
    <g id="cylinder">
      <path id="Path_20939" data-name="Path 20939" d="M211.23,159.95l-.17,59.85c-.01,4.33-2.86,8.65-8.55,11.96-11.41,6.63-30.01,6.63-41.54-.03-5.78-3.34-8.67-7.72-8.65-12.1l.17-59.85c-.01,4.38,2.87,8.76,8.65,12.1,11.53,6.66,30.13,6.66,41.54.03C208.37,168.6,211.22,164.28,211.23,159.95Z" transform="translate(887.49 119.508)" fill="url(#linear-gradient-2)"/>
      <path id="top-2" data-name="top" d="M161.17,169.59c-11.53-6.66-11.59-17.43-.14-24.09,11.41-6.63,30.01-6.63,41.54.03,11.49,6.63,11.55,17.4.14,24.03-11.46,6.66-30.05,6.66-41.54.03Z" transform="translate(887.49 119.508)" fill="#00b2a9"/>
      <path id="white" d="M173.75,117.65c-4.52-2.61-4.54-6.83-.05-9.44,4.47-2.6,11.75-2.6,16.27.01,4.5,2.6,4.52,6.82.05,9.41-4.49,2.61-11.77,2.61-16.27.01Z" transform="translate(887.49 119.508)" fill="#fff"/>
    </g>
    <path id="white-circle" d="M162.25,447.85c-4.52-2.61-4.54-6.83-.05-9.44,4.47-2.6,11.75-2.6,16.27.01,4.5,2.6,4.52,6.82.05,9.41-4.49,2.61-11.77,2.61-16.27.01Z" transform="translate(887.49 119.508)" fill="#fff"/>
    <path id="shadow-circle" d="M173.75,162.26c-4.52-2.61-4.54-6.83-.05-9.44,4.47-2.6,11.75-2.6,16.27.01,4.5,2.6,4.52,6.82.05,9.41-4.49,2.61-11.77,2.61-16.27.01Z" transform="translate(887.49 119.508)" fill="#007"/>
    <g id="stroke-pie" transform="translate(887.49 119.508)">
      <path id="Path_20945" data-name="Path 20945" d="M.18,545.906l1,0a10.591,10.591,0,0,0,2.063,6.152,19.47,19.47,0,0,0,6.337,5.514,35.408,35.408,0,0,0,9.626,3.7,49.155,49.155,0,0,0,21.878.007,34.813,34.813,0,0,0,9.534-3.672c5.3-3.083,8.248-7.144,8.3-11.434v-.1l1,0c0,.033,0,.066,0,.1h0l-.169,23.473a11.52,11.52,0,0,1-2.235,6.646,20.349,20.349,0,0,1-6.563,5.743c-5.59,3.248-13.03,5.037-20.951,5.037-7.945,0-15.435-1.8-21.091-5.066a20.481,20.481,0,0,1-6.659-5.806,11.52,11.52,0,0,1-2.24-6.729Zm29.99,17.6c-7.945,0-15.435-1.8-21.091-5.066a20.453,20.453,0,0,1-6.656-5.806A13.414,13.414,0,0,1,1.148,550.4L1.01,569.484a10.54,10.54,0,0,0,2.06,6.15,19.5,19.5,0,0,0,6.341,5.514,35.407,35.407,0,0,0,9.626,3.7,49.154,49.154,0,0,0,21.878.006,34.814,34.814,0,0,0,9.534-3.672,19.367,19.367,0,0,0,6.247-5.452,10.543,10.543,0,0,0,2.055-6.077l.137-19a13.457,13.457,0,0,1-1.236,2.126,20.4,20.4,0,0,1-6.53,5.7C45.532,561.72,38.091,563.509,30.17,563.509Z" fill="#fff"/>
      <path id="Path_20946" data-name="Path 20946" d="M30.116,563.509c-7.918,0-15.378-1.788-21.006-5.036a20.593,20.593,0,0,1-6.669-5.8,11.105,11.105,0,0,1-.047-13.389,20.3,20.3,0,0,1,6.575-5.764c5.59-3.248,13.03-5.037,20.951-5.037,7.945,0,15.435,1.8,21.091,5.066a20.477,20.477,0,0,1,6.647,5.785A11.1,11.1,0,0,1,57.7,552.7a20.188,20.188,0,0,1-6.553,5.746C45.529,561.709,38.059,563.509,30.116,563.509Zm-.2-34.028a47.773,47.773,0,0,0-10.914,1.229,34.814,34.814,0,0,0-9.534,3.672,19.321,19.321,0,0,0-6.257,5.471A10.109,10.109,0,0,0,3.259,552.1a19.611,19.611,0,0,0,6.351,5.512,35.243,35.243,0,0,0,9.578,3.672,49.144,49.144,0,0,0,21.875-.007,35.034,35.034,0,0,0,9.585-3.7,19.206,19.206,0,0,0,6.235-5.453,10.1,10.1,0,0,0-.045-12.218,19.5,19.5,0,0,0-6.328-5.494,35.408,35.408,0,0,0-9.627-3.7A48.042,48.042,0,0,0,29.92,529.481Z" fill="#fff"/>
      <path id="Path_20947" data-name="Path 20947" d="M30.07,499.939a17.612,17.612,0,0,1-7.63-1.617v.044l-.75-.433c-2.353-1.359-3.651-3.194-3.654-5.167s1.277-3.787,3.6-5.139A16.892,16.892,0,0,1,30,485.611a17.092,17.092,0,0,1,8.412,2.026c2.345,1.355,3.638,3.187,3.639,5.159s-1.273,3.775-3.588,5.117A16.964,16.964,0,0,1,30.07,499.939Zm-8.247-3.094.367.212a16.013,16.013,0,0,0,7.88,1.882,15.958,15.958,0,0,0,7.888-1.891c1.994-1.155,3.091-2.665,3.09-4.251s-1.116-3.125-3.139-4.294A16.085,16.085,0,0,0,30,486.611a15.886,15.886,0,0,0-7.856,1.881c-2,1.165-3.107,2.683-3.105,4.273C19.038,494.267,20.024,495.7,21.823,496.845Z" fill="#fff"/>
      <path id="Path_20948" data-name="Path 20948" d="M30.07,553.159a17.612,17.612,0,0,1-7.63-1.617v.044l-.75-.433c-2.353-1.359-3.651-3.194-3.654-5.167s1.277-3.787,3.6-5.139A16.892,16.892,0,0,1,30,538.831a17.092,17.092,0,0,1,8.412,2.026c2.345,1.355,3.638,3.187,3.639,5.159s-1.273,3.775-3.588,5.117A16.964,16.964,0,0,1,30.07,553.159Zm-8.248-3.094.368.212a16.013,16.013,0,0,0,7.88,1.882,15.958,15.958,0,0,0,7.888-1.891c1.994-1.155,3.091-2.665,3.09-4.251s-1.116-3.125-3.139-4.294A16.085,16.085,0,0,0,30,539.831a15.886,15.886,0,0,0-7.856,1.881c-2,1.165-3.107,2.683-3.105,4.273C19.038,547.487,20.024,548.924,21.823,550.065Z" fill="#fff"/>
    </g>
    <path id="stroke-circle" d="M468.381,14.311a17.611,17.611,0,0,1-7.621-1.61v.045l-.75-.433c-2.353-1.359-3.651-3.194-3.654-5.167s1.277-3.787,3.6-5.139a16.892,16.892,0,0,1,8.359-2.016,17.092,17.092,0,0,1,8.412,2.026c2.345,1.355,3.638,3.187,3.639,5.159s-1.273,3.775-3.588,5.117A17.029,17.029,0,0,1,468.381,14.311Zm-8.238-3.086.367.212a16,16,0,0,0,7.871,1.874,16.022,16.022,0,0,0,7.9-1.884c1.993-1.155,3.09-2.665,3.089-4.251s-1.116-3.125-3.139-4.294A16.085,16.085,0,0,0,468.318.991a15.886,15.886,0,0,0-7.856,1.881c-2,1.165-3.108,2.683-3.105,4.273C457.358,8.647,458.344,10.084,460.143,11.225Z" transform="translate(887.49 119.508)" fill="#fff"/>
    <g id="pies" transform="translate(887.49 119.508)">
      <g id="_5" data-name="5">
        <path id="Path_20950" data-name="Path 20950" d="M497.82,220.55l-.17,17.1c-.01,4.33-2.86,8.65-8.55,11.96-11.41,6.63-30.01,6.63-41.54-.03-5.78-3.34-8.67-7.72-8.65-12.1l.17-17.1c-.01,4.38,2.87,8.76,8.65,12.1,11.53,6.66,30.13,6.66,41.54.03C494.96,229.2,497.81,224.88,497.82,220.55Z" fill="url(#linear-gradient-3)"/>
        <path id="top-3" data-name="top" d="M447.76,232.51c-11.53-6.66-11.59-17.43-.14-24.09,11.41-6.63,30.01-6.63,41.54.03,11.49,6.63,11.55,17.4.14,24.03C477.84,239.14,459.25,239.14,447.76,232.51Z" fill="#00b2a9"/>
        <path id="Path_20952" data-name="Path 20952" d="M460.34,225.18c-4.52-2.61-4.54-6.83-.05-9.44,4.47-2.6,11.75-2.6,16.27.01,4.5,2.6,4.52,6.82.05,9.41-4.49,2.61-11.77,2.61-16.27.01Z" fill="#007"/>
      </g>
      <g id="_4" data-name="4">
        <path id="Path_20953" data-name="Path 20953" d="M497.82,186.44l-.17,17.1c-.01,4.33-2.86,8.65-8.55,11.96-11.41,6.63-30.01,6.63-41.54-.03-5.78-3.34-8.67-7.72-8.65-12.1l.17-17.1c-.01,4.38,2.87,8.76,8.65,12.1,11.53,6.66,30.13,6.66,41.54.03C494.96,195.09,497.81,190.77,497.82,186.44Z" fill="url(#linear-gradient-3)"/>
        <path id="top-4" data-name="top" d="M447.76,198.4c-11.53-6.66-11.59-17.43-.14-24.09,11.41-6.63,30.01-6.63,41.54.03,11.49,6.63,11.55,17.4.14,24.03C477.84,205.03,459.25,205.03,447.76,198.4Z" fill="#00b2a9"/>
        <path id="Path_20955" data-name="Path 20955" d="M460.34,191.07c-4.52-2.61-4.54-6.83-.05-9.44,4.47-2.6,11.75-2.6,16.27.01,4.5,2.6,4.52,6.82.05,9.41-4.49,2.61-11.77,2.61-16.27.01Z" fill="#007"/>
      </g>
      <g id="_3" data-name="3">
        <path id="Path_20956" data-name="Path 20956" d="M497.82,152.33l-.17,17.1c-.01,4.33-2.86,8.65-8.55,11.96-11.41,6.63-30.01,6.63-41.54-.03-5.78-3.34-8.67-7.72-8.65-12.1l.17-17.1c-.01,4.38,2.87,8.76,8.65,12.1,11.53,6.66,30.13,6.66,41.54.03C494.96,160.98,497.81,156.66,497.82,152.33Z" fill="url(#linear-gradient-3)"/>
        <path id="top-5" data-name="top" d="M447.76,164.29c-11.53-6.66-11.59-17.43-.14-24.09,11.41-6.63,30.01-6.63,41.54.03,11.49,6.63,11.55,17.4.14,24.03C477.84,170.92,459.25,170.92,447.76,164.29Z" fill="#00b2a9"/>
        <path id="Path_20958" data-name="Path 20958" d="M460.34,156.96c-4.52-2.61-4.54-6.83-.05-9.44,4.47-2.6,11.75-2.6,16.27.01,4.5,2.6,4.52,6.82.05,9.41-4.49,2.61-11.77,2.61-16.27.01Z" fill="#007"/>
      </g>
      <g id="_2" data-name="2">
        <path id="Path_20959" data-name="Path 20959" d="M497.82,118.22l-.17,17.1c-.01,4.33-2.86,8.65-8.55,11.96-11.41,6.63-30.01,6.63-41.54-.03-5.78-3.34-8.67-7.72-8.65-12.1l.17-17.1c-.01,4.38,2.87,8.76,8.65,12.1,11.53,6.66,30.13,6.66,41.54.03,5.69-3.31,8.54-7.63,8.55-11.96Z" fill="url(#linear-gradient-3)"/>
        <path id="top-6" data-name="top" d="M447.76,130.18c-11.53-6.66-11.59-17.43-.14-24.09,11.41-6.63,30.01-6.63,41.54.03,11.49,6.63,11.55,17.4.14,24.03C477.84,136.81,459.25,136.81,447.76,130.18Z" fill="#00b2a9"/>
        <path id="Path_20961" data-name="Path 20961" d="M460.34,122.85c-4.52-2.61-4.54-6.83-.05-9.44,4.47-2.6,11.75-2.6,16.27.01,4.5,2.6,4.52,6.82.05,9.41-4.49,2.61-11.77,2.61-16.27.01Z" fill="#007"/>
      </g>
      <g id="_1" data-name="1">
        <path id="Path_20962" data-name="Path 20962" d="M497.82,84.1l-.17,17.1c-.01,4.33-2.86,8.65-8.55,11.96-11.41,6.63-30.01,6.63-41.54-.03-5.78-3.34-8.67-7.72-8.65-12.1l.17-17.1c-.01,4.38,2.87,8.76,8.65,12.1,11.53,6.66,30.13,6.66,41.54.03C494.96,92.75,497.81,88.43,497.82,84.1Z" fill="url(#linear-gradient-3)"/>
        <path id="top-7" data-name="top" d="M447.76,96.06c-11.53-6.66-11.59-17.43-.14-24.09,11.41-6.63,30.01-6.63,41.54.03,11.49,6.63,11.55,17.4.14,24.03C477.84,102.69,459.25,102.69,447.76,96.06Z" fill="#00b2a9"/>
        <path id="shadow" d="M460.34,88.74c-4.52-2.61-4.54-6.83-.05-9.44,4.47-2.6,11.75-2.6,16.27.01,4.5,2.6,4.52,6.82.05,9.41-4.49,2.61-11.77,2.61-16.27.01Z" fill="#007"/>
      </g>
      <path id="white-2" data-name="white" d="M460.26,49.5c-4.52-2.61-4.54-6.83-.05-9.44,4.47-2.6,11.75-2.6,16.27.01,4.5,2.6,4.52,6.82.05,9.41-4.49,2.61-11.77,2.61-16.27.01Z" fill="#fff"/>
    </g>
    <g id="boxes" transform="translate(887.49 119.508)">
      <g id="big">
        <path id="top-8" data-name="top" d="M405.2,219.75l-73.22,42.54-73.69-42.54,73.22-42.55Z" fill="#00b2a9"/>
        <path id="Path_20966" data-name="Path 20966" d="M405.2,219.75l-.3,105.83-73.22,42.55.3-105.84Z" fill="#3b93d2"/>
        <path id="Path_20967" data-name="Path 20967" d="M331.98,262.29l-.3,105.84-73.69-42.55.3-105.83Z" fill="#007"/>
      </g>
      <g id="Group_14960" data-name="Group 14960">
        <path id="shadow-2" data-name="shadow" d="M351.15,205.98l-19.34,11.24-19.47-11.24,19.34-11.24Z" fill="#007"/>
        <path id="Path_20969" data-name="Path 20969" d="M351.23,127.54l-19.29,11.21-19.41-11.21,19.29-11.21Z" fill="#00b2a9"/>
        <path id="white-3" data-name="white" d="M341.55,48.35l-9.64,5.6-9.7-5.6,9.64-5.6Z" fill="#fff"/>
        <path id="Path_20971" data-name="Path 20971" d="M351.23,127.54l-.08,27.88-19.29,11.21.08-27.88Z" fill="#3b93d2"/>
        <path id="Path_20972" data-name="Path 20972" d="M331.94,138.75l-.08,27.88-19.41-11.21.08-27.88Z" fill="#007"/>
        <g id="smallest">
          <path id="top-9" data-name="top" d="M341.55,73.7l-9.62,5.59-9.68-5.59,9.62-5.59Z" fill="#00b2a9"/>
          <path id="Path_20974" data-name="Path 20974" d="M341.55,73.7l-.04,13.9-9.62,5.59.04-13.9Z" fill="#3b93d2"/>
          <path id="Path_20975" data-name="Path 20975" d="M331.93,79.29l-.04,13.9-9.68-5.59.04-13.9Z" fill="#007"/>
        </g>
      </g>
    </g>
    <g id="buble" transform="translate(887.49 119.508)" style="mix-blend-mode: normal;isolation: isolate">
      <path id="Path_20976" data-name="Path 20976" d="M294.94,326.14c20.18,11.72,53.06,11.72,73.45-.05,10.22-5.9,15.32-13.66,15.3-21.4l.3,207.02c.02,7.74-5.08,15.5-15.3,21.4-20.39,11.77-53.28,11.77-73.46.05h0a73.835,73.835,0,0,1-36.73-63.68l-.21-164.64Z" fill="url(#linear-gradient)"/>
      <path id="top-10" data-name="top" d="M258.29,304.84l36.65,21.3c20.18,11.73,53.06,11.73,73.45-.05,20.31-11.73,20.42-30.77.24-42.5l-36.65-21.3Z" fill="#00b2a9"/>
    </g>
    <g id="stroke-box-small" transform="translate(887.49 119.508)">
      <path id="Path_20978" data-name="Path 20978" d="M78.689,67.392l10.7,6.177L78.751,79.748,68.063,73.571Zm8.7,6.179-8.7-5.023-8.634,5.021,8.692,5.023Z" fill="#fff"/>
      <g id="box">
        <path id="Path_20979" data-name="Path 20979" d="M78.709,92.752l10.678,6.166-10.617,6.169L68.092,98.921Zm8.683,6.169-8.682-5.014-8.623,5.011,8.682,5.014Z" fill="#fff"/>
        <path id="Path_20980" data-name="Path 20980" d="M88.893,98.05l-.043,15.059L78.228,119.28l.043-15.059Zm-1.042,14.482.037-12.741L79.269,104.8l-.037,12.741Z" fill="#fff"/>
        <path id="Path_20981" data-name="Path 20981" d="M68.592,98.055l10.679,6.167-.043,15.053-10.668-6.167Zm9.677,6.743-8.681-5.013-.028,12.747,8.672,5.013Z" fill="#fff"/>
      </g>
    </g>
    <g id="buble3" transform="translate(887.49 119.508)" style="mix-blend-mode: normal;isolation: isolate">
      <path id="Path_20982" data-name="Path 20982" d="M395.64,479.99c16.46,9.56,43.28,9.56,59.91-.04,8.34-4.81,12.5-11.14,12.48-17.45l.24,8.66c.02,6.31-4.15,12.64-12.48,17.45-16.63,9.6-43.46,9.6-59.91.04l-29.89-17.37-.24-8.66Z" fill="url(#linear-gradient)"/>
      <path id="top-11" data-name="top" d="M365.74,462.62l29.89,17.37c16.46,9.56,43.28,9.56,59.91-.04,16.57-9.56,16.65-25.1.19-34.66l-29.89-17.37-60.11,34.7Z" fill="#00b2a9"/>
    </g>
    <g id="buble2" transform="translate(887.49 119.508)" style="mix-blend-mode: normal;isolation: isolate">
      <path id="Path_20984" data-name="Path 20984" d="M395.64,457.98c16.46,9.56,43.28,9.56,59.91-.04,8.34-4.81,12.5-11.14,12.48-17.45l.24,8.66c.02,6.31-4.15,12.64-12.48,17.45-16.63,9.6-43.46,9.6-59.91.04l-29.89-17.37-.24-8.66Z" fill="url(#linear-gradient)"/>
      <path id="top-12" data-name="top" d="M365.74,440.61l29.89,17.37c16.46,9.56,43.28,9.56,59.91-.04,16.57-9.56,16.65-25.1.19-34.66l-29.89-17.37-60.11,34.7Z" fill="#00b2a9"/>
    </g>
    <g id="buble1" transform="translate(887.49 119.508)" style="mix-blend-mode: normal;isolation: isolate">
      <path id="Path_20986" data-name="Path 20986" d="M395.64,435.96c16.46,9.56,43.28,9.56,59.91-.04,8.34-4.81,12.5-11.14,12.48-17.45l.24,8.66c.02,6.31-4.15,12.64-12.48,17.45-16.63,9.6-43.46,9.6-59.91.04l-29.89-17.37-.24-8.66Z" fill="url(#linear-gradient)"/>
      <path id="top-13" data-name="top" d="M365.74,418.59l29.89,17.37c16.46,9.56,43.28,9.56,59.91-.04s16.65-25.1.19-34.66l-29.89-17.37-60.11,34.7Z" fill="#00b2a9"/>
    </g>
    <g id="pie" transform="translate(887.49 119.508)">
      <path id="Path_20988" data-name="Path 20988" d="M661.29,262.43l-.48,21.05c-.03,8.92-5.92,17.82-17.65,24.63-23.53,13.64-61.85,13.6-85.6-.15-11.9-6.89-17.84-15.93-17.81-24.96l.48-21.05c-.04,9.02,5.9,18.07,17.81,24.96,23.75,13.75,62.07,13.79,85.6.15C655.38,280.26,661.26,271.35,661.29,262.43Z" fill="url(#linear-gradient)"/>
      <path id="top-14" data-name="top" d="M558.05,287.01c-23.76-13.72-23.89-35.92-.28-49.64,23.51-13.66,61.84-13.67,85.6.06s23.79,35.86.28,49.53c-23.61,13.72-61.93,13.72-85.6.06Z" fill="#00b2a9"/>
    </g>
    <g id="stoke-box" transform="translate(887.49 119.508)">
      <path id="Path_20990" data-name="Path 20990" d="M600.641,193.738l-22.7-13.1L600.5,167.532l22.688,13.107Zm-20.7-13.1,20.7,11.944,20.553-11.941L600.5,168.688Z" fill="#fff"/>
      <path id="Path_20991" data-name="Path 20991" d="M600.529,120.362l11.838,6.836L600.6,134.038,588.763,127.2Zm9.843,6.839-9.842-5.684-9.773,5.681,9.842,5.684Z" fill="#fff"/>
      <path id="Path_20992" data-name="Path 20992" d="M622.7,179.768l-.1,15.471-22.554,13.1.1-15.471ZM621.6,194.661l.083-13.149-20.546,11.937-.083,13.149Z" fill="#fff"/>
      <path id="Path_20993" data-name="Path 20993" d="M578.445,179.777l22.7,13.095-.1,15.46-22.7-13.095Zm21.693,13.67-20.7-11.945-.083,13.16,20.7,11.945Z" fill="#fff"/>
    </g>
    <path id="rectangle-shadow" d="M619.93,260.42l-19.35,11.24-19.47-11.24,19.35-11.24Z" transform="translate(887.49 119.508)" fill="#007"/>
  </g>
</svg>
