<svg xmlns="http://www.w3.org/2000/svg" width="773.125" height="703.023" viewBox="0 0 773.125 703.023">
  <g id="illustration-website-security" transform="translate(-1488.684 174.551)" opacity="0.5">
    <path id="Path_502" data-name="Path 502" d="M928.521,473.294H866.06a10.417,10.417,0,0,1-10.416-10.417v-62.46A10.417,10.417,0,0,0,845.227,390H584.95a10.417,10.417,0,0,0-10.417,10.417v62.46a10.417,10.417,0,0,1-10.417,10.417h-62.46A10.417,10.417,0,0,0,491.24,483.71V712.757a10.417,10.417,0,0,0,10.416,10.416h62.46a10.417,10.417,0,0,1,10.417,10.417v62.46a10.417,10.417,0,0,0,10.417,10.417H845.227a10.417,10.417,0,0,0,10.417-10.417V733.59a10.417,10.417,0,0,0-10.417-10.417H584.95a10.417,10.417,0,0,1-10.417-10.416V650.3A10.417,10.417,0,0,1,584.95,639.88H928.5a10.417,10.417,0,0,0,10.416-10.416V483.71A10.388,10.388,0,0,0,928.521,473.294ZM855.643,546.17a10.417,10.417,0,0,1-10.417,10.417H584.95a10.417,10.417,0,0,1-10.417-10.417V483.71a10.417,10.417,0,0,1,10.417-10.416H845.227a10.417,10.417,0,0,1,10.417,10.416Z" transform="translate(1015.841 -461.505)" fill="none" stroke="#00b2a9" stroke-width="2"/>
    <path id="Path_503" data-name="Path 503" d="M683.5,350.511H578.344a17.355,17.355,0,0,0-17.526,17.526V473.19a17.355,17.355,0,0,1-17.526,17.526H157.73A17.355,17.355,0,0,0,140.2,508.241V753.6a17.355,17.355,0,0,1-17.526,17.526H17.526A17.355,17.355,0,0,1,0,753.6V17.526A17.355,17.355,0,0,1,17.526,0H122.679A17.355,17.355,0,0,1,140.2,17.526v315.46a17.355,17.355,0,0,0,17.526,17.526H543.293a17.355,17.355,0,0,0,17.526-17.526V17.526A17.355,17.355,0,0,1,578.344,0H683.5a17.355,17.355,0,0,1,17.526,17.526v315.46A17.576,17.576,0,0,1,683.5,350.511" transform="translate(2260.809 -173.551) rotate(90)" fill="none" stroke="#00b2a9" stroke-width="2"/>
  </g>
</svg>
