<svg xmlns="http://www.w3.org/2000/svg" width="555" height="431.493" viewBox="0 0 555 431.493">
  <g id="illustration-domainalert" transform="translate(-134 -1004.64)">
    <g id="Group_15293" data-name="Group 15293" transform="translate(135 1166.395)">
      <path id="Path_21559" data-name="Path 21559" d="M207.3,81.59a43.159,43.159,0,0,0-43.129.061l-42.095,24.374a28.773,28.773,0,0,1-28.753.041L15.25,61.15a28.527,28.527,0,0,1-.07-49.459" transform="translate(-0.909 78.372)" fill="none" stroke="#d92a92" stroke-width="2"/>
      <path id="Path_21560" data-name="Path 21560" d="M15.25,111.183a28.527,28.527,0,0,1-.07-49.459L92.472,16.969a28.772,28.772,0,0,1,28.753-.04l49.741,28.615a28.773,28.773,0,0,0,28.753-.04L262.826,8.961" transform="translate(-0.909 28.338)" fill="none" stroke="#d92a92" stroke-width="2"/>
      <path id="Path_21561" data-name="Path 21561" d="M20,94.829,62.141,70.585a9.717,9.717,0,0,0,.024-16.847l-9.3-5.385a9.717,9.717,0,0,1,.024-16.847l9.488-5.531a9.717,9.717,0,0,0-.025-16.819" transform="translate(350.347 31.902)" fill="none" stroke="#d92a92" stroke-width="2"/>
      <path id="Path_21562" data-name="Path 21562" d="M355.576,95.65a19.434,19.434,0,0,0,.048-33.694L302.969,31.466a19.6,19.6,0,0,0-19.588-.028L249.495,50.932a19.6,19.6,0,0,1-19.588-.028l-69.086-40A28.772,28.772,0,0,0,132,10.9L18.291,76.742a14.264,14.264,0,0,0-.036,24.688l13.927,8.119a14.311,14.311,0,0,1-.036,24.771l-13.579,7.863a14.264,14.264,0,0,0,.035,24.73l38.89,22.372a28.773,28.773,0,0,0,28.682,0l92.31-53.1,46.255-26.608a29.4,29.4,0,0,1,29.381.042l28.677,16.6a19.6,19.6,0,0,0,19.588.028l53.191-30.6a19.434,19.434,0,0,0,.048-33.694" transform="translate(187.653 -7.032)" fill="none" stroke="#d92a92" stroke-width="2"/>
    </g>
    <g id="Group_15280" data-name="Group 15280" transform="translate(28.09 875.32)">
      <path id="Path_21309" data-name="Path 21309" d="M9.043,11.618l11.128,6.428,11.042-6.428L20.1,5.19Z" transform="translate(110.84 226.441)" fill="#d92a92"/>
      <path id="Path_24333" data-name="Path 24333" d="M9.043,11.618l11.128,6.428,11.042-6.428L20.1,5.19Z" transform="translate(345.328 361.362)" fill="#d92a92"/>
      <path id="Path_21310" data-name="Path 21310" d="M11.187,12.855l11.128,6.428,11.042-6.428L22.246,6.427Z" transform="translate(145.74 246.587)" fill="#d92a92"/>
      <path id="Path_21311" data-name="Path 21311" d="M13.331,14.076,24.459,20.5,35.5,14.076,24.39,7.666Z" transform="translate(180.639 266.749)" fill="#d92a92"/>
      <path id="Path_21312" data-name="Path 21312" d="M15.475,15.331,26.6,21.759l11.042-6.428L26.533,8.9Z" transform="translate(215.539 286.893)" fill="#d92a92"/>
      <path id="Path_24337" data-name="Path 24337" d="M17.618,16.569,28.746,23l11.042-6.428L28.677,10.141Z" transform="translate(494.118 430.54)" fill="#d92a92"/>
      <path id="Path_21314" data-name="Path 21314" d="M19.762,17.806l11.111,6.428,11.059-6.428L30.821,11.378Z" transform="translate(272.367 222.573)" fill="#d92a92"/>
      <path id="Path_24338" data-name="Path 24338" d="M19.762,17.806l11.111,6.428,11.059-6.428L30.821,11.378Z" transform="translate(529.017 450.686)" fill="#d92a92"/>
      <path id="Path_24341" data-name="Path 24341" d="M32.619,22.513l11.059,6.428,11.111-6.428L43.747,16.085Z" transform="translate(237.339 368.974)" fill="#d92a92"/>
      <path id="Path_21319" data-name="Path 21319" d="M30.475,23.751l11.059,6.428,11.111-6.428L41.6,17.323Z" transform="translate(459.091 238.012)" fill="#d92a92"/>
      <path id="Path_24340" data-name="Path 24340" d="M30.475,23.751l11.059,6.428,11.111-6.428L41.6,17.323Z" transform="translate(202.439 389.119)" fill="#d92a92"/>
      <path id="Path_21320" data-name="Path 21320" d="M28.331,24.988,39.39,31.416,50.5,24.988,39.442,18.56Z" transform="translate(424.191 258.158)" fill="#d92a92"/>
      <path id="Path_24339" data-name="Path 24339" d="M28.331,24.988,39.39,31.416,50.5,24.988,39.442,18.56Z" transform="translate(167.539 409.265)" fill="#d92a92"/>
      <path id="Path_21321" data-name="Path 21321" d="M213.173,74.3l-97.439,56.625L17.656,74.3l97.439-56.625Z" transform="translate(250.403 243.808)" fill="#89bee4"/>
      <path id="Path_21322" data-name="Path 21322" d="M17.656,20.956V67.714l97.681,56.4.4-46.534Z" transform="translate(250.403 297.155)" fill="#007"/>
      <path id="Path_21323" data-name="Path 21323" d="M22,31.48l5.529,3.2.069-6.843L22,24.62Z" transform="translate(321.176 356.81)" fill="#89bee4"/>
      <path id="Path_21324" data-name="Path 21324" d="M70.909,52.841,18.656,22.688v6.86L70.909,59.7Z" transform="translate(266.681 325.358)" fill="#89bee4"/>
      <path id="Path_21325" data-name="Path 21325" d="M213.173,70.479,115.734,127.1,17.656,70.479l97.439-56.625Z" transform="translate(250.403 181.549)" fill="#89bee4"/>
      <path id="Path_21326" data-name="Path 21326" d="M17.656,17.131V63.889l97.681,56.4.4-46.533Z" transform="translate(250.403 234.896)" fill="#007"/>
      <path id="Path_21327" data-name="Path 21327" d="M22,27.672l5.529,3.2.069-6.843L22,20.795Z" transform="translate(321.176 294.539)" fill="#89bee4"/>
      <path id="Path_21328" data-name="Path 21328" d="M70.909,49.016,18.656,18.864v6.86L70.909,55.876Z" transform="translate(266.681 263.099)" fill="#89bee4"/>
      <path id="Path_21329" data-name="Path 21329" d="M213.173,66.655l-97.439,56.625L17.656,66.655,115.095,10.03Z" transform="translate(250.403 119.29)" fill="#89bee4"/>
      <path id="Path_21330" data-name="Path 21330" d="M17.656,13.307V60.065l97.681,56.4.4-46.534Z" transform="translate(250.403 172.637)" fill="#007"/>
      <path id="Path_21439" data-name="Path 21439" d="M115.733,13.307V60.065l-97.68,56.4-.4-46.534Z" transform="translate(347.433 172.639)" fill="#3b93d2"/>
      <path id="Path_21440" data-name="Path 21440" d="M115.733,13.307V60.065l-97.68,56.4-.4-46.534Z" transform="translate(347.433 238.719)" fill="#3b93d2"/>
      <path id="Path_21441" data-name="Path 21441" d="M115.733,13.307V60.065l-97.68,56.4-.4-46.534Z" transform="translate(347.433 304.802)" fill="#3b93d2"/>
      <path id="Path_21331" data-name="Path 21331" d="M22,23.848l5.529,3.179L27.6,20.2,22,16.971Z" transform="translate(321.176 232.285)" fill="#89bee4"/>
      <path id="Path_21332" data-name="Path 21332" d="M70.909,45.192,18.656,15.039V21.9L70.909,52.052Z" transform="translate(266.681 200.841)" fill="#89bee4"/>
    </g>
    <line id="Line_513" data-name="Line 513" y1="60.145" x2="104.175" transform="translate(515.039 1029.406)" fill="none" stroke="#d92a92" stroke-width="2"/>
    <line id="Line_514" data-name="Line 514" y1="60.145" x2="104.175" transform="translate(493.041 1055.468)" fill="none" stroke="#d92a92" stroke-width="2"/>
    <line id="Line_512" data-name="Line 512" y1="60.145" x2="104.175" transform="translate(206.354 1349.234)" fill="none" stroke="#d92a92" stroke-width="2"/>
    <line id="Line_515" data-name="Line 515" y1="60.145" x2="104.175" transform="translate(187 1375.122)" fill="none" stroke="#d92a92" stroke-width="2"/>
  </g>
</svg>
