<svg xmlns="http://www.w3.org/2000/svg" xmlns:xlink="http://www.w3.org/1999/xlink" width="571.73" height="563.516" viewBox="0 0 571.73 563.516">
  <defs>
    <linearGradient id="linear-gradient" y1="0.5" x2="1" y2="0.5" gradientUnits="objectBoundingBox">
      <stop offset="0" stop-color="#007"/>
      <stop offset="0.99" stop-color="#3b93d2"/>
    </linearGradient>
    <linearGradient id="linear-gradient-2" x1="0" y1="0.5" x2="1" y2="0.5" xlink:href="#linear-gradient"/>
    <linearGradient id="linear-gradient-3" x1="0" y1="0.5" x2="1" y2="0.5" xlink:href="#linear-gradient"/>
    <linearGradient id="linear-gradient-4" x1="0" y1="0.5" x2="1" y2="0.5" xlink:href="#linear-gradient"/>
  </defs>
  <g id="illustration-ms-sql" transform="translate(0 0.006)">
    <path id="Path_16955" data-name="Path 16955" d="M571.73,91.24l-12.34,7.17-12.42-7.17,12.34-7.17Z" fill="#fff"/>
    <path id="Path_16956" data-name="Path 16956" d="M37.25,327.29l-12.33,7.17L12.5,327.29l12.34-7.17Z" fill="#fff"/>
    <g id="flat-box">
      <path id="top" d="M49.65,388.52,24.96,402.87.1,388.52l24.7-14.36Z" fill="#00b2a9"/>
      <path id="Path_16958" data-name="Path 16958" d="M49.65,388.52l-.1,16.4L24.86,419.27l.1-16.4Z" fill="#3b93d2"/>
      <path id="Path_16959" data-name="Path 16959" d="M24.96,402.87l-.1,16.4L0,404.92l.1-16.4Z" fill="#007"/>
    </g>
    <g id="big-cylinder">
      <g id="bottom">
        <path id="Path_16960" data-name="Path 16960" d="M451.33,361.24l-.22,76.63c-.02,5.54-3.66,11.08-10.95,15.31-14.61,8.49-38.42,8.49-53.18-.03-7.4-4.27-11.1-9.89-11.08-15.49l.22-76.63c-.02,5.61,3.68,11.22,11.08,15.49,14.76,8.52,38.58,8.52,53.18.03C447.67,372.32,451.32,366.78,451.33,361.24Z" fill="url(#linear-gradient)"/>
        <path id="Path_16961" data-name="Path 16961" d="M387.24,376.55c-14.76-8.52-14.84-22.32-.17-30.84,14.61-8.49,38.42-8.49,53.18.03,14.7,8.49,14.78,22.28.17,30.77-14.67,8.52-38.48,8.52-53.18.03Z"/>
        <path id="Path_16962" data-name="Path 16962" d="M403.35,367.17c-5.78-3.34-5.81-8.74-.07-12.08,5.72-3.33,15.05-3.33,20.83.01,5.76,3.33,5.79,8.73.07,12.05-5.75,3.34-15.07,3.34-20.83.01Z" fill="#007"/>
      </g>
      <g id="big-cylinder-2" data-name="big-cylinder" style="mix-blend-mode: normal;isolation: isolate">
        <path id="Path_16963" data-name="Path 16963" d="M480.31,142.74l-.38,235.41c-.03,9.8-6.48,19.59-19.36,27.08-25.83,15.01-67.94,15.01-94.05-.06-13.08-7.55-19.62-17.48-19.59-27.4l.38-235.41c-.03,9.91,6.51,19.84,19.59,27.4,26.11,15.07,68.21,15.07,94.05.06C473.84,162.33,480.29,152.54,480.31,142.74Z" fill="url(#linear-gradient-2)"/>
        <path id="top-2" data-name="top" d="M366.98,169.82c-26.11-15.07-26.25-39.46-.31-54.54,25.83-15.01,67.94-15.01,94.05.06,26,15.01,26.14,39.4.31,54.41-25.94,15.07-68.04,15.07-94.04.06Z" fill="#00b2a9"/>
      </g>
      <path id="Path_16965" data-name="Path 16965" d="M451.33,58.03l-.22,76.63c-.02,5.54-3.66,11.08-10.95,15.31-14.61,8.49-38.42,8.49-53.18-.03-7.4-4.27-11.1-9.89-11.08-15.49l.22-76.63c-.02,5.61,3.68,11.22,11.08,15.49,14.76,8.52,38.58,8.52,53.18.03,7.29-4.23,10.94-9.77,10.95-15.31Z" fill="url(#linear-gradient-3)"/>
      <path id="top-3" data-name="top" d="M387.24,73.34c-14.76-8.52-14.84-22.32-.17-30.84,14.61-8.49,38.42-8.49,53.18.03,14.7,8.49,14.78,22.28.17,30.77-14.67,8.52-38.48,8.52-53.18.03Z" fill="#00b2a9"/>
      <path id="white-circle" d="M403.35,14.57c-5.78-3.34-5.81-8.74-.07-12.08C409-.84,418.33-.84,424.11,2.5c5.76,3.33,5.79,8.73.07,12.05-5.75,3.34-15.07,3.34-20.83.01Z" fill="#fff"/>
      <path id="shadow-circle" d="M403.35,63.96c-5.78-3.34-5.81-8.74-.07-12.08,5.72-3.33,15.05-3.33,20.83.01,5.76,3.33,5.79,8.73.07,12.05-5.75,3.34-15.07,3.34-20.83.01Z" fill="#007"/>
    </g>
    <path id="_1" data-name="1" d="M192.469,296.3a116.118,116.118,0,0,1,20.323,1.74,79.507,79.507,0,0,1,17.919,5.231l.3.131v.011a35.912,35.912,0,0,1,11.855,7.916,16.9,16.9,0,0,1,3.094,4.582,11.517,11.517,0,0,1,.037,9.534A16.707,16.707,0,0,1,242.965,330c-2.744,3.008-6.768,5.705-11.961,8.016a78.625,78.625,0,0,1-17.962,5.3,119.561,119.561,0,0,1-40.836.015,79.909,79.909,0,0,1-18.007-5.262c-5.247-2.307-9.319-5.008-12.1-8.029a16.867,16.867,0,0,1-3.081-4.574,11.525,11.525,0,0,1-.037-9.518A16.675,16.675,0,0,1,142,311.4a35.473,35.473,0,0,1,11.911-8,79.1,79.1,0,0,1,18.053-5.33A116.073,116.073,0,0,1,192.469,296.3Zm37.541,7.756a78.958,78.958,0,0,0-17.393-5.032,118.547,118.547,0,0,0-40.48.032,78.1,78.1,0,0,0-17.824,5.259,34.5,34.5,0,0,0-11.578,7.756c-2.507,2.755-3.775,5.654-3.768,8.614.007,2.982,1.307,5.9,3.863,8.674,2.691,2.919,6.651,5.54,11.771,7.791a78.913,78.913,0,0,0,17.78,5.193,118.562,118.562,0,0,0,40.483-.015A77.631,77.631,0,0,0,230.6,337.1c5.066-2.254,8.979-4.87,11.629-7.776,2.518-2.761,3.792-5.664,3.785-8.629-.007-2.987-1.313-5.91-3.88-8.689-2.7-2.924-6.679-5.552-11.822-7.811l-.3-.131Z" fill="#fff"/>
    <path id="_2" data-name="2" d="M192.48,354.485c9.731,0,18.952,1.51,26.286,4.278l-.143-.143,2.438,1.072a27.2,27.2,0,0,1,9.11,6.038,9.594,9.594,0,0,1,.077,14.1,26.759,26.759,0,0,1-8.964,6.014,58.764,58.764,0,0,1-13.434,3.967,86.5,86.5,0,0,1-15.281,1.32c-10.808,0-21-1.863-28.7-5.246a27.022,27.022,0,0,1-9.077-6.022,9.591,9.591,0,0,1-.072-14.08,26.584,26.584,0,0,1,8.936-5.992,59.183,59.183,0,0,1,13.5-3.984A86.75,86.75,0,0,1,192.48,354.485Zm28.777,6.391-.588-.258a58.405,58.405,0,0,0-13.174-3.847,88.315,88.315,0,0,0-30.161.023,58.188,58.188,0,0,0-13.27,3.914,25.614,25.614,0,0,0-8.6,5.752,8.6,8.6,0,0,0,.068,12.729,26.052,26.052,0,0,0,8.744,5.784,58.759,58.759,0,0,0,13.24,3.869,88.251,88.251,0,0,0,30.161-.012,57.771,57.771,0,0,0,13.2-3.9,25.789,25.789,0,0,0,8.632-5.775,8.605,8.605,0,0,0-.072-12.75A25.514,25.514,0,0,0,221.257,360.876Z" fill="#fff"/>
    <path id="_3" data-name="3" d="M192.463,400.506c7.215,0,14.015,1.242,19.148,3.5a18.3,18.3,0,0,1,6.133,4.067,7.12,7.12,0,0,1,2.129,4.832c.007,3.375-2.877,6.516-8.121,8.846-5.128,2.284-11.955,3.542-19.224,3.542-7.229,0-14.048-1.247-19.2-3.511a18.176,18.176,0,0,1-6.107-4.053A7.116,7.116,0,0,1,165.1,412.9c-.009-3.374,2.863-6.513,8.087-8.84C178.334,401.769,185.18,400.506,192.463,400.506Zm.067,23.783c7.131,0,13.814-1.227,18.817-3.456a17.033,17.033,0,0,0,5.708-3.807,5.573,5.573,0,0,0-.044-8.279,17.327,17.327,0,0,0-5.8-3.83c-5.009-2.2-11.667-3.412-18.746-3.412-7.146,0-13.847,1.233-18.869,3.47a16.937,16.937,0,0,0-5.683,3.8,5.576,5.576,0,0,0,.046,8.267,17.206,17.206,0,0,0,5.774,3.815C178.76,423.072,185.436,424.289,192.529,424.289Z" fill="#fff"/>
    <path id="_4" data-name="4" d="M192.477,434.68a24.491,24.491,0,0,1,9.574,1.752c2.731,1.2,4.237,2.847,4.241,4.634s-1.477,3.412-4.169,4.611a27.018,27.018,0,0,1-19.225.011c-2.721-1.2-4.222-2.838-4.226-4.624s1.471-3.407,4.154-4.6A24.423,24.423,0,0,1,192.477,434.68Zm.033,11.77a23.337,23.337,0,0,0,9.206-1.687c2.275-1.013,3.579-2.36,3.576-3.695s-1.331-2.7-3.644-3.721a26.04,26.04,0,0,0-18.415.029c-2.266,1.008-3.564,2.351-3.561,3.685s1.326,2.7,3.629,3.711A23.562,23.562,0,0,0,192.51,446.45Z" fill="#fff"/>
    <g id="small-cylinder">
      <g id="bottom-2" data-name="bottom">
        <path id="Path_16973" data-name="Path 16973" d="M217.58,255.33l-.14,50.98c-.01,3.69-2.44,7.37-7.29,10.19-9.72,5.65-25.56,5.65-35.38-.02-4.92-2.84-7.38-6.58-7.37-10.31l.14-50.98c-.01,3.73,2.45,7.47,7.37,10.31,9.82,5.67,25.66,5.67,35.38.02,4.85-2.82,7.27-6.5,7.29-10.19Z" fill="url(#linear-gradient-4)"/>
        <path id="Path_16974" data-name="Path 16974" d="M174.94,265.52c-9.82-5.67-9.87-14.85-.12-20.52,9.72-5.65,25.56-5.65,35.38.02,9.78,5.65,9.83,14.82.12,20.47-9.76,5.67-25.6,5.67-35.38.02Z"/>
        <path id="Path_16975" data-name="Path 16975" d="M185.66,259.28c-3.85-2.22-3.87-5.82-.05-8.04a15.316,15.316,0,0,1,13.86,0c3.83,2.21,3.85,5.81.05,8.02a15.254,15.254,0,0,1-13.86,0Z" fill="#007"/>
      </g>
      <g id="big-cylinder-3" data-name="big-cylinder" style="mix-blend-mode: normal;isolation: isolate">
        <path id="Path_16976" data-name="Path 16976" d="M236.86,109.97l-.26,156.61c-.02,6.52-4.31,13.03-12.88,18.01-17.19,9.99-45.2,9.99-62.57-.04-8.71-5.03-13.05-11.63-13.03-18.23l.26-156.61c-.02,6.6,4.33,13.2,13.03,18.23,17.37,10.03,45.38,10.03,62.57.04,8.57-4.98,12.86-11.49,12.88-18.01Z" fill="url(#linear-gradient-3)"/>
        <path id="top-4" data-name="top" d="M161.46,127.99c-17.37-10.03-17.46-26.25-.2-36.28,17.19-9.99,45.2-9.99,62.57.04,17.3,9.99,17.39,26.21.2,36.2-17.26,10.03-45.27,10.03-62.57.04Z" fill="#00b2a9"/>
      </g>
      <path id="Path_16978" data-name="Path 16978" d="M217.58,53.61l-.14,50.98c-.01,3.69-2.44,7.37-7.29,10.19-9.72,5.65-25.56,5.65-35.38-.02-4.92-2.84-7.38-6.58-7.37-10.31l.14-50.98c-.01,3.73,2.45,7.47,7.37,10.31,9.82,5.67,25.66,5.67,35.38.02,4.85-2.82,7.27-6.5,7.29-10.19Z" fill="url(#linear-gradient-4)"/>
      <path id="top-5" data-name="top" d="M174.94,63.8c-9.82-5.67-9.87-14.85-.12-20.52s25.56-5.65,35.38.02c9.78,5.65,9.83,14.82.12,20.47-9.76,5.67-25.6,5.67-35.38.02Z" fill="#00b2a9"/>
      <path id="white-circle-2" data-name="white-circle" d="M185.66,24.7c-3.85-2.22-3.87-5.82-.05-8.04a15.316,15.316,0,0,1,13.86,0c3.83,2.21,3.85,5.81.05,8.02a15.254,15.254,0,0,1-13.86,0Z" fill="#fff"/>
      <path id="shadow-circle-2" data-name="shadow-circle" d="M185.66,57.56c-3.85-2.22-3.87-5.82-.05-8.04a15.316,15.316,0,0,1,13.86,0c3.83,2.21,3.85,5.81.05,8.02a15.254,15.254,0,0,1-13.86,0Z" fill="#007"/>
    </g>
    <g id="big" style="mix-blend-mode: normal;isolation: isolate">
      <path id="top-6" data-name="top" d="M399.55,336.86c-51.77,30.09-135.98,30.09-188.09,0l93.74-54.47Z" fill="#00b2a9"/>
      <path id="Path_16983" data-name="Path 16983" d="M399.55,336.86l-.38,171.31c-51.77,30.09-135.98,30.09-188.09,0l.38-171.31C263.57,366.95,347.78,366.95,399.55,336.86Z" fill="url(#linear-gradient-3)"/>
    </g>
    <path id="shadow-rectangle" d="M328.92,313.09l-23.53,13.67-23.67-13.67,23.52-13.67Z" fill="#007"/>
    <path id="top-white-rectangle" d="M316.62,188.24l-12.34,7.17-12.41-7.17,12.33-7.17Z" fill="#fff"/>
    <path id="bottom-white-rectangle" d="M316.62,556.34l-12.34,7.17-12.41-7.17,12.33-7.17Z" fill="#fff"/>
    <g id="small-box">
      <path id="top-7" data-name="top" d="M329.02,245.33l-24.7,14.35-24.85-14.35,24.69-14.35Z" fill="#00b2a9"/>
      <path id="Path_16988" data-name="Path 16988" d="M329.02,245.33l-.1,35.7-24.7,14.35.1-35.7Z" fill="#3b93d2"/>
      <path id="Path_16989" data-name="Path 16989" d="M304.32,259.68l-.1,35.7-24.85-14.35.1-35.7Z" fill="#007"/>
    </g>
    <g id="big-stroke-box">
      <path id="Path_16990" data-name="Path 16990" d="M81.071,157.508,55.213,142.582l25.7-14.939,25.848,14.937ZM57.207,142.578l23.862,13.774,23.694-13.771L80.911,128.8Z" fill="#fff"/>
      <path id="Path_16991" data-name="Path 16991" d="M80.949,77.742l13.408,7.746L81.031,93.238,67.612,85.491Zm11.414,7.749L80.951,78.9,69.608,85.489l11.421,6.594Z" fill="#fff"/>
      <path id="Path_16992" data-name="Path 16992" d="M106.262,141.71l-.1,36.849L80.468,193.49l.1-36.849Zm-1.1,36.272.1-34.531L81.569,157.218l-.1,34.531Z" fill="#fff"/>
      <path id="Path_16993" data-name="Path 16993" d="M55.712,141.715l25.858,14.926-.1,36.843L55.609,178.558Zm24.857,15.5L56.708,143.445l-.1,34.537,23.862,13.774Z" fill="#fff"/>
    </g>
    <g id="stroke-box">
      <path id="Path_16994" data-name="Path 16994" d="M480.279,303.312l25.848,14.926-25.687,14.929-25.859-14.926Zm23.853,14.929-23.852-13.774-23.7,13.771,23.861,13.774Z" fill="#fff"/>
      <path id="Path_16995" data-name="Path 16995" d="M480.319,249.262l13.418,7.746L480.4,264.758l-13.418-7.746Zm11.423,7.749-11.422-6.594-11.343,6.591L480.4,263.6Z" fill="#fff"/>
      <path id="Path_16996" data-name="Path 16996" d="M505.635,317.368l-.107,17.561-25.694,14.933.107-17.561Zm-1.1,16.983.093-15.239-23.686,13.767-.093,15.239Z" fill="#fff"/>
      <path id="Path_16997" data-name="Path 16997" d="M455.085,317.377,480.942,332.3l-.107,17.551-25.857-14.925Zm24.853,15.5L456.075,319.1l-.093,15.249,23.863,13.775Z" fill="#fff"/>
    </g>
  </g>
</svg>
