<svg xmlns="http://www.w3.org/2000/svg" xmlns:xlink="http://www.w3.org/1999/xlink" width="463.87" height="251" viewBox="0 0 463.87 251">
  <defs>
    <linearGradient id="linear-gradient" y1="0.5" x2="1" y2="0.5" gradientUnits="objectBoundingBox">
      <stop offset="0.429" stop-color="#007"/>
      <stop offset="0.89" stop-color="#3b93d2"/>
    </linearGradient>
    <linearGradient id="linear-gradient-3" x1="1.005" x2="0.235" xlink:href="#linear-gradient"/>
    <linearGradient id="linear-gradient-9" y1="0.5" x2="1" y2="0.5" gradientUnits="objectBoundingBox">
      <stop offset="0.641" stop-color="#007"/>
      <stop offset="0.89" stop-color="#3b93d2"/>
    </linearGradient>
  </defs>
  <g id="illustration-apodotikotita" transform="translate(1)">
    <line id="Line_505" data-name="Line 505" x1="74.86" y1="43.22" transform="translate(78.279 37.494)" fill="none" stroke="#00b2a9" stroke-width="2"/>
    <line id="Line_506" data-name="Line 506" x1="74.86" y1="43.22" transform="translate(60.439 15.884)" fill="none" stroke="#00b2a9" stroke-width="2"/>
    <g id="Group_15291" data-name="Group 15291" transform="translate(0 96.77)">
      <path id="Path_21509" data-name="Path 21509" d="M17.914,67.7a34.89,34.89,0,0,1,34.976.05L87.026,87.587a23.261,23.261,0,0,0,23.317.033l63.318-36.557a23.26,23.26,0,0,0,.057-40.255" transform="translate(263.17 62.494)" fill="none" stroke="#00b2a9" stroke-width="2"/>
      <path id="Path_21510" data-name="Path 21510" d="M215.827,91.278a23.26,23.26,0,0,0,.057-40.255L153.2,14.6a23.26,23.26,0,0,0-23.318-.033L89.548,37.854a23.261,23.261,0,0,1-23.318-.033L15.052,8.079" transform="translate(221.005 22.279)" fill="none" stroke="#00b2a9" stroke-width="2"/>
      <path id="Path_21511" data-name="Path 21511" d="M45.323,78,11.144,58.271a7.923,7.923,0,0,1-.02-13.712l7.541-4.383a7.923,7.923,0,0,0-.02-13.712l-7.694-4.5a7.923,7.923,0,0,1,.02-13.689" transform="translate(102.806 25.144)" fill="none" stroke="#00b2a9" stroke-width="2"/>
      <path id="Path_21512" data-name="Path 21512" d="M7.973,78.276a15.846,15.846,0,0,1-.039-27.424l42.7-24.815a15.846,15.846,0,0,1,15.885-.023L94,41.88a15.846,15.846,0,0,0,15.885-.022L165.913,9.3a23.26,23.26,0,0,1,23.375,0L281.5,62.887a11.63,11.63,0,0,1,.03,20.094l-11.294,6.608a11.669,11.669,0,0,0,.03,20.161l11.012,6.4a11.63,11.63,0,0,1-.029,20.128l-31.539,18.209a23.261,23.261,0,0,1-23.26,0l-74.86-43.22L114.078,89.61a23.769,23.769,0,0,0-23.827.034L66.994,103.159a15.847,15.847,0,0,1-15.885.023L7.973,78.277a15.846,15.846,0,0,1-.039-27.424" transform="translate(-0.05 -6.15)" fill="none" stroke="#00b2a9" stroke-width="2"/>
    </g>
    <line id="Line_507" data-name="Line 507" x1="74.86" y1="43.22" transform="translate(373.602 178.307)" fill="none" stroke="#00b2a9" stroke-width="2"/>
    <line id="Line_508" data-name="Line 508" x1="74.86" y1="43.22" transform="translate(299.812 145.8)" fill="none" stroke="#00b2a9" stroke-width="2"/>
    <line id="Line_509" data-name="Line 509" x1="74.86" y1="43.22" transform="translate(387.51 196.91)" fill="none" stroke="#00b2a9" stroke-width="2"/>
    <path id="Path_21513" data-name="Path 21513" d="M16.845,3.327l-.109,38.48-2.918-2.378L13.927.949Z" transform="translate(202.822 13.986)" fill="#3b93d2"/>
    <path id="Path_21514" data-name="Path 21514" d="M79.13,7.282C63.055-2,37.02-2,21.051,7.282,13.18,11.855,9.233,17.871,9.216,23.906l-.11,38.479c.017-6.033,3.964-12.049,11.835-16.624,15.97-9.279,42-9.279,58.079,0a42.254,42.254,0,0,1,4.222,2.9l.11-38.479a41.966,41.966,0,0,0-4.222-2.9Z" transform="translate(133.397 4.753)" fill="url(#linear-gradient)"/>
    <path id="Path_21515" data-name="Path 21515" d="M17.276,3.274l-3.095,1.8-3.114-1.8,3.095-1.8Z" transform="translate(162.28 21.754)" fill="#89bee4"/>
    <path id="Path_21516" data-name="Path 21516" d="M14.461,1.591l-.109,38.48-3.095,1.8.109-38.48Z" transform="translate(165.094 23.437)" fill="#3b93d2"/>
    <path id="Path_21517" data-name="Path 21517" d="M14.283,3.388l-.109,38.48-3.114-1.8.109-38.48Z" transform="translate(162.178 23.438)" fill="#007"/>
    <path id="Path_21518" data-name="Path 21518" d="M13.381,3.474l-3.093,1.8-3.115-1.8,3.093-1.8Z" transform="translate(104.908 24.687)" fill="#89bee4"/>
    <path id="Path_21519" data-name="Path 21519" d="M10.39,3.588l-.109,38.48-3.115-1.8L7.275,1.79Z" transform="translate(104.806 26.371)" fill="#007"/>
    <path id="Path_21520" data-name="Path 21520" d="M10.566,1.79l-.109,38.48-3.093,1.8.109-38.48Z" transform="translate(107.723 26.371)" fill="#3b93d2"/>
    <path id="Path_21521" data-name="Path 21521" d="M74.487,7.55C58.814-1.5,33.879-1.787,17.707,6.912L14.112,8.885,14,47.364,17.6,45.393c16.173-8.7,41.109-8.411,56.78.638,7.9,4.56,12.094,10.668,12.076,16.9l.11-38.481C86.58,18.22,82.388,12.112,74.487,7.55Z" transform="translate(205.555 8.428)" fill="url(#linear-gradient)"/>
    <path id="Path_21522" data-name="Path 21522" d="M8.552,40.293l.109-38.48A18.925,18.925,0,0,0,12.049,12.4l-.109,38.48A18.924,18.924,0,0,1,8.552,40.293Z" transform="translate(125.228 26.725)" fill="#007"/>
    <path id="Path_21523" data-name="Path 21523" d="M20.883,2.092l-.109,38.48a17.479,17.479,0,0,1-1.715,7.416l.109-38.48a17.482,17.482,0,0,0,1.715-7.416Z" transform="translate(280.037 30.832)" fill="#007"/>
    <path id="Path_21524" data-name="Path 21524" d="M15.142,5.713,13.448,7.28l-.109,38.481,1.693-1.567c7.187-4.176,18.9-4.118,26.136.058l.11-38.481c-7.233-4.176-18.949-4.233-26.136-.058Z" transform="translate(195.764 38.455)" fill="url(#linear-gradient-3)"/>
    <path id="Path_21525" data-name="Path 21525" d="M34.47,15.042,11.564,1.819,11.456,40.3,34.361,53.523l6.731,3.888L41.2,18.929Z" transform="translate(168.011 26.806)" fill="#007"/>
    <path id="Path_21526" data-name="Path 21526" d="M13.112,45.26l.109-38.48A6.785,6.785,0,0,1,14.4,3.047l-.109,38.48A6.783,6.783,0,0,0,13.112,45.26Z" transform="translate(192.418 44.892)" fill="#007"/>
    <path id="Path_21527" data-name="Path 21527" d="M58.606,31.425,44.541,23.306l-6.63-3.828L7.67,2.018,7.562,40.5,37.8,57.957l6.631,3.828L58.5,69.906l7.234,4.176L65.838,35.6Z" transform="translate(110.639 29.737)" fill="#007"/>
    <path id="Path_21528" data-name="Path 21528" d="M14.854,13.13a10.525,10.525,0,0,0-3.486,3.189L11.259,54.8a10.511,10.511,0,0,1,3.485-3.189l16.868-9.8.11-38.481-16.868,9.8Z" transform="translate(165.111 49.02)" fill="#3b93d2"/>
    <path id="Path_21529" data-name="Path 21529" d="M11.662,5.91l-.109,38.48-3.114-1.8.109-38.48Z" transform="translate(123.565 60.591)" fill="#007"/>
    <path id="Path_21530" data-name="Path 21530" d="M11.841,4.112l-.109,38.48-3.095,1.8L8.746,5.91Z" transform="translate(126.481 60.59)" fill="#3b93d2"/>
    <path id="Path_21531" data-name="Path 21531" d="M14.655,5.8l-3.095,1.8L8.446,5.8,11.541,4Z" transform="translate(123.667 58.907)" fill="#89bee4"/>
    <path id="Path_21532" data-name="Path 21532" d="M44.807,9.933a54.4,54.4,0,0,0-21.267-6.5L18.43,2.8l-.109,38.479,5.11.64a54.364,54.364,0,0,1,21.266,6.5C52.627,52.99,56.819,59.023,56.8,65.19l.11-38.481c.017-6.166-4.176-12.2-12.1-16.776Z" transform="translate(269.179 41.253)" fill="url(#linear-gradient)"/>
    <path id="Path_21533" data-name="Path 21533" d="M11.164,44.483,11.273,6a7.211,7.211,0,0,1,.2-1.67l-.109,38.48a7.216,7.216,0,0,0-.2,1.669Z" transform="translate(163.714 63.849)"/>
    <path id="Path_21534" data-name="Path 21534" d="M63.74,30.826l-.109,38.48L15.108,41.291l.109-38.48Z" transform="translate(221.825 41.416)" fill="#007"/>
    <path id="Path_21535" data-name="Path 21535" d="M23.715,4.322,23.606,42.8a18.226,18.226,0,0,1-2.434,8.867l.109-38.48a18.229,18.229,0,0,0,2.435-8.868Z" transform="translate(311.175 63.692)" fill="#007"/>
    <path id="Path_21536" data-name="Path 21536" d="M18.287,9.734,8.943,4.341,8.835,42.819l9.343,5.394,6.229,3.6.109-38.479Z" transform="translate(129.398 63.958)" fill="#007"/>
    <path id="Path_21537" data-name="Path 21537" d="M22.211,4.458,22.1,42.938,9.825,50.073l.109-38.48Z" transform="translate(143.98 65.696)" fill="#3b93d2"/>
    <path id="Path_21538" data-name="Path 21538" d="M60.878,30.291l-.109,38.48L14.054,41.8l.109-38.48Z" transform="translate(206.301 48.912)" fill="#007"/>
    <path id="Path_21539" data-name="Path 21539" d="M20.227,4.919,20.118,43.4l-3.095,1.8.109-38.48Z" transform="translate(250.047 72.485)" fill="#3b93d2"/>
    <path id="Path_21540" data-name="Path 21540" d="M63.871,30.176l-3.095,1.8L14.061,5l3.095-1.8Z" transform="translate(206.403 47.228)" fill="#89bee4"/>
    <path id="Path_21541" data-name="Path 21541" d="M23.8,12.27l-.109,38.48c.008-2.777-1.835-5.563-5.5-7.679L18.3,4.591C21.965,6.707,23.809,9.493,23.8,12.27Z" transform="translate(267.265 67.65)" fill="#007"/>
    <path id="Path_21542" data-name="Path 21542" d="M20.642,7.06l-.109,38.48-3.114-1.8.109-38.48Z" transform="translate(255.88 77.536)" fill="#007"/>
    <path id="Path_21543" data-name="Path 21543" d="M20.82,5.262l-.109,38.48-3.095,1.8.109-38.48Z" transform="translate(258.796 77.536)" fill="#3b93d2"/>
    <path id="Path_21544" data-name="Path 21544" d="M14.676,5.374c-3.545,2.061-5.307,4.754-5.315,7.458l-.11,38.481c.008-2.7,1.77-5.4,5.315-7.46l.6-.348.109-38.479-.6.348Z" transform="translate(135.544 74.062)" fill="#3b93d2"/>
    <path id="Path_21545" data-name="Path 21545" d="M26.557,5.081l-.109,38.48c-.011,4-2.618,7.99-7.848,11.03l.109-38.48c5.231-3.04,7.837-7.03,7.849-11.03Z" transform="translate(273.271 74.866)" fill="#3b93d2"/>
    <path id="Path_21546" data-name="Path 21546" d="M20.732,13.883c-5.124-2.958-7.648-6.727-8.07-10.557l-.11,38.481c.423,3.828,2.947,7.6,8.07,10.557L69.146,80.379l.11-38.479L20.732,13.884Z" transform="translate(184.171 49.02)" fill="#007"/>
    <path id="Path_21547" data-name="Path 21547" d="M34.509,10.418,34.4,48.9c-6.61-.232-13.127-1.682-18.251-4.64l.109-38.48c5.124,2.958,11.641,4.408,18.251,4.64Z" transform="translate(237.168 85.141)" fill="url(#linear-gradient)"/>
    <path id="Path_21548" data-name="Path 21548" d="M8.7,44,8.8,5.521c-.011,4.091,2.691,8.193,8.075,11.3L16.77,55.3C11.386,52.193,8.684,48.091,8.7,44Z" transform="translate(127.339 81.347)" fill="#007"/>
    <path id="Path_21549" data-name="Path 21549" d="M40.813,11.57A50.667,50.667,0,0,0,25.059,5.944l-4.509-.87-.109,38.479,4.51.87A50.673,50.673,0,0,1,40.7,50.051c8.088,4.667,12.129,10.806,12.111,16.938l.109-38.481c.017-6.129-4.023-12.266-12.111-16.938Z" transform="translate(300.407 74.766)" fill="url(#linear-gradient)"/>
    <path id="Path_21550" data-name="Path 21550" d="M46.093,5.782l-.109,38.48L16.741,61.256l.109-38.48Z" transform="translate(245.886 85.195)" fill="#3b93d2"/>
    <path id="Path_21551" data-name="Path 21551" d="M18.485,15.19C13.362,12.232,10.937,8.4,10.714,4.458L10.6,42.937c.223,3.945,2.648,7.773,7.772,10.731L66.9,81.684,67.009,43.2,18.485,15.19Z" transform="translate(155.477 65.695)" fill="#007"/>
    <path id="Path_21552" data-name="Path 21552" d="M32.543,11.561l-.109,38.48c-6.611-.232-13.127-1.682-18.251-4.64l.109-38.48c5.124,2.958,11.64,4.408,18.251,4.64Z" transform="translate(208.194 101.979)" fill="url(#linear-gradient)"/>
    <path id="Path_21553" data-name="Path 21553" d="M102.622,6.565l-.109,38.48c-.021,7.347-4.836,14.684-14.455,20.274-19.363,11.252-50.906,11.194-70.4-.058l.109-38.48c19.49,11.252,51.033,11.311,70.4.058,9.619-5.59,14.434-12.926,14.455-20.274Z" transform="translate(259.471 96.735)" fill="url(#linear-gradient)"/>
    <path id="Path_21554" data-name="Path 21554" d="M236.667,82.74c19.49,11.252,19.593,29.581.23,40.834s-50.906,11.194-70.4-.058l-20.7-11.949-25.253,14.675c-10.58,6.148-27.9,6.09-38.552-.059L33.477,98.169c-10.649-6.148-10.807-16.182-.227-22.33l.6-.349,6.229,3.6-.6.349c-7.186,4.176-7.047,10.962.186,15.138l48.524,28.015c7.233,4.176,18.949,4.234,26.135.059L130,113.54c-6.611-.232-13.127-1.682-18.251-4.64L63.221,80.884C58.1,77.926,55.673,74.1,55.45,70.154L43.173,77.289l-6.229-3.6L27.6,68.3,30.7,66.5l9.343,5.394,15.37-8.932,9.042,5.22c-.782,3.248.639,6.612,4.958,9.106L117.933,105.3c7.233,4.176,18.949,4.234,26.135.058l16.868-9.8c-6.61-.232-13.127-1.682-18.251-4.64L94.161,62.9c-5.124-2.958-7.647-6.728-8.07-10.556l-16.868,9.8a10.528,10.528,0,0,0-3.486,3.19L58.5,61.163l-14.064-8.12-6.631-3.828L7.569,31.756l3.094-1.8,15.873,9.164C19.668,28.8,23.205,16.734,37.478,8.439c19.363-11.252,51.006-11.253,70.5,0l2.212,1.392c19.578-8.7,47.421-7.772,65.3,2.552,12.659,7.308,17.626,18.038,12.974,27.957a62.912,62.912,0,0,1,20.97,7.25c13.462,7.772,18.031,18.967,12.281,29.292a57.546,57.546,0,0,1,14.953,5.858ZM172.69,119.92c16.074,9.28,42.108,9.281,57.978.058,15.97-9.281,15.885-24.361-.189-33.641a50.715,50.715,0,0,0-15.754-5.626l-4.51-.871L212,77.288c6.659-8.991,3.2-19.2-8.758-26.1a54.411,54.411,0,0,0-21.266-6.5l-5.11-.638,1.886-2.841c5.659-8.759,2-18.619-9.454-25.232-15.672-9.048-40.608-9.338-56.78-.638l-3.594,1.972-2.918-2.378a41.8,41.8,0,0,0-4.222-2.9c-16.074-9.28-42.109-9.281-58.079,0-15.87,9.223-15.784,24.3.29,33.583l20.7,11.948L88.647,43.647l7.434,4.292c-2.483,3.77-1.056,8.3,4.268,11.369l48.524,28.015c7.233,4.176,18.951,4.234,26.137.058s7.049-10.963-.185-15.139L126.3,44.227c-7.233-4.176-18.949-4.234-26.137-.058l-1.694,1.566L91.74,41.849,68.834,28.625l3.095-1.8L94.935,40.109c10.683-5.626,27.206-5.452,37.554.522l48.524,28.015c10.649,6.148,10.805,16.183.225,22.331l-29.244,16.995,20.7,11.949" transform="translate(110.741 0)" fill="#89bee4"/>
    <path id="Path_21555" data-name="Path 21555" d="M23.635,6.946l-3.095,1.8-3.114-1.8,3.095-1.8Z" transform="translate(255.982 75.852)" fill="#89bee4"/>
    <path id="Path_21556" data-name="Path 21556" d="M37.152,19.039l-.109,38.48L16.347,45.57l.109-38.48Z" transform="translate(240.091 104.477)" fill="#007"/>
    <path id="Path_21557" data-name="Path 21557" d="M40.1,7.09,40,45.57,14.742,60.246l.109-38.48Z" transform="translate(216.443 104.477)" fill="#3b93d2"/>
    <path id="Path_21558" data-name="Path 21558" d="M57.841,34.255,9.317,6.239,9.209,44.72,57.732,72.735c10.649,6.148,27.971,6.206,38.551.059l.11-38.481c-10.58,6.148-27.9,6.089-38.552-.058Z" transform="translate(134.901 91.93)" fill="url(#linear-gradient-9)"/>
  </g>
</svg>
