<svg xmlns="http://www.w3.org/2000/svg" xmlns:xlink="http://www.w3.org/1999/xlink" width="555" height="283.576" viewBox="0 0 555 283.576">
  <defs>
    <clipPath id="clip-path">
      <path id="Path_21418" data-name="Path 21418" d="M28.448,78.171c-.036,8.47,6.045,16.795,17.338,23.31a68.158,68.158,0,0,0,8.94,4.343q3.475,1.357,7.167,2.389c.615.181,1.3.326,1.955.507l.869.181c1.05.253,2.063.579,3.113.8,1.81.362,3.583.688,5.429.9,1.7.253,3.439.471,5.176.579,1.7.181,3.4.253,5.14.29.4,0,.8-.036,1.194,0a2.372,2.372,0,0,1,.507,0c1.194,0,2.389,0,3.62-.036,1.955-.036,3.873-.181,5.791-.362,2.244-.253,4.488-.543,6.732-.941,1.122-.217,2.172-.579,3.294-.832.9-.181,1.774-.434,2.642-.652,1.52-.4,3.04-.651,4.561-1.122a73.467,73.467,0,0,0,13.537-6.045l.832-.434c.869-.543,1.375-1.122,2.172-1.629a51.246,51.246,0,0,0,5.14-3.8c.217-.181.507-.326.652-.471a34.528,34.528,0,0,0,3.547-3.837l.362-.507c.217-.253.326-.507.507-.76.434-.652.977-1.339,1.375-2.027a19.91,19.91,0,0,0,1.375-2.968l.109-.29.109-.362c.253-.76.47-1.556.651-2.317a20.791,20.791,0,0,0,.362-2.968v-.471l.217-52.3a18.428,18.428,0,0,1-.977,5.719l-.145.4a23.493,23.493,0,0,1-2.823,5.285,6.923,6.923,0,0,0-.507.76,34.59,34.59,0,0,1-4.524,4.778,42.535,42.535,0,0,1-5.176,3.8c-1.05.688-1.846,1.448-3,2.1a71,71,0,0,1-18.1,7.167L104.965,57a89.618,89.618,0,0,1-19.437,2.172h-.543A90.023,90.023,0,0,1,64.933,56.6l-.8-.181A73.043,73.043,0,0,1,46,49.178C34.746,42.663,28.665,34.3,28.665,25.832Z" transform="translate(-28.448 -25.832)" fill="none"/>
    </clipPath>
    <linearGradient id="linear-gradient" y1="0.585" x2="1" y2="0.584" gradientUnits="objectBoundingBox">
      <stop offset="0" stop-color="#007"/>
      <stop offset="0.994" stop-color="#3b93d2"/>
      <stop offset="1" stop-color="#3b93d2"/>
    </linearGradient>
    <clipPath id="clip-path-2">
      <path id="Path_21418-2" data-name="Path 21418" d="M28.448,60.37c-.024,5.589,3.989,11.083,11.441,15.382a44.974,44.974,0,0,0,5.9,2.866q2.293.9,4.729,1.576c.406.119.86.215,1.29.334l.573.119c.693.167,1.361.382,2.054.525,1.194.239,2.365.454,3.583.6,1.123.167,2.269.311,3.416.382,1.123.119,2.245.167,3.392.191.263,0,.525-.024.788,0a1.565,1.565,0,0,1,.334,0c.788,0,1.576,0,2.388-.024,1.29-.024,2.556-.119,3.822-.239,1.481-.167,2.962-.358,4.443-.621.74-.143,1.433-.382,2.174-.549.6-.119,1.17-.287,1.744-.43,1-.263,2.006-.43,3.009-.74a48.479,48.479,0,0,0,8.933-3.989l.549-.287c.573-.358.908-.74,1.433-1.075a33.819,33.819,0,0,0,3.392-2.508c.143-.119.334-.215.43-.311A22.784,22.784,0,0,0,100.6,69.04l.239-.334c.143-.167.215-.334.334-.5.287-.43.645-.884.908-1.338a13.136,13.136,0,0,0,.908-1.959l.072-.191.072-.239c.167-.5.31-1.027.43-1.529a13.718,13.718,0,0,0,.239-1.959V60.68l.143-34.514a12.161,12.161,0,0,1-.645,3.774l-.1.263a15.5,15.5,0,0,1-1.863,3.487,4.567,4.567,0,0,0-.334.5,22.826,22.826,0,0,1-2.986,3.153,28.069,28.069,0,0,1-3.416,2.508c-.693.454-1.218.955-1.982,1.385a46.849,46.849,0,0,1-11.942,4.729l-1.744.43A59.137,59.137,0,0,1,66.114,47.83h-.358a59.405,59.405,0,0,1-13.232-1.7L52,46.015a48.2,48.2,0,0,1-11.966-4.777c-7.428-4.3-11.441-9.817-11.441-15.406Z" transform="translate(-28.448 -25.832)" fill="none"/>
    </clipPath>
    <clipPath id="clip-path-3">
      <path id="Path_21418-3" data-name="Path 21418" d="M28.448,42.567c-.012,2.708,1.933,5.37,5.544,7.453A21.793,21.793,0,0,0,36.85,51.41q1.111.434,2.292.764c.2.058.417.1.625.162l.278.058c.336.081.66.185,1,.255.579.116,1.146.22,1.736.289.544.081,1.1.15,1.655.185.544.058,1.088.081,1.643.093.127,0,.255-.012.382,0a.758.758,0,0,1,.162,0c.382,0,.764,0,1.157-.012.625-.012,1.238-.058,1.852-.116.718-.081,1.435-.174,2.153-.3.359-.069.694-.185,1.053-.266.289-.058.567-.139.845-.208.486-.127.972-.208,1.458-.359a23.491,23.491,0,0,0,4.329-1.933l.266-.139c.278-.174.44-.359.694-.521a16.386,16.386,0,0,0,1.643-1.215c.069-.058.162-.1.208-.15a11.041,11.041,0,0,0,1.134-1.227l.116-.162c.069-.081.1-.162.162-.243.139-.208.313-.428.44-.648a6.366,6.366,0,0,0,.44-.949l.035-.093.035-.116c.081-.243.15-.5.208-.741a6.648,6.648,0,0,0,.116-.949v-.15l.069-16.724a5.892,5.892,0,0,1-.312,1.829l-.046.127a7.512,7.512,0,0,1-.9,1.69,2.213,2.213,0,0,0-.162.243,11.06,11.06,0,0,1-1.447,1.528,13.6,13.6,0,0,1-1.655,1.215c-.336.22-.59.463-.961.671a22.7,22.7,0,0,1-5.787,2.292l-.845.208a28.656,28.656,0,0,1-6.215.694h-.174a28.786,28.786,0,0,1-6.412-.822l-.255-.058a23.356,23.356,0,0,1-5.8-2.315c-3.6-2.083-5.544-4.757-5.544-7.465Z" transform="translate(-28.448 -25.832)" fill="none"/>
    </clipPath>
    <clipPath id="clip-path-5">
      <path id="Path_21418-5" data-name="Path 21418" d="M28.448,34.526c-.006,1.407,1,2.79,2.88,3.872a11.321,11.321,0,0,0,1.485.721q.577.225,1.19.4c.1.03.216.054.325.084l.144.03c.174.042.343.1.517.132.3.06.6.114.9.15.283.042.571.078.86.1s.565.042.854.048c.066,0,.132-.006.2,0a.394.394,0,0,1,.084,0c.2,0,.4,0,.6-.006.325-.006.643-.03.962-.06.373-.042.746-.09,1.118-.156.186-.036.361-.1.547-.138.15-.03.295-.072.439-.108.252-.066.505-.108.758-.186a12.2,12.2,0,0,0,2.249-1l.138-.072c.144-.09.228-.186.361-.271a8.512,8.512,0,0,0,.854-.631c.036-.03.084-.054.108-.078a5.735,5.735,0,0,0,.589-.637l.06-.084c.036-.042.054-.084.084-.126.072-.108.162-.222.228-.337a3.306,3.306,0,0,0,.228-.493l.018-.048.018-.06c.042-.126.078-.259.108-.385a3.453,3.453,0,0,0,.06-.493V34.6l.036-8.688a3.061,3.061,0,0,1-.162.95l-.024.066a3.9,3.9,0,0,1-.469.878,1.149,1.149,0,0,0-.084.126,5.745,5.745,0,0,1-.752.794,7.064,7.064,0,0,1-.86.631c-.174.114-.307.24-.5.349A11.792,11.792,0,0,1,41.6,30.9l-.439.108a14.886,14.886,0,0,1-3.228.361h-.09a14.953,14.953,0,0,1-3.331-.427l-.132-.03a12.133,12.133,0,0,1-3.012-1.2c-1.87-1.082-2.88-2.471-2.88-3.878Z" transform="translate(-28.448 -25.832)" fill="none"/>
    </clipPath>
    <clipPath id="clip-path-6">
      <path id="Path_21418-6" data-name="Path 21418" d="M28.448,43.5c-.012,2.858,2.04,5.668,5.851,7.867a23,23,0,0,0,3.017,1.466q1.173.458,2.419.806c.208.061.44.11.66.171l.293.061c.354.086.7.2,1.05.269.611.122,1.209.232,1.832.305.574.085,1.16.159,1.747.2.574.061,1.148.086,1.735.1.134,0,.269-.012.4,0a.8.8,0,0,1,.171,0c.4,0,.806,0,1.222-.012.66-.012,1.307-.061,1.954-.122.757-.086,1.515-.183,2.272-.318.379-.073.733-.2,1.112-.281.305-.061.6-.147.892-.22.513-.134,1.026-.22,1.539-.379a24.794,24.794,0,0,0,4.569-2.04l.281-.147c.293-.183.464-.379.733-.55a17.3,17.3,0,0,0,1.735-1.283c.073-.061.171-.11.22-.159a11.652,11.652,0,0,0,1.2-1.295l.122-.171c.073-.085.11-.171.171-.257.147-.22.33-.452.464-.684a6.719,6.719,0,0,0,.464-1l.037-.1.037-.122c.085-.256.159-.525.22-.782a7.017,7.017,0,0,0,.122-1v-.159L67.061,26a6.219,6.219,0,0,1-.33,1.93l-.049.134a7.929,7.929,0,0,1-.953,1.783,2.336,2.336,0,0,0-.171.256,11.673,11.673,0,0,1-1.527,1.612A14.354,14.354,0,0,1,62.285,33c-.354.232-.623.489-1.014.708a23.96,23.96,0,0,1-6.108,2.419l-.892.22a30.245,30.245,0,0,1-6.56.733h-.183a30.382,30.382,0,0,1-6.767-.867l-.269-.061a24.651,24.651,0,0,1-6.12-2.443c-3.8-2.2-5.851-5.021-5.851-7.879Z" transform="translate(-28.448 -25.832)" fill="none"/>
    </clipPath>
    <clipPath id="clip-path-7">
      <path id="Path_21418-7" data-name="Path 21418" d="M28.448,36.254c-.007,1.687,1.2,3.344,3.452,4.642a13.571,13.571,0,0,0,1.78.865q.692.27,1.427.476c.123.036.259.065.389.1l.173.036c.209.05.411.115.62.159.36.072.714.137,1.081.18.339.05.685.094,1.031.115s.677.05,1.023.058c.079,0,.159-.007.238,0a.472.472,0,0,1,.1,0c.238,0,.476,0,.721-.007.389-.007.771-.036,1.153-.072.447-.05.894-.108,1.341-.187.223-.043.432-.115.656-.166.18-.036.353-.087.526-.13.3-.079.605-.13.908-.223a14.629,14.629,0,0,0,2.7-1.2l.166-.086c.173-.108.274-.223.432-.324a10.2,10.2,0,0,0,1.023-.757c.043-.036.1-.065.13-.094a6.876,6.876,0,0,0,.706-.764l.072-.1c.043-.05.065-.1.1-.151.086-.13.195-.267.274-.4a3.964,3.964,0,0,0,.274-.591l.022-.058.022-.072c.05-.151.094-.31.13-.461a4.14,4.14,0,0,0,.072-.591v-.094l.043-10.415a3.669,3.669,0,0,1-.195,1.139l-.029.079a4.678,4.678,0,0,1-.562,1.052,1.378,1.378,0,0,0-.1.151,6.888,6.888,0,0,1-.9.951,8.469,8.469,0,0,1-1.031.757c-.209.137-.368.288-.6.418a14.137,14.137,0,0,1-3.6,1.427l-.526.13a17.845,17.845,0,0,1-3.87.432h-.108a17.926,17.926,0,0,1-3.993-.512l-.159-.036a14.545,14.545,0,0,1-3.611-1.442c-2.242-1.3-3.452-2.962-3.452-4.649Z" transform="translate(-28.448 -25.832)" fill="none"/>
    </clipPath>
  </defs>
  <g id="illustration-backordr" transform="translate(-946 -682.279)">
    <g id="b" transform="translate(946.975 610.998)">
      <g id="c" transform="translate(0.025 0.043)">
        <g id="Group_15296" data-name="Group 15296">
          <line id="Line_510" data-name="Line 510" y1="60.363" x2="104.553" transform="translate(332.598 119.238)" fill="none" stroke="#d92a92" stroke-width="2"/>
          <line id="Line_511" data-name="Line 511" y1="60.363" x2="104.553" transform="translate(386.422 72.104)" fill="none" stroke="#d92a92" stroke-width="2"/>
          <g id="Group_15293" data-name="Group 15293" transform="translate(0 164.864)">
            <path id="Path_21559" data-name="Path 21559" d="M207.3,81.843a43.023,43.023,0,0,0-43.129.061l-42.095,24.463a28.683,28.683,0,0,1-28.753.041L15.25,61.329a28.683,28.683,0,0,1-.07-49.639" transform="translate(-0.909 78.698)" fill="none" stroke="#d92a92" stroke-width="2"/>
            <path id="Path_21560" data-name="Path 21560" d="M15.25,111.554a28.683,28.683,0,0,1-.07-49.639L92.472,17a28.682,28.682,0,0,1,28.753-.041l49.741,28.718a28.683,28.683,0,0,0,28.753-.041L262.826,8.961" transform="translate(-0.909 28.473)" fill="none" stroke="#d92a92" stroke-width="2"/>
            <path id="Path_21561" data-name="Path 21561" d="M20,95.14,62.141,70.808A9.77,9.77,0,0,0,62.165,53.9l-9.3-5.4a9.77,9.77,0,0,1,.024-16.908l9.488-5.551a9.77,9.77,0,0,0-.025-16.88" transform="translate(350.347 32.051)" fill="none" stroke="#d92a92" stroke-width="2"/>
            <path id="Path_21562" data-name="Path 21562" d="M355.576,95.971a19.54,19.54,0,0,0,.048-33.817l-52.655-30.6a19.54,19.54,0,0,0-19.588-.028L249.495,51.092a19.54,19.54,0,0,1-19.588-.028L160.821,10.916a28.682,28.682,0,0,0-28.823,0L18.291,76.995a14.341,14.341,0,0,0-.036,24.778l13.927,8.148a14.389,14.389,0,0,1-.036,24.861l-13.579,7.891a14.341,14.341,0,0,0,.035,24.819l38.89,22.453a28.683,28.683,0,0,0,28.682,0l92.31-53.294,46.255-26.705a29.31,29.31,0,0,1,29.381.042L282.8,126.654a19.54,19.54,0,0,0,19.588.028l53.191-30.71a19.54,19.54,0,0,0,.048-33.817" transform="translate(187.653 -7.032)" fill="none" stroke="#d92a92" stroke-width="2"/>
          </g>
        </g>
      </g>
    </g>
    <g id="Group_15634" data-name="Group 15634" transform="translate(1166.289 780.083)">
      <g id="Group_15273" data-name="Group 15273" transform="translate(0 32.757)">
        <g id="Group_15272" data-name="Group 15272" clip-path="url(#clip-path)">
          <rect id="Rectangle_5643" data-name="Rectangle 5643" width="114.45" height="85.639" transform="translate(-0.036 0.007)" fill="url(#linear-gradient)"/>
        </g>
      </g>
      <path id="Path_21419" data-name="Path 21419" d="M125.226,34.881c22.188,12.813,24.142,32.286.253,46.149-23.889,13.9-57.514,12.813-79.7,0-21.934-12.668-24.142-32.286-.253-46.149s57.732-12.668,79.7,0" transform="translate(-28.219 -24.927)" fill="#89bee4"/>
    </g>
    <g id="Group_15635" data-name="Group 15635" transform="translate(1185.746 760.103)">
      <g id="Group_15273-2" data-name="Group 15273" transform="translate(0.001 21.616)">
        <g id="Group_15272-2" data-name="Group 15272" clip-path="url(#clip-path-2)">
          <rect id="Rectangle_5643-2" data-name="Rectangle 5643" width="75.523" height="56.512" transform="translate(-0.024 0.005)" fill="url(#linear-gradient)"/>
        </g>
      </g>
      <path id="Path_21419-2" data-name="Path 21419" d="M92.312,31.5c14.641,8.455,15.931,21.305.167,30.453-15.764,9.172-37.953,8.455-52.594,0-14.474-8.36-15.931-21.305-.167-30.453s38.1-8.36,52.594,0" transform="translate(-28.298 -24.927)" fill="#89bee4"/>
    </g>
    <g id="Group_15637" data-name="Group 15637" transform="translate(1205.203 749.521)">
      <g id="Group_15273-3" data-name="Group 15273" transform="translate(0.001 10.474)">
        <g id="Group_15272-3" data-name="Group 15272" clip-path="url(#clip-path-3)">
          <rect id="Rectangle_5643-3" data-name="Rectangle 5643" width="36.596" height="27.383" transform="translate(-0.012 0.002)" fill="url(#linear-gradient)"/>
        </g>
      </g>
      <path id="Path_21419-3" data-name="Path 21419" d="M59.4,28.11c7.095,4.1,7.72,10.324.081,14.756s-18.39,4.1-25.485,0c-7.014-4.051-7.72-10.324-.081-14.756s18.46-4.051,25.485,0" transform="translate(-28.379 -24.927)" fill="#89bee4"/>
    </g>
    <g id="Group_15639" data-name="Group 15639" transform="translate(1077.203 874.521)">
      <g id="Group_15273-4" data-name="Group 15273" transform="translate(0.001 10.474)">
        <g id="Group_15272-4" data-name="Group 15272" clip-path="url(#clip-path-3)">
          <rect id="Rectangle_5643-4" data-name="Rectangle 5643" width="36.596" height="27.383" transform="translate(-0.012 0.002)" fill="url(#linear-gradient)"/>
        </g>
      </g>
      <path id="Path_21419-4" data-name="Path 21419" d="M59.4,28.11c7.095,4.1,7.72,10.324.081,14.756s-18.39,4.1-25.485,0c-7.014-4.051-7.72-10.324-.081-14.756s18.46-4.051,25.485,0" transform="translate(-28.379 -24.927)" fill="#89bee4"/>
    </g>
    <g id="Group_15642" data-name="Group 15642" transform="translate(1113.791 804.334)">
      <g id="Group_15273-5" data-name="Group 15273" transform="translate(0.001 5.441)">
        <g id="Group_15272-5" data-name="Group 15272" clip-path="url(#clip-path-5)">
          <rect id="Rectangle_5643-5" data-name="Rectangle 5643" width="19.01" height="14.225" transform="translate(-0.006 0.001)" fill="url(#linear-gradient)"/>
        </g>
      </g>
      <path id="Path_21419-5" data-name="Path 21419" d="M44.528,26.58c3.685,2.128,4.01,5.363.042,7.665a14,14,0,0,1-13.239,0c-3.643-2.1-4.01-5.363-.042-7.665a14.079,14.079,0,0,1,13.239,0" transform="translate(-28.415 -24.927)" fill="#89bee4"/>
    </g>
    <g id="Group_15640" data-name="Group 15640" transform="translate(1355.189 905.422)">
      <g id="Group_15273-6" data-name="Group 15273" transform="translate(0.001 11.055)">
        <g id="Group_15272-6" data-name="Group 15272" clip-path="url(#clip-path-6)">
          <rect id="Rectangle_5643-6" data-name="Rectangle 5643" width="38.625" height="28.902" transform="translate(-0.012 0.002)" fill="url(#linear-gradient)"/>
        </g>
      </g>
      <path id="Path_21419-6" data-name="Path 21419" d="M61.113,28.286c7.488,4.324,8.148,10.9.085,15.575s-19.41,4.324-26.9,0c-7.4-4.275-8.148-10.9-.085-15.575s19.484-4.275,26.9,0" transform="translate(-28.374 -24.927)" fill="#89bee4"/>
    </g>
    <g id="Group_15641" data-name="Group 15641" transform="translate(1363.105 768.45)">
      <g id="Group_15273-7" data-name="Group 15273" transform="translate(0.001 6.523)">
        <g id="Group_15272-7" data-name="Group 15272" clip-path="url(#clip-path-7)">
          <rect id="Rectangle_5643-7" data-name="Rectangle 5643" width="22.79" height="17.053" transform="translate(-0.007 0.001)" fill="url(#linear-gradient)"/>
        </g>
      </g>
      <path id="Path_21419-7" data-name="Path 21419" d="M47.724,26.909c4.418,2.551,4.807,6.429.05,9.189a16.778,16.778,0,0,1-15.871,0c-4.368-2.523-4.807-6.429-.05-9.189a16.878,16.878,0,0,1,15.871,0" transform="translate(-28.407 -24.927)" fill="#89bee4"/>
    </g>
  </g>
</svg>
