<svg xmlns="http://www.w3.org/2000/svg" xmlns:xlink="http://www.w3.org/1999/xlink" width="555" height="283.576" viewBox="0 0 555 283.576">
  <defs>
    <linearGradient id="linear-gradient" y1="0.5" x2="1" y2="0.5" gradientUnits="objectBoundingBox">
      <stop offset="0" stop-color="#007"/>
      <stop offset="0.692" stop-color="#3b93d2"/>
    </linearGradient>
    <linearGradient id="linear-gradient-2" x1="0.999" y1="0.5" x2="0.074" y2="0.5" xlink:href="#linear-gradient"/>
    <linearGradient id="linear-gradient-4" x1="1" y1="0.5" x2="0.158" y2="0.5" xlink:href="#linear-gradient"/>
    <linearGradient id="linear-gradient-5" x1="0.978" y1="0.5" x2="-0.1" y2="0.5" xlink:href="#linear-gradient"/>
    <linearGradient id="linear-gradient-6" x1="0.995" y1="0.5" x2="0.155" y2="0.5" xlink:href="#linear-gradient"/>
    <linearGradient id="linear-gradient-7" x1="0.97" y1="0.5" x2="0.124" y2="0.5" xlink:href="#linear-gradient"/>
    <linearGradient id="linear-gradient-8" x1="0.003" y1="0.5" x2="0.222" y2="0.5" xlink:href="#linear-gradient"/>
  </defs>
  <g id="illustration-vasikes-litourgies" transform="translate(1 -71.238)">
    <line id="Line_510" data-name="Line 510" y1="60.363" x2="104.553" transform="translate(332.598 119.238)" fill="none" stroke="#00b2a9" stroke-width="2"/>
    <line id="Line_511" data-name="Line 511" y1="60.363" x2="104.553" transform="translate(386.422 72.104)" fill="none" stroke="#00b2a9" stroke-width="2"/>
    <g id="Group_15293" data-name="Group 15293" transform="translate(0 164.864)">
      <path id="Path_21559" data-name="Path 21559" d="M207.3,81.843a43.023,43.023,0,0,0-43.129.061l-42.095,24.463a28.683,28.683,0,0,1-28.753.041L15.25,61.329a28.683,28.683,0,0,1-.07-49.639" transform="translate(-0.909 78.698)" fill="none" stroke="#00b2a9" stroke-width="2"/>
      <path id="Path_21560" data-name="Path 21560" d="M15.25,111.554a28.683,28.683,0,0,1-.07-49.639L92.472,17a28.682,28.682,0,0,1,28.753-.041l49.741,28.718a28.683,28.683,0,0,0,28.753-.041L262.826,8.961" transform="translate(-0.909 28.473)" fill="none" stroke="#00b2a9" stroke-width="2"/>
      <path id="Path_21561" data-name="Path 21561" d="M20,95.14,62.141,70.808A9.77,9.77,0,0,0,62.165,53.9l-9.3-5.4a9.77,9.77,0,0,1,.024-16.908l9.488-5.551a9.77,9.77,0,0,0-.025-16.88" transform="translate(350.347 32.051)" fill="none" stroke="#00b2a9" stroke-width="2"/>
      <path id="Path_21562" data-name="Path 21562" d="M355.576,95.971a19.54,19.54,0,0,0,.048-33.817l-52.655-30.6a19.54,19.54,0,0,0-19.588-.028L249.495,51.092a19.54,19.54,0,0,1-19.588-.028L160.821,10.916a28.682,28.682,0,0,0-28.823,0L18.291,76.995a14.341,14.341,0,0,0-.036,24.778l13.927,8.148a14.389,14.389,0,0,1-.036,24.861l-13.579,7.891a14.341,14.341,0,0,0,.035,24.819l38.89,22.453a28.683,28.683,0,0,0,28.682,0l92.31-53.294,46.255-26.705a29.31,29.31,0,0,1,29.381.042L282.8,126.654a19.54,19.54,0,0,0,19.588.028l53.191-30.71a19.54,19.54,0,0,0,.048-33.817" transform="translate(187.653 -7.032)" fill="none" stroke="#00b2a9" stroke-width="2"/>
    </g>
    <line id="Line_512" data-name="Line 512" y1="60.363" x2="104.553" transform="translate(19.424 267.468)" fill="none" stroke="#00b2a9" stroke-width="2"/>
    <line id="Line_513" data-name="Line 513" y1="60.363" x2="104.553" transform="translate(144.561 195.911)" fill="none" stroke="#00b2a9" stroke-width="2"/>
    <line id="Line_514" data-name="Line 514" y1="60.363" x2="104.553" transform="translate(122.484 222.067)" fill="none" stroke="#00b2a9" stroke-width="2"/>
    <line id="Line_515" data-name="Line 515" y1="60.363" x2="104.553" transform="translate(0 293.45)" fill="none" stroke="#00b2a9" stroke-width="2"/>
    <g id="Group_15295" data-name="Group 15295" transform="translate(161.254 72.104)">
      <path id="Path_21563" data-name="Path 21563" d="M98.382,3.785l78.281,72.443-86.981,63.1L12.414,82.009,30.759,54.941,42.384,3.785,64.647,29.019Z" transform="translate(0.6 70.334)" fill="#fff"/>
      <g id="Group_15294" data-name="Group 15294">
        <path id="Path_21564" data-name="Path 21564" d="M110.685,10.092c-21.608-12.477-56.572-12.477-78.039,0C22.1,16.22,16.922,24.241,16.9,32.278l-.152,53.745c.023-8.043,5.2-16.058,15.746-22.188,21.467-12.477,56.431-12.477,78.039,0,10.873,6.28,16.3,14.527,16.281,22.76l.152-53.742c.024-8.233-5.407-16.48-16.28-22.757Z" transform="translate(91.498 6.354)" fill="url(#linear-gradient)"/>
        <path id="Path_21565" data-name="Path 21565" d="M32.486,10.814C16.595,20.049,12.894,33.578,20.651,45L45.185,30.742c8.92-5.184,23.325-5.1,32.165,0s8.887,13.366-.034,18.55L53.2,63.308c19.6,4.05,42.106,1.7,57.58-7.292,21.467-12.475,21.353-32.728-.255-45.2s-56.572-12.475-78.039,0" transform="translate(91.346 21.503)" fill="#19a69d"/>
        <path id="Path_21566" data-name="Path 21566" d="M36.462,8.22,36.31,61.963c0-1.526-1.018-3.041-3.049-4.213a16.22,16.22,0,0,0-14.824,0L18.59,4.006a16.22,16.22,0,0,1,14.824,0c2.03,1.172,3.053,2.687,3.049,4.212Z" transform="translate(126.952 37.389)" fill="url(#linear-gradient-2)"/>
        <path id="Path_21567" data-name="Path 21567" d="M16.19,55.908l.152-53.743c-.017,5.98,2.318,11.971,6.958,17.462L23.148,73.37c-4.639-5.491-6.974-11.482-6.957-17.462Z" transform="translate(79.808 36.352)" fill="#007"/>
        <path id="Path_21568" data-name="Path 21568" d="M24.386,2.908l-.152,53.743a15.917,15.917,0,0,0-7.4,1.864,5.54,5.54,0,0,0-3.053,4.212L13.93,8.984a5.54,5.54,0,0,1,3.053-4.213,15.914,15.914,0,0,1,7.4-1.864Z" transform="translate(29.206 51.936)" fill="#3b93d2"/>
        <path id="Path_21569" data-name="Path 21569" d="M13.23,56.911l.152-53.743q0,.176.008.353l-.153,53.743Q13.23,57.088,13.23,56.911Z" transform="translate(17.719 57.399)" fill="#007"/>
        <path id="Path_21570" data-name="Path 21570" d="M15.521,3.184l-.153,53.743L15.289,67.54,15.441,13.8Z" transform="translate(60.902 57.736)" fill="#00009f"/>
        <path id="Path_21571" data-name="Path 21571" d="M95.232,2.3,95.08,56.039,14.784,102.7l.152-53.743Z" transform="translate(50.31 39.1)" fill="#3b93d2"/>
        <path id="Path_21572" data-name="Path 21572" d="M42.675,11.769,18.558,25.786l-.152,53.742L42.522,65.51c4.449-2.583,6.668-5.934,6.677-9.277l.152-53.745c-.009,3.343-2.227,6.7-6.676,9.279Z" transform="translate(126.299 43.155)" fill="#3b93d2"/>
        <path id="Path_21573" data-name="Path 21573" d="M105.565,2.2l-.153,53.743c-.028,9.94-6.545,19.865-19.564,27.431-18.263,10.613-44.4,13.61-67.5,9.479L18.5,39.108c23.1,4.131,49.236,1.134,67.5-9.479C99.02,22.063,105.537,12.138,105.565,2.2Z" transform="translate(125.135 37.042)" fill="url(#linear-gradient)"/>
        <path id="Path_21574" data-name="Path 21574" d="M35.427,10.149l-.153,53.743c0-1.57-1.018-3.142-3.066-4.325-4.069-2.349-10.781-2.35-14.823,0l.152-53.743c4.042-2.349,10.754-2.349,14.823,0,2.048,1.182,3.071,2.755,3.067,4.324Z" transform="translate(104.878 76.158)" fill="url(#linear-gradient-4)"/>
        <path id="Path_21575" data-name="Path 21575" d="M18.922,4.338l-.153,53.743-.021.558L18.9,4.9l.021-.558Z" transform="translate(133.47 81.947)" fill="#00009f"/>
        <path id="Path_21576" data-name="Path 21576" d="M25.037,28.1h0L24.929,8.984c-.08-1.661-1.277-3.16-3.171-4.255a15.416,15.416,0,0,0-7.353-1.822L14.254,56.65a15.405,15.405,0,0,1,7.352,1.824c1.9,1.094,3.092,2.591,3.171,4.255h0l.107,19.117,1.023,8.021.153-53.745L25.037,28.1Z" transform="translate(39.187 51.936)" fill="url(#linear-gradient-5)"/>
        <path id="Path_21577" data-name="Path 21577" d="M24.782,9.552,24.63,63.3l-8.7-5.023L16.083,4.53Z" transform="translate(74.352 85.959)" fill="#007"/>
        <path id="Path_21578" data-name="Path 21578" d="M39.759,4.143l-.153,53.743L16.326,71.415l.152-53.743Z" transform="translate(82.656 77.84)" fill="#3b93d2"/>
        <path id="Path_21579" data-name="Path 21579" d="M36.361,10.726,36.208,64.47c0-1.57-1.018-3.142-3.067-4.325-4.069-2.349-10.641-2.269-14.683.08L18.61,6.482c4.042-2.349,10.614-2.43,14.683-.08,2.048,1.183,3.071,2.755,3.067,4.325Z" transform="translate(127.377 89.109)" fill="url(#linear-gradient-6)"/>
        <path id="Path_21580" data-name="Path 21580" d="M13.632,47.416l-.153,53.743-.249-44.232.153-53.743Z" transform="translate(17.727 57.736)" fill="#007"/>
        <path id="Path_21581" data-name="Path 21581" d="M23.222,4.944l-.153,53.743A9.812,9.812,0,0,1,19.657,65.7l.152-53.743a9.812,9.812,0,0,0,3.412-7.017Z" transform="translate(152.533 94.648)" fill="#00009f"/>
        <path id="Path_21582" data-name="Path 21582" d="M25.854,10.172,25.7,63.915,17,58.892l.152-53.743Z" transform="translate(96.852 98.949)" fill="#007"/>
        <path id="Path_21583" data-name="Path 21583" d="M40.832,4.762l-.152,53.743L17.4,72.034l.153-53.743Z" transform="translate(105.156 90.829)" fill="#3b93d2"/>
        <path id="Path_21584" data-name="Path 21584" d="M37.047,11.525l-.153,53.743c0-1.523-.984-3.041-3-4.2-4.069-2.349-10.781-2.35-14.824,0l.152-53.743c4.043-2.349,10.755-2.349,14.824,0,2.013,1.162,3,2.681,3,4.2Z" transform="translate(140.295 107.551)" fill="url(#linear-gradient-7)"/>
        <path id="Path_21585" data-name="Path 21585" d="M32,5.639l-.152,53.743L18.465,67.159l.152-53.743Z" transform="translate(127.522 109.233)" fill="#3b93d2"/>
        <path id="Path_21586" data-name="Path 21586" d="M26.92,10.787,26.768,64.53l-8.7-5.023.152-53.743Z" transform="translate(119.218 111.862)" fill="#007"/>
        <path id="Path_21587" data-name="Path 21587" d="M43.087,5.333l-.152,53.743L12.407,76.817l.152-53.743Z" transform="translate(0.454 102.816)" fill="#3b93d2"/>
        <path id="Path_21588" data-name="Path 21588" d="M16.2,12.045c-2.824-1.631-4.235-3.75-4.228-5.87l-.153,53.739c-.007,2.122,1.4,4.244,4.229,5.875l75.908,43.824.153-53.742L16.2,12.045Z" transform="translate(-11.822 120.486)" fill="#007"/>
        <path id="Path_21589" data-name="Path 21589" d="M118.285,15.122,35.76,63.083c-5.576,3.238-14.527,3.238-20.139,0l-.153,53.742c5.613,3.241,14.563,3.241,20.139,0l82.526-47.955c4.4-2.557,6.617-5.923,6.626-9.293l.152-53.742C124.9,9.2,122.683,12.568,118.285,15.122Z" transform="translate(64.668 113.278)" fill="url(#linear-gradient-8)"/>
        <path id="Path_21590" data-name="Path 21590" d="M194.666,110.261c8.84,5.1,8.746,13.448-.036,18.552L112.1,176.771c-5.576,3.24-14.526,3.24-20.139,0L16.057,132.944c-5.613-3.24-5.642-8.424-.066-11.665l27.043-15.716-.249-44.232c-.16-3.483,2.2-6.8,6.381-9.235a32.693,32.693,0,0,1,16.2-3.889,32.406,32.406,0,0,1,15.912,3.858c4.122,2.38,6.727,5.66,6.818,9.265L88.02,71.944,114.785,56.39c-12.251-14.5-8.436-32.485,12.336-44.556,26.206-15.229,69-15.23,95.382,0s26.517,40.019.311,55.249c-18.263,10.613-44.4,13.61-67.5,9.479l2.242.81c4.63,2.673,6.749,6.319,6.491,9.883,6.152-.161,12.311.972,16.942,3.646,7.577,4.374,8.315,11.1,3.03,16.12a30.509,30.509,0,0,1,10.647,3.24Zm-91.261,61.487L185.93,123.79c4.043-2.349,4.16-6.156.091-8.505s-10.781-2.35-14.824,0l-13.382,7.777-8.7-5.022,13.382-7.777,9.9-5.752c4.042-2.349,4.019-6.237-.05-8.587s-10.641-2.269-14.683.08l-23.281,13.529-8.7-5.022,23.28-13.529c4.042-2.349,4.019-6.237-.049-8.586s-10.781-2.35-14.823,0l-23.28,13.529-8.7-5.023,23.281-13.529,46.559-27.057c4.182-2.431,4.16-6.156.091-8.505a16.22,16.22,0,0,0-14.824,0l-80.3,46.663L75.9,80.451l-.107-19.119c-.08-1.66-1.276-3.159-3.171-4.253a15.4,15.4,0,0,0-7.353-1.823,15.916,15.916,0,0,0-7.4,1.864,5.54,5.54,0,0,0-3.053,4.212l.405,47.229L24.69,126.3l.009,1.62,75.909,43.826h2.8M135.82,16.857c-15.892,9.235-19.593,22.764-11.835,34.186l24.534-14.258c8.92-5.184,23.325-5.1,32.165,0s8.887,13.366-.034,18.55L156.534,69.351c19.6,4.05,42.106,1.7,57.58-7.292,21.467-12.475,21.353-32.728-.255-45.2s-56.572-12.475-78.039,0" transform="translate(-11.677 -0.412)" fill="#89bee4"/>
      </g>
    </g>
  </g>
</svg>
