<svg xmlns="http://www.w3.org/2000/svg" width="97.328" height="52.696" viewBox="0 0 97.328 52.696">
  <g id="iocn-buy-domain" transform="translate(0.001 -0.002)">
    <path id="Union_73" data-name="Union 73" d="M-7032.893,7635v-2.554h4.951v-29.725a6.393,6.393,0,0,1,6.387-6.384h32.78a16.483,16.483,0,0,1,4.665-9.173,16.513,16.513,0,0,1,11.742-4.859,16.5,16.5,0,0,1,11.738,4.859,16.6,16.6,0,0,1,3.426,4.965,16.444,16.444,0,0,1,1.364,5.2c.1-.009.2-.014.3-.014a3.254,3.254,0,0,1,.454.032,3.2,3.2,0,0,1,.9-2.712,3.182,3.182,0,0,1,2.259-.931,3.173,3.173,0,0,1,2.257.931l13.545,13.547a1.9,1.9,0,0,1,.562,1.355,1.9,1.9,0,0,1-.562,1.354l-11.662,11.662a1.908,1.908,0,0,1-1.354.56,1.9,1.9,0,0,1-1.353-.56l-3.5-3.5h-11.913a3.2,3.2,0,0,1-3.192-3.194,3.191,3.191,0,0,1,.073-.681,16.625,16.625,0,0,1-2.715.322v16.948h5.266V7635Zm56.137-2.907h2.455V7615.4a16.535,16.535,0,0,1-2.455-.473Zm-28.1,0h26.82v-17.572a16.468,16.468,0,0,1-4.389-2.4h-22.431v6.384h11.495v8.943h-11.495Zm-20.534,0h19.257v-4.645h-5.11v-8.943h5.11v-7.661h22.223c-.068-.066-.136-.132-.2-.2a16.583,16.583,0,0,1-3.4-4.905h-37.877Zm20.534-5.923h10.217v-6.386h-10.217Zm-5.108,0h3.832v-6.386h-3.832Zm42.134-10.314a1.919,1.919,0,0,0,1.916,1.916h12.441l3.878,3.876a.638.638,0,0,0,.9,0l11.662-11.662a.637.637,0,0,0,.188-.452.633.633,0,0,0-.188-.45l-13.545-13.547a1.9,1.9,0,0,0-1.355-.56,1.9,1.9,0,0,0-1.354.56,1.917,1.917,0,0,0,0,2.709l3.612,3.612h0l-.9.9-3.612-3.614a1.909,1.909,0,0,0-1.354-.557,1.909,1.909,0,0,0-1.354.557,1.92,1.92,0,0,0-.039,2.672l.039.038,3.612,3.614-.9.9-3.612-3.612-.035-.036a1.907,1.907,0,0,0-1.32-.524,1.9,1.9,0,0,0-1.355.558,1.92,1.92,0,0,0-.047,2.662l3.659,3.659-.9.9-10.837-10.838a1.918,1.918,0,0,0-2.709,0,1.917,1.917,0,0,0,0,2.709l10.995,11,1.079,1.088h-6.641A1.918,1.918,0,0,0-6967.828,7615.859Zm-14.475-26.883a13.956,13.956,0,0,0-4.116,9.933,13.97,13.97,0,0,0,4.116,9.935,13.953,13.953,0,0,0,9.935,4.112,13.91,13.91,0,0,0,7.893-2.42l-4.794-4.794a7.048,7.048,0,0,1-2.636.514,7.032,7.032,0,0,1-7.022-7.027,7.032,7.032,0,0,1,7.022-7.024,7.034,7.034,0,0,1,7.026,7.024,7.024,7.024,0,0,1-.2,1.671l2.769,2.769a3.18,3.18,0,0,1,.9-1.807,3.167,3.167,0,0,1,2.257-.933,3.238,3.238,0,0,1,.453.032,3.2,3.2,0,0,1,.379-2.022v-.029a13.94,13.94,0,0,0-4.116-9.933,13.95,13.95,0,0,0-9.932-4.118A13.948,13.948,0,0,0-6982.3,7588.976Zm19.958,23.691-.3-.3q-.209.152-.424.3Zm-15.306-13.438a5.753,5.753,0,0,0,5.745,5.749,5.718,5.718,0,0,0,1.636-.236l-1.978-1.977a3.2,3.2,0,0,1,0-4.515,3.2,3.2,0,0,1,4.517,0l1.546,1.546q.026-.281.027-.567a5.754,5.754,0,0,0-5.749-5.746A5.752,5.752,0,0,0-6977.65,7599.229Zm-47.737,3.5v1.744h37.364a16.635,16.635,0,0,1-.948-5.559v-.015h-32.584A3.837,3.837,0,0,0-7025.387,7602.724Zm3.275,24.726v-1.278h7.68v1.278Zm0-3.831v-1.278h7.68v1.278Zm0-3.832v-1.278h7.68v1.278Zm0-3.831v-1.276h7.68v1.276Zm0-3.83v-1.278h7.68v1.278Zm3.047-9.558h-2.572v-1.276h2.573v1.276Z" transform="translate(7032.892 -7582.305)" fill="#d92a92"/>
  </g>
</svg>
