<svg xmlns="http://www.w3.org/2000/svg" width="65.262" height="44.003" viewBox="0 0 65.262 44.003">
  <g id="iocn-api" transform="translate(0 0.002)">
    <path id="Subtraction_38" data-name="Subtraction 38" d="M-11853.532,7527.033h-48.937a2.889,2.889,0,0,1-2.436-1.333,2.886,2.886,0,0,1-.2-2.77l5.1-11.118v-2.207a9.2,9.2,0,0,0,1,.055,9.2,9.2,0,0,0,1-.055v1.427h15.077v-3.643h-4v-7h4v-6h23v16.64h1.922V7490.4h-40v1.319a9.129,9.129,0,0,0-1-.055,9.168,9.168,0,0,0-1,.055v-3.686a5.007,5.007,0,0,1,5-5h34a5.005,5.005,0,0,1,5,5v23.782l5.1,11.118a2.885,2.885,0,0,1-.2,2.77A2.882,2.882,0,0,1-11853.532,7527.033Zm-44.827-14-4.92,10.726a.886.886,0,0,0,.058.861.893.893,0,0,0,.753.412h48.937a.879.879,0,0,0,.753-.412.894.894,0,0,0,.061-.861l-4.923-10.726Zm16.437-5.646v3.643h21v-15.642h-21v5h9v7Zm0-6v5h8v-5Zm-4,0v5h3v-5Zm-9.076-16.362a3,3,0,0,0-3,3v1.366h40v-1.366a3,3,0,0,0-3-3Zm38.576,37.365h-14v-1h14v1Zm-15,0h-14v-1h14v1Zm-15,0h-14v-1h14v1Zm28-3h-40v-1h40v1Zm-2-3h-36v-1h36v1Zm-.753-28.486h-1v-1h1v1Zm-2.949,0h-1v-1h1v1Zm-2.947,0h-1v-1h1v1Z" transform="translate(11915.897 -7483.032)" fill="#3b93d2"/>
    <path id="Line_784" data-name="Line 784" d="M2.013.5H0v-1H2.013Z" transform="translate(20.833 4.378)" fill="#3b93d2"/>
    <path id="Path_24310_-_Outline" data-name="Path 24310 - Outline" d="M16.9,27.13a9.5,9.5,0,1,1,9.5-9.5A9.511,9.511,0,0,1,16.9,27.13Zm0-18a8.5,8.5,0,1,0,8.5,8.5A8.51,8.51,0,0,0,16.9,9.13Z" fill="#3b93d2"/>
    <path id="Ellipse_83" data-name="Ellipse 83" d="M9-1A10,10,0,1,1-1,9,10.011,10.011,0,0,1,9-1ZM9,17A8,8,0,1,0,1,9,8.009,8.009,0,0,0,9,17Z" transform="translate(7.896 8.63)" fill="#3b93d2"/>
    <path id="Line_796" data-name="Line 796" d="M0,6.272a1,1,0,0,1-.707-.293,1,1,0,0,1,0-1.414L4.565-.707a1,1,0,0,1,1.414,0,1,1,0,0,1,0,1.414L.707,5.979A1,1,0,0,1,0,6.272Z" transform="translate(1 28.255)" fill="#3b93d2"/>
    <path id="Line_797" data-name="Line 797" d="M0,9.834a.5.5,0,0,1-.354-.146.5.5,0,0,1,0-.707L8.98-.354a.5.5,0,0,1,.707,0,.5.5,0,0,1,0,.707L.354,9.688A.5.5,0,0,1,0,9.834Z" transform="translate(1 24.193)" fill="#3b93d2"/>
    <path id="Subtraction_39" data-name="Subtraction 39" d="M-11902.469,7494.1a.5.5,0,0,1-.5-.5v-1.162a3.958,3.958,0,0,0,.5.032,4.029,4.029,0,0,0,.5-.032v1.161A.5.5,0,0,1-11902.469,7494.1Zm3.56-1.473a.5.5,0,0,1-.354-.146l-.82-.821a3.908,3.908,0,0,0,.707-.707l.819.819a.493.493,0,0,1,.147.351.5.5,0,0,1-.147.357A.5.5,0,0,1-11898.909,7492.624Zm-7.116,0a.515.515,0,0,1-.355-.146.505.505,0,0,1,0-.708l.823-.823a3.869,3.869,0,0,0,.707.708l-.822.823A.512.512,0,0,1-11906.025,7492.624Zm8.592-3.56h-1.161a3.92,3.92,0,0,0,.032-.5,4.031,4.031,0,0,0-.032-.5h1.161a.5.5,0,0,1,.5.5A.5.5,0,0,1-11897.434,7489.064Zm-8.9,0h-1.162a.5.5,0,0,1-.5-.5.5.5,0,0,1,.5-.5h1.162a3.8,3.8,0,0,0-.032.5,3.793,3.793,0,0,0,.032.5Zm.779-2.882h0l-.822-.823a.505.505,0,0,1,0-.708.5.5,0,0,1,.355-.146.5.5,0,0,1,.353.146l.823.824a3.956,3.956,0,0,0-.707.707Zm6.182,0h0a3.95,3.95,0,0,0-.707-.706l.821-.822a.5.5,0,0,1,.354-.146.5.5,0,0,1,.353.146.5.5,0,0,1,.147.357.493.493,0,0,1-.147.351l-.818.819Zm-2.591-1.484h0a3.755,3.755,0,0,0-.5-.032,3.977,3.977,0,0,0-.5.032v-1.162a.5.5,0,0,1,.5-.5.5.5,0,0,1,.5.5v1.161Z" transform="translate(11919.362 -7470.935)" fill="#3b93d2"/>
    <path id="Path_24311_-_Outline" data-name="Path 24311 - Outline" d="M16.9,22.033a4.4,4.4,0,1,1,4.4-4.4A4.408,4.408,0,0,1,16.9,22.033Zm0-7.806a3.4,3.4,0,1,0,3.4,3.4A3.407,3.407,0,0,0,16.9,14.227Z" fill="#3b93d2"/>
    <path id="Ellipse_84" data-name="Ellipse 84" d="M3.9-.5A4.4,4.4,0,1,1-.5,3.9,4.408,4.408,0,0,1,3.9-.5Zm0,7.806A3.4,3.4,0,1,0,.5,3.9,3.407,3.407,0,0,0,3.9,7.306Z" transform="translate(12.994 13.728)" fill="#3b93d2"/>
    <path id="Path_24312" data-name="Path 24312" d="M18.531,17.63A1.635,1.635,0,1,1,16.9,15.995a1.635,1.635,0,0,1,1.635,1.635" fill="#fff"/>
    <path id="Path_24312_-_Outline" data-name="Path 24312 - Outline" d="M16.9,19.765a2.135,2.135,0,1,1,2.135-2.135A2.137,2.137,0,0,1,16.9,19.765Zm0-3.27a1.135,1.135,0,1,0,1.135,1.135A1.136,1.136,0,0,0,16.9,16.495Z" fill="#3b93d2"/>
    <path id="Path_24313" data-name="Path 24313" d="M16.9,15.495a2.135,2.135,0,1,1-2.134,2.135A2.137,2.137,0,0,1,16.9,15.495Zm0,3.27a1.135,1.135,0,1,0-1.134-1.135A1.136,1.136,0,0,0,16.9,18.765Z" fill="#3b93d2"/>
  </g>
</svg>
