<svg xmlns="http://www.w3.org/2000/svg" xmlns:xlink="http://www.w3.org/1999/xlink" width="552.517" height="312.465" viewBox="0 0 552.517 312.465">
  <defs>
    <clipPath id="clip-path">
      <rect id="inner" width="424.504" height="261.66" transform="translate(67.258 19.74)" fill="#efefef" stroke="#00009f" stroke-linejoin="round" stroke-width="1"/>
    </clipPath>
    <clipPath id="clip-path-2">
      <rect id="Rectangle_5733" data-name="Rectangle 5733" width="13.968" height="16.302" transform="translate(0 0)" fill="none" stroke="#f44044" stroke-width="1"/>
    </clipPath>
  </defs>
  <g id="laptop-shop-downloads" transform="translate(-0.242 -0.24)">
    <g id="bottom">
      <rect id="Rectangle_5727" data-name="Rectangle 5727" width="550.517" height="6.235" transform="translate(1.242 298.549)" fill="none" stroke="#00009f" stroke-linecap="round" stroke-linejoin="round" stroke-width="2"/>
      <path id="Path_24366" data-name="Path 24366" d="M269.923,240.584a5.626,5.626,0,0,1-1.872,4.16,6.644,6.644,0,0,1-4.515,1.726H197.849a6.151,6.151,0,0,1-6.382-5.886h-.312v.438a6.152,6.152,0,0,0,6.387,5.881h66.3a6.149,6.149,0,0,0,6.389-5.881v-.438Z" transform="translate(46.156 58.09)" fill="none" stroke="#00009f" stroke-linecap="round" stroke-linejoin="round" stroke-width="1"/>
      <path id="Path_24368" data-name="Path 24368" d="M2.161,245.562a.172.172,0,0,0-.042.338,246.159,246.159,0,0,0,58.507,7.013H492.108a246.141,246.141,0,0,0,58.506-7.013.172.172,0,0,0-.041-.338H2.161Z" transform="translate(0.48 59.293)" fill="none" stroke="#00009f" stroke-linecap="round" stroke-linejoin="round" stroke-width="1"/>
    </g>
    <g id="screen">
      <path id="outer" d="M491.119,298.311H44.475V24.636A23.636,23.636,0,0,1,68.111,1H467.483a23.636,23.636,0,0,1,23.636,23.636Z" transform="translate(10.738 0.24)" fill="#fff" stroke="#00009f" stroke-width="2"/>
      <rect id="inner-2" data-name="inner" width="424.504" height="262.657" transform="translate(66.83 20.109)" fill="#efefef" stroke="#00009f" stroke-linejoin="round" stroke-width="1"/>
      <circle id="camera" cx="2.5" cy="2.5" r="2.5" transform="translate(274 9)" fill="#00009f"/>
    </g>
    <g id="Mask_Group_25" data-name="Mask Group 25" clip-path="url(#clip-path)">
      <rect id="Rectangle_5730" data-name="Rectangle 5730" width="103" height="103" transform="translate(120.24 99.223)" fill="#fff"/>
      <rect id="Rectangle_5731" data-name="Rectangle 5731" width="103" height="103" transform="translate(231.24 99.07)" fill="#fff"/>
      <rect id="Rectangle_5732" data-name="Rectangle 5732" width="103" height="103" transform="translate(342.24 99.07)" fill="#fff"/>
      <g id="Icon_feather-music" data-name="Icon feather-music" transform="translate(153.742 132.723)">
        <path id="Path_24373" data-name="Path 24373" d="M13.5,27V7.5l18-3V24" fill="none" stroke="#00009f" stroke-linecap="round" stroke-linejoin="round" stroke-width="2"/>
        <path id="Path_24374" data-name="Path 24374" d="M13.5,27A4.5,4.5,0,1,1,9,22.5,4.5,4.5,0,0,1,13.5,27Z" fill="none" stroke="#00009f" stroke-linecap="round" stroke-linejoin="round" stroke-width="2"/>
        <path id="Path_24375" data-name="Path 24375" d="M31.5,24A4.5,4.5,0,1,1,27,19.5,4.5,4.5,0,0,1,31.5,24Z" fill="none" stroke="#00009f" stroke-linecap="round" stroke-linejoin="round" stroke-width="2"/>
      </g>
      <g id="Group_15616" data-name="Group 15616" transform="translate(162.242 196.222)">
        <g id="Group_15616-2" data-name="Group 15616" clip-path="url(#clip-path-2)">
          <line id="Line_771" data-name="Line 771" y1="15.1" transform="translate(6.984 0.001)" fill="none" stroke="#f44044" stroke-width="2"/>
          <path id="Path_24372" data-name="Path 24372" d="M13.413,10.814,6.984,15.1.554,10.814" fill="none" stroke="#f44044" stroke-width="2"/>
        </g>
      </g>
      <g id="Group_15617" data-name="Group 15617" transform="translate(161.242 196.222)">
        <g id="Group_15616-3" data-name="Group 15616" transform="translate(115)" clip-path="url(#clip-path-2)">
          <line id="Line_771-2" data-name="Line 771" y1="15.1" transform="translate(6.984 0.001)" fill="none" stroke="#f44044" stroke-width="2"/>
          <path id="Path_24372-2" data-name="Path 24372" d="M13.413,10.814,6.984,15.1.554,10.814" fill="none" stroke="#f44044" stroke-width="2"/>
        </g>
      </g>
      <g id="Group_15618" data-name="Group 15618" transform="translate(271.758 196.222)">
        <g id="Group_15616-4" data-name="Group 15616" transform="translate(115)" clip-path="url(#clip-path-2)">
          <line id="Line_771-3" data-name="Line 771" y1="15.1" transform="translate(6.984 0.001)" fill="none" stroke="#f44044" stroke-width="2"/>
          <path id="Path_24372-3" data-name="Path 24372" d="M13.413,10.814,6.984,15.1.554,10.814" fill="none" stroke="#f44044" stroke-width="2"/>
        </g>
      </g>
      <g id="Icon_feather-video" data-name="Icon feather-video" transform="translate(264.742 132.723)">
        <path id="Path_24376" data-name="Path 24376" d="M34.5,10.5,24,18l10.5,7.5Z" fill="none" stroke="#00009f" stroke-linecap="round" stroke-linejoin="round" stroke-width="2"/>
        <path id="Path_24377" data-name="Path 24377" d="M4.5,7.5H21a3,3,0,0,1,3,3v15a3,3,0,0,1-3,3H4.5a3,3,0,0,1-3-3v-15a3,3,0,0,1,3-3Z" fill="none" stroke="#00009f" stroke-linecap="round" stroke-linejoin="round" stroke-width="2"/>
      </g>
      <g id="Icon_feather-image" data-name="Icon feather-image" transform="translate(375.742 132.723)">
        <path id="Path_24378" data-name="Path 24378" d="M7.5,4.5h21a3,3,0,0,1,3,3v21a3,3,0,0,1-3,3H7.5a3,3,0,0,1-3-3V7.5a3,3,0,0,1,3-3Z" fill="none" stroke="#00009f" stroke-linecap="round" stroke-linejoin="round" stroke-width="2"/>
        <path id="Path_24379" data-name="Path 24379" d="M15,12.75a2.25,2.25,0,1,1-2.25-2.25A2.25,2.25,0,0,1,15,12.75Z" fill="none" stroke="#00009f" stroke-linecap="round" stroke-linejoin="round" stroke-width="2"/>
        <path id="Path_24380" data-name="Path 24380" d="M31.5,22.5,24,15,7.5,31.5" fill="none" stroke="#00009f" stroke-linecap="round" stroke-linejoin="round" stroke-width="2"/>
      </g>
    </g>
  </g>
</svg>
