<svg xmlns="http://www.w3.org/2000/svg" xmlns:xlink="http://www.w3.org/1999/xlink" width="1619" height="465" viewBox="0 0 1619 465">
  <defs>
    <clipPath id="clip-path">
      <rect id="Rectangle_169" data-name="Rectangle 169" width="1619" height="465" transform="translate(951 259)" fill="none" stroke="#d92a92" stroke-width="2"/>
    </clipPath>
  </defs>
  <g id="line-element-eshop" transform="translate(-951 -259)" clip-path="url(#clip-path)">
    <path id="Path_328" data-name="Path 328" d="M1271.056,566.8H1159.667c-10.258,0-18.575-9.9-18.575-22.111V412.111c0-12.211-8.318-22.111-18.576-22.111H658.355c-10.258,0-18.576,9.9-18.576,22.111V544.692c0,12.211-8.318,22.111-18.576,22.111H509.816c-10.258,0-18.575,9.9-18.575,22.11V1075.1c0,12.209,8.318,22.11,18.575,22.11H621.2c10.26,0,18.576,9.9,18.576,22.111V1251.9c0,12.21,8.318,22.111,18.576,22.111h464.16c10.258,0,18.576-9.9,18.576-22.111V1119.323c0-12.21-8.318-22.111-18.576-22.111H658.355c-10.258,0-18.576-9.9-18.576-22.11V942.519c0-12.21,8.318-22.111,18.576-22.111h612.666c10.258,0,18.576-9.9,18.576-22.11V588.913C1289.631,576.7,1281.314,566.8,1271.056,566.8ZM1141.092,721.5c0,12.21-8.318,22.111-18.576,22.111H658.355c-10.258,0-18.576-9.9-18.576-22.111V588.913c0-12.209,8.318-22.11,18.576-22.11h464.16c10.258,0,18.576,9.9,18.576,22.11Z" transform="translate(1132.582 -174.547)" fill="none" stroke="#d92a92" stroke-width="2" opacity="0.148"/>
    <path id="Path_24256" data-name="Path 24256" d="M861.847,474.026H808.909c-4.875,0-8.828-4.705-8.828-10.508V400.508c0-5.8-3.953-10.508-8.828-10.508H570.661c-4.875,0-8.828,4.705-8.828,10.508v63.009c0,5.8-3.953,10.508-8.828,10.508H500.068c-4.875,0-8.828,4.705-8.828,10.508V715.594c0,5.8,3.953,10.508,8.828,10.508H553c4.876,0,8.828,4.705,8.828,10.508v63.009c0,5.8,3.953,10.508,8.828,10.508H791.253c4.875,0,8.828-4.705,8.828-10.508V736.61c0-5.8-3.953-10.508-8.828-10.508H570.661c-4.875,0-8.828-4.705-8.828-10.508v-63.01c0-5.8,3.953-10.508,8.828-10.508H861.83c4.875,0,8.828-4.705,8.828-10.508V484.533C870.675,478.731,866.722,474.026,861.847,474.026Zm-61.765,73.517c0,5.8-3.953,10.508-8.828,10.508H570.661c-4.875,0-8.828-4.705-8.828-10.508v-63.01c0-5.8,3.953-10.508,8.828-10.508H791.253c4.875,0,8.828,4.705,8.828,10.508Z" transform="translate(519.051 57.397)" fill="none" stroke="#d92a92" stroke-width="2" opacity="0.148"/>
    <path id="Path_24214" data-name="Path 24214" d="M605.648,217H550.917a9.033,9.033,0,0,0-9.122,9.122v127.7a9.033,9.033,0,0,1-9.121,9.121H259.022a9.033,9.033,0,0,0-9.122,9.122V536.261a9.033,9.033,0,0,0,9.122,9.122h54.73a9.033,9.033,0,0,1,9.122,9.122v54.73A9.033,9.033,0,0,0,332,618.356H605.648a9.033,9.033,0,0,0,9.121-9.122V226.122A9.148,9.148,0,0,0,605.648,217ZM332,545.382a9.033,9.033,0,0,1-9.121-9.122V445.043A9.033,9.033,0,0,1,332,435.922H532.673a9.033,9.033,0,0,1,9.121,9.121v91.217a9.033,9.033,0,0,1-9.121,9.122Z" transform="translate(1974.301 51)" fill="none" stroke="#d92a92" stroke-width="2" opacity="0.15"/>
    <path id="Path_24257" data-name="Path 24257" d="M605.648,217H550.917a9.033,9.033,0,0,0-9.122,9.122v127.7a9.033,9.033,0,0,1-9.121,9.121H259.022a9.033,9.033,0,0,0-9.122,9.122V536.261a9.033,9.033,0,0,0,9.122,9.122h54.73a9.033,9.033,0,0,1,9.122,9.122v54.73A9.033,9.033,0,0,0,332,618.356H605.648a9.033,9.033,0,0,0,9.121-9.122V226.122A9.148,9.148,0,0,0,605.648,217ZM332,545.382a9.033,9.033,0,0,1-9.121-9.122V445.043A9.033,9.033,0,0,1,332,435.922H532.673a9.033,9.033,0,0,1,9.121,9.121v91.217a9.033,9.033,0,0,1-9.121,9.122Z" transform="translate(615.301 -63)" fill="none" stroke="#d92a92" stroke-width="2" opacity="0.15"/>
  </g>
</svg>
