<svg xmlns="http://www.w3.org/2000/svg" xmlns:xlink="http://www.w3.org/1999/xlink" width="1083" height="1039" viewBox="0 0 1083 1039">
  <defs>
    <clipPath id="clip-path">
      <rect id="Rectangle_169" data-name="Rectangle 169" width="1083" height="1039" transform="translate(951 111)" fill="none" stroke="#8e8e8e" stroke-width="2"/>
    </clipPath>
  </defs>
  <g id="line-element-eshop" transform="translate(-951 -111)" clip-path="url(#clip-path)">
    <path id="Path_328" data-name="Path 328" d="M658.355,389h464.16a16.938,16.938,0,0,1,7.68,1.845,19.7,19.7,0,0,1,6.221,4.989,23.661,23.661,0,0,1,4.158,7.337,26.623,26.623,0,0,1,1.518,8.941V544.692c0,11.641,7.884,21.111,17.575,21.111h111.389a16.891,16.891,0,0,1,6.877,1.465,19.07,19.07,0,0,1,5.782,4.016,24.9,24.9,0,0,1,6.882,17.632V898.3a26.62,26.62,0,0,1-1.518,8.94,23.663,23.663,0,0,1-4.158,7.336,19.7,19.7,0,0,1-6.22,4.989,16.937,16.937,0,0,1-7.68,1.845H658.355c-9.692,0-17.576,9.47-17.576,21.111V1075.1c0,11.64,7.885,21.11,17.576,21.11h464.16a16.937,16.937,0,0,1,7.68,1.845,19.7,19.7,0,0,1,6.221,4.989,23.664,23.664,0,0,1,4.158,7.337,26.624,26.624,0,0,1,1.518,8.941V1251.9a26.622,26.622,0,0,1-1.518,8.941,23.661,23.661,0,0,1-4.158,7.337,19.7,19.7,0,0,1-6.221,4.989,16.94,16.94,0,0,1-7.68,1.844H658.355a16.939,16.939,0,0,1-7.68-1.844,19.7,19.7,0,0,1-6.221-4.989,23.663,23.663,0,0,1-4.158-7.337,26.625,26.625,0,0,1-1.518-8.941V1119.323c0-11.641-7.885-21.111-17.576-21.111H509.816a16.934,16.934,0,0,1-7.68-1.845,19.7,19.7,0,0,1-6.22-4.989,23.665,23.665,0,0,1-4.158-7.336,26.62,26.62,0,0,1-1.518-8.941V588.913a26.62,26.62,0,0,1,1.518-8.94,23.665,23.665,0,0,1,4.158-7.336,19.7,19.7,0,0,1,6.22-4.989,16.936,16.936,0,0,1,7.68-1.845H621.2c9.692,0,17.576-9.47,17.576-21.111V412.111a26.626,26.626,0,0,1,1.518-8.941,23.663,23.663,0,0,1,4.158-7.337,19.7,19.7,0,0,1,6.221-4.989A16.938,16.938,0,0,1,658.355,389Zm612.666,530.409c9.691,0,17.576-9.47,17.576-21.11V588.913a22.887,22.887,0,0,0-6.3-16.217,17.079,17.079,0,0,0-5.175-3.6,14.9,14.9,0,0,0-6.067-1.294H1159.667a16.936,16.936,0,0,1-7.68-1.845,19.7,19.7,0,0,1-6.22-4.989,23.66,23.66,0,0,1-4.158-7.337,26.621,26.621,0,0,1-1.518-8.941V412.111c0-11.641-7.885-21.111-17.576-21.111H658.355c-9.692,0-17.576,9.47-17.576,21.111V544.692a26.624,26.624,0,0,1-1.518,8.941,23.662,23.662,0,0,1-4.158,7.337,19.7,19.7,0,0,1-6.221,4.989,16.938,16.938,0,0,1-7.68,1.845H509.816c-9.691,0-17.575,9.47-17.575,21.11V1075.1c0,11.64,7.884,21.11,17.575,21.11H621.2a16.938,16.938,0,0,1,7.681,1.845,19.7,19.7,0,0,1,6.221,4.989,23.659,23.659,0,0,1,4.158,7.336,26.627,26.627,0,0,1,1.517,8.941V1251.9c0,11.641,7.885,21.111,17.576,21.111h464.16c9.692,0,17.576-9.47,17.576-21.111V1119.323c0-11.641-7.885-21.111-17.576-21.111H658.355a16.936,16.936,0,0,1-7.68-1.845,19.7,19.7,0,0,1-6.221-4.989,23.663,23.663,0,0,1-4.158-7.336,26.623,26.623,0,0,1-1.518-8.941V942.519a26.626,26.626,0,0,1,1.518-8.941,23.664,23.664,0,0,1,4.158-7.337,19.7,19.7,0,0,1,6.221-4.989,16.938,16.938,0,0,1,7.68-1.845ZM658.355,565.8h464.16a16.938,16.938,0,0,1,7.68,1.845,19.7,19.7,0,0,1,6.221,4.989,23.66,23.66,0,0,1,4.158,7.336,26.62,26.62,0,0,1,1.518,8.94V721.5a26.622,26.622,0,0,1-1.518,8.941,23.662,23.662,0,0,1-4.158,7.337,19.7,19.7,0,0,1-6.221,4.989,16.938,16.938,0,0,1-7.68,1.845H658.355a16.938,16.938,0,0,1-7.68-1.845,19.7,19.7,0,0,1-6.221-4.989,23.664,23.664,0,0,1-4.158-7.337,26.625,26.625,0,0,1-1.518-8.941V588.913a26.623,26.623,0,0,1,1.518-8.94,23.663,23.663,0,0,1,4.158-7.336,19.7,19.7,0,0,1,6.221-4.989A16.938,16.938,0,0,1,658.355,565.8Zm464.16,176.8c9.692,0,17.576-9.47,17.576-21.111V588.913c0-11.64-7.885-21.11-17.576-21.11H658.355c-9.692,0-17.576,9.47-17.576,21.11V721.5c0,11.641,7.885,21.111,17.576,21.111Z" transform="translate(399.582 -331.547)" fill="#f44044" opacity="0.148"/>
    <path id="Path_329" data-name="Path 329" d="M486.848,462.46h-74.9a14.736,14.736,0,0,1-9.506-3.276,10.646,10.646,0,0,1-3.977-8.212V262.193c0-5.32-5.044-9.488-11.483-9.488H112.349c-6.439,0-11.483,4.168-11.483,9.488V450.972a10.645,10.645,0,0,1-3.977,8.212,14.736,14.736,0,0,1-9.506,3.276h-74.9a14.736,14.736,0,0,1-9.506-3.276A10.646,10.646,0,0,1-1,450.972V10.488A10.645,10.645,0,0,1,2.977,2.276,14.736,14.736,0,0,1,12.483-1h74.9a14.736,14.736,0,0,1,9.506,3.276,10.645,10.645,0,0,1,3.977,8.212V157.316c0,5.32,5.044,9.488,11.483,9.488H386.981a14.736,14.736,0,0,1,9.506,3.276,10.645,10.645,0,0,1,3.977,8.212v62.926c0,5.32,5.044,9.488,11.483,9.488h74.9a14.728,14.728,0,0,1,9.408,3.271,10.624,10.624,0,0,1,4.076,8.216V450.972a10.646,10.646,0,0,1-3.977,8.212A14.736,14.736,0,0,1,486.848,462.46Zm-374.5-211.755H386.981a14.737,14.737,0,0,1,9.506,3.276,10.646,10.646,0,0,1,3.977,8.212V450.972c0,5.32,5.044,9.488,11.483,9.488h74.9c6.439,0,11.483-4.168,11.483-9.488V262.193a8.66,8.66,0,0,0-3.352-6.676,11.954,11.954,0,0,0-3.67-2.056,13.373,13.373,0,0,0-4.462-.756h-74.9a14.736,14.736,0,0,1-9.506-3.276,10.645,10.645,0,0,1-3.977-8.212V178.291c0-5.32-5.044-9.488-11.483-9.488H112.349a14.737,14.737,0,0,1-9.506-3.276,10.645,10.645,0,0,1-3.977-8.212V10.488C98.866,5.167,93.822,1,87.383,1h-74.9C6.044,1,1,5.167,1,10.488V450.972c0,5.32,5.044,9.488,11.483,9.488h74.9c6.439,0,11.483-4.168,11.483-9.488V262.193a10.645,10.645,0,0,1,3.977-8.212A14.736,14.736,0,0,1,112.349,250.705Z" transform="translate(1848.73 708.935) rotate(90)" fill="#f44044" opacity="0.096"/>
  </g>
</svg>
