<svg xmlns="http://www.w3.org/2000/svg" width="62.5" height="62.502" viewBox="0 0 62.5 62.502">
  <g id="logo-square" transform="translate(-15 -19.845)">
    <path id="Path_204" data-name="Path 204" d="M200.687,79.218h-4.261a.71.71,0,0,1-.71-.71V74.246a.71.71,0,0,0-.71-.71H175.829a.71.71,0,0,0-.71.71v4.261a.71.71,0,0,0,.71.71h19.176a.71.71,0,0,1,.71.71v4.261a.71.71,0,0,1-.71.71H172.988a.71.71,0,0,0-.71.71v9.943a.71.71,0,0,0,.71.71h4.261a.71.71,0,0,1,.71.71v4.261a.71.71,0,0,0,.71.71h17.046V96.974a.71.71,0,0,1,.71-.71h4.261a.71.71,0,0,0,.71-.71V79.928a.71.71,0,0,0-.71-.71M178.67,96.264a.71.71,0,0,1-.71-.71V91.292a.71.71,0,0,1,.71-.71h16.335a.71.71,0,0,1,.71.71v4.261a.71.71,0,0,1-.71.71Z" transform="translate(-123.898 -53.691)" fill="#fff"/>
    <path id="Path_205" data-name="Path 205" d="M61.79,101.946H56.818v16.335a.71.71,0,0,1-.71.71H36.932a.71.71,0,0,1-.71-.71V102.657a.71.71,0,0,0-.71-.71H31.25a.71.71,0,0,1-.71-.71V96.975a.71.71,0,0,0-.71-.71H6.392a.71.71,0,0,1-.71-.71V91.293a.71.71,0,0,1,.71-.71H29.83a.71.71,0,0,0,.71-.71V79.929a.71.71,0,0,0-.71-.71H25.568a.71.71,0,0,1-.71-.71V74.247a.71.71,0,0,0-.71-.71H6.392a.71.71,0,0,0-.71.71v4.261a.71.71,0,0,1-.71.71H.71a.71.71,0,0,0-.71.71V95.554a.71.71,0,0,0,.71.71H4.972a.71.71,0,0,1,.71.709v4.263a.71.71,0,0,1-.71.71H.71a.71.71,0,0,0-.71.71V112.6a.71.71,0,0,0,.71.71h20.6a.71.71,0,0,1,.71.71v4.261a.71.71,0,0,1-.71.71H.71a.71.71,0,0,0-.71.71v4.261a.71.71,0,0,0,.71.71h20.6a.71.71,0,0,0,.71-.71V119.7a.71.71,0,0,1,.71-.71h4.261a.71.71,0,0,0,.71-.71v-9.943a.71.71,0,0,0-.71-.71H6.392a.71.71,0,0,1-.71-.71v-4.261a.71.71,0,0,1,.71-.71H29.829a.71.71,0,0,1,.71.71v15.625a.71.71,0,0,0,.71.71h4.261a.71.71,0,0,1,.71.71v4.261a.71.71,0,0,0,.71.71H56.108a.71.71,0,0,1,.71.71v4.261a.71.71,0,0,1-.71.71H36.932a.71.71,0,0,0-.71.71v4.261a.71.71,0,0,0,.71.71H56.108a.71.71,0,0,0,.71-.71v-4.261a.71.71,0,0,1,.71-.71H61.79a.71.71,0,0,0,.71-.71V102.657a.71.71,0,0,0-.71-.71M5.682,79.929a.71.71,0,0,1,.71-.71H24.148a.71.71,0,0,1,.71.71v4.261a.71.71,0,0,1-.71.71H6.392a.71.71,0,0,1-.71-.71Z" transform="translate(15 -53.691)" fill="#fff"/>
  </g>
</svg>
