<svg id="logo-header" xmlns="http://www.w3.org/2000/svg" width="158" height="50.562" viewBox="0 0 158 50.562">
  <path id="Path_2" data-name="Path 2" d="M529.16,397.223h-5.417a.9.9,0,0,1-.9-.9V390.9a.9.9,0,0,0-.9-.9H499.366a.9.9,0,0,0-.9.9v5.416a.9.9,0,0,1-.9.9h-5.416a.9.9,0,0,0-.9.9v19.863a.9.9,0,0,0,.9.9h5.416a.9.9,0,0,1,.9.9v5.416a.9.9,0,0,0,.9.9h22.571a.9.9,0,0,0,.9-.9V419.8a.9.9,0,0,0-.9-.9H499.366a.9.9,0,0,1-.9-.9v-5.416a.9.9,0,0,1,.9-.9h29.792a.9.9,0,0,0,.9-.9V398.126A.9.9,0,0,0,529.16,397.223Zm-6.32,6.32a.9.9,0,0,1-.9.9H499.366a.9.9,0,0,1-.9-.9v-5.416a.9.9,0,0,1,.9-.9h22.571a.9.9,0,0,1,.9.9Z" transform="translate(-491.24 -389.998)" fill="#fff"/>
  <path id="Path_3" data-name="Path 3" d="M1053.667,389.992h-5.416a.9.9,0,0,0-.9.9v27.084a.9.9,0,0,1-.9.9H1025.68a.9.9,0,0,1-.9-.9V398.116a.9.9,0,0,0-.9-.9h-5.416a.9.9,0,0,1-.9-.9v-5.418a.9.9,0,0,0-.9-.9H986.856a.9.9,0,0,0-.9.9v5.416a.9.9,0,0,1-.9.9h-5.416a.9.9,0,0,0-.9.9v12.64a.9.9,0,0,0,.9.9h26.182a.9.9,0,0,1,.9.9v5.417a.9.9,0,0,1-.9.9H979.637a.9.9,0,0,0-.9.9V425.2a.9.9,0,0,0,.9.9h26.182a.9.9,0,0,0,.9-.9v-5.416a.9.9,0,0,1,.9-.9h5.416a.9.9,0,0,0,.9-.9V405.34a.9.9,0,0,0-.9-.9H986.86a.9.9,0,0,1-.9-.9v-5.416a.9.9,0,0,1,.9-.9h29.794a.9.9,0,0,1,.9.9v19.863a.9.9,0,0,0,.9.9h5.416a.9.9,0,0,1,.9.9V425.2a.9.9,0,0,0,.9.9h20.764a.9.9,0,0,1,.9.9v5.416a.9.9,0,0,1-.9.9h-20.764a.9.9,0,0,0-.9.9v5.416a.9.9,0,0,0,.9.9h20.764a.9.9,0,0,0,.9-.9V434.23a.9.9,0,0,1,.9-.9h5.417a.9.9,0,0,0,.9-.9V390.9A.908.908,0,0,0,1053.667,389.992Z" transform="translate(-896.574 -389.99)" fill="#fff"/>
  <path id="Path_4" data-name="Path 4" d="M779.144,397.223h-5.416a.9.9,0,0,1-.9-.9V390.9a.9.9,0,0,0-.9-.9H747.545a.9.9,0,0,0-.9.9v5.416a.9.9,0,0,0,.9.9h24.376a.9.9,0,0,1,.9.9v5.416a.9.9,0,0,1-.9.9H743.933a.9.9,0,0,0-.9.9v12.639a.9.9,0,0,0,.9.9h5.416a.9.9,0,0,1,.9.9v5.416a.9.9,0,0,0,.9.9h20.766a.9.9,0,0,0,.9-.9V419.8a.9.9,0,0,1,.9-.9h5.416a.9.9,0,0,0,.9-.9V398.126A.906.906,0,0,0,779.144,397.223Zm-6.318,20.764a.9.9,0,0,1-.9.9H751.156a.9.9,0,0,1-.9-.9v-5.416a.9.9,0,0,1,.9-.9h20.766a.9.9,0,0,1,.9.9Z" transform="translate(-700.596 -389.998)" fill="#fff"/>
</svg>
