<svg xmlns="http://www.w3.org/2000/svg" width="45" height="30" viewBox="0 0 45 30">
  <path id="Icon_metro-visa" data-name="Icon metro-visa" d="M41.145,27.125h-2.7q.273-.723,1.289-3.5l.059-.176q.078-.2.2-.508t.176-.508l.234,1.074Zm-28.2-1.27-1.133-5.762a1.3,1.3,0,0,0-1.465-1.055H5.11l-.039.254q6.074,1.543,7.871,6.562Zm3.5-6.816-3.164,8.555-.332-1.738a7.1,7.1,0,0,0-1.66-2.529A7.575,7.575,0,0,0,8.723,21.6l2.637,9.961h3.418l5.1-12.52H16.438Zm2.715,12.539h3.242l2.031-12.539H21.184Zm15-12.227a7.916,7.916,0,0,0-2.91-.527,6.331,6.331,0,0,0-3.926,1.152,3.633,3.633,0,0,0-1.543,2.988q-.02,1.992,2.832,3.4a5.4,5.4,0,0,1,1.309.8,1.04,1.04,0,0,1,.371.762.977.977,0,0,1-.586.9,2.82,2.82,0,0,1-1.348.313,7.057,7.057,0,0,1-3.047-.645l-.43-.215-.449,2.813a8.654,8.654,0,0,0,3.613.664A6.449,6.449,0,0,0,32.112,30.6a3.84,3.84,0,0,0,1.572-3.125q0-2.07-2.734-3.4a9.438,9.438,0,0,1-1.387-.82.94.94,0,0,1-.43-.742.912.912,0,0,1,.479-.752,2.46,2.46,0,0,1,1.377-.322,5.514,5.514,0,0,1,2.422.469l.293.156Zm8.3-.313h-2.5a1.659,1.659,0,0,0-1.7,1.055l-4.8,11.484h3.4l.684-1.875h4.141q.1.43.391,1.875h3.008Zm5.117-6.25v25a2.535,2.535,0,0,1-2.5,2.5h-40a2.4,2.4,0,0,1-1.758-.742,2.4,2.4,0,0,1-.742-1.758v-25a2.4,2.4,0,0,1,.742-1.758,2.4,2.4,0,0,1,1.758-.742h40a2.535,2.535,0,0,1,2.5,2.5Z" transform="translate(-2.571 -10.289)" fill="#fff"/>
</svg>
