<svg id="vector-buy" xmlns="http://www.w3.org/2000/svg" xmlns:xlink="http://www.w3.org/1999/xlink" width="572.378" height="539.516" viewBox="0 0 572.378 539.516">
  <defs>
    <linearGradient id="linear-gradient" x1="0.015" y1="0.433" x2="1.014" y2="0.433" gradientUnits="objectBoundingBox">
      <stop offset="0" stop-color="#007"/>
      <stop offset="0.99" stop-color="#3b93d2"/>
    </linearGradient>
    <linearGradient id="linear-gradient-2" x1="0.023" y1="0.389" x2="1.022" y2="0.389" xlink:href="#linear-gradient"/>
  </defs>
  <g id="c">
    <g id="Group_15032" data-name="Group 15032">
      <g id="Group_15022" data-name="Group 15022">
        <path id="Path_21095" data-name="Path 21095" d="M275.53,17,246.27,34,216.83,17,246.08,0Z" fill="#fff"/>
        <g id="Group_15021" data-name="Group 15021">
          <path id="Path_21096" data-name="Path 21096" d="M275.53,93.98l-29.2,16.97L216.94,93.98l29.2-16.96Z" fill="#d92a92"/>
          <path id="Path_21097" data-name="Path 21097" d="M275.53,93.98l-.12,42.21-29.2,16.97.12-42.21Z" fill="#3b93d2"/>
          <path id="Path_21098" data-name="Path 21098" d="M246.33,110.95l-.12,42.21-29.38-16.97.11-42.21Z" fill="#007"/>
        </g>
      </g>
      <g id="Group_15023" data-name="Group 15023">
        <path id="Path_21099" data-name="Path 21099" d="M499.56,388.48l-.46,117.78c-.03,8.52-5.65,17.02-16.86,23.52-22.47,13.02-59.07,12.99-81.74-.14-11.37-6.58-17.04-15.22-17-23.83l.46-117.78c-.03,8.62,5.64,17.25,17,23.83,22.68,13.13,59.28,13.17,81.74.14,11.21-6.5,16.82-15,16.86-23.52Z" fill="url(#linear-gradient)"/>
        <path id="Path_21100" data-name="Path 21100" d="M400.97,411.96c-22.69-13.1-22.81-34.3-.27-47.4,22.45-13.05,59.05-13.05,81.74.05,22.6,13.05,22.72,34.25.27,47.3-22.55,13.1-59.14,13.1-81.74.05Z" fill="#d92a92"/>
        <path id="Path_21101" data-name="Path 21101" d="M425.73,397.54c-8.89-5.13-8.94-13.44-.1-18.57,8.8-5.11,23.13-5.11,32.02.02,8.85,5.11,8.9,13.42.1,18.53-8.83,5.13-23.17,5.13-32.02.02Z" fill="#007"/>
      </g>
      <g id="Group_15024" data-name="Group 15024">
        <path id="Path_21102" data-name="Path 21102" d="M476.36,315.36l-.28,70.7c-.02,5.11-3.39,10.22-10.12,14.12-13.49,7.82-35.46,7.79-49.07-.09-6.82-3.95-10.23-9.13-10.21-14.31l.28-70.7c-.02,5.17,3.38,10.36,10.21,14.31,13.61,7.88,35.58,7.9,49.07.09,6.73-3.9,10.1-9,10.12-14.12Z" fill="url(#linear-gradient-2)"/>
        <path id="Path_21103" data-name="Path 21103" d="M417.18,329.45c-13.62-7.87-13.69-20.59-.16-28.46,13.48-7.83,35.45-7.83,49.07.03,13.57,7.83,13.64,20.56.16,28.39-13.53,7.87-35.5,7.87-49.07.03Z" fill="#d92a92"/>
        <path id="Path_21104" data-name="Path 21104" d="M432.04,320.79c-5.34-3.08-5.36-8.07-.06-11.15,5.28-3.07,13.89-3.07,19.22.01,5.31,3.07,5.34,8.05.06,11.12-5.3,3.08-13.91,3.08-19.22.01Z" fill="#007"/>
      </g>
      <g id="Group_15025" data-name="Group 15025">
        <path id="Path_21105" data-name="Path 21105" d="M102.61,442.01l-.18,25.06c-.01,4.6-3.11,9.2-9.3,12.72-12.41,7.05-32.64,7.05-45.18-.03-6.29-3.55-9.43-8.21-9.41-12.87l.18-25.06c-.01,4.66,3.13,9.32,9.41,12.87,12.54,7.08,32.77,7.08,45.18.03C99.5,451.21,102.6,446.62,102.61,442.01Z" fill="none" stroke="#fff" stroke-width="1"/>
        <path id="Path_21106" data-name="Path 21106" d="M48.16,454.73c-12.54-7.08-12.61-18.54-.15-25.62,12.41-7.05,32.64-7.05,45.18.03,12.49,7.05,12.56,18.51.15,25.56s-32.69,7.08-45.18.03Z" fill="none" stroke="#fff" stroke-width="1"/>
        <path id="Path_21107" data-name="Path 21107" d="M61.85,390.35c-4.91-2.77-4.94-7.26-.06-10.03,4.86-2.76,12.78-2.76,17.7.01,4.89,2.76,4.92,7.25.06,10.01-4.88,2.77-12.8,2.77-17.7.01Z" fill="none" stroke="#fff" stroke-width="1"/>
        <path id="Path_21108" data-name="Path 21108" d="M61.85,446.94c-4.91-2.77-4.94-7.26-.06-10.03,4.86-2.76,12.78-2.76,17.7.01,4.89,2.76,4.92,7.25.06,10.01-4.88,2.77-12.8,2.77-17.7.01Z" fill="none" stroke="#fff" stroke-width="1"/>
      </g>
      <g id="Group_15026" data-name="Group 15026">
        <path id="Path_21109" data-name="Path 21109" d="M362.68,413.67,246.65,481.1,129.86,413.68l116.03-67.43Z" fill="#d92a92"/>
        <path id="Path_21110" data-name="Path 21110" d="M362.68,413.67l-.47,17.37L246.18,498.47l.47-17.37Z" fill="#3b93d2"/>
        <path id="Path_21111" data-name="Path 21111" d="M246.65,481.1l-.47,17.37L129.39,431.04l.47-17.36Z" fill="#007"/>
      </g>
      <g id="Group_15027" data-name="Group 15027">
        <path id="Path_21112" data-name="Path 21112" d="M362.68,372.96,246.65,440.39,129.86,372.97l116.03-67.43Z" fill="#d92a92"/>
        <path id="Path_21113" data-name="Path 21113" d="M362.68,372.96l-.47,17.37L246.18,457.76l.47-17.37Z" fill="#3b93d2"/>
        <path id="Path_21114" data-name="Path 21114" d="M246.65,440.39l-.47,17.37L129.39,390.33l.47-17.36Z" fill="#007"/>
      </g>
      <g id="Group_15028" data-name="Group 15028">
        <path id="Path_21115" data-name="Path 21115" d="M362.68,332.25,246.65,399.68,129.86,332.25l116.03-67.43Z" fill="#d92a92"/>
        <path id="Path_21116" data-name="Path 21116" d="M362.68,332.25l-.47,17.37L246.18,417.05l.47-17.37Z" fill="#3b93d2"/>
        <path id="Path_21117" data-name="Path 21117" d="M246.65,399.68l-.47,17.37L129.39,349.62l.47-17.37Z" fill="#007"/>
      </g>
      <g id="Group_15029" data-name="Group 15029">
        <path id="Path_21118" data-name="Path 21118" d="M362.68,291.54,246.65,358.97,129.86,291.54l116.03-67.43Z" fill="#d92a92"/>
        <path id="Path_21119" data-name="Path 21119" d="M362.68,291.54l-.47,17.37L246.18,376.34l.47-17.37Z" fill="#3b93d2"/>
        <path id="Path_21120" data-name="Path 21120" d="M246.65,358.97l-.47,17.37L129.39,308.91l.47-17.37Z" fill="#007"/>
      </g>
      <g id="Group_15030" data-name="Group 15030">
        <path id="Path_21121" data-name="Path 21121" d="M362.68,250.83,246.65,318.26,129.86,250.83,245.89,183.4Z" fill="#d92a92"/>
        <path id="Path_21122" data-name="Path 21122" d="M362.68,250.83l-.47,17.37L246.18,335.63l.47-17.37Z" fill="#3b93d2"/>
        <path id="Path_21123" data-name="Path 21123" d="M246.65,318.26l-.47,17.37L129.39,268.2l.47-17.37Z" fill="#007"/>
      </g>
      <path id="Path_21124" data-name="Path 21124" d="M271.09,241.71l-25.48,14.8-25.64-14.8,25.48-14.81Z" fill="none" stroke="#fff" stroke-width="1"/>
      <path id="Path_21125" data-name="Path 21125" d="M492.1,111.02,475,120.96l-17.22-9.94,17.1-9.94Z" fill="none" stroke="#fff" stroke-width="1"/>
      <g id="Group_15031" data-name="Group 15031">
        <path id="Path_21126" data-name="Path 21126" d="M571.38,454.05l-25.71,14.94L519.8,454.05l25.7-14.94Z" fill="none" stroke="#fff" stroke-width="1"/>
        <path id="Path_21127" data-name="Path 21127" d="M571.38,454.05l-.11,17.07-25.7,14.94.1-17.07Z" fill="none" stroke="#fff" stroke-width="1"/>
        <path id="Path_21128" data-name="Path 21128" d="M545.67,468.99l-.1,17.07-25.88-14.94.11-17.07Z" fill="none" stroke="#fff" stroke-width="1"/>
      </g>
      <path id="Path_21129" data-name="Path 21129" d="M337.25,507.24l-17.34,10.07-17.45-10.07,17.34-10.08Z" fill="#fff"/>
      <path id="Path_21130" data-name="Path 21130" d="M30.59,253.15l-15.25,8.86L0,253.15l15.24-8.86Z" fill="#fff"/>
      <path id="Path_21131" data-name="Path 21131" d="M432.38,268.5c-5.1-2.94-5.13-7.71-.06-10.65,5.05-2.93,13.27-2.93,18.37.01,5.08,2.93,5.11,7.69.06,10.63-5.07,2.94-13.29,2.94-18.37.01Z" fill="#fff"/>
      <path id="Path_21132" data-name="Path 21132" d="M55.95,533.75c-8.38-4.73-8.43-12.39-.1-17.12s21.81-4.71,30.2.02c8.35,4.71,8.39,12.37.1,17.08-8.33,4.73-21.85,4.73-30.19.02Z" fill="#fff"/>
    </g>
  </g>
</svg>
