<svg xmlns="http://www.w3.org/2000/svg" xmlns:xlink="http://www.w3.org/1999/xlink" width="468.618" height="528.481" viewBox="0 0 468.618 528.481">
  <defs>
    <linearGradient id="linear-gradient" y1="0.5" x2="1" y2="0.5" gradientUnits="objectBoundingBox">
      <stop offset="0" stop-color="#007"/>
      <stop offset="0.69" stop-color="#3b93d2"/>
    </linearGradient>
    <linearGradient id="linear-gradient-2" x1="0.026" y1="0.493" x2="1.025" y2="0.493" gradientUnits="objectBoundingBox">
      <stop offset="0" stop-color="#007"/>
      <stop offset="0.99" stop-color="#3b93d2"/>
    </linearGradient>
    <linearGradient id="linear-gradient-3" x1="0.016" y1="0.439" x2="1.016" y2="0.439" xlink:href="#linear-gradient-2"/>
    <linearGradient id="linear-gradient-4" x1="0.027" y1="0.403" x2="1.027" y2="0.403" xlink:href="#linear-gradient-2"/>
    <linearGradient id="linear-gradient-5" x1="0.039" y1="0.361" x2="1.039" y2="0.361" xlink:href="#linear-gradient-2"/>
    <linearGradient id="linear-gradient-8" x1="0.071" y1="0.486" x2="1.07" y2="0.486" xlink:href="#linear-gradient-2"/>
    <linearGradient id="linear-gradient-9" x1="0.112" y1="0.478" x2="1.11" y2="0.478" xlink:href="#linear-gradient-2"/>
  </defs>
  <g id="vectror-sale" transform="translate(-0.003 -190.067)">
    <g id="c" transform="translate(1 0.58)">
      <g id="Group_14847" data-name="Group 14847">
        <g id="Group_14837" data-name="Group 14837" transform="translate(136.412 552.718)">
          <path id="Path_17108" data-name="Path 17108" d="M218.179,607.666c-17.833,10.369-46.9,10.369-64.853,0-9.03-5.219-13.55-12.073-13.53-18.916l-.266,56.276c-.02,6.844,4.49,13.7,13.53,18.916,17.951,10.369,47.02,10.359,64.853,0h0a65.308,65.308,0,0,0,32.5-56.286l.158-18.808-32.4,18.828Z" transform="translate(-139.53 -562.288)" fill="url(#linear-gradient)"/>
          <path id="Path_17109" data-name="Path 17109" d="M250.57,588.428l-32.4,18.828c-17.833,10.369-46.9,10.369-64.853,0s-18.05-27.2-.207-37.567c17.912-10.408,46.971-10.408,64.922-.039" transform="translate(-139.534 -561.877)" fill="#d92a92"/>
        </g>
        <path id="Path_17110" data-name="Path 17110" d="M412.429,665.011l-13.205,7.681-13.294-7.681,13.205-7.671Z" transform="translate(-4.884 -49.909)" fill="#fff"/>
        <path id="Path_17111" data-name="Path 17111" d="M232.119,398.871l-13.205,7.681-13.294-7.681,13.205-7.671Z" transform="translate(-4.128 -6.551)" fill="#fff"/>
        <g id="Group_14838" data-name="Group 14838" transform="translate(100.293 438.611)">
          <path id="Path_17112" data-name="Path 17112" d="M132.294,454.508l-14.643,8.508-14.741-8.508L117.553,446Z" transform="translate(-102.851 -446)" fill="#d92a92"/>
          <path id="Path_17113" data-name="Path 17113" d="M132.522,454.64l-.059,21.161-14.643,8.508.059-21.161Z" transform="translate(-103.079 -446.132)" fill="url(#linear-gradient-2)"/>
          <path id="Path_17114" data-name="Path 17114" d="M117.65,463.148l-.059,21.161L102.85,475.8l.059-21.161Z" transform="translate(-102.85 -446.132)" fill="#007"/>
        </g>
        <path id="Path_17115" data-name="Path 17115" d="M24.929,688.992,13,695.925,1,688.992l11.925-6.932Z" transform="translate(-1 -10.997)" fill="none" stroke="#fff" stroke-width="1"/>
        <path id="Path_17116" data-name="Path 17116" d="M129.6,421.052l-11.925,6.932-12.014-6.932,11.935-6.932Z" transform="translate(-2.6 -6.901)" fill="none" stroke="#fff" stroke-width="1"/>
        <g id="Group_14840" data-name="Group 14840" transform="translate(278.162 252.764)">
          <path id="Path_17121" data-name="Path 17121" d="M375.689,284.454l-.364,11.167c-.03,6.765-4.49,13.52-13.392,18.68-17.853,10.349-46.922,10.32-64.942-.108-9.03-5.229-13.53-12.082-13.51-18.936l.364-11.167c-.03,6.844,4.48,13.707,13.51,18.936,18.02,10.428,47.089,10.458,64.942.108,8.9-5.16,13.363-11.915,13.392-18.68Z" transform="translate(-283.48 -257.677)" fill="url(#linear-gradient-3)"/>
          <path id="Path_17122" data-name="Path 17122" d="M297.379,302.695c-18.03-10.408-18.119-27.247-.217-37.655,17.833-10.369,46.912-10.369,64.942.039,17.951,10.369,18.05,27.208.217,37.577-17.912,10.408-46.981,10.408-64.942.039Z" transform="translate(-283.485 -257.267)" fill="#d92a92"/>
          <path id="Path_17123" data-name="Path 17123" d="M317.477,291.494c-7.06-4.077-7.1-10.674-.079-14.751,6.991-4.057,18.375-4.057,25.435.02,7.031,4.057,7.07,10.655.079,14.721-7.021,4.077-18.4,4.077-25.435.02Z" transform="translate(-283.918 -257.519)" fill="#007"/>
        </g>
        <g id="Group_14841" data-name="Group 14841" transform="translate(294.823 332.987)">
          <path id="Path_17124" data-name="Path 17124" d="M359.306,356.106l-.236,7.129c-.02,4.323-2.866,8.636-8.557,11.935-11.4,6.607-29.975,6.588-41.486-.069-5.77-3.338-8.646-7.72-8.626-12.092l.236-7.129c-.02,4.372,2.866,8.754,8.626,12.092,11.511,6.667,30.083,6.686,41.486.069C356.44,364.742,359.286,360.429,359.306,356.106Z" transform="translate(-300.4 -338.998)" fill="url(#linear-gradient-4)"/>
          <path id="Path_17125" data-name="Path 17125" d="M309.265,367.759c-11.521-6.647-11.58-17.41-.138-24.057,11.393-6.627,29.975-6.627,41.486.03,11.472,6.627,11.531,17.38.138,24.007-11.442,6.647-30.014,6.647-41.486.03Z" transform="translate(-300.403 -338.736)" fill="#d92a92"/>
          <path id="Path_17126" data-name="Path 17126" d="M322.107,360.6c-4.51-2.61-4.54-6.824-.049-9.424,4.461-2.59,11.738-2.59,16.248.01,4.49,2.59,4.52,6.8.049,9.4S326.6,363.2,322.107,360.6Z" transform="translate(-300.68 -338.897)" fill="#007"/>
        </g>
        <g id="Group_14842" data-name="Group 14842" transform="translate(303.627 392.322)">
          <path id="Path_17127" data-name="Path 17127" d="M350.639,411.178l-.167,5c-.01,3.033-2.009,6.056-6,8.37-8,4.638-21.014,4.618-29.088-.049-4.047-2.344-6.066-5.416-6.046-8.478l.167-5c-.01,3.062,2.009,6.135,6.046,8.478,8.075,4.668,21.093,4.687,29.088.049C348.63,417.234,350.629,414.21,350.639,411.178Z" transform="translate(-309.34 -399.176)" fill="url(#linear-gradient-5)"/>
          <path id="Path_17128" data-name="Path 17128" d="M315.556,419.344c-8.075-4.658-8.114-12.2-.1-16.868,7.986-4.648,21.014-4.648,29.088.02,8.045,4.648,8.085,12.191.1,16.829C336.619,423.982,323.6,423.982,315.556,419.344Z" transform="translate(-309.342 -398.992)" fill="#d92a92"/>
          <path id="Path_17129" data-name="Path 17129" d="M324.563,414.326c-3.161-1.822-3.181-4.786-.039-6.607a12.559,12.559,0,0,1,11.393,0c3.151,1.822,3.171,4.776.039,6.588a12.559,12.559,0,0,1-11.393,0Z" transform="translate(-309.536 -399.105)" fill="#007"/>
        </g>
        <g id="Group_14843" data-name="Group 14843" transform="translate(404.343 189.487)">
          <path id="Path_17130" data-name="Path 17130" d="M474.9,211.656l-.256,359.48c-.02,4.648-3.082,9.276-9.187,12.821-12.25,7.1-32.2,7.08-44.568-.079-6.194-3.584-9.286-8.291-9.266-12.988l.256-359.48c-.02,4.7,3.072,9.4,9.266,12.988,12.368,7.159,32.318,7.179,44.568.079,6.115-3.545,9.168-8.173,9.187-12.821Z" transform="translate(-411.62 -193.29)" fill="url(#linear-gradient-2)"/>
          <path id="Path_17131" data-name="Path 17131" d="M421.155,224.176c-12.368-7.139-12.437-18.7-.148-25.839,12.24-7.11,32.19-7.11,44.568.03,12.319,7.11,12.388,18.67.148,25.79-12.289,7.139-32.24,7.139-44.568.03Z" transform="translate(-411.623 -193.009)" fill="#d92a92"/>
        </g>
        <g id="Group_14844" data-name="Group 14844" transform="translate(247.134 437.321)">
          <path id="Path_17132" data-name="Path 17132" d="M407,489.494l-77.1,44.814L252.29,489.5l77.1-44.814Z" transform="translate(-251.975 -444.69)" fill="#d92a92"/>
          <path id="Path_17133" data-name="Path 17133" d="M408.2,490.19l-.059,22.284a155.47,155.47,0,0,1-77.349,133.98h0L331.105,535l77.1-44.8Z" transform="translate(-253.175 -445.385)" fill="url(#linear-gradient-2)"/>
          <path id="Path_17134" data-name="Path 17134" d="M329.89,535l-.315,111.45-77.605-44.8.315-111.45Z" transform="translate(-251.97 -445.386)" fill="#007"/>
        </g>
        <path id="Path_17135" data-name="Path 17135" d="M316.733,494.778c-7.474-4.313-7.513-11.295-.089-15.618,7.4-4.293,19.448-4.293,26.922.02,7.444,4.293,7.484,11.285.089,15.578C336.23,499.071,324.177,499.071,316.733,494.778Z" transform="translate(-5.74 -7.846)" fill="#007"/>
        <g id="Group_14845" data-name="Group 14845" transform="translate(261.934 524.254)">
          <path id="Path_17136" data-name="Path 17136" d="M293.1,540.678,293,697.839c0,1.92-1.27,3.831-3.791,5.288-5.052,2.934-13.284,2.925-18.385-.03-2.56-1.477-3.831-3.427-3.821-5.357l.108-157.16c0,1.94,1.27,3.88,3.821,5.357,5.1,2.954,13.333,2.964,18.385.03C291.834,544.509,293.095,542.589,293.1,540.678Z" transform="translate(-267 -533.089)" fill="url(#linear-gradient-8)"/>
          <path id="Path_17137" data-name="Path 17137" d="M270.92,545.84c-5.1-2.944-5.13-7.72-.059-10.664s13.284-2.935,18.385.01c5.081,2.934,5.111,7.7.059,10.635-5.071,2.944-13.3,2.944-18.385.01Z" transform="translate(-267.001 -532.972)" fill="#d92a92"/>
        </g>
        <g id="Group_14846" data-name="Group 14846" transform="translate(299.383 604.477)">
          <path id="Path_17138" data-name="Path 17138" d="M322.243,619.519l-.069,103.562c0,1.26-.837,2.521-2.5,3.486a13.382,13.382,0,0,1-12.122-.02c-1.684-.975-2.521-2.255-2.521-3.535L305.1,619.45c0,1.28.837,2.56,2.521,3.535a13.353,13.353,0,0,0,12.122.02C321.406,622.04,322.233,620.779,322.243,619.519Z" transform="translate(-305.03 -614.517)" fill="url(#linear-gradient-9)"/>
          <path id="Path_17139" data-name="Path 17139" d="M307.631,622.918c-3.368-1.94-3.378-5.081-.039-7.031a13.412,13.412,0,0,1,12.122,0c3.348,1.93,3.368,5.081.039,7.011a13.353,13.353,0,0,1-12.122,0Z" transform="translate(-305.031 -614.44)" fill="#d92a92"/>
        </g>
      </g>
    </g>
  </g>
</svg>
