<svg xmlns="http://www.w3.org/2000/svg" xmlns:xlink="http://www.w3.org/1999/xlink" width="608.545" height="545.276" viewBox="0 0 608.545 545.276">
  <defs>
    <linearGradient id="linear-gradient" x1="0.028" y1="0.498" x2="1.027" y2="0.498" gradientUnits="objectBoundingBox">
      <stop offset="0" stop-color="#007"/>
      <stop offset="0.99" stop-color="#3b93d2"/>
    </linearGradient>
    <linearGradient id="linear-gradient-2" y1="0.5" x2="1" y2="0.5" gradientUnits="objectBoundingBox">
      <stop offset="0" stop-color="#007"/>
      <stop offset="0.69" stop-color="#3b93d2"/>
    </linearGradient>
    <linearGradient id="linear-gradient-3" x1="0.115" y1="0.489" x2="1.114" y2="0.489" xlink:href="#linear-gradient"/>
    <linearGradient id="linear-gradient-4" x1="0.05" y1="0.487" x2="1.05" y2="0.487" xlink:href="#linear-gradient"/>
    <linearGradient id="linear-gradient-5" x1="0.154" y1="0.457" x2="1.154" y2="0.457" xlink:href="#linear-gradient"/>
  </defs>
  <g id="vector-marketplace" transform="translate(-0.003)">
    <g id="c">
      <g id="Group_14955" data-name="Group 14955">
        <g id="Group_14944" data-name="Group 14944">
          <path id="Path_20899" data-name="Path 20899" d="M482.54,244.95l-.46,131.1c-.03,8.53-5.66,17.05-16.88,23.55-22.5,13.04-59.15,13-81.86-.14-11.38-6.59-17.06-15.24-17.03-23.87l.46-131.1c-.03,8.63,5.65,17.28,17.03,23.87,22.71,13.15,59.36,13.19,81.86.14,11.22-6.51,16.85-15.02,16.88-23.55Z" fill="url(#linear-gradient)"/>
          <path id="Path_20900" data-name="Path 20900" d="M383.81,268.46c-22.73-13.12-22.85-34.35-.27-47.47,22.49-13.07,59.14-13.07,81.86.05,22.63,13.07,22.75,34.3.27,47.36-22.58,13.12-59.23,13.12-81.86.05Z" fill="#d92a92"/>
        </g>
        <path id="Path_20901" data-name="Path 20901" d="M135.49,380.13l-13.35,7.76-13.43-7.76,13.34-7.75Z" fill="#fff"/>
        <path id="Path_20902" data-name="Path 20902" d="M28.55,467.84l-13.73,7.98L1,467.84l13.73-7.98Z" fill="none" stroke="#fff" stroke-width="1"/>
        <path id="Path_20903" data-name="Path 20903" d="M607.55,342.12l-13.73,7.98L580,342.12l13.73-7.98Z" fill="none" stroke="#fff" stroke-width="1"/>
        <g id="Group_14945" data-name="Group 14945">
          <path id="Path_20904" data-name="Path 20904" d="M280.86,64.59l-13.01,7.56-13.09-7.56,13.01-7.56Z" fill="#d92a92"/>
          <path id="Path_20905" data-name="Path 20905" d="M280.86,64.59l-.05,18.8L267.8,90.95l.05-18.8Z" fill="#3b93d2"/>
          <path id="Path_20906" data-name="Path 20906" d="M267.85,72.15l-.05,18.8-13.09-7.56.05-18.8Z" fill="#007"/>
        </g>
        <g id="Group_14946" data-name="Group 14946">
          <path id="Path_20907" data-name="Path 20907" d="M289.78,185.21,267.8,197.98l-22.13-12.77,21.98-12.78Z" fill="#d92a92"/>
          <path id="Path_20908" data-name="Path 20908" d="M289.78,185.21l-.09,31.78-21.98,12.77.09-31.78Z" fill="#3b93d2"/>
          <path id="Path_20909" data-name="Path 20909" d="M267.8,197.98l-.09,31.78-22.13-12.77.09-31.78Z" fill="#007"/>
        </g>
        <g id="Group_14947" data-name="Group 14947">
          <path id="Path_20910" data-name="Path 20910" d="M289.78,115.57,267.8,128.35l-22.13-12.78,21.98-12.78Z" fill="#d92a92"/>
          <path id="Path_20911" data-name="Path 20911" d="M289.78,115.57l-.09,31.78-21.98,12.78.09-31.78Z" fill="#3b93d2"/>
          <path id="Path_20912" data-name="Path 20912" d="M267.8,128.35l-.09,31.78-22.13-12.78.09-31.78Z" fill="#007"/>
        </g>
        <g id="Group_14948" data-name="Group 14948">
          <path id="Path_20913" data-name="Path 20913" d="M301.44,395.31c-20.91,12.15-54.98,12.15-76.02,0-10.59-6.11-15.88-14.15-15.85-22.17l-.31,109.66c-.02,8.02,5.27,16.06,15.85,22.17,21.04,12.15,55.12,12.15,76.02,0h0a76.57,76.57,0,0,0,38.1-65.98l.19-65.74-37.97,22.07Z" fill="url(#linear-gradient-2)"/>
          <path id="Path_20914" data-name="Path 20914" d="M339.41,373.24l-37.97,22.07c-20.91,12.15-54.98,12.15-76.02,0s-21.15-31.89-.25-44.03c20.99-12.2,55.06-12.2,76.11-.05" fill="#d92a92"/>
        </g>
        <path id="Path_20915" data-name="Path 20915" d="M101.78,196.17c-4.68-2.7-4.71-7.07-.06-9.78,4.63-2.69,12.18-2.69,16.86.01,4.66,2.69,4.69,7.06.05,9.75s-12.2,2.7-16.86.01Z" fill="none" stroke="#fff" stroke-width="1"/>
        <path id="Path_20916" data-name="Path 20916" d="M170.01,542.77c-4.68-2.7-4.71-7.07-.06-9.78,4.63-2.69,12.18-2.69,16.86.01,4.66,2.69,4.69,7.06.05,9.75s-12.2,2.7-16.86.01Z" fill="none" stroke="#fff" stroke-width="1"/>
        <g id="Group_14949" data-name="Group 14949">
          <path id="Path_20917" data-name="Path 20917" d="M502.49,72.93l-9.97,5.8-10.03-5.79,9.97-5.8Z" fill="none" stroke="#fff" stroke-width="1"/>
          <path id="Path_20918" data-name="Path 20918" d="M502.49,72.93l-.04,14.41-9.97,5.79.04-14.4Z" fill="none" stroke="#fff" stroke-width="1"/>
          <path id="Path_20919" data-name="Path 20919" d="M492.52,78.73l-.04,14.4-10.03-5.79.04-14.4Z" fill="none" stroke="#fff" stroke-width="1"/>
        </g>
        <g id="Group_14950" data-name="Group 14950">
          <path id="Path_20920" data-name="Path 20920" d="M394.02,16.04l-27.6,16.04L338.63,16.04,366.23,0Z" fill="#d92a92"/>
          <path id="Path_20921" data-name="Path 20921" d="M394.02,16.04l-.12,427.78-27.6,16.04.12-427.78Z" fill="#3b93d2"/>
          <path id="Path_20922" data-name="Path 20922" d="M366.42,32.08l-.12,427.78-27.78-16.04.11-427.78Z" fill="#007"/>
        </g>
        <g id="Group_14951" data-name="Group 14951">
          <path id="Path_20923" data-name="Path 20923" d="M297.82,259.6l-30.17,17.52L237.29,259.6l30.17-17.53Z" fill="#d92a92"/>
          <path id="Path_20924" data-name="Path 20924" d="M297.82,259.6l-.13,108.82-30.16,17.52.12-108.82Z" fill="#3b93d2"/>
          <path id="Path_20925" data-name="Path 20925" d="M267.65,277.12l-.12,108.82-30.36-17.52.12-108.82Z" fill="#007"/>
        </g>
        <g id="Group_14952" data-name="Group 14952">
          <path id="Path_20926" data-name="Path 20926" d="M441.37,156.58l-.11,27.06c0,1.96-1.3,3.91-3.87,5.4-5.16,2.99-13.57,2.98-18.78-.03-2.61-1.51-3.91-3.5-3.91-5.48l.11-27.06c0,1.98,1.3,3.96,3.91,5.48,5.21,3.02,13.62,3.03,18.78.03C440.08,160.49,441.37,158.53,441.37,156.58Z" fill="url(#linear-gradient-3)"/>
          <path id="Path_20927" data-name="Path 20927" d="M418.72,161.98c-5.21-3.01-5.24-7.88-.06-10.89,5.16-3,13.57-3,18.78.01,5.19,3,5.22,7.87.06,10.87-5.18,3.01-13.59,3.01-18.78.01Z" fill="#d92a92"/>
        </g>
        <g id="Group_14953" data-name="Group 14953">
          <path id="Path_20928" data-name="Path 20928" d="M482.11,475.9l-.27,11.67c-.02,4.94-3.28,9.88-9.78,13.65-13.04,7.56-34.27,7.53-47.43-.08-6.6-3.82-9.89-8.83-9.87-13.83l.27-11.67c-.02,5,3.27,10.01,9.87,13.83,13.16,7.62,34.4,7.64,47.43.08C478.83,485.78,482.09,480.85,482.11,475.9Z" fill="url(#linear-gradient-4)"/>
          <path id="Path_20929" data-name="Path 20929" d="M424.9,489.52c-13.17-7.6-13.24-19.9-.15-27.51,13.03-7.57,34.27-7.57,47.43.03,13.12,7.57,13.18,19.87.15,27.44-13.08,7.6-34.32,7.6-47.43.03Z" fill="#d92a92"/>
        </g>
        <g id="Group_14954" data-name="Group 14954">
          <path id="Path_20930" data-name="Path 20930" d="M437.95,150.81l-.08,3.42c0,1.45-.96,2.9-2.87,4.01a15.349,15.349,0,0,1-13.92-.02c-1.94-1.12-2.9-2.59-2.9-4.06l.08-3.42c0,1.47.96,2.94,2.9,4.06a15.318,15.318,0,0,0,13.92.02C436.99,153.71,437.95,152.27,437.95,150.81Z" fill="url(#linear-gradient-5)"/>
          <path id="Path_20931" data-name="Path 20931" d="M421.16,154.81c-3.86-2.23-3.89-5.84-.05-8.07a15.379,15.379,0,0,1,13.92,0c3.85,2.22,3.87,5.83.05,8.05a15.318,15.318,0,0,1-13.92,0Z" fill="#d92a92"/>
        </g>
        <path id="Path_20932" data-name="Path 20932" d="M419.5,242.92c-4.76-2.75-4.79-7.19-.06-9.94,4.71-2.74,12.39-2.74,17.15.01,4.74,2.74,4.77,7.18.06,9.92-4.73,2.75-12.41,2.75-17.15.01Z" fill="#007"/>
        <path id="Path_20933" data-name="Path 20933" d="M440.04,440.62c-4.68-2.7-4.71-7.07-.06-9.78,4.63-2.69,12.18-2.69,16.86.01,4.66,2.69,4.69,7.06.05,9.75s-12.2,2.7-16.86.01Z" fill="#fff"/>
        <path id="Path_20934" data-name="Path 20934" d="M440.04,479.58c-4.68-2.7-4.71-7.07-.06-9.78s12.18-2.69,16.86.01c4.66,2.69,4.69,7.06.05,9.75s-12.2,2.7-16.86.01Z" fill="#007"/>
      </g>
    </g>
  </g>
</svg>
