<svg xmlns="http://www.w3.org/2000/svg" xmlns:xlink="http://www.w3.org/1999/xlink" width="361.015" height="449.485" viewBox="0 0 361.015 449.485">
  <defs>
    <linearGradient id="linear-gradient" y1="0.5" x2="1" y2="0.5" gradientUnits="objectBoundingBox">
      <stop offset="0" stop-color="#007"/>
      <stop offset="0.99" stop-color="#3b93d2"/>
    </linearGradient>
  </defs>
  <g id="vector-faq" transform="translate(0 0.006)">
    <g id="c" transform="translate(0.5 0.494)">
      <g id="Group_14810" data-name="Group 14810">
        <path id="Path_16998" data-name="Path 16998" d="M349.471,395.874l-10.848,6.31-10.923-6.31,10.848-6.3Z" transform="translate(-103.758 -123.279)" fill="none" stroke="#fff" stroke-width="1"/>
        <g id="Group_14794" data-name="Group 14794" transform="translate(216.037 348.299)">
          <path id="Path_16999" data-name="Path 16999" d="M375.538,519.478l-41.8,34.536L316.26,543.926l41.8-34.536Z" transform="translate(-316.185 -509.39)" fill="#49abf2"/>
          <path id="Path_17000" data-name="Path 17000" d="M383.563,524.13l-.068,25.091-41.8,34.536.068-25.091Z" transform="translate(-324.21 -514.042)" fill="#3b93d2"/>
          <path id="Path_17001" data-name="Path 17001" d="M333.7,569.938l-.068,25.091-17.48-10.088.075-25.091Z" transform="translate(-316.15 -525.314)" fill="#007"/>
        </g>
        <g id="Group_14795" data-name="Group 14795" transform="translate(216.037 313.441)">
          <path id="Path_17002" data-name="Path 17002" d="M375.538,468.548l-41.8,34.529L316.26,492.989l41.8-34.529Z" transform="translate(-316.185 -458.46)" fill="#49abf2"/>
          <path id="Path_17003" data-name="Path 17003" d="M383.563,473.2l-.068,25.091-41.8,34.536.068-25.1Z" transform="translate(-324.21 -463.112)" fill="#3b93d2"/>
          <path id="Path_17004" data-name="Path 17004" d="M333.7,519l-.068,25.1-17.48-10.088.075-25.1Z" transform="translate(-316.15 -474.381)" fill="#007"/>
        </g>
        <g id="Group_14796" data-name="Group 14796" transform="translate(216.037 278.577)">
          <path id="Path_17005" data-name="Path 17005" d="M375.538,417.608l-41.8,34.536L316.26,442.056l41.8-34.536Z" transform="translate(-316.185 -407.52)" fill="#49abf2"/>
          <path id="Path_17006" data-name="Path 17006" d="M383.563,422.26l-.068,25.1-41.8,34.536.068-25.1Z" transform="translate(-324.21 -412.172)" fill="#3b93d2"/>
          <path id="Path_17007" data-name="Path 17007" d="M333.7,468.068l-.068,25.1-17.48-10.088.075-25.1Z" transform="translate(-316.15 -423.444)" fill="#007"/>
        </g>
        <g id="Group_14797" data-name="Group 14797" transform="translate(216.037 243.719)">
          <path id="Path_17008" data-name="Path 17008" d="M375.538,366.678l-41.8,34.536L316.26,391.126l41.8-34.536Z" transform="translate(-316.185 -356.59)" fill="#49abf2"/>
          <path id="Path_17009" data-name="Path 17009" d="M383.563,371.33l-.068,25.1-41.8,34.536.068-25.1Z" transform="translate(-324.21 -361.242)" fill="#3b93d2"/>
          <path id="Path_17010" data-name="Path 17010" d="M333.7,417.138l-.068,25.1-17.48-10.088.075-25.1Z" transform="translate(-316.15 -372.514)" fill="#007"/>
        </g>
        <g id="Group_14798" data-name="Group 14798" transform="translate(216.037 208.862)">
          <path id="Path_17011" data-name="Path 17011" d="M375.538,315.748l-41.8,34.536L316.26,340.2l41.8-34.536Z" transform="translate(-316.185 -305.66)" fill="#49abf2"/>
          <path id="Path_17012" data-name="Path 17012" d="M383.563,320.4l-.068,25.1-41.8,34.529.068-25.091Z" transform="translate(-324.21 -310.312)" fill="#3b93d2"/>
          <path id="Path_17013" data-name="Path 17013" d="M333.7,366.208,333.63,391.3l-17.48-10.088.075-25.091Z" transform="translate(-316.15 -321.584)" fill="#007"/>
        </g>
        <g id="Group_14799" data-name="Group 14799" transform="translate(216.037 174.004)">
          <path id="Path_17014" data-name="Path 17014" d="M375.538,264.818l-41.8,34.529L316.26,289.259l41.8-34.529Z" transform="translate(-316.185 -254.73)" fill="#49abf2"/>
          <path id="Path_17015" data-name="Path 17015" d="M383.563,269.47l-.068,25.091L341.69,329.1l.068-25.1Z" transform="translate(-324.21 -259.382)" fill="#3b93d2"/>
          <path id="Path_17016" data-name="Path 17016" d="M333.7,315.268l-.068,25.1-17.48-10.088.075-25.1Z" transform="translate(-316.15 -270.651)" fill="#007"/>
        </g>
        <g id="Group_14800" data-name="Group 14800" transform="translate(216.037 139.14)">
          <path id="Path_17017" data-name="Path 17017" d="M375.538,213.878l-41.8,34.536L316.26,238.326l41.8-34.536Z" transform="translate(-316.185 -203.79)" fill="#49abf2"/>
          <path id="Path_17018" data-name="Path 17018" d="M383.563,218.53l-.068,25.1-41.8,34.536.068-25.1Z" transform="translate(-324.21 -208.442)" fill="#3b93d2"/>
          <path id="Path_17019" data-name="Path 17019" d="M333.7,264.338l-.068,25.1-17.48-10.088.075-25.1Z" transform="translate(-316.15 -219.714)" fill="#007"/>
        </g>
        <g id="Group_14801" data-name="Group 14801" transform="translate(216.037 104.282)">
          <path id="Path_17020" data-name="Path 17020" d="M375.538,162.948l-41.8,34.536L316.26,187.4l41.8-34.536Z" transform="translate(-316.185 -152.86)" fill="#49abf2"/>
          <path id="Path_17021" data-name="Path 17021" d="M383.563,167.6l-.068,25.1-41.8,34.536.068-25.1Z" transform="translate(-324.21 -157.512)" fill="#3b93d2"/>
          <path id="Path_17022" data-name="Path 17022" d="M333.7,213.408l-.068,25.1-17.48-10.088.075-25.1Z" transform="translate(-316.15 -168.784)" fill="#007"/>
        </g>
        <g id="Group_14802" data-name="Group 14802" transform="translate(91.425 13.111)">
          <path id="Path_17023" data-name="Path 17023" d="M178.554,32.49l-22.1,12.847L134.21,32.49l22.1-12.84Z" transform="translate(-134.121 -19.65)" fill="#49abf2"/>
          <path id="Path_17024" data-name="Path 17024" d="M188.769,38.41l-.089,342.5-22.1,12.847.089-342.5Z" transform="translate(-144.336 -25.57)" fill="#3b93d2"/>
          <path id="Path_17025" data-name="Path 17025" d="M156.413,51.257l-.089,342.5L134.08,380.907l.089-342.5Z" transform="translate(-134.08 -25.57)" fill="#007"/>
        </g>
        <g id="Group_14803" data-name="Group 14803" transform="translate(84.451 158.078)">
          <path id="Path_17026" data-name="Path 17026" d="M240.143,265.024l-57.765,33.571L124.23,265.031,182,231.46Z" transform="translate(-123.997 -231.46)" fill="#49abf2"/>
          <path id="Path_17027" data-name="Path 17027" d="M266.845,280.5l-.233,208.413L208.84,522.483l.24-208.413Z" transform="translate(-150.699 -246.936)" fill="#3b93d2"/>
          <path id="Path_17028" data-name="Path 17028" d="M182.271,314.074l-.24,208.413L123.89,488.916l.233-208.406Z" transform="translate(-123.89 -246.939)" fill="#007"/>
        </g>
        <g id="Group_14804" data-name="Group 14804" transform="translate(127.665 126.793)">
          <path id="Path_17029" data-name="Path 17029" d="M217.392,194.511l-15.085,8.767-15.187-8.767L202.2,185.75Z" transform="translate(-187.058 -185.75)" fill="#49abf2"/>
          <path id="Path_17030" data-name="Path 17030" d="M224.366,198.55l-.062,54.418-15.085,8.767.062-54.418Z" transform="translate(-194.033 -189.789)" fill="#3b93d2"/>
          <path id="Path_17031" data-name="Path 17031" d="M202.279,207.317l-.062,54.418-15.187-8.767.062-54.418Z" transform="translate(-187.03 -189.789)" fill="#007"/>
        </g>
        <path id="Path_17032" data-name="Path 17032" d="M214.14,142.784l-9.8,5.7-9.869-5.7,9.808-5.694Z" transform="translate(-61.713 -43.601)" fill="#fff"/>
        <path id="Path_17033" data-name="Path 17033" d="M439.98,569.521c-3.627-2.094-3.648-5.489-.041-7.583a14.4,14.4,0,0,1,13.079.007c3.614,2.087,3.634,5.475.041,7.563a14.42,14.42,0,0,1-13.079.007Z" transform="translate(-138.328 -177.18)" fill="#fff"/>
        <path id="Path_17034" data-name="Path 17034" d="M53.97,649.571c-3.627-2.094-3.648-5.489-.041-7.583a14.4,14.4,0,0,1,13.079.007c3.614,2.087,3.634,5.475.041,7.563a14.42,14.42,0,0,1-13.079.007Z" transform="translate(-16.511 -202.442)" fill="#fff"/>
        <g id="Group_14805" data-name="Group 14805" transform="translate(202.068)">
          <path id="Path_17035" data-name="Path 17035" d="M341.233,68.1l-.13,18.2c-.007,3.347-2.211,6.68-6.6,9.24-8.808,5.119-23.174,5.119-32.079-.021-4.462-2.58-6.694-5.961-6.68-9.342l.13-18.2c-.007,3.381,2.218,6.769,6.68,9.342,8.9,5.14,23.27,5.14,32.079.021C339.023,74.79,341.227,71.45,341.233,68.1Z" transform="translate(-295.74 -21.791)" fill="none" stroke="#fff" stroke-width="1"/>
          <path id="Path_17036" data-name="Path 17036" d="M302.636,71.3c-8.9-5.14-8.952-13.463-.1-18.6,8.809-5.119,23.174-5.119,32.079.021,8.87,5.119,8.918,13.442.1,18.561C325.866,76.423,311.507,76.423,302.636,71.3Z" transform="translate(-295.799 -15.758)" fill="none" stroke="#fff" stroke-width="1"/>
          <path id="Path_17037" data-name="Path 17037" d="M318.718,9.286c-3.491-2.012-3.5-5.27-.041-7.289A13.854,13.854,0,0,1,331.243,2c3.477,2.005,3.491,5.263.041,7.269a13.854,13.854,0,0,1-12.566.007Z" transform="translate(-302.162 -0.494)" fill="none" stroke="#fff" stroke-width="1"/>
          <path id="Path_17038" data-name="Path 17038" d="M318.718,69.336c-3.491-2.012-3.5-5.27-.041-7.289a13.854,13.854,0,0,1,12.566.007c3.477,2.005,3.491,5.263.041,7.269a13.854,13.854,0,0,1-12.566.007Z" transform="translate(-302.162 -19.444)" fill="none" stroke="#fff" stroke-width="1"/>
        </g>
        <g id="Group_14807" data-name="Group 14807" transform="translate(33.277 351.159)">
          <path id="Path_17039" data-name="Path 17039" d="M70.4,519.73,59.79,525.9,49.12,519.73l10.6-6.16Z" transform="translate(-49.12 -513.57)" fill="none" stroke="#fff" stroke-width="1"/>
          <g id="Group_14806" data-name="Group 14806" transform="translate(0 27.917)">
            <path id="Path_17040" data-name="Path 17040" d="M70.418,560.506l-10.581,6.153L49.18,560.506l10.581-6.146Z" transform="translate(-49.139 -554.36)" fill="none" stroke="#fff" stroke-width="1"/>
            <path id="Path_17041" data-name="Path 17041" d="M75.309,563.34l-.041,15.3L64.68,584.79l.048-15.3Z" transform="translate(-54.03 -557.194)" fill="none" stroke="#fff" stroke-width="1"/>
            <path id="Path_17042" data-name="Path 17042" d="M59.817,569.493l-.048,15.3-10.65-6.146.041-15.3Z" transform="translate(-49.12 -557.194)" fill="none" stroke="#fff" stroke-width="1"/>
          </g>
        </g>
        <g id="Group_14808" data-name="Group 14808" transform="translate(127.412 373.21)">
          <path id="Path_17043" data-name="Path 17043" d="M273.978,582.7l-.253,25.344c-.021,6.42-4.243,12.826-12.675,17.727-16.912,9.828-44.474,9.828-61.564-.041-8.569-4.948-12.847-11.443-12.826-17.932l.253-25.344c-.021,6.488,4.257,12.99,12.826,17.932,17.09,9.869,44.658,9.869,61.564.041,8.439-4.9,12.662-11.307,12.675-17.727Z" transform="translate(-186.66 -557.357)" fill="url(#linear-gradient)"/>
          <path id="Path_17044" data-name="Path 17044" d="M199.9,588.853c-17.09-9.869-17.179-25.837-.2-35.7,16.912-9.828,44.474-9.828,61.564.041,17.022,9.828,17.111,25.8.2,35.624-16.98,9.869-44.542,9.869-61.564.041Z" transform="translate(-186.776 -545.788)" fill="#49abf2"/>
          <path id="Path_17045" data-name="Path 17045" d="M230.765,585.072c-6.694-3.867-6.728-10.122-.082-13.983,6.625-3.846,17.418-3.853,24.119.014,6.666,3.853,6.7,10.1.075,13.955-6.653,3.867-17.446,3.867-24.119.014Z" transform="translate(-198.987 -552.862)" fill="#007"/>
        </g>
        <g id="Group_14809" data-name="Group 14809" transform="translate(318.618 208.745)">
          <path id="Path_17046" data-name="Path 17046" d="M483,310.39l-8.432,4.9-8.487-4.9,8.432-4.9Z" transform="translate(-466.046 -305.49)" fill="none" stroke="#fff" stroke-width="1"/>
          <path id="Path_17047" data-name="Path 17047" d="M486.9,312.65l-.034,12.19-8.432,4.9.034-12.19Z" transform="translate(-469.943 -307.75)" fill="none" stroke="#fff" stroke-width="1"/>
          <path id="Path_17048" data-name="Path 17048" d="M474.551,317.55l-.034,12.19-8.487-4.9.034-12.19Z" transform="translate(-466.03 -307.75)" fill="none" stroke="#fff" stroke-width="1"/>
        </g>
        <path id="Path_17049" data-name="Path 17049" d="M503.178,448.636c-3.491-2.012-3.5-5.27-.041-7.289a13.854,13.854,0,0,1,12.566.007c3.477,2.005,3.491,5.263.041,7.269a13.855,13.855,0,0,1-12.566.007Z" transform="translate(-158.306 -139.144)" fill="none" stroke="#fff" stroke-width="1"/>
        <path id="Path_17050" data-name="Path 17050" d="M3.128,263.366c-3.491-2.012-3.5-5.27-.041-7.289a13.854,13.854,0,0,1,12.566.007c3.477,2.005,3.491,5.263.041,7.269a13.854,13.854,0,0,1-12.566.007Z" transform="translate(-0.5 -80.676)" fill="none" stroke="#fff" stroke-width="1"/>
      </g>
    </g>
  </g>
</svg>
