<svg id="arrow-bubble-small" xmlns="http://www.w3.org/2000/svg" width="40" height="18" viewBox="0 0 40 18">
  <path id="Path_255" data-name="Path 255" d="M40,9a1,1,0,0,0-1-1h.012a1,1,0,0,1-1-1,1,1,0,0,0-1-1,1,1,0,0,1-1-1,1,1,0,0,0-1-1,1,1,0,0,1-1-1,1,1,0,0,0-1-1,1,1,0,0,1-1-1,1,1,0,1,0-1,1,1,1,0,0,1,1,1,1,1,0,0,0,1,1,1,1,0,0,1,1,1,1,1,0,0,0,1,1,1,1,0,0,1,0,2H1a1,1,0,0,0,0,2H35.012a1,1,0,0,1,0,2,1,1,0,0,0-1,1,1,1,0,0,1-1,1,1,1,0,0,0-1,1,1,1,0,0,1-1,1,1,1,0,1,0,1,1,1,1,0,0,1,1-1,1,1,0,0,0,1-1,1,1,0,0,1,1-1,1,1,0,0,0,1-1,1,1,0,0,1,1-1,1,1,0,0,0,1-1,1,1,0,0,1,1-1H39a1,1,0,0,0,1-1" fill="#d92a92"/>
</svg>
