<svg xmlns="http://www.w3.org/2000/svg" width="60" height="22" viewBox="0 0 60 22">
  <path id="Path_254" data-name="Path 254" d="M59,10a1,1,0,0,1-1-1,1,1,0,0,0-1-1,1,1,0,0,1-1-1,1,1,0,0,0-1-1,1,1,0,0,1-1-1,1,1,0,0,0-1-1,1,1,0,0,1-1-1,1,1,0,0,0-1-1,1,1,0,0,1-1-1,1,1,0,1,0-1,1,1,1,0,0,1,1,1,1,1,0,0,0,1,1,1,1,0,0,1,1,1,1,1,0,0,0,1,1,1,1,0,0,1,1,1,1,1,0,0,0,1,1,1,1,0,0,1,0,2H1a1,1,0,0,0,0,2H55a1,1,0,0,1,0,2,1,1,0,0,0-1,1,1,1,0,0,1-1,1,1,1,0,0,0-1,1,1,1,0,0,1-1,1,1,1,0,0,0-1,1,1,1,0,0,1-1,1,1,1,0,1,0,1,1,1,1,0,0,1,1-1,1,1,0,0,0,1-1,1,1,0,0,1,1-1,1,1,0,0,0,1-1,1,1,0,0,1,1-1,1,1,0,0,0,1-1,1,1,0,0,1,1-1,1,1,0,0,0,1-1,1,1,0,0,1,1-1,1,1,0,0,0,0-2" fill="#ffffff"/>
</svg>
