<svg xmlns="http://www.w3.org/2000/svg" width="92" height="92" viewBox="0 0 92 92">
  <g id="icon-sms-bg" transform="translate(0 0)">
    <g id="bg" transform="translate(0 0)" fill="none" stroke="#fff" stroke-width="2" opacity="0">
      <circle cx="46" cy="46" r="46" stroke="none"/>
      <circle cx="46" cy="46" r="45" fill="none"/>
    </g>
    <g id="icon-sms" transform="translate(19.999 19)">
      <g id="Group_15345" data-name="Group 15345">
        <path id="Path_17071_-_Outline" data-name="Path 17071 - Outline" d="M17.286,50.263a4.207,4.207,0,1,1,4.207-4.207A4.212,4.212,0,0,1,17.286,50.263Zm0-7.414a3.207,3.207,0,1,0,3.207,3.207A3.211,3.211,0,0,0,17.286,42.849Z" transform="translate(-0.741 -2.31)" fill="#f44044"/>
        <path id="Union_12" data-name="Union 12" d="M18378,10540.113a3,3,0,0,1-3-3V10491a3.006,3.006,0,0,1,3-3h27.2a3.009,3.009,0,0,1,3,3v8.686h16.4a2.894,2.894,0,0,1,2.895,2.886v16.075a2.9,2.9,0,0,1-2.895,2.891h-16.4v15.576a3.006,3.006,0,0,1-3,3Zm-1-49.114v46.113a1,1,0,0,0,1,1h27.2a1,1,0,0,0,1-1v-14.538l-7.168,6.209-.041-7.247h-2.752a2.894,2.894,0,0,1-2.891-2.891v-.532l-3.611,3.608-.709-.708,4.32-4.319v-3.686l-11.279,11.284-.7-.708,11.982-11.986v-3.155l-8.445,8.44-.707-.7,9.152-9.152v-4.458a2.893,2.893,0,0,1,2.891-2.886h9.961V10491a1,1,0,0,0-1-1H18378A1,1,0,0,0,18377,10491Zm18.35,11.571v16.075a.892.892,0,0,0,.889.893h4.74l.027,4.889,5.646-4.889h17.949a.89.89,0,0,0,.893-.893v-16.075a.888.888,0,0,0-.893-.883h-28.363A.89.89,0,0,0,18395.348,10502.57Zm-7.959,29.229a4.206,4.206,0,1,1,4.205,4.208A4.21,4.21,0,0,1,18387.389,10531.8Zm1,0a3.209,3.209,0,1,0,6.418,0,3.221,3.221,0,0,0-3.213-3.205A3.209,3.209,0,0,0,18388.389,10531.8Zm11.121-14.976v-2h21.617v2Zm0-5.055v-2h21.617v2Zm0-5.05v-2h21.617v2Zm-2.719-13.338h-10.4v-1h10.4v1Z" transform="translate(-18375.055 -10488.055)" fill="#f44044"/>
      </g>
    </g>
  </g>
</svg>
