<svg id="icon-bullet" xmlns="http://www.w3.org/2000/svg" width="8" height="14" viewBox="0 0 8 14">
  <path id="Path_275" data-name="Path 275" d="M7,6A1,1,0,0,1,6,5,1,1,0,0,0,5,4,1,1,0,0,1,4,3,1,1,0,0,0,3,2,1,1,0,0,1,2,1,1,1,0,1,0,1,2,1,1,0,0,1,2,3,1,1,0,0,0,3,4,1,1,0,0,1,4,5V4.71a1.915,1.915,0,0,0,.625,1.51,1,1,0,0,1,0,1.56A1.915,1.915,0,0,0,4,9.29V9a1,1,0,0,1-1,1,1,1,0,0,0-1,1,1,1,0,0,1-1,1,1,1,0,1,0,1,1,1,1,0,0,1,1-1,1,1,0,0,0,1-1,1,1,0,0,1,1-1A1,1,0,0,0,6,9,1,1,0,0,1,7,8,1,1,0,0,0,7,6" fill="#fff"/>
</svg>
