<svg id="icon-fast-bg" xmlns="http://www.w3.org/2000/svg" xmlns:xlink="http://www.w3.org/1999/xlink" width="92" height="92" viewBox="0 0 92 92">
  <defs>
    <clipPath id="clip-path">
      <rect id="Rectangle_82" data-name="Rectangle 82" width="68.5" height="66.5" fill="#f63"/>
    </clipPath>
  </defs>
  <path id="bg" d="M1,1H91V91H1ZM0,92H92V0H0Z" fill="#e6e6e6" opacity="0"/>
  <g id="icon-fast" transform="translate(12 12.75)">
    <g id="Group_158" data-name="Group 158" clip-path="url(#clip-path)">
      <path id="Path_217" data-name="Path 217" d="M56,36a18,18,0,0,0-36,0h2A16,16,0,1,1,38,52v2A18.021,18.021,0,0,0,56,36" fill="#f63"/>
      <path id="Path_218" data-name="Path 218" d="M26.5,2h23V5h2V0h-27V5h2Z" fill="#f63"/>
      <path id="Path_219" data-name="Path 219" d="M27.707,47.707l8.273-8.273A3.957,3.957,0,0,0,38,40a4,4,0,1,0-4-4,3.957,3.957,0,0,0,.566,2.02l-8.273,8.273Z" fill="#f63"/>
      <path id="Path_220" data-name="Path 220" d="M16,36.5v-1H9.518a28.332,28.332,0,0,1,4.584-15H11.747a30.3,30.3,0,0,0-4.23,15H0v1H16Z" fill="#f63"/>
      <path id="Path_221" data-name="Path 221" d="M47,6.857V4H45V6.32a30.163,30.163,0,0,0-14,.007V4H29V6.871A30.614,30.614,0,0,0,13.059,18.5H3v1H24.874v-1H15.542a28.467,28.467,0,1,1-6,19h-2A30.5,30.5,0,1,0,47,6.857" fill="#f63"/>
    </g>
  </g>
</svg>
