<svg xmlns="http://www.w3.org/2000/svg" width="92" height="92" viewBox="0 0 92 92">
  <g id="icon-seo-bg" transform="translate(0 0)">
    <g id="bg" transform="translate(0 0)" fill="none" stroke="#fff" stroke-width="2" opacity="0">
      <circle cx="46" cy="46" r="46" stroke="none"/>
      <circle cx="46" cy="46" r="45" fill="none"/>
    </g>
    <g id="icon-seo" transform="translate(21.001 21)">
      <g id="Group_14816" data-name="Group 14816">
        <g id="Group_15343" data-name="Group 15343">
          <path id="Path_17067" data-name="Path 17067" d="M10.691,22.361a.5.5,0,0,1-.5-.5,17.486,17.486,0,0,1,17.5-17.5.5.5,0,0,1,0,1,16.5,16.5,0,0,0-16.5,16.5A.5.5,0,0,1,10.691,22.361Z" fill="#f44044"/>
          <path id="Ellipse_24" data-name="Ellipse 24" d="M20.861-1A21.855,21.855,0,0,1,36.319,36.319,21.861,21.861,0,1,1,12.351.718,21.725,21.725,0,0,1,20.861-1Zm0,41.722A19.866,19.866,0,0,0,28.591,2.56a19.866,19.866,0,0,0-15.461,36.6A19.736,19.736,0,0,0,20.861,40.722Z" transform="translate(6.83 1)" fill="#f44044"/>
          <path id="Line_91" data-name="Line 91" d="M0,13a1,1,0,0,1-.707-.293,1,1,0,0,1,0-1.414l12-12a1,1,0,0,1,1.414,0,1,1,0,0,1,0,1.414l-12,12A1,1,0,0,1,0,13Z" transform="translate(1 37.5)" fill="#f44044"/>
        </g>
      </g>
      <text id="_1" data-name="1" transform="translate(24.282 24.222)" fill="#f44044" font-size="11" font-family="Helvetica"><tspan x="0" y="0">1</tspan></text>
      <g id="Group_14818" data-name="Group 14818">
        <g id="Group_15344" data-name="Group 15344">
          <path id="Path_17068" data-name="Path 17068" d="M27.582,12.268a8.439,8.439,0,1,1-8.44,8.439A8.449,8.449,0,0,1,27.582,12.268Zm0,14.878a6.439,6.439,0,1,0-6.44-6.439A6.446,6.446,0,0,0,27.582,27.146Z" fill="#f44044"/>
          <path id="Path_17069" data-name="Path 17069" d="M31.675,37.235l-4.959-8.589,1.732-1,2.545,4.407.564-2.105,2.105.564-2.136-3.7,1.732-1,4.55,7.882-4.837-1.3Z" fill="#f44044"/>
          <path id="Path_17070" data-name="Path 17070" d="M23.708,37.235l-1.3-4.837-4.837,1.3,4.55-7.882,1.732,1-2.136,3.7,2.105-.564.564,2.105,2.545-4.407,1.732,1Z" fill="#f44044"/>
        </g>
      </g>
    </g>
  </g>
</svg>
