<svg xmlns="http://www.w3.org/2000/svg" width="36" height="36.105" viewBox="0 0 36 36.105">
  <g id="icon-footer-helpdesk-bg" transform="translate(-0.5 5.788)">
    <g id="bg" transform="translate(0.5 -5.734)" fill="#fff" stroke="#707070" stroke-width="1" opacity="0">
      <rect width="36" height="36" stroke="none"/>
      <rect x="0.5" y="0.5" width="35" height="35" fill="none"/>
    </g>
    <g id="icon-footer-helpdesk-bg-2" data-name="icon-footer-helpdesk-bg" transform="translate(2.5 -5.734)">
      <path id="Union_19" data-name="Union 19" d="M19103.018,7526.1a2.119,2.119,0,1,1,0-4.237h3.7a2.128,2.128,0,0,1,1.775.951,11.333,11.333,0,0,0,4.463-1.973,12.135,12.135,0,0,0,3.545-4.185c-.133.145-.271.287-.412.427a15.859,15.859,0,1,1,4.65-11.219,26.041,26.041,0,0,1-2.053,10.893,14.517,14.517,0,0,1-4.641,5.773,13.342,13.342,0,0,1-5.377,2.29,2.127,2.127,0,0,1-1.951,1.281ZM19091,7505.868a13.866,13.866,0,1,0,27.176-3.907l-9.344-.973a4.549,4.549,0,1,0-8.689-2.664,9.614,9.614,0,0,1-5.352,3.374l-3.377.779A14,14,0,0,0,19091,7505.868Zm4.061-9.808a13.866,13.866,0,0,0-2.881,4.189l2.16-.5a7.579,7.579,0,0,0,5.875-6.954A13.841,13.841,0,0,0,19095.063,7496.06Zm9.121.47a7.605,7.605,0,0,0,4.857,2.471l8.336.869a13.9,13.9,0,0,0-15.1-7.629A7.591,7.591,0,0,0,19104.184,7496.53Zm-4.27,16.416,1.414-1.416a5.008,5.008,0,0,0,7.078,0l1.416,1.416a7.013,7.013,0,0,1-9.908,0Zm3.953-3.306V7507.2h2v2.442Zm2.76-5.5a1.821,1.821,0,1,1,1.822,1.818A1.823,1.823,0,0,1,19106.627,7504.136Zm-7.213,0a1.818,1.818,0,1,1,1.818,1.818A1.818,1.818,0,0,1,19099.414,7504.136Z" transform="translate(-19089.053 -7490.053)" fill="#fff"/>
    </g>
  </g>
</svg>
