<svg xmlns="http://www.w3.org/2000/svg" xmlns:xlink="http://www.w3.org/1999/xlink" width="92" height="92" viewBox="0 0 92 92">
  <defs>
    <clipPath id="clip-path">
      <rect id="Rectangle_182" data-name="Rectangle 182" width="70" height="63.482" transform="translate(0 0)" fill="#fff"/>
    </clipPath>
  </defs>
  <g id="icon-backup-bg" transform="translate(0 -44)">
    <circle id="bg" cx="46" cy="46" r="46" transform="translate(0 44)" fill="#f63" opacity="0"/>
    <g id="icon-backup" transform="translate(0 58.259)">
      <path id="Path_338" data-name="Path 338" d="M34,0V19.348l-7.478-4.986-1.11,1.664L35,22.418l9.589-6.392-1.109-1.664L36,19.348V0Z" fill="#fff"/>
      <rect id="Rectangle_180" data-name="Rectangle 180" width="21.076" height="2" transform="translate(23.436 26.917)" fill="#fff"/>
      <rect id="Rectangle_181" data-name="Rectangle 181" width="2.21" height="2" transform="translate(46.518 26.917)" fill="#fff"/>
      <g id="Group_314" data-name="Group 314">
        <g id="Group_313" data-name="Group 313" clip-path="url(#clip-path)">
          <path id="Path_339" data-name="Path 339" d="M70,35.606A8.316,8.316,0,0,0,61.693,27.3H54.279a8.309,8.309,0,0,0-8.289-7.97h-.325v2h.325a6.306,6.306,0,1,1,0,12.612H24.071a6.306,6.306,0,1,1,0-12.612h.263v-2h-.263a8.31,8.31,0,0,0-8.29,7.97H8.305A8.314,8.314,0,0,0,0,35.606c0,.266.015.528.039.787H0V51.914A8.314,8.314,0,0,0,8.305,60.22h8.979v-.272a8.3,8.3,0,0,0,6.787,3.534H45.99a8.293,8.293,0,0,0,6.725-3.451v.189h8.978A8.316,8.316,0,0,0,70,51.914V36.393h-.04c.024-.259.04-.521.04-.787M8.305,29.3h7.459v5.588H7.671v2h8.093v4.8c0,.076.01.15.012.226H8.305a6.306,6.306,0,0,1,0-12.613M2,41a8.281,8.281,0,0,0,6.305,2.915h7.459v6.5H8.305A6.314,6.314,0,0,1,2,44.1ZM8.305,58.22A6.313,6.313,0,0,1,2,51.914V49.495A8.285,8.285,0,0,0,8.305,52.41h7.459v2.765a8.244,8.244,0,0,0,.586,3.045ZM52.3,55.175a6.314,6.314,0,0,1-6.307,6.307H24.071a6.314,6.314,0,0,1-6.307-6.307v-8.1a8.286,8.286,0,0,0,6.307,2.916H45.99A8.288,8.288,0,0,0,52.3,47.078Zm0-13.488a6.315,6.315,0,0,1-6.307,6.307H24.071a6.314,6.314,0,0,1-6.307-6.307v-8.66a8.286,8.286,0,0,0,6.307,2.915H45.99A8.287,8.287,0,0,0,52.3,33.027ZM68,51.914a6.314,6.314,0,0,1-6.307,6.306H53.711a8.264,8.264,0,0,0,.586-3.045V52.41h7.4A8.288,8.288,0,0,0,68,49.494ZM68,44.1a6.314,6.314,0,0,1-6.307,6.307H54.3v-6.5h7.4A8.291,8.291,0,0,0,68,41Zm-6.307-2.19H54.285c0-.076.012-.15.012-.226v-4.8h8.031v-2H54.3V29.3h7.4a6.306,6.306,0,1,1,0,12.613" fill="#fff"/>
        </g>
      </g>
    </g>
  </g>
</svg>
