<svg xmlns="http://www.w3.org/2000/svg" xmlns:xlink="http://www.w3.org/1999/xlink" width="92" height="92" viewBox="0 0 92 92">
  <defs>
    <clipPath id="clip-path">
      <rect id="Rectangle_89" data-name="Rectangle 89" width="76.697" height="45.5" fill="#f63"/>
    </clipPath>
  </defs>
  <g id="icon-flexible-bg" transform="translate(7.651 23.25)">
    <path id="bg" d="M1,1H91V91H1ZM0,92H92V0H0Z" transform="translate(-7.651 -23.25)" fill="#e6e6e6" opacity="0"/>
    <g id="icon-flexible" transform="translate(0.349)" clip-path="url(#clip-path)">
      <path id="Path_225" data-name="Path 225" d="M52.48,15.263a1.406,1.406,0,1,0,1.406,1.406,1.406,1.406,0,0,0-1.406-1.406" fill="#f63"/>
      <path id="Path_226" data-name="Path 226" d="M46.856,15.263a1.406,1.406,0,1,0,1.406,1.406,1.405,1.405,0,0,0-1.406-1.406" fill="#f63"/>
      <path id="Path_227" data-name="Path 227" d="M49.668,15.263a1.406,1.406,0,1,0-1.406-1.406,1.406,1.406,0,0,0,1.406,1.406" fill="#f63"/>
      <path id="Path_228" data-name="Path 228" d="M49.668,18.075a1.406,1.406,0,1,0,1.406,1.406,1.407,1.407,0,0,0-1.406-1.406" fill="#f63"/>
      <path id="Path_229" data-name="Path 229" d="M25.766,19.981a3.312,3.312,0,1,0-3.313-3.312,3.316,3.316,0,0,0,3.313,3.312m0-5.624a2.312,2.312,0,1,1-2.313,2.312,2.315,2.315,0,0,1,2.313-2.312" fill="#f63"/>
      <path id="Path_230" data-name="Path 230" d="M72.295,10.065l-.832.555,3.7,5.549H64.74l-.892-6.376a7.567,7.567,0,0,0-7.46-6.488h-.6A3.316,3.316,0,0,0,52.48,0H46.855a3.315,3.315,0,0,0-3.31,3.305H31.889A3.317,3.317,0,0,0,28.577,0H22.953a3.316,3.316,0,0,0-3.311,3.305H17.858A7.566,7.566,0,0,0,10.4,9.793l-.892,6.376H1.535l3.7-5.549L4.4,10.065,0,16.669l4.4,6.6.832-.555-3.7-5.55H16.854a8.936,8.936,0,1,0,0-1H11.526l.853-6.1A5.555,5.555,0,0,1,17.858,5.3h38.53a5.557,5.557,0,0,1,5.479,4.766l.854,6.1h-3.44a9.64,9.64,0,1,0,0,1H75.163l-3.7,5.55.832.555,4.4-6.6ZM25.766,8.733a7.937,7.937,0,1,1-7.937,7.936,7.944,7.944,0,0,1,7.937-7.936M46.855,1H52.48a2.314,2.314,0,0,1,2.311,2.305H44.545A2.314,2.314,0,0,1,46.855,1m-23.9,0h5.624a2.315,2.315,0,0,1,2.312,2.305H20.642A2.315,2.315,0,0,1,22.953,1M49.668,25.309a8.639,8.639,0,1,1,8.639-8.64,8.649,8.649,0,0,1-8.639,8.64" fill="#f63"/>
      <path id="Path_231" data-name="Path 231" d="M65.02,18.169H63L65.663,37.2a5.533,5.533,0,0,1-10.91,1.825l-1.94-9.954H21.433l-1.939,9.954A5.533,5.533,0,0,1,8.583,37.2l2.663-19.031H9.227L6.6,36.923a7.532,7.532,0,0,0,14.853,2.485l1.625-8.337H51.164l1.626,8.337a7.533,7.533,0,0,0,14.854-2.485Z" fill="#f63"/>
    </g>
  </g>
</svg>
