<svg id="icon-header-user" xmlns="http://www.w3.org/2000/svg" width="36" height="36" viewBox="0 0 36 36">
  <rect id="Rectangle_76" data-name="Rectangle 76" width="36" height="36" fill="#00009f" opacity="0"/>
  <g id="icon-user">
    <path id="Path_209" data-name="Path 209" d="M28.969,26.377,21.7,23.921a1.435,1.435,0,0,1-1.03-1.378V21.3A1.436,1.436,0,0,1,22.1,19.859h.358a2.871,2.871,0,0,0,2.872-2.871V6.783a2,2,0,0,0-2-2H12.667a2,2,0,0,0-2,2V16.988a2.871,2.871,0,0,0,2.872,2.871H13.9A1.436,1.436,0,0,1,15.333,21.3v1.248a1.435,1.435,0,0,1-1.03,1.378L7.031,26.377A1.436,1.436,0,0,0,6,27.753a3.464,3.464,0,0,0,3.464,3.465H26.536A3.464,3.464,0,0,0,30,27.753a1.436,1.436,0,0,0-1.031-1.376M15,12.783a1.917,1.917,0,1,1,2-1.915,1.96,1.96,0,0,1-2,1.915m4-1.915a2,2,0,1,1,2,1.915,1.96,1.96,0,0,1-2-1.915" fill="#fff"/>
  </g>
</svg>
