<svg xmlns="http://www.w3.org/2000/svg" width="92" height="92" viewBox="0 0 92 92">
  <g id="icon-sthrizoume-bg" transform="translate(281.499 14)">
    <path id="bg" d="M1,1H91V91H1ZM0,92H92V0H0Z" transform="translate(-281.499 -14)" fill="#e6e6e6" opacity="0"/>
    <g id="icon-sthrizoume" transform="translate(-266.5 -1)">
      <g id="Group_15347" data-name="Group 15347">
        <path id="Path_17079" data-name="Path 17079" d="M31,56A25.006,25.006,0,0,1,21.269,7.965a25.006,25.006,0,0,1,19.463,46.07A24.844,24.844,0,0,1,31,56ZM31,7a23.923,23.923,0,1,0,9.342,1.886A23.849,23.849,0,0,0,31,7Z" fill="#5492ce"/>
        <path id="Ellipse_26" data-name="Ellipse 26" d="M24.5-1a25.506,25.506,0,0,1,9.926,49A25.506,25.506,0,0,1,14.574,1,25.341,25.341,0,0,1,24.5-1Zm0,49A23.506,23.506,0,0,0,33.647,2.846,23.506,23.506,0,0,0,15.353,46.154,23.352,23.352,0,0,0,24.5,48Z" transform="translate(6.5 6.5)" fill="#5492ce"/>
        <path id="Path_17080" data-name="Path 17080" d="M58.5,40A3.5,3.5,0,0,1,55,36.5v-3A3.5,3.5,0,0,1,58.5,30h1.483a28.991,28.991,0,0,0-49.49-19.506A28.9,28.9,0,0,0,2.017,30H3.5A3.5,3.5,0,0,1,7,33.5v3a3.5,3.5,0,0,1-7,0V31A31.008,31.008,0,0,1,59.564,18.933,30.808,30.808,0,0,1,62,31v5.5A3.5,3.5,0,0,1,58.5,40Zm0-8A1.5,1.5,0,0,0,57,33.5v3a1.5,1.5,0,0,0,3,0V32ZM2,32v4.5a1.5,1.5,0,0,0,3,0v-3A1.5,1.5,0,0,0,3.5,32Z" fill="#5492ce"/>
        <path id="Path_17081" data-name="Path 17081" d="M34.8,63.7v-2A22.673,22.673,0,0,0,57.5,39h2A24.673,24.673,0,0,1,34.8,63.7Z" fill="#5492ce"/>
        <path id="Path_17082" data-name="Path 17082" d="M27.952,59.858h6.1a2.846,2.846,0,1,1,0,5.691h-6.1a2.846,2.846,0,0,1,0-5.691Zm6.1,3.691a.846.846,0,1,0,0-1.691h-6.1a.846.846,0,0,0,0,1.691Z" fill="#5492ce"/>
        <path id="Path_17083" data-name="Path 17083" d="M28.01,28.145a3,3,0,1,1-3-3,3,3,0,0,1,3,3" fill="#5492ce"/>
        <path id="Path_17084" data-name="Path 17084" d="M39.9,28.145a3,3,0,1,1-3-3,3,3,0,0,1,3,3" fill="#5492ce"/>
        <path id="Path_17085" data-name="Path 17085" d="M7.738,25,7.29,23.05l6.51-1.5A13.16,13.16,0,0,0,24.01,8.727V6.5h2V8.727A15.16,15.16,0,0,1,14.248,23.5Z" fill="#5492ce"/>
        <path id="Path_17086" data-name="Path 17086" d="M54.073,24.035,37.6,22.317A15.16,15.16,0,0,1,24.01,7.238h2a13.16,13.16,0,0,0,11.8,13.089l16.474,1.718Z" fill="#5492ce"/>
        <path id="Path_17087" data-name="Path 17087" d="M31,45.4a10.829,10.829,0,0,1-7.707-3.195l1.414-1.414a8.894,8.894,0,0,0,12.586,0l1.414,1.414A10.829,10.829,0,0,1,31,45.4Z" fill="#5492ce"/>
        <path id="Line_101" data-name="Line 101" d="M1,4.024H-1V0H1Z" transform="translate(31 33.193)" fill="#5492ce"/>
      </g>
    </g>
  </g>
</svg>
