<svg xmlns="http://www.w3.org/2000/svg" width="92.001" height="92" viewBox="0 0 92.001 92">
  <g id="icon-cookiebot-bg" transform="translate(0.001 -44)">
    <circle id="bg" cx="46" cy="46" r="46" transform="translate(0 44)" fill="#f63" opacity="0"/>
    <g id="icon-cookiebot" transform="translate(-0.001 52)">
      <g id="Group_15342" data-name="Group 15342">
        <path id="Path_17051" data-name="Path 17051" d="M32.39,9.469a26.727,26.727,0,1,1-10.435,2.107A26.642,26.642,0,0,1,32.39,9.469Zm0,51.618a24.727,24.727,0,1,0-9.656-1.949A24.652,24.652,0,0,0,32.39,61.087Z" fill="#fff"/>
        <path id="Path_17052" data-name="Path 17052" d="M32.391,48.609a7.8,7.8,0,0,1-7.8-7.795h2a5.8,5.8,0,0,0,11.591,0h2A7.8,7.8,0,0,1,32.391,48.609Z" fill="#fff"/>
        <path id="Path_17053" data-name="Path 17053" d="M43.1,29.537a3,3,0,1,1-3-3,3,3,0,0,1,3,3" fill="#fff"/>
        <path id="Path_17053_-_Outline" data-name="Path 17053 - Outline" d="M40.1,33.037a3.5,3.5,0,1,1,3.5-3.5A3.5,3.5,0,0,1,40.1,33.037Zm0-6a2.5,2.5,0,1,0,2.5,2.5A2.5,2.5,0,0,0,40.1,27.037Z" fill="#00009f"/>
        <path id="Path_17054" data-name="Path 17054" d="M27.683,29.537a3,3,0,1,1-3-3,3,3,0,0,1,3,3" fill="#fff"/>
        <path id="Path_17054_-_Outline" data-name="Path 17054 - Outline" d="M24.683,33.037a3.5,3.5,0,1,1,3.5-3.5A3.5,3.5,0,0,1,24.683,33.037Zm0-6a2.5,2.5,0,1,0,2.5,2.5A2.5,2.5,0,0,0,24.683,27.037Z" fill="#00009f"/>
        <path id="Path_17055" data-name="Path 17055" d="M21.1,48.83a1,1,0,1,1-1-1,1,1,0,0,1,1,1" fill="#fff"/>
        <path id="Path_17055_-_Outline" data-name="Path 17055 - Outline" d="M20.1,50.33a1.5,1.5,0,1,1,1.5-1.5A1.5,1.5,0,0,1,20.1,50.33Zm0-2a.5.5,0,1,0,.5.5A.5.5,0,0,0,20.1,48.33Z" fill="#00009f"/>
        <path id="Path_17056" data-name="Path 17056" d="M48.2,39.814a1,1,0,1,1-1-1,1,1,0,0,1,1,1" fill="#fff"/>
        <path id="Path_17056_-_Outline" data-name="Path 17056 - Outline" d="M47.2,41.314a1.5,1.5,0,1,1,1.5-1.5A1.5,1.5,0,0,1,47.2,41.314Zm0-2a.5.5,0,1,0,.5.5A.5.5,0,0,0,47.2,39.314Z" fill="#00009f"/>
        <path id="Path_17057" data-name="Path 17057" d="M42.2,53.814a1,1,0,1,1-1-1,1,1,0,0,1,1,1" fill="#fff"/>
        <path id="Path_17057_-_Outline" data-name="Path 17057 - Outline" d="M41.2,55.314a1.5,1.5,0,1,1,1.5-1.5A1.5,1.5,0,0,1,41.2,55.314Zm0-2a.5.5,0,1,0,.5.5A.5.5,0,0,0,41.2,53.314Z" fill="#00009f"/>
        <path id="Path_17058" data-name="Path 17058" d="M29.2,18.814a1,1,0,1,1-1-1,1,1,0,0,1,1,1" fill="#fff"/>
        <path id="Path_17058_-_Outline" data-name="Path 17058 - Outline" d="M28.2,20.314a1.5,1.5,0,1,1,1.5-1.5A1.5,1.5,0,0,1,28.2,20.314Zm0-2a.5.5,0,1,0,.5.5A.5.5,0,0,0,28.2,18.314Z" fill="#00009f"/>
        <path id="Path_17059" data-name="Path 17059" d="M33.39,35.814a1,1,0,1,1-1-1,1,1,0,0,1,1,1" fill="#fff"/>
        <path id="Path_17059_-_Outline" data-name="Path 17059 - Outline" d="M32.39,37.314a1.5,1.5,0,1,1,1.5-1.5A1.5,1.5,0,0,1,32.39,37.314Zm0-2a.5.5,0,1,0,.5.5A.5.5,0,0,0,32.39,35.314Z" fill="#00009f"/>
        <path id="Path_17060" data-name="Path 17060" d="M13.2,31.814a1,1,0,1,1-1-1,1,1,0,0,1,1,1" fill="#fff"/>
        <path id="Path_17060_-_Outline" data-name="Path 17060 - Outline" d="M12.2,33.314a1.5,1.5,0,1,1,1.5-1.5A1.5,1.5,0,0,1,12.2,33.314Zm0-2a.5.5,0,1,0,.5.5A.5.5,0,0,0,12.2,31.314Z" fill="#00009f"/>
        <path id="Path_17061" data-name="Path 17061" d="M43.2,20.814a1,1,0,1,1-1-1,1,1,0,0,1,1,1" fill="#fff"/>
        <path id="Path_17061_-_Outline" data-name="Path 17061 - Outline" d="M42.2,22.314a1.5,1.5,0,1,1,1.5-1.5A1.5,1.5,0,0,1,42.2,22.314Zm0-2a.5.5,0,1,0,.5.5A.5.5,0,0,0,42.2,20.314Z" fill="#00009f"/>
        <path id="Path_17062" data-name="Path 17062" d="M32.39,0a3.425,3.425,0,1,1-3.426,3.425A3.429,3.429,0,0,1,32.39,0Zm0,4.85a1.425,1.425,0,1,0-1.426-1.425A1.427,1.427,0,0,0,32.39,4.85Z" fill="#fff"/>
        <path id="Line_83" data-name="Line 83" d="M1,5.557H-1V0H1Z" transform="translate(32.39 5.402)" fill="#fff"/>
        <path id="Path_17063" data-name="Path 17063" d="M8,46.278H5a5.006,5.006,0,0,1-5-5v-10a5.006,5.006,0,0,1,5-5H8v2H5a3,3,0,0,0-3,3v10a3,3,0,0,0,3,3H8Z" fill="#fff"/>
        <path id="Path_17064" data-name="Path 17064" d="M59.908,46.278h-3v-2h3a3,3,0,0,0,3-3v-10a3,3,0,0,0-3-3h-3v-2h3a5.006,5.006,0,0,1,5,5v10A5.006,5.006,0,0,1,59.908,46.278Z" fill="#fff"/>
        <path id="Path_17065" data-name="Path 17065" d="M53.392,68.323h-2a5.242,5.242,0,0,0-5.236-5.236H18.625a5.242,5.242,0,0,0-5.236,5.236h-2a7.244,7.244,0,0,1,7.236-7.236H46.156A7.244,7.244,0,0,1,53.392,68.323Z" fill="#fff"/>
      </g>
    </g>
  </g>
</svg>
