<svg xmlns="http://www.w3.org/2000/svg" width="92" height="92" viewBox="0 0 92 92">
  <g id="icon-invoice-bg" transform="translate(144 18)">
    <path id="bg" d="M1,1H91V91H1ZM0,92H92V0H0Z" transform="translate(-144 -18)" fill="#e6e6e6" opacity="0"/>
    <g id="icon-invoice" transform="translate(-119.888 0.113)">
      <path id="Path_17313" data-name="Path 17313" d="M32.935,54.226H4.548A3.549,3.549,0,0,1,1,50.677V4.548A3.549,3.549,0,0,1,4.548,1H27.613l8.871,9.315V50.677a3.549,3.549,0,0,1-3.548,3.548" transform="translate(-0.113 -0.113)" fill="#fff"/>
      <path id="Path_17313_-_Outline" data-name="Path 17313 - Outline" d="M32.935,54.726H4.548A4.053,4.053,0,0,1,.5,50.677V4.548A4.053,4.053,0,0,1,4.548.5H27.827l9.157,9.615V50.677A4.053,4.053,0,0,1,32.935,54.726ZM4.548,1.5A3.052,3.052,0,0,0,1.5,4.548V50.677a3.052,3.052,0,0,0,3.048,3.048H32.935a3.052,3.052,0,0,0,3.048-3.048V10.515L27.4,1.5Z" transform="translate(-0.113 -0.113)" fill="#f63"/>
      <path id="Path_17314" data-name="Path 17314" d="M32.935,55.226H4.548A4.554,4.554,0,0,1,0,50.677V4.548A4.554,4.554,0,0,1,4.548,0H28.041l9.442,9.915V50.677A4.554,4.554,0,0,1,32.935,55.226ZM4.548,2A2.551,2.551,0,0,0,2,4.548V50.677a2.551,2.551,0,0,0,2.548,2.548H32.935a2.551,2.551,0,0,0,2.548-2.548V10.715L27.184,2Z" transform="translate(-0.113 -0.113)" fill="#f63"/>
      <path id="Path_17315" data-name="Path 17315" d="M39.871,10.871H34.548A4.554,4.554,0,0,1,30,6.323V1h2V6.323a2.551,2.551,0,0,0,2.548,2.548h5.323Z" transform="translate(-3.5 -0.113)" fill="#f63"/>
      <path id="Line_361" data-name="Line 361" d="M23.065,1H0V-1H23.065Z" transform="translate(7.098 15.523)" fill="#f63"/>
      <path id="Line_362" data-name="Line 362" d="M23.065,1H0V-1H23.065Z" transform="translate(7.098 22.621)" fill="#f63"/>
      <path id="Line_363" data-name="Line 363" d="M23.065,1H0V-1H23.065Z" transform="translate(7.098 29.719)" fill="#f63"/>
      <path id="Line_364" data-name="Line 364" d="M23.065,1H0V-1H23.065Z" transform="translate(7.098 36.814)" fill="#f63"/>
      <path id="Line_365" data-name="Line 365" d="M23.065,1H0V-1H23.065Z" transform="translate(7.098 43.912)" fill="#f63"/>
      <path id="Path_17316" data-name="Path 17316" d="M47.194,32.6a7.1,7.1,0,1,1-7.1-7.1,7.1,7.1,0,0,1,7.1,7.1" transform="translate(-3.727 -2.879)" fill="#fff"/>
      <path id="Path_17316_-_Outline" data-name="Path 17316 - Outline" d="M40.1,40.194a7.6,7.6,0,1,1,7.6-7.6A7.605,7.605,0,0,1,40.1,40.194ZM40.1,26a6.6,6.6,0,1,0,6.6,6.6A6.6,6.6,0,0,0,40.1,26Z" transform="translate(-3.727 -2.879)" fill="#f63"/>
      <path id="Ellipse_40" data-name="Ellipse 40" d="M7.1-1A8.1,8.1,0,1,1-1,7.1,8.106,8.106,0,0,1,7.1-1Zm0,14.194A6.1,6.1,0,1,0,1,7.1,6.1,6.1,0,0,0,7.1,13.194Z" transform="translate(29.273 22.621)" fill="#f63"/>
      <path id="Path_17317" data-name="Path 17317" d="M41.178,36.843a3.757,3.757,0,1,1,2.656-6.415l-.706.708a2.757,2.757,0,1,0,0,3.9l.706.708A3.739,3.739,0,0,1,41.178,36.843Z" transform="translate(-4.281 -3.367)" fill="#f63"/>
      <path id="Line_366" data-name="Line 366" d="M5,.5H0v-1H5Z" transform="translate(32.232 28.977)" fill="#f63"/>
      <path id="Line_367" data-name="Line 367" d="M5,.5H0v-1H5Z" transform="translate(32.232 30.68)" fill="#f63"/>
    </g>
  </g>
</svg>
