<svg xmlns="http://www.w3.org/2000/svg" width="36" height="36" viewBox="0 0 36 36">
  <g id="icon-footer-chat-bg" transform="translate(-0.5 5.736)">
    <g id="bg" transform="translate(0.5 -5.736)" fill="#fff" stroke="#707070" stroke-width="1" opacity="0">
      <rect width="36" height="36" stroke="none"/>
      <rect x="0.5" y="0.5" width="35" height="35" fill="none"/>
    </g>
    <g id="icon-footer-chat" transform="translate(1.5 -1.736)">
      <path id="Union_17" data-name="Union 17" d="M19090,7697.93c0-7.516,7.627-13.635,17-13.635s17,6.119,17,13.635a11.38,11.38,0,0,1-1.861,6.187.963.963,0,0,0-.082.816l1.094,3.288a2,2,0,0,1-2.846,2.4l-2.711-1.459a.941.941,0,0,0-.908-.02,19.992,19.992,0,0,1-9.686,2.424C19097.627,7711.561,19090,7705.446,19090,7697.93Zm2,0c0,6.412,6.725,11.629,15,11.629a17.913,17.913,0,0,0,8.711-2.174,2.94,2.94,0,0,1,2.832.009l2.713,1.459-1.1-3.292a2.924,2.924,0,0,1,.3-2.52,9.389,9.389,0,0,0,1.545-5.111c0-6.417-6.729-11.634-15-11.634S19092,7691.513,19092,7697.93Zm19.793-.36a2.5,2.5,0,1,1,2.5,2.5A2.5,2.5,0,0,1,19111.795,7697.57Zm-7.213,0a2.5,2.5,0,1,1,2.5,2.5A2.5,2.5,0,0,1,19104.582,7697.57Zm-7.219,0a2.5,2.5,0,1,1,2.5,2.5A2.505,2.505,0,0,1,19097.363,7697.57Z" transform="translate(-19090 -7684.297)" fill="#fff" stroke="rgba(0,0,0,0)" stroke-width="1"/>
    </g>
  </g>
</svg>
