<svg id="icon-header-tel" xmlns="http://www.w3.org/2000/svg" width="36" height="36" viewBox="0 0 36 36">
  <g id="icoons-phone-bg">
    <rect id="Rectangle_78" data-name="Rectangle 78" width="36" height="36" fill="#00009f" opacity="0"/>
    <g id="icoons-phone">
      <path id="Path_210" data-name="Path 210" d="M25.986,19.975a1.566,1.566,0,0,0-2.214,0l-.691.692-.933.933a1.567,1.567,0,0,1-1.915.234L16.78,19.753a1.545,1.545,0,0,1-.533-.533l-2.081-3.453a1.567,1.567,0,0,1,.234-1.915l.933-.933.692-.691a1.566,1.566,0,0,0,0-2.214l-1.66-1.66L12.9,6.893a1.565,1.565,0,0,0-2.38.2L8.831,9.461,6.726,12.408a1.565,1.565,0,0,0,.015,1.841l6.247,8.437a1.555,1.555,0,0,0,.327.326l8.436,6.247a1.565,1.565,0,0,0,1.841.015l2.947-2.1,2.371-1.693a1.565,1.565,0,0,0,.2-2.38l-1.461-1.461Z" fill="#fff"/>
      <path id="Path_211" data-name="Path 211" d="M25.211,17.036a.5.5,0,0,1-.5-.5,5.571,5.571,0,0,0-5.565-5.565.5.5,0,0,1,0-1,6.572,6.572,0,0,1,6.565,6.565A.5.5,0,0,1,25.211,17.036Z" fill="#fff"/>
      <path id="Path_212" data-name="Path 212" d="M27.168,17.036a.5.5,0,0,1-.5-.5,7.531,7.531,0,0,0-7.522-7.522.5.5,0,0,1,0-1,8.532,8.532,0,0,1,8.522,8.522A.5.5,0,0,1,27.168,17.036Z" fill="#fff"/>
      <path id="Path_213" data-name="Path 213" d="M29.124,17.036a.5.5,0,0,1-.5-.5,9.489,9.489,0,0,0-9.478-9.478.5.5,0,0,1,0-1A10.478,10.478,0,0,1,29.624,16.536.5.5,0,0,1,29.124,17.036Z" fill="#fff"/>
    </g>
  </g>
</svg>
