<svg xmlns="http://www.w3.org/2000/svg" width="81.435" height="100" viewBox="0 0 81.435 100">
  <g id="logo-myEasy" transform="translate(0 0)">
    <path id="Path_202" data-name="Path 202" d="M289.574,220.156a.925.925,0,0,1,.925.925v-.925Z" transform="translate(-216.468 -164.575)" fill="#999"/>
    <path id="Path_203" data-name="Path 203" d="M294.165,217.416a.925.925,0,0,1-.925-.925v.925Z" transform="translate(-219.208 -161.836)" fill="#999"/>
    <path id="Path_204" data-name="Path 204" d="M209.294,80.939h-5.552a.925.925,0,0,1-.925-.925V74.462a.925.925,0,0,0-.926-.926H176.9a.926.926,0,0,0-.926.926v5.552a.926.926,0,0,0,.926.926h24.986a.925.925,0,0,1,.926.926v5.552a.926.926,0,0,1-.926.926H173.2a.925.925,0,0,0-.925.926v12.955a.925.925,0,0,0,.925.926h5.552a.926.926,0,0,1,.926.926v5.552a.925.925,0,0,0,.925.926h22.21v-6.478a.925.925,0,0,1,.925-.926h5.552a.925.925,0,0,0,.925-.925V81.865a.925.925,0,0,0-.925-.926m-28.687,22.21a.925.925,0,0,1-.925-.926V96.671a.925.925,0,0,1,.925-.926h21.284a.926.926,0,0,1,.926.926v5.552a.926.926,0,0,1-.926.926Z" transform="translate(-128.784 -54.971)" fill="#f63"/>
    <path id="Path_205" data-name="Path 205" d="M80.509,110.553H74.032v21.284a.925.925,0,0,1-.925.926H48.121a.926.926,0,0,1-.926-.926V111.478a.925.925,0,0,0-.926-.925H40.717a.925.925,0,0,1-.926-.925v-5.553a.925.925,0,0,0-.926-.925H8.328a.925.925,0,0,1-.925-.925V96.672a.925.925,0,0,1,.925-.926H38.867a.926.926,0,0,0,.926-.925V81.866a.926.926,0,0,0-.926-.926H33.314a.926.926,0,0,1-.926-.925V74.463a.925.925,0,0,0-.925-.926H8.329a.925.925,0,0,0-.925.926v5.552a.926.926,0,0,1-.926.925H.926A.926.926,0,0,0,0,81.866v20.359a.926.926,0,0,0,.926.925H6.478a.926.926,0,0,1,.925.924v5.554a.925.925,0,0,1-.926.926H.926a.925.925,0,0,0-.926.925v12.956a.925.925,0,0,0,.926.926H27.762a.925.925,0,0,1,.926.925v5.552a.926.926,0,0,1-.926.926H.926a.925.925,0,0,0-.926.925v5.552a.925.925,0,0,0,.926.926H27.762a.926.926,0,0,0,.926-.926v-5.552a.925.925,0,0,1,.925-.925h5.552a.926.926,0,0,0,.926-.926V118.881a.925.925,0,0,0-.925-.925H8.329a.925.925,0,0,1-.926-.926v-5.552a.925.925,0,0,1,.926-.925H38.866a.925.925,0,0,1,.926.926v20.359a.926.926,0,0,0,.926.926H46.27a.925.925,0,0,1,.926.925v5.552a.925.925,0,0,0,.926.926H73.106a.925.925,0,0,1,.926.926v5.552a.925.925,0,0,1-.925.925H48.121a.926.926,0,0,0-.926.926v5.552a.925.925,0,0,0,.926.925H73.106a.925.925,0,0,0,.926-.925v-5.552a.925.925,0,0,1,.925-.926h5.552a.925.925,0,0,0,.925-.925V111.478a.925.925,0,0,0-.925-.925M7.4,81.866a.925.925,0,0,1,.925-.926H31.464a.925.925,0,0,1,.925.926v5.552a.925.925,0,0,1-.925.925H8.329a.925.925,0,0,1-.925-.925Z" transform="translate(0 -54.972)" fill="#f63"/>
    <path id="Path_206" data-name="Path 206" d="M.925,14.806H21.284a.925.925,0,0,0,.925-.925V.926A.925.925,0,0,0,21.284,0H.925A.925.925,0,0,0,0,.926V13.881a.925.925,0,0,0,.925.925" transform="translate(0 0)" fill="#00009f"/>
    <path id="Path_207" data-name="Path 207" d="M22.058,16.934H23.4l.812,2.664.28,1.023h.042l.274-1.023.818-2.664h1.345v6.829H25.9V21.008c0-.718.12-2.137.177-2.8h-.031L25.591,19.8l-.752,2.158h-.688L23.405,19.8l-.443-1.586h-.029c.07.662.177,2.081.177,2.8v2.755H22.058Z" transform="translate(-16.489 -12.659)" fill="#fff"/>
    <path id="Path_208" data-name="Path 208" d="M46.6,21.392l-2.244-4.458h1.294l.855,1.827c.23.529.451,1.036.7,1.579h.042c.241-.543.486-1.05.72-1.579l.835-1.827h1.259l-2.244,4.458v2.371H46.6Z" transform="translate(-33.157 -12.659)" fill="#fff"/>
  </g>
</svg>
