<svg xmlns="http://www.w3.org/2000/svg" width="45" height="30" viewBox="0 0 45 30">
  <path id="Icon_metro-cc-paypal" data-name="Icon metro-cc-paypal" d="M8.86,24.332H8.567q-.371,0-.371-.352a5.886,5.886,0,0,1,.371-1.66.59.59,0,0,1,.293-.381,1.367,1.367,0,0,1,.547-.088q1.5,0,1.5.957a1.256,1.256,0,0,1-.6,1.162,2.757,2.757,0,0,1-1.455.361Zm6.68,3.145q-.918,0-.918-.566,0-1.211,2.4-1.211l.059.059Q16.985,27.477,15.539,27.477Zm15.117-3.105h-.293A.328.328,0,0,1,29.992,24a5.886,5.886,0,0,1,.371-1.66.561.561,0,0,1,.283-.371,1.509,1.509,0,0,1,.557-.078q1.5,0,1.5.957a1.256,1.256,0,0,1-.6,1.162,2.757,2.757,0,0,1-1.455.361Zm6.68,3.125q-.918,0-.918-.586,0-1.211,2.4-1.211l.059.059q-.1,1.738-1.543,1.738ZM9.856,20.328h-2.5a.53.53,0,0,0-.283.078.476.476,0,0,0-.166.146L6.77,20.8q-.059.137-.879,3.711t-.82,3.75a.337.337,0,0,0,.107.244.358.358,0,0,0,.264.107H6.653q.488,0,.635-.674l.293-1.348.635-.674a9.391,9.391,0,0,0,1.709-.146,7.51,7.51,0,0,0,1.572-.479,2.737,2.737,0,0,0,1.24-1.025,2.921,2.921,0,0,0,.459-1.65,2.339,2.339,0,0,0-.283-1.191,1.673,1.673,0,0,0-.8-.713,4.144,4.144,0,0,0-1.045-.3,8.342,8.342,0,0,0-1.211-.078ZM16.614,22.2a8.777,8.777,0,0,0-1.445.117,1.423,1.423,0,0,0-.166.02q-.127.02-.176.029l-.146.029-.146.039-.127.059-.127.078-.1.1-.088.137-.078.176a3.262,3.262,0,0,0-.176.762q0,.2.176.2a1.944,1.944,0,0,0,.42-.1q.322-.1.381-.117a4.391,4.391,0,0,1,1.133-.156q1.445,0,1.445.7a.257.257,0,0,1-.2.273,2.468,2.468,0,0,1-.352.059q-.2.02-.42.029a3.045,3.045,0,0,0-.342.029,11.063,11.063,0,0,0-1.26.2,5.865,5.865,0,0,0-1.1.381,1.935,1.935,0,0,0-.889.762,2.309,2.309,0,0,0-.3,1.221,1.426,1.426,0,0,0,.508,1.162,1.9,1.9,0,0,0,1.25.42,3.055,3.055,0,0,0,.889-.127,3.3,3.3,0,0,0,.645-.254q.225-.127.752-.459a.736.736,0,0,0-.059.293.358.358,0,0,0,.107.264.337.337,0,0,0,.244.107h1.094a.6.6,0,0,1,.137-.068,1.134,1.134,0,0,0,.146-.068l.1-.068a.3.3,0,0,0,.1-.107.635.635,0,0,0,.049-.156l.879-3.789a2,2,0,0,0,.078-.586q0-1.582-2.832-1.582Zm10.312.1H25.481a.945.945,0,0,0-.762.449q-.1.137-.576,1t-.908,1.592a3.124,3.124,0,0,1-.508.752l-.1-.078a11.207,11.207,0,0,0-.527-3.242.425.425,0,0,0-.068-.166.714.714,0,0,0-.117-.127,1.345,1.345,0,0,0-.127-.1.446.446,0,0,0-.166-.059l-.166-.029q-.059-.01-.186-.02t-.176-.01h-.361q-.742,0-.742.41l.02.1q.1,1.035.488,2.949t.488,2.793a4.144,4.144,0,0,1,.039.469,2.6,2.6,0,0,1-.6,1.2,2.682,2.682,0,0,0-.6,1.143q0,.254.781.254,1.191,0,1.484-.488l4.785-8.105a1.615,1.615,0,0,0,.2-.508q0-.176-.156-.176Zm4.727-1.934h-2.52q-.352,0-.566.449-.117.254-.908,3.74t-.791,3.721q0,.391.84.391h.5l.186-.02.166-.039.166-.059.127-.088.107-.117.059-.166.41-1.777a.566.566,0,0,1,.205-.332.582.582,0,0,1,.381-.137,10.045,10.045,0,0,0,1.709-.137,6.808,6.808,0,0,0,1.572-.479,2.821,2.821,0,0,0,1.24-1.025,2.874,2.874,0,0,0,.459-1.641,2.339,2.339,0,0,0-.283-1.191,1.673,1.673,0,0,0-.8-.713,4.144,4.144,0,0,0-1.045-.3,8.342,8.342,0,0,0-1.211-.078ZM38.41,22.2a12.527,12.527,0,0,0-1.445.117,1.888,1.888,0,0,0-.938.313,1.157,1.157,0,0,0-.215.371,2.539,2.539,0,0,0-.156.762q0,.2.156.2.02,0,.8-.234a4.391,4.391,0,0,1,1.133-.156q1.445,0,1.445.7a.241.241,0,0,1-.2.273q-.078.02-1.113.137a11.064,11.064,0,0,0-1.26.2,5.865,5.865,0,0,0-1.1.381,1.935,1.935,0,0,0-.889.762,2.31,2.31,0,0,0-.3,1.221,1.4,1.4,0,0,0,.508,1.143,1.9,1.9,0,0,0,1.25.42,3.186,3.186,0,0,0,.879-.117,3.391,3.391,0,0,0,.664-.254q.254-.137.742-.469-.059.293-.059.313a.33.33,0,0,0,.039.166.263.263,0,0,0,.127.107l.156.068a.67.67,0,0,0,.205.039q.137.01.186.01h.342q.82,0,.938-.488l.879-3.789a3.081,3.081,0,0,0,.059-.605q0-1.582-2.832-1.582ZM44.7,20.426H43.625q-.488,0-.645.781-.2.859-.713,3.262t-.83,3.711v.1a.318.318,0,0,0,.313.352h1.133a.582.582,0,0,0,.361-.127.525.525,0,0,0,.205-.322l1.621-7.3h-.02l.02-.1a.337.337,0,0,0-.107-.244A.358.358,0,0,0,44.7,20.426Zm2.871-7.637v25a2.535,2.535,0,0,1-2.5,2.5h-40a2.4,2.4,0,0,1-1.758-.742,2.4,2.4,0,0,1-.742-1.758v-25a2.4,2.4,0,0,1,.742-1.758,2.4,2.4,0,0,1,1.758-.742h40a2.535,2.535,0,0,1,2.5,2.5Z" transform="translate(-2.571 -10.289)" fill="#fff"/>
</svg>
