<svg xmlns="http://www.w3.org/2000/svg" width="97.544" height="20.399" viewBox="0 0 97.544 20.399">
  <path id="Icon_payment-bitcoin" data-name="Icon payment-bitcoin" d="M23.439,33.719a9.519,9.519,0,0,1-4.56,6.209,9.94,9.94,0,0,1-7.665,1.164,9.5,9.5,0,0,1-6.4-4.657,10.206,10.206,0,0,1-1.164-7.761A9.44,9.44,0,0,1,8.3,22.464,10.242,10.242,0,0,1,16.066,21.3a9.461,9.461,0,0,1,6.209,4.657,10.236,10.236,0,0,1,1.164,7.761Zm-7.567-6.6.388-1.746L15.1,24.987l-.388,1.94a1.558,1.558,0,0,0-.97-.194l.582-1.94L13.155,24.6l-.388,1.746a1.114,1.114,0,0,1-.776-.194l-1.552-.388-.194,1.358.776.194c.258,0,.388.194.388.582l-.388,2.135-.775,2.91c0,.388-.194.455-.582.194l-.776-.194L8.3,34.3l1.552.388a1.137,1.137,0,0,1,.776.194l-.582,1.746,1.164.388.582-1.94a1.113,1.113,0,0,0,.776.194l-.388,1.941,1.164.194.388-1.746q3.1.582,3.881-1.552a1.91,1.91,0,0,0-.97-2.717,1.575,1.575,0,0,0,1.358-1.552c.125-1.164-.583-2.067-2.136-2.716Zm-1.941,4.656q1.936.582,1.552,1.552-.393,1.164-3.493.388l.776-2.329c.776.13,1.164.261,1.164.388Zm.582-3.687q1.746.582,1.358,1.552-.393,1.36-2.911.582l.582-2.329a5.64,5.64,0,0,0,.97.194Zm18.143-.873a1.55,1.55,0,0,1-.485.1,2.966,2.966,0,0,0-1.164.388l1.746-6.6-4.075.582L24.215,40.315a2.572,2.572,0,0,0,1.552.582,6.175,6.175,0,0,1,.776.1,1.535,1.535,0,0,1,.776.291h2.329a10.45,10.45,0,0,0,3.3-.582,8.893,8.893,0,0,0,2.717-1.941,9.529,9.529,0,0,0,1.746-2.717,8.354,8.354,0,0,0,.582-3.3,7.946,7.946,0,0,0-.194-2.135,3.418,3.418,0,0,0-.97-1.746A2.321,2.321,0,0,0,35.47,27.7a5.167,5.167,0,0,0-2.329-.582,1.748,1.748,0,0,0-.486.1Zm-3.2,10.963h-.776L30.231,31l1.164-.582h.97q1.164,0,1.358.582a3.75,3.75,0,0,1,.582,1.94,6.412,6.412,0,0,1-.388,1.941,8.712,8.712,0,0,1-.97,1.746,9.324,9.324,0,0,1-1.358,1.164,6.086,6.086,0,0,1-1.746.388h-.388Zm15.91-10.672H41.484l-3.1,13.583H42.26Zm-.388-1.939a4.517,4.517,0,0,0,.97-.582,3.037,3.037,0,0,0,.582-.776,1.512,1.512,0,0,1,.1-.485,1.622,1.622,0,0,0,.1-.485,1.853,1.853,0,0,0-.776-1.552,3.146,3.146,0,0,0-1.359-.388,1.541,1.541,0,0,0-.97.194.958.958,0,0,0-.485.194,3.166,3.166,0,0,0-.485.388,2.956,2.956,0,0,0-.582.776,1.616,1.616,0,0,1-.1.485,1.517,1.517,0,0,0-.1.485,1.839,1.839,0,0,0,.776,1.552,3.088,3.088,0,0,0,1.358.388,1.542,1.542,0,0,0,.969-.194Zm1.164,9.12a13.238,13.238,0,0,0-.194,2.523,4.1,4.1,0,0,0,.194,2.135A2.917,2.917,0,0,0,47.694,40.7a4.688,4.688,0,0,0,2.717.582,7.777,7.777,0,0,0,2.135-.194,5.625,5.625,0,0,0,.776-.1,1.48,1.48,0,0,0,.776-.291L53.9,37.6a2.953,2.953,0,0,1-1.164.388,2.706,2.706,0,0,1-1.164.194H50.8l-.388-.194-.582-.582a1.633,1.633,0,0,0-.1-.485,1.5,1.5,0,0,1-.1-.485,2.5,2.5,0,0,1,.1-.582,2.689,2.689,0,0,0,.1-.582l1.164-4.657h4.269l.776-3.1H51.769l.97-4.075-4.075.582L46.141,34.689Zm10.09,3.1a6.577,6.577,0,0,0,.97,1.941A18.507,18.507,0,0,0,59.142,40.9a5.832,5.832,0,0,0,2.717.388,6.788,6.788,0,0,0,1.941-.194,6.09,6.09,0,0,0,1.746-.388l-.388-3.1a.79.79,0,0,1-.582.194.79.79,0,0,0-.582.194,6.085,6.085,0,0,0-.776.1,5.629,5.629,0,0,1-.776.1A2.625,2.625,0,0,1,60.5,37.4a3.48,3.48,0,0,1-.582-2.135,6.8,6.8,0,0,1,.97-3.687,4.2,4.2,0,0,1,3.1-1.164h1.358a3.291,3.291,0,0,0,.97.388l1.358-2.911a15.508,15.508,0,0,0-1.552-.582,7.9,7.9,0,0,0-2.135-.194,9.316,9.316,0,0,0-3.3.582,14.959,14.959,0,0,0-2.717,1.941,10.129,10.129,0,0,0-1.552,2.717,9.327,9.327,0,0,0-.582,3.3,6.7,6.7,0,0,0,.388,2.136ZM76.217,40.51a8.529,8.529,0,0,0,2.329-1.94A6.633,6.633,0,0,0,79.9,35.852a9.966,9.966,0,0,0,.582-3.1,10.718,10.718,0,0,0-.388-2.329,8.717,8.717,0,0,0-.97-1.746,2.4,2.4,0,0,0-1.746-1.164,7.355,7.355,0,0,0-2.329-.388,6.564,6.564,0,0,0-3.3.776q-1.941,1.556-2.329,1.94a13,13,0,0,0-1.552,2.911,16.445,16.445,0,0,0-.388,3.1,4.1,4.1,0,0,0,.388,2.135,3.079,3.079,0,0,0,.97,1.746A3.5,3.5,0,0,0,70.4,40.9a5.356,5.356,0,0,0,2.329.388,6.978,6.978,0,0,0,3.493-.776Zm0-9.508a6.829,6.829,0,0,1,.388,2.135,5.134,5.134,0,0,1-.194,1.552l-.582,1.746L74.664,37.6a2.1,2.1,0,0,1-1.552.582,1.385,1.385,0,0,1-1.358-.776,3.044,3.044,0,0,1-.388-1.941,5.85,5.85,0,0,1,.194-1.746,4.7,4.7,0,0,1,.582-1.552,17.5,17.5,0,0,1,1.164-1.358,1.892,1.892,0,0,1,1.358-.388A1.75,1.75,0,0,1,76.217,31Zm11.642-3.493H83.978l-3.1,13.583H84.56Zm-.388-1.939a5.676,5.676,0,0,0,.776-.582c.388-.258.582-.515.582-.776a2.2,2.2,0,0,0,.194-.97,2.1,2.1,0,0,0-.582-1.552,3.145,3.145,0,0,0-1.358-.388,2.729,2.729,0,0,0-1.164.194l-.388.194c-.262.13-.388.261-.388.388a2.953,2.953,0,0,0-.582.776,2.153,2.153,0,0,0-.194.97,2.1,2.1,0,0,0,.582,1.552,6.218,6.218,0,0,0,1.552.388,2.17,2.17,0,0,0,.97-.194Zm0,15.522h3.881l2.523-10.478a4.074,4.074,0,0,1,1.552-.194,1.559,1.559,0,0,1,.97.194.762.762,0,0,1,.582.776v1.164a2.69,2.69,0,0,1-.1.582,3.061,3.061,0,0,0-.1.776L95.04,41.092h3.881l1.746-7.373q.582-3.3-.388-4.851-1.164-1.746-4.269-1.746a5.957,5.957,0,0,0-1.746.194,4.078,4.078,0,0,0-1.552.194,2.69,2.69,0,0,0-.582.1,2.573,2.573,0,0,1-.582.1,3.381,3.381,0,0,1-.97.388l-3.106,13Z" transform="translate(-3.342 -20.997)" fill="#fff"/>
</svg>
